<?xml version="1.0" standalone="no"?>
<!DOCTYPE svg PUBLIC "-//W3C//DTD SVG 1.1//EN" "http://www.w3.org/Graphics/SVG/1.1/DTD/svg11.dtd" >
<svg xmlns="http://www.w3.org/2000/svg" xmlns:xlink="http://www.w3.org/1999/xlink" version="1.1">
<metadata>
Created by FontForge 20170731 at Wed Jun 14 14:34:06 2023
 By Aleksey,,,
Copyright 2023 The Ysabeau Project Authors (https://github.com/CatharsisFonts/Ysabeau)
</metadata>
<defs>
<font id="YsabeauOffice-Bold" horiz-adv-x="0" >
  <font-face 
    font-family="Ysabeau Office"
    font-weight="700"
    font-stretch="normal"
    units-per-em="1000"
    panose-1="0 0 0 0 0 0 0 0 0 0"
    ascent="800"
    descent="-200"
    x-height="421"
    cap-height="658"
    bbox="-103 -309 1699 1056"
    underline-thickness="50"
    underline-position="-175"
    unicode-range="U+0020-FB02"
  />
<missing-glyph horiz-adv-x="527" 
d="M99 -289v1052h334v-1052h-334zM177 659h68v-40h-69v-34h175v34h-70v40h70v34h-174v-34zM176 448h175v36h-70v73h-105v-109zM211 484v37h34v-37h-34zM176 384h69v-38h-69v-35h105v73h70v35h-175v-35zM317 287h-141v-35h175v104h-34v-69zM245 168h36v26h36v-51h-106v84h-35
v-119h175v119h-106v-59zM176 -74h175v119h-175v-119zM211 -39v51h106v-51h-106zM176 -133h73l-73 -49v-35h175v35h-107l73 49h34v36h-175v-36z" />
    <glyph glyph-name="fi" unicode="fi" horiz-adv-x="602" 
d="M95 0v419q0 77 18.5 132t51 90.5t77.5 52.5t97 17q55 0 99 -19.5t85 -57.5l-85 -88q-34 44 -60.5 65t-58.5 21q-37 0 -61 -19t-35 -59t-11 -103v-451h-117zM505 342l-485 5l7 66l495 11zM406 0v379l116 45v-424h-116z" />
    <glyph glyph-name="fl" unicode="fl" horiz-adv-x="621" 
d="M95 0v419q0 97 38.5 162t101 97.5t134.5 32.5q47 0 82 -13t66 -30l-57 -86q-27 25 -54.5 37.5t-62.5 12.5q-69 0 -100 -43t-31 -138v-451h-117zM357 345l-337 2l7 66l337 8zM432 0v690l115 21v-711h-115z" />
    <glyph glyph-name="Aogonek_acutecomb.liga" unicode="&#x104;&#x301;" horiz-adv-x="676" 
d="M514 0l-207 592h49l-203 -592h-127l265 658h108l251 -658h-136zM143 186l36 99h284l53 -99h-373zM594 -289q-76 0 -117.5 37.5t-41.5 99.5q0 50 32 101t102 92l81 -41q-48 -25 -70.5 -57t-22.5 -67q0 -31 18.5 -56t61.5 -25q9 0 18.5 1.5t18.5 5.5l28 -61
q-24 -15 -49.5 -22.5t-58.5 -7.5zM287 731l65 176h139l-112 -176h-92z" />
    <glyph glyph-name="Eogonek_acutecomb.liga" unicode="&#x118;&#x301;" horiz-adv-x="579" 
d="M528 0h-433v658h399v-100h-277v-458h311v-100zM134 285v97h322v-97h-322zM472 -289q-76 0 -117.5 37.5t-41.5 99.5q0 52 41.5 106t134.5 97l39 -51q-48 -25 -70.5 -57t-22.5 -67q0 -31 18.5 -56t61.5 -25q9 0 18.5 1.5t18.5 5.5l28 -61q-24 -15 -49.5 -22.5t-58.5 -7.5z
M237 731l65 176h139l-112 -176h-92z" />
    <glyph glyph-name="IJ_acutecomb.liga" unicode="&#x132;&#x301;" horiz-adv-x="736" 
d="M212 280v-19q0 -55 19.5 -96t55.5 -63.5t84 -22.5q49 0 82 20.5t50.5 59.5t17.5 92v407h126v-375q0 -89 -36 -156t-102.5 -103.5t-157.5 -36.5q-78 0 -138.5 30.5t-94.5 88t-34 138.5v36h128zM84 397v261h130v-261h-130zM85 731l65 176h139l-112 -176h-92zM519 731
l65 176h139l-112 -176h-92z" />
    <glyph glyph-name="Iogonek_acutecomb.liga" unicode="&#x12e;&#x301;" horiz-adv-x="331" 
d="M100 0v658h131v-658h-131zM184 -289q-67 0 -105 36t-38 95q0 47 32 97t102 90l56 -29q-32 -27 -47.5 -60t-15.5 -71q0 -28 14 -51t45 -23q13 0 25.5 2.5t24.5 7.5l28 -61q-25 -16 -54 -24.5t-67 -8.5zM106 731l65 176h139l-112 -176h-92z" />
    <glyph glyph-name="J_acutecomb.liga" unicode="J&#x301;" horiz-adv-x="319" 
d="M103 62v596h126v-596q0 -70 -16 -117.5t-45.5 -78t-70 -49t-89.5 -30.5l-31 72q42 16 70 37.5t42 60t14 105.5zM107 731l65 176h139l-112 -176h-92z" />
    <glyph glyph-name="uni01EA0301.liga" unicode="&#x1ea;&#x301;" horiz-adv-x="787" 
d="M385 -13q-97 0 -172 43.5t-118 120t-43 173.5q0 80 28 144t77.5 109t113 69.5t134.5 24.5q96 0 170.5 -43.5t117 -119.5t42.5 -174q0 -80 -28 -144t-76.5 -109.5t-111.5 -69.5t-134 -24zM408 79q59 0 102 29t66 82t23 124q0 83 -29.5 142t-79 91t-110.5 32
q-56 0 -98.5 -28.5t-66 -81.5t-23.5 -125q0 -82 29.5 -141.5t78.5 -91.5t108 -32zM455 -289q-77 0 -118.5 40t-41.5 110q0 48 36 99t117 92l41 -31q-37 -27 -54.5 -61t-17.5 -72q0 -37 18.5 -65t61.5 -28q9 0 18.5 1.5t18.5 5.5l28 -61q-24 -15 -49.5 -22.5t-57.5 -7.5z
M346 731l65 176h139l-112 -176h-92z" />
    <glyph glyph-name="aogonek_acutecomb.liga" unicode="&#x105;&#x301;" horiz-adv-x="460" 
d="M374 2q-50 0 -76 29.5t-25 84.5l4 170q1 28 -3.5 43.5t-14.5 21.5t-26 6q-15 0 -31.5 -7.5t-28.5 -26t-16 -51.5l-111 13q4 30 22 56.5t47 47t66 32t79 11.5q59 0 89 -34t29 -96l-2 -207q0 -11 4.5 -16.5t14.5 -5.5t18.5 3t18.5 7l33 -51zM366 -289q-70 0 -109.5 34.5
t-39.5 89.5q0 59 51 115.5t164 102.5l33 -21q-70 -37 -103 -82.5t-33 -89.5q0 -32 17.5 -50.5t49.5 -18.5q16 0 28.5 4t23.5 11l29 -59q-25 -18 -50.5 -27t-60.5 -9zM153 -8q-55 0 -86 28.5t-31 72.5q0 27 11.5 50t41.5 41t85 30l163 36l5 -48l-141 -41q-31 -9 -40.5 -22.5
t-9.5 -26.5q0 -16 11.5 -26t30.5 -10q25 0 62 18t83 42l2 -39q-44 -43 -91 -74t-96 -31zM168 505l82 206h131l-129 -206h-84z" />
    <glyph glyph-name="eogonek_acutecomb.liga" unicode="&#x119;&#x301;" horiz-adv-x="463" 
d="M243 -13q-60 0 -107 24.5t-73.5 71.5t-26.5 113q0 71 30 124.5t81 83.5t115 30q81 0 122 -49t41 -132q0 -11 -0.5 -25.5t-2.5 -27.5h-98v55q0 47 -16 72t-57 25q-34 0 -58 -17.5t-37 -48.5t-13 -72q0 -65 34 -101.5t91 -36.5q31 0 60 11.5t56 33.5l39 -62
q-29 -28 -60 -44t-61.5 -22t-58.5 -6zM308 -289q-45 0 -78.5 16t-51.5 42.5t-18 55.5q0 40 17 76.5t56.5 72t107.5 72.5l82 13q-53 -51 -85.5 -86t-47.5 -62t-15 -53q0 -31 19 -49.5t51 -18.5q16 0 28 3.5t22 10.5l32 -58q-25 -17 -52.5 -26t-66.5 -9zM92 200l13 69h304v-69
h-317zM189 505l82 206h131l-129 -206h-84z" />
    <glyph glyph-name="ij_acutecomb.liga" unicode="&#x133;&#x301;" horiz-adv-x="548" 
d="M79 0v411l116 21v-432h-116zM80 505l82 206h131l-129 -206h-84zM353 0v411l116 21v-432q0 -122 -45.5 -193t-140.5 -96l-26 53q49 27 72.5 84t23.5 152zM354 505l82 206h131l-129 -206h-84z" />
    <glyph glyph-name="iogonek_acutecomb.liga" unicode="&#x12f;&#x301;" horiz-adv-x="274" 
d="M79 0v411l116 21v-432h-116zM148 -289q-63 0 -97.5 36t-34.5 95q0 50 32 102t102 95l45 -39q-32 -27 -47.5 -60t-15.5 -71q0 -28 14 -51t45 -23q13 0 25.5 2.5t24.5 7.5l28 -61q-25 -16 -54 -24.5t-67 -8.5zM80 505l82 206h131l-129 -206h-84z" />
    <glyph glyph-name="j_acutecomb.liga" unicode="j&#x301;" horiz-adv-x="274" 
d="M79 0v411l116 21v-432q0 -122 -45.5 -193t-140.5 -96l-26 53q49 27 72.5 84t23.5 152zM80 505l82 206h131l-129 -206h-84z" />
    <glyph glyph-name="uni01EB0301.liga" unicode="&#x1eb;&#x301;" horiz-adv-x="534" 
d="M258 -13q-64 0 -114.5 28t-79 77t-28.5 111q0 68 31.5 120t86 81.5t123.5 29.5q64 0 113.5 -27.5t78.5 -76t29 -111.5q0 -67 -31 -119.5t-85 -82.5t-124 -30zM275 67q35 0 57 20t32 52t10 67q0 48 -15.5 81t-41 50t-57.5 17q-34 0 -56.5 -19t-33 -50t-10.5 -68
q0 -48 15.5 -81.5t42 -51t57.5 -17.5zM309 -290q-74 0 -114.5 38t-40.5 98q0 53 35.5 103.5t114.5 90.5l40 -29q-40 -31 -57.5 -69t-17.5 -68q0 -40 22 -60t59 -20q11 0 20 1.5t18 5.5l28 -61q-23 -15 -49 -22.5t-58 -7.5zM220 505l82 206h131l-129 -206h-84z" />
    <glyph glyph-name="f_b.liga" unicode="fb" horiz-adv-x="908" 
d="M95 0v419q0 97 38.5 162t101 97.5t134.5 32.5q47 0 82 -13t66 -30l-57 -86q-27 25 -54.5 37.5t-62.5 12.5q-69 0 -100 -43t-31 -138v-451h-117zM357 345l-337 2l7 66l337 8zM612 -7q-58 0 -109 14.5t-71 37.5l115 58q20 -14 46 -21t54 -7q36 0 58 18.5t32 48t10 63.5
q0 47 -15 77.5t-41 46t-59 15.5q-35 0 -65 -17.5t-50 -49.5l-37 25q22 33 51 61.5t65.5 46.5t80.5 18q36 0 70.5 -12.5t63 -37.5t45 -62t16.5 -86q0 -59 -27.5 -113.5t-85 -89t-147.5 -34.5zM432 45v645l115 21v-608z" />
    <glyph glyph-name="f_f.liga" unicode="ff" horiz-adv-x="667" 
d="M95 0v398q0 99 34.5 161t92.5 91t126 29q53 0 91 -12.5t78 -43.5l-70 -67q-31 26 -56.5 35t-62.5 9q-60 0 -89 -41.5t-29 -129.5v-429h-115zM672 345l-652 2l7 66l652 8zM411 0v419q0 73 19.5 127.5t54 91t79.5 55t96 18.5q37 0 69 -9t60 -32l-53 -83q-26 23 -52.5 33
t-49.5 10q-28 0 -48.5 -10.5t-33.5 -32t-19.5 -55.5t-6.5 -81v-451h-115z" />
    <glyph glyph-name="f_f_b.liga" unicode="ffb" horiz-adv-x="1212" 
d="M95 0v398q0 99 34 161t92.5 91t132.5 29q47 0 86 -12.5t82 -43.5l-75 -67q-32 24 -59 33.5t-61 9.5q-61 0 -89 -41.5t-28 -128.5v-429h-115zM662 345l-642 2l7 66l642 8zM401 0v419q0 97 38 162t100 97.5t134 32.5q47 0 82 -13t66 -30l-57 -86q-27 25 -54.5 37.5
t-62.5 12.5q-69 0 -100 -43t-31 -138v-451h-115zM916 -7q-58 0 -109 14.5t-71 37.5l115 58q20 -14 46 -21t54 -7q36 0 58 18.5t32 48t10 63.5q0 47 -15 77.5t-41 46t-59 15.5q-35 0 -65 -17.5t-50 -49.5l-37 25q22 33 51 61.5t65.5 46.5t80.5 18q36 0 70.5 -12.5t63 -37.5
t45 -62t16.5 -86q0 -59 -27.5 -113.5t-85 -89t-147.5 -34.5zM736 45v645l115 21v-608z" />
    <glyph glyph-name="f_f_h.liga" unicode="ffh" horiz-adv-x="1207" 
d="M95 0v398q0 99 34 161t92.5 91t132.5 29q47 0 86 -12.5t82 -43.5l-75 -67q-32 24 -59 33.5t-61 9.5q-61 0 -89 -41.5t-28 -128.5v-429h-115zM662 345l-642 2l7 66l642 8zM401 0v419q0 97 38 162t100 97.5t134 32.5q47 0 82 -13t66 -30l-57 -86q-27 25 -54.5 37.5
t-62.5 12.5q-69 0 -100 -43t-31 -138v-451h-115zM1028 0v233q0 51 -22 80.5t-63 29.5q-22 0 -45.5 -8t-44 -23t-32.5 -37l-37 25q28 42 61.5 70.5t71 43t78.5 14.5q62 0 105.5 -40.5t43.5 -112.5v-275h-116zM736 0v690l115 21v-711h-115z" />
    <glyph glyph-name="f_f_i.liga" unicode="ffi" horiz-adv-x="911" 
d="M404 0v419q0 77 19 132t52.5 90.5t78 52.5t96.5 17q57 0 99.5 -19.5t82.5 -57.5l-74 -78q-36 44 -65.5 60t-61.5 16q-38 0 -62.5 -20t-36 -60t-11.5 -101v-451h-117zM95 0v398q0 99 36.5 161t99 91t139.5 29q47 0 85.5 -12.5t81.5 -43.5l-75 -69q-32 27 -58 36.5t-55 9.5
q-68 0 -102.5 -41t-34.5 -130v-429h-117zM814 342l-794 5l7 66l804 11zM716 0v379l115 45v-424h-115z" />
    <glyph glyph-name="f_f_j.liga" unicode="ffj" horiz-adv-x="895" 
d="M389 0v419q0 77 19 132t52.5 90.5t78 52.5t96.5 17q57 0 99.5 -19.5t82.5 -57.5l-74 -78q-36 44 -65.5 60t-61.5 16q-38 0 -62.5 -20t-36 -60t-11.5 -101v-451h-117zM95 0v398q0 99 34 161t93 91t133 29q47 0 85.5 -12.5t81.5 -43.5l-75 -69q-32 27 -58 36.5t-55 9.5
q-64 0 -93 -41t-29 -130v-429h-117zM631 -289l-26 53q49 27 72.5 84t23.5 152v379l115 45v-424q0 -122 -45 -193t-140 -96zM799 342l-779 5l7 66l789 11z" />
    <glyph glyph-name="f_f_k.liga" unicode="ffk" horiz-adv-x="1168" 
d="M95 0v398q0 99 34 161t92.5 91t132.5 29q47 0 86 -12.5t82 -43.5l-75 -67q-32 24 -59 33.5t-61 9.5q-61 0 -89 -41.5t-28 -128.5v-429h-115zM662 345l-642 2l7 66l642 8zM401 0v419q0 97 38 162t100 97.5t134 32.5q47 0 82 -13t66 -30l-57 -86q-27 25 -54.5 37.5
t-62.5 12.5q-69 0 -100 -43t-31 -138v-451h-115zM1013 0l-170 227l165 194h150l-236 -224v77l243 -274h-152zM736 0v690l115 21v-711h-115z" />
    <glyph glyph-name="f_f_l.liga" unicode="ffl" horiz-adv-x="925" 
d="M95 0v398q0 99 34 161t92.5 91t132.5 29q47 0 86 -12.5t82 -43.5l-75 -67q-32 24 -59 33.5t-61 9.5q-61 0 -89 -41.5t-28 -128.5v-429h-115zM662 345l-642 2l7 66l642 8zM401 0v419q0 97 38 162t100 97.5t134 32.5q47 0 82 -13t66 -30l-57 -86q-27 25 -54.5 37.5
t-62.5 12.5q-69 0 -100 -43t-31 -138v-451h-115zM736 0v690l115 21v-711h-115z" />
    <glyph glyph-name="f_f_thorn.liga" unicode="ff&#xfe;" horiz-adv-x="1200" 
d="M95 0v398q0 99 34 161t92.5 91t132.5 29q47 0 86 -12.5t82 -43.5l-75 -67q-32 24 -59 33.5t-61 9.5q-61 0 -89 -41.5t-28 -128.5v-429h-115zM662 345l-642 2l7 66l642 8zM401 0v419q0 97 38 162t100 97.5t134 32.5q47 0 82 -13t66 -30l-57 -86q-27 25 -54.5 37.5
t-62.5 12.5q-69 0 -100 -43t-31 -138v-451h-115zM947 -7q-55 0 -92.5 27.5t-53.5 76.5l28 35q17 -28 43 -42.5t56 -14.5q35 0 60 17t38.5 48t13.5 73q0 38 -11.5 69t-34 50t-54.5 19q-26 0 -56.5 -15t-53.5 -53l-40 21q34 63 77.5 93.5t103.5 30.5q59 0 102.5 -26.5
t67 -72.5t23.5 -105q0 -66 -29.5 -118t-78.5 -82.5t-109 -30.5zM725 -289v979l116 21v-979z" />
    <glyph glyph-name="f_f_t.liga" unicode="fft" horiz-adv-x="997" 
d="M95 0v398q0 99 35 161t93.5 91t129.5 29q57 0 95.5 -12.5t78.5 -43.5l-70 -67q-33 26 -61.5 35t-72.5 9q-58 0 -85.5 -41.5t-27.5 -129.5v-429h-115zM952 345l-932 2l7 66l932 8zM401 0v419q0 77 17.5 132t49 90.5t74 52.5t91.5 17q47 0 82.5 -14t69.5 -42l-75 -83
q-25 30 -48.5 42.5t-49.5 12.5q-33 0 -54 -18t-31.5 -57t-10.5 -101v-451h-115zM851 -7q-43 0 -77.5 18t-54 48.5t-19.5 69.5v262l21 104l95 21v-365q0 -36 16.5 -54t40.5 -18q16 0 32.5 9t32.5 25l54 -55q-35 -38 -72 -51.5t-69 -13.5z" />
    <glyph glyph-name="f_h.liga" unicode="fh" horiz-adv-x="903" 
d="M95 0v419q0 97 38.5 162t101 97.5t134.5 32.5q47 0 82 -13t66 -30l-57 -86q-27 25 -54.5 37.5t-62.5 12.5q-69 0 -100 -43t-31 -138v-451h-117zM357 345l-337 2l7 66l337 8zM724 0v233q0 51 -22 80.5t-63 29.5q-22 0 -45.5 -8t-44 -23t-32.5 -37l-37 25q28 42 61.5 70.5
t71 43t78.5 14.5q62 0 105.5 -40.5t43.5 -112.5v-275h-116zM432 0v690l115 21v-711h-115z" />
    <glyph glyph-name="f_j.liga" unicode="fj" horiz-adv-x="602" 
d="M95 0v419q0 77 18.5 132t51 90.5t77.5 52.5t97 17q55 0 99 -19.5t85 -57.5l-75 -79q-35 42 -66 59t-63 17q-37 0 -61 -19t-35 -58.5t-11 -102.5v-451h-117zM336 -289l-26 53q49 27 72.5 84t23.5 152v379l116 45v-424q0 -122 -45.5 -193t-140.5 -96zM505 342l-485 5l7 66
l495 11z" />
    <glyph glyph-name="f_k.liga" unicode="fk" horiz-adv-x="864" 
d="M95 0v419q0 97 38.5 162t101 97.5t134.5 32.5q47 0 82 -13t66 -30l-57 -86q-27 25 -54.5 37.5t-62.5 12.5q-69 0 -100 -43t-31 -138v-451h-117zM357 345l-337 2l7 66l337 8zM709 0l-170 227l165 194h150l-236 -224v77l243 -274h-152zM432 0v690l115 21v-711h-115z" />
    <glyph glyph-name="f_thorn.liga" unicode="f&#xfe;" horiz-adv-x="896" 
d="M95 0v419q0 97 38.5 162t101 97.5t134.5 32.5q47 0 82 -13t66 -30l-57 -86q-27 25 -54.5 37.5t-62.5 12.5q-69 0 -100 -43t-31 -138v-451h-117zM357 345l-337 2l7 66l337 8zM643 -7q-55 0 -92.5 27.5t-53.5 76.5l28 35q17 -28 43 -42.5t56 -14.5q35 0 60 17t38.5 48
t13.5 73q0 38 -11.5 69t-34 50t-54.5 19q-26 0 -56.5 -15t-53.5 -53l-40 21q34 63 77.5 93.5t103.5 30.5q59 0 102.5 -26.5t67 -72.5t23.5 -105q0 -66 -29.5 -118t-78.5 -82.5t-109 -30.5zM421 -289v979l116 21v-979z" />
    <glyph glyph-name="f_t.liga" unicode="ft" horiz-adv-x="700" 
d="M95 0v419q0 77 17.5 132t49.5 90.5t75 52.5t95 17q46 0 84 -14t75 -42l-75 -78q-29 30 -55 42.5t-53 12.5q-33 0 -54.5 -19t-31.5 -59t-10 -103v-451h-117zM657 345l-637 2l7 66l637 8zM547 -7q-38 0 -70.5 15.5t-52 46t-19.5 74.5v272l42 109l74 16v-375q0 -38 17 -55
t42 -17q17 0 36.5 5.5t38.5 17.5l32 -49q-30 -31 -67 -45.5t-73 -14.5z" />
    <glyph glyph-name="longs_b.liga" unicode="&#x17f;b" horiz-adv-x="879" 
d="M76 0v419q0 97 38.5 162t101 97.5t134.5 32.5q44 0 76.5 -11.5t61.5 -26.5l-57 -86q-25 23 -50 34t-57 11q-69 0 -100 -43t-31 -138v-451h-117zM583 -7q-58 0 -109 14.5t-71 37.5l115 58q20 -14 46 -21t54 -7q36 0 58 18.5t32 48t10 63.5q0 47 -15 77.5t-41 46t-59 15.5
q-35 0 -65 -17.5t-50 -49.5l-37 25q22 33 51 61.5t65.5 46.5t80.5 18q36 0 70.5 -12.5t63 -37.5t45 -62t16.5 -86q0 -59 -27.5 -113.5t-85 -89t-147.5 -34.5zM403 45v645l115 21v-608z" />
    <glyph glyph-name="longs_h.liga" unicode="&#x17f;h" horiz-adv-x="874" 
d="M76 0v419q0 97 38.5 162t101 97.5t134.5 32.5q44 0 76.5 -11.5t61.5 -26.5l-57 -86q-25 23 -50 34t-57 11q-69 0 -100 -43t-31 -138v-451h-117zM695 0v233q0 51 -22 80.5t-63 29.5q-22 0 -45.5 -8t-44 -23t-32.5 -37l-37 25q28 42 61.5 70.5t71 43t78.5 14.5
q62 0 105.5 -40.5t43.5 -112.5v-275h-116zM403 0v690l115 21v-711h-115z" />
    <glyph glyph-name="longs_i.liga" unicode="&#x17f;i" horiz-adv-x="581" 
d="M76 0v419q0 77 19 132t53.5 90.5t80 52.5t97.5 17q58 0 97.5 -19.5t79.5 -57.5l-75 -80q-34 45 -61.5 61.5t-59.5 16.5q-39 0 -64.5 -20t-37.5 -60t-12 -101v-451h-117zM383 0v411l116 21v-432h-116z" />
    <glyph glyph-name="longs_j.liga" unicode="&#x17f;j" horiz-adv-x="581" 
d="M76 0v419q0 77 19 132t53.5 90.5t80 52.5t97.5 17q58 0 97.5 -19.5t79.5 -57.5l-75 -80q-34 45 -61.5 61.5t-59.5 16.5q-39 0 -64.5 -20t-37.5 -60t-12 -101v-451h-117zM314 -289l-27 53q50 27 73 84t23 152v411l116 21v-432q0 -122 -45 -193t-140 -96z" />
    <glyph glyph-name="longs_k.liga" unicode="&#x17f;k" horiz-adv-x="835" 
d="M76 0v419q0 97 38.5 162t101 97.5t134.5 32.5q44 0 76.5 -11.5t61.5 -26.5l-57 -86q-25 23 -50 34t-57 11q-69 0 -100 -43t-31 -138v-451h-117zM680 0l-170 227l165 194h150l-236 -224v77l243 -274h-152zM403 0v690l115 21v-711h-115z" />
    <glyph glyph-name="longs_l.liga" unicode="&#x17f;l" horiz-adv-x="592" 
d="M76 0v419q0 97 38.5 162t101 97.5t134.5 32.5q44 0 76.5 -11.5t61.5 -26.5l-57 -86q-25 23 -50 34t-57 11q-69 0 -100 -43t-31 -138v-451h-117zM403 0v690l115 21v-711h-115z" />
    <glyph glyph-name="longs_thorn.liga" unicode="&#x17f;&#xfe;" horiz-adv-x="867" 
d="M76 0v419q0 97 38.5 162t101 97.5t134.5 32.5q44 0 76.5 -11.5t61.5 -26.5l-57 -86q-25 23 -50 34t-57 11q-69 0 -100 -43t-31 -138v-451h-117zM614 -7q-55 0 -92.5 27.5t-53.5 76.5l28 35q17 -28 43 -42.5t56 -14.5q35 0 60 17t38.5 48t13.5 73q0 38 -11.5 69t-34 50
t-54.5 19q-26 0 -56.5 -15t-53.5 -53l-40 21q34 63 77.5 93.5t103.5 30.5q59 0 102.5 -26.5t67 -72.5t23.5 -105q0 -66 -29.5 -118t-78.5 -82.5t-109 -30.5zM392 -289v979l116 21v-979z" />
    <glyph glyph-name="longs_longs.liga" unicode="&#x17f;&#x17f;" horiz-adv-x="581" 
d="M76 0v398q0 99 32.5 161t89.5 91t131 29q43 0 82.5 -11t82.5 -37l-66 -76q-33 24 -61.5 34.5t-60.5 10.5q-60 0 -86.5 -40t-26.5 -131v-429h-117zM371 0v419q0 77 18.5 132.5t51 90.5t75 52t90.5 17q40 0 68.5 -11t59.5 -33l-55 -88q-30 28 -51.5 39.5t-46.5 11.5
q-32 0 -52.5 -18.5t-30.5 -58t-10 -102.5v-451h-117z" />
    <glyph glyph-name="longs_longs_b.liga" unicode="&#x17f;&#x17f;b" horiz-adv-x="1174" 
d="M76 0v398q0 99 32.5 161t89.5 91t131 29q43 0 82.5 -11t82.5 -37l-66 -76q-33 24 -61.5 34.5t-60.5 10.5q-60 0 -86.5 -40t-26.5 -131v-429h-117zM878 -7q-58 0 -109 14.5t-71 37.5l115 58q20 -14 46 -21t54 -7q36 0 58 18.5t32 48t10 63.5q0 47 -15 77.5t-41 46
t-59 15.5q-35 0 -65 -17.5t-50 -49.5l-37 25q22 33 51 61.5t65.5 46.5t80.5 18q36 0 70.5 -12.5t63 -37.5t45 -62t16.5 -86q0 -59 -27.5 -113.5t-85 -89t-147.5 -34.5zM698 45v645l115 21v-608zM371 0v419q0 97 38.5 162t101 97.5t134.5 32.5q44 0 76.5 -11.5t61.5 -26.5
l-57 -86q-25 23 -50 34t-57 11q-69 0 -100 -43t-31 -138v-451h-117z" />
    <glyph glyph-name="longs_longs_h.liga" unicode="&#x17f;&#x17f;h" horiz-adv-x="1169" 
d="M76 0v398q0 99 32.5 161t89.5 91t131 29q43 0 82.5 -11t82.5 -37l-66 -76q-33 24 -61.5 34.5t-60.5 10.5q-60 0 -86.5 -40t-26.5 -131v-429h-117zM990 0v233q0 51 -22 80.5t-63 29.5q-22 0 -45.5 -8t-44 -23t-32.5 -37l-37 25q28 42 61.5 70.5t71 43t78.5 14.5
q62 0 105.5 -40.5t43.5 -112.5v-275h-116zM698 0v690l115 21v-711h-115zM371 0v419q0 97 38.5 162t101 97.5t134.5 32.5q44 0 76.5 -11.5t61.5 -26.5l-57 -86q-25 23 -50 34t-57 11q-69 0 -100 -43t-31 -138v-451h-117z" />
    <glyph glyph-name="longs_longs_i.liga" unicode="&#x17f;&#x17f;i" horiz-adv-x="876" 
d="M76 0v398q0 99 32.5 161t89.5 91t131 29q43 0 82.5 -11t82.5 -37l-66 -76q-33 24 -61.5 34.5t-60.5 10.5q-60 0 -86.5 -40t-26.5 -131v-429h-117zM371 0v419q0 77 19 132t53.5 90.5t80 52.5t97.5 17q58 0 97.5 -19.5t79.5 -57.5l-75 -80q-34 45 -61.5 61.5t-59.5 16.5
q-39 0 -64.5 -20t-37.5 -60t-12 -101v-451h-117zM678 0v411l116 21v-432h-116z" />
    <glyph glyph-name="longs_longs_j.liga" unicode="&#x17f;&#x17f;j" horiz-adv-x="876" 
d="M76 0v398q0 99 32.5 161t89.5 91t131 29q43 0 82.5 -11t82.5 -37l-66 -76q-33 24 -61.5 34.5t-60.5 10.5q-60 0 -86.5 -40t-26.5 -131v-429h-117zM371 0v419q0 77 19 132t53.5 90.5t80 52.5t97.5 17q58 0 97.5 -19.5t79.5 -57.5l-75 -80q-34 45 -61.5 61.5t-59.5 16.5
q-39 0 -64.5 -20t-37.5 -60t-12 -101v-451h-117zM609 -289l-27 53q50 27 73 84t23 152v411l116 21v-432q0 -122 -45 -193t-140 -96z" />
    <glyph glyph-name="longs_longs_k.liga" unicode="&#x17f;&#x17f;k" horiz-adv-x="1130" 
d="M76 0v398q0 99 32.5 161t89.5 91t131 29q43 0 82.5 -11t82.5 -37l-66 -76q-33 24 -61.5 34.5t-60.5 10.5q-60 0 -86.5 -40t-26.5 -131v-429h-117zM975 0l-170 227l165 194h150l-236 -224v77l243 -274h-152zM698 0v690l115 21v-711h-115zM371 0v419q0 97 38.5 162
t101 97.5t134.5 32.5q44 0 76.5 -11.5t61.5 -26.5l-57 -86q-25 23 -50 34t-57 11q-69 0 -100 -43t-31 -138v-451h-117z" />
    <glyph glyph-name="longs_longs_l.liga" unicode="&#x17f;&#x17f;l" horiz-adv-x="887" 
d="M76 0v398q0 99 32.5 161t89.5 91t131 29q43 0 82.5 -11t82.5 -37l-66 -76q-33 24 -61.5 34.5t-60.5 10.5q-60 0 -86.5 -40t-26.5 -131v-429h-117zM698 0v690l115 21v-711h-115zM371 0v419q0 97 38.5 162t101 97.5t134.5 32.5q44 0 76.5 -11.5t61.5 -26.5l-57 -86
q-25 23 -50 34t-57 11q-69 0 -100 -43t-31 -138v-451h-117z" />
    <glyph glyph-name="longs_longs_thorn.liga" unicode="&#x17f;&#x17f;&#xfe;" horiz-adv-x="1162" 
d="M76 0v398q0 99 32.5 161t89.5 91t131 29q43 0 82.5 -11t82.5 -37l-66 -76q-33 24 -61.5 34.5t-60.5 10.5q-60 0 -86.5 -40t-26.5 -131v-429h-117zM909 -7q-55 0 -92.5 27.5t-53.5 76.5l28 35q17 -28 43 -42.5t56 -14.5q35 0 60 17t38.5 48t13.5 73q0 38 -11.5 69t-34 50
t-54.5 19q-26 0 -56.5 -15t-53.5 -53l-40 21q34 63 77.5 93.5t103.5 30.5q59 0 102.5 -26.5t67 -72.5t23.5 -105q0 -66 -29.5 -118t-78.5 -82.5t-109 -30.5zM687 -289v979l116 21v-979zM371 0v419q0 97 38.5 162t101 97.5t134.5 32.5q44 0 76.5 -11.5t61.5 -26.5l-57 -86
q-25 23 -50 34t-57 11q-69 0 -100 -43t-31 -138v-451h-117z" />
    <glyph glyph-name="Yi_Yicy.liga" unicode="&#x407;&#x407;" horiz-adv-x="662" 
d="M100 0v658h128l3 -658h-131zM90 731q-33 0 -53 19t-20 51t20 51.5t53 19.5q32 0 52 -19.5t20 -51.5t-20 -51t-52 -19zM431 0v658h128l3 -658h-131zM561 731q-33 0 -53 19t-20 51t20 51.5t53 19.5q32 0 52 -19.5t20 -51.5t-20 -51t-52 -19zM326 731q-33 0 -53 19t-20 51
t20 51.5t53 19.5q32 0 52 -19.5t20 -51.5t-20 -51t-52 -19z" />
    <glyph glyph-name="yi_yicy.liga" unicode="&#x457;&#x457;" horiz-adv-x="548" 
d="M353 0v411l116 21v-432h-116zM79 0v411l116 21v-432h-116zM77 513q-33 0 -53 19t-20 51t20 51.5t53 19.5q32 0 52 -19.5t20 -51.5t-20 -51t-52 -19zM271 513q-33 0 -53 19t-20 51t20 51.5t53 19.5q32 0 52 -19.5t20 -51.5t-20 -51t-52 -19zM471 513q-33 0 -53 19t-20 51
t20 51.5t53 19.5q32 0 52 -19.5t20 -51.5t-20 -51t-52 -19z" />
    <glyph glyph-name=".notdef" horiz-adv-x="527" 
d="M99 -289v1052h334v-1052h-334zM177 659h68v-40h-69v-34h175v34h-70v40h70v34h-174v-34zM176 448h175v36h-70v73h-105v-109zM211 484v37h34v-37h-34zM176 384h69v-38h-69v-35h105v73h70v35h-175v-35zM317 287h-141v-35h175v104h-34v-69zM245 168h36v26h36v-51h-106v84h-35
v-119h175v119h-106v-59zM176 -74h175v119h-175v-119zM211 -39v51h106v-51h-106zM176 -133h73l-73 -49v-35h175v35h-107l73 49h34v36h-175v-36z" />
    <glyph glyph-name=".null" 
 />
    <glyph glyph-name="nonmarkingreturn" horiz-adv-x="333" 
 />
    <glyph glyph-name="space" unicode=" " horiz-adv-x="246" 
 />
    <glyph glyph-name="exclam" unicode="!" horiz-adv-x="300" 
d="M106 232l-26 426h139l-24 -426h-89zM151 -7q-36 0 -57.5 21t-21.5 55q0 35 21.5 56t57.5 21q35 0 56 -21t21 -56q0 -34 -21 -55t-56 -21z" />
    <glyph glyph-name="quotedbl" unicode="&#x22;" horiz-adv-x="460" 
d="M98 315l-25 343h118l-26 -343h-67zM295 315l-25 343h118l-26 -343h-67z" />
    <glyph glyph-name="numbersign" unicode="#" horiz-adv-x="651" 
d="M392 -41l-93 25l170 600l92 -26zM42 114v85h520v-85h-520zM181 -62l-93 25l171 600l92 -26zM88 324v85h520v-85h-520z" />
    <glyph glyph-name="dollar" unicode="$" horiz-adv-x="527" 
d="M252 -13q-65 0 -120 19.5t-90 46.5l71 105q34 -35 78 -56.5t86 -21.5t69.5 21.5t27.5 60.5q0 28 -16.5 48.5t-43 36.5t-58.5 31t-64 32.5t-58.5 40.5t-43 54.5t-16.5 75.5q0 64 31 106t82 63t110 21q41 0 91.5 -11.5t89.5 -36.5l-61 -98q-31 26 -70.5 40t-71.5 14
q-33 0 -52 -12.5t-27 -30t-8 -34.5q0 -25 16.5 -44.5t43 -35.5t58.5 -32.5t64 -36t58.5 -44t43 -57.5t16.5 -78q0 -66 -34 -107.5t-87.5 -60.5t-114.5 -19zM238 -118v891h94v-891h-94z" />
    <glyph glyph-name="percent" unicode="%" horiz-adv-x="672" 
d="M122 -11l-57 47l484 587l55 -48zM176 343q-42 0 -74.5 18t-51.5 48.5t-19 69.5t18.5 69t51.5 47.5t74 17.5q42 0 74.5 -18t51 -48.5t18.5 -69.5q0 -38 -18.5 -68.5t-50.5 -48t-74 -17.5zM176 416q26 0 42.5 17.5t16.5 43.5q0 27 -17 45t-43 18q-25 0 -42.5 -17.5
t-17.5 -43.5q0 -27 17.5 -45t43.5 -18zM496 265q42 0 75 -18t51.5 -48.5t18.5 -69.5q0 -38 -18.5 -68.5t-51 -48t-74.5 -17.5t-74.5 18t-51 48.5t-18.5 69.5t18.5 69t51 47.5t73.5 17.5zM496 192q-25 0 -42 -17.5t-17 -43.5q0 -27 17.5 -45t42.5 -18q26 0 43 17.5t17 43.5
q0 27 -17.5 45t-43.5 18z" />
    <glyph glyph-name="ampersand" unicode="&#x26;" horiz-adv-x="697" 
d="M261 -7q-57 0 -102 19.5t-71 57t-26 91.5q0 52 22.5 90.5t58 68.5t75.5 55t75.5 49t58 50t22.5 58q0 25 -14.5 39.5t-42.5 14.5q-37 0 -57 -23.5t-20 -58.5q0 -23 9 -44t29 -47.5t52 -69.5q30 -40 69 -78t84 -72t94.5 -62t100.5 -48l-37 -93q-57 21 -111.5 50
t-105.5 66.5t-97.5 81.5t-85.5 93q-58 74 -85 124.5t-27 96.5q0 47 25 85t71 60.5t107 22.5q26 0 53 -5.5t50 -19t37.5 -37.5t14.5 -62q0 -47 -22.5 -83t-58 -64.5t-75 -53.5t-75 -49.5t-58 -53t-22.5 -64.5q0 -42 32.5 -66.5t82.5 -24.5q45 0 88 21.5t77 60t54 89.5t20 109
h98q0 -73 -29.5 -140.5t-80.5 -120t-117 -83t-140 -30.5z" />
    <glyph glyph-name="quotesingle" unicode="'" horiz-adv-x="263" 
d="M98 315l-25 343h118l-26 -343h-67z" />
    <glyph glyph-name="parenleft" unicode="(" horiz-adv-x="382" 
d="M316 -223q-79 38 -138.5 108t-92 162.5t-32.5 194.5q0 104 32.5 196.5t92 163.5t138.5 109l35 -50q-62 -46 -102.5 -107t-60.5 -138.5t-20 -173.5q0 -95 20 -171.5t60.5 -136.5t102.5 -107z" />
    <glyph glyph-name="parenright" unicode=")" horiz-adv-x="382" 
d="M66 -223l-35 50q62 47 102.5 107t60.5 136.5t20 171.5q0 96 -20 173.5t-60.5 138.5t-102.5 107l35 50q80 -38 139 -109t91.5 -163.5t32.5 -196.5q0 -102 -32.5 -194.5t-91.5 -162.5t-139 -108z" />
    <glyph glyph-name="asterisk" unicode="*" horiz-adv-x="472" 
d="M279 327l-48 159l-85 -131l-88 76l135 94l-151 40l46 108l128 -98l-7 153l116 -10l-53 -151l145 54l26 -114l-164 4l99 -123z" />
    <glyph glyph-name="plus" unicode="+" horiz-adv-x="550" 
d="M42 187v86h466v-86h-466zM318 0h-86v462h86v-462z" />
    <glyph glyph-name="comma" unicode="," horiz-adv-x="277" 
d="M108 -199l-50 29q18 28 27 62.5t9 68.5q0 35 -9 64t-27 45l103 51q26 -21 38.5 -50.5t12.5 -63.5q0 -40 -12.5 -80t-36 -73t-55.5 -53z" />
    <glyph glyph-name="hyphen.ss02" unicode="-" horiz-adv-x="381" 
d="M35 182l1 97h310l-1 -97h-310z" />
    <glyph glyph-name="period" unicode="." horiz-adv-x="260" 
d="M131 -7q-36 0 -57.5 21t-21.5 55q0 35 21.5 56t57.5 21q35 0 56 -21t21 -56q0 -34 -21 -55t-56 -21z" />
    <glyph glyph-name="slash" unicode="/" horiz-adv-x="391" 
d="M115 -222l-93 22l246 911l91 -24z" />
    <glyph glyph-name="zero.tf" unicode="0" horiz-adv-x="517" 
d="M251 -7q-66 0 -114.5 40.5t-74.5 114t-26 171.5q0 104 29 181.5t81 121t120 43.5q67 0 115 -40.5t74 -113.5t26 -171q0 -105 -29 -183t-81 -121t-120 -43zM265 92q30 0 50.5 28t31.5 78.5t11 117.5q0 76 -13.5 132t-37.5 87t-55 31q-29 0 -50 -28t-32 -78t-11 -117
q0 -76 13.5 -132.5t37.5 -87.5t55 -31z" />
    <glyph glyph-name="one.tf" unicode="1" horiz-adv-x="517" 
d="M260 0v555l90 10l-230 -150l-61 91l260 152h58v-658h-117z" />
    <glyph glyph-name="two.tf" unicode="2" horiz-adv-x="517" 
d="M45 60q57 61 109 115.5t92 104t63 95.5t23 91t-24.5 72.5t-68.5 27.5q-28 0 -56.5 -18t-50.5 -65l-86 41q39 78 96 109.5t121 31.5q63 0 104 -24.5t60.5 -64.5t19.5 -88q0 -71 -39 -144t-103 -145t-138 -143l15 46h284v-102h-403z" />
    <glyph glyph-name="three.tf" unicode="3" horiz-adv-x="517" 
d="M360 182q0 55 -40.5 88.5t-129.5 33.5v70q50 0 83 14.5t50 40t17 57.5q0 41 -24.5 65t-67.5 24q-34 0 -64 -19.5t-47 -57.5l-83 29q18 43 49.5 74t74 47.5t92.5 16.5q56 0 99 -20t67.5 -57t24.5 -88q0 -52 -28 -91.5t-83 -61.5t-136 -22v46q86 0 145.5 -22.5t90.5 -63
t31 -94.5q0 -46 -21.5 -82.5t-56.5 -62t-76.5 -38.5t-81.5 -13q-41 0 -83 14t-77.5 44.5t-55.5 78.5l93 57q20 -51 58.5 -74.5t83.5 -23.5t70.5 22.5t25.5 68.5z" />
    <glyph glyph-name="four.tf" unicode="4" horiz-adv-x="517" 
d="M406 658l5 -658h-108l2 575l52 2l-251 -378l-37 52h418v-95h-437l-40 70l300 442z" />
    <glyph glyph-name="five.tf" unicode="5" horiz-adv-x="517" 
d="M86 320l25 333l322 10v-107h-297l72 52l-17 -238zM101 142q24 -23 55 -34t66 -11q56 0 89 30.5t33 80.5q0 59 -40 92t-112 33q-14 0 -33.5 -1.5t-39 -4t-33.5 -7.5l28 90q21 5 54 8t64 3q108 0 168 -54t60 -149q0 -67 -28.5 -118t-79.5 -79t-120 -28q-55 0 -101 19.5
t-83 55.5z" />
    <glyph glyph-name="six.tf" unicode="6" horiz-adv-x="517" 
d="M309 387q61 0 98 -25.5t54.5 -66t17.5 -86.5q0 -62 -28 -111t-79 -77t-119 -28t-115.5 29.5t-71.5 84t-24 128.5q0 66 18.5 126.5t53 112t81.5 91.5t104.5 66.5t121.5 36.5l21 -94q-58 -10 -109 -37.5t-89.5 -70t-60 -98t-21.5 -120.5q0 -47 12.5 -85t37 -59.5
t59.5 -21.5q40 0 64 28t24 76q0 30 -10.5 56t-33 42.5t-58.5 16.5q-32 0 -73 -15t-67 -45l-22 28q24 31 55 57.5t70.5 43.5t88.5 17z" />
    <glyph glyph-name="seven.tf" unicode="7" horiz-adv-x="517" 
d="M237 0h-128l253 586l63 -33h-368l11 105h431z" />
    <glyph glyph-name="eight.tf" unicode="8" horiz-adv-x="517" 
d="M250 -7q-58 0 -104.5 20t-74 57t-27.5 88q0 60 38 112.5t106 89.5l46 -38q-37 -28 -56 -65.5t-19 -74.5q0 -52 34 -78t77 -26q34 0 54 13.5t29 34.5t9 41q0 31 -16 54t-43 41t-58.5 34.5t-63.5 34.5t-59 40t-43 51.5t-16 70.5q0 50 25.5 88.5t72.5 61t111 22.5
q84 0 133.5 -38.5t49.5 -101.5q0 -57 -38 -107.5t-99 -85.5l-51 38q23 15 40.5 35t28 43.5t10.5 48.5q0 38 -24.5 61t-66.5 23q-37 0 -59 -19.5t-22 -52.5q0 -28 16.5 -48.5t43.5 -37t59 -32t64.5 -33t59.5 -40.5t43.5 -54t16.5 -74q0 -54 -28 -98.5t-79 -71.5t-120 -27z
" />
    <glyph glyph-name="nine.tf" unicode="9" horiz-adv-x="517" 
d="M210 271q-60 0 -97.5 25.5t-55 66t-17.5 86.5q0 62 28 111t79 77t119 28q69 0 116 -29.5t71 -84t24 -128.5q0 -66 -18.5 -126.5t-53 -112t-81.5 -91.5t-104 -66.5t-122 -36.5l-21 94q46 8 88 27.5t77 49t61 67.5t40 84t14 98q0 48 -12.5 85.5t-36.5 59t-60 21.5
q-40 0 -64 -28t-24 -76q0 -29 10.5 -55.5t33 -43t58.5 -16.5q32 0 73 15t67 45l22 -28q-24 -30 -55 -57t-70 -44t-89 -17z" />
    <glyph glyph-name="colon" unicode=":" horiz-adv-x="260" 
d="M131 -7q-36 0 -57.5 21t-21.5 55q0 35 21.5 56t57.5 21q35 0 56 -21t21 -56q0 -34 -21 -55t-56 -21zM131 268q-36 0 -57.5 21t-21.5 55q0 35 21.5 56t57.5 21q35 0 56 -21t21 -56q0 -34 -21 -55t-56 -21z" />
    <glyph glyph-name="semicolon" unicode=";" horiz-adv-x="282" 
d="M113 -199l-50 29q18 28 27 62.5t9 68.5q0 35 -9 64t-27 45l103 51q26 -21 38.5 -50.5t12.5 -63.5q0 -40 -12.5 -80t-36 -73t-55.5 -53zM136 268q-36 0 -57.5 21t-21.5 55q0 35 21.5 56t57.5 21q35 0 56 -21t21 -56q0 -34 -21 -55t-56 -21z" />
    <glyph glyph-name="less" unicode="&#x3c;" horiz-adv-x="530" 
d="M468 -2l-422 196v72l422 196v-94l-363 -160v44l363 -160v-94z" />
    <glyph glyph-name="equal" unicode="=" horiz-adv-x="550" 
d="M42 97v86h466v-86h-466zM42 277v86h466v-86h-466z" />
    <glyph glyph-name="greater" unicode="&#x3e;" horiz-adv-x="530" 
d="M484 266v-72l-422 -196v94l363 160v-44l-363 160v94z" />
    <glyph glyph-name="question" unicode="?" horiz-adv-x="365" 
d="M124 224q-9 26 -15.5 58.5t-6.5 58.5q0 36 13 58t32 35.5t38.5 23t32.5 21t13 29.5q0 12 -11 22.5t-42.5 15t-95.5 -0.5v118q83 0 139.5 -18.5t85.5 -55t29 -89.5q0 -40 -14 -64t-35 -39t-42 -28t-35 -29.5t-14 -44.5q0 -13 2.5 -27.5t6.5 -30.5zM180 -7q-36 0 -57.5 21
t-21.5 55q0 35 21.5 56t57.5 21q35 0 56 -21t21 -56q0 -34 -21 -55t-56 -21z" />
    <glyph glyph-name="at" unicode="@" horiz-adv-x="878" 
d="M361 29q-52 0 -85.5 35.5t-33.5 99.5q0 48 18 91.5t49 77t71 53t84 19.5q80 0 140 -85l-73 -64q-15 40 -36.5 60t-49.5 20q-29 0 -50 -19.5t-32.5 -52.5t-11.5 -75q0 -35 15 -54.5t46 -19.5q13 0 31 4t37 17t33 39l18 -5q-8 -49 -34 -80.5t-61.5 -46t-74.5 -14.5z
M466 603q78 0 144.5 -24t115 -68t75.5 -104.5t27 -134.5q0 -54 -16.5 -98.5t-46.5 -77t-69.5 -50.5t-85.5 -18q-25 0 -54 15.5t-45.5 50.5t-7.5 95l22 138l37 79h72l-40 -233q-4 -26 6.5 -42.5t38.5 -16.5q30 0 48.5 19t28 45.5t13 51.5t3.5 37q0 77 -34 132t-93.5 84
t-137.5 29q-71 0 -130 -24.5t-101.5 -67.5t-65.5 -101t-23 -126q0 -76 34 -139t104 -101.5t177 -38.5q45 0 92.5 7.5t91.5 23.5l34 -75q-54 -22 -109 -34.5t-117 -12.5q-92 0 -166.5 29t-127.5 80t-81.5 118.5t-28.5 144.5q0 84 30.5 158t86.5 130.5t132 88t167 31.5z" />
    <glyph glyph-name="A" unicode="A" horiz-adv-x="676" 
d="M514 0l-207 592h49l-203 -592h-127l265 658h108l251 -658h-136zM143 186l36 99h284l53 -99h-373z" />
    <glyph glyph-name="B" unicode="B" horiz-adv-x="593" 
d="M285 308l21 70q72 0 127 -23t85.5 -64t30.5 -97q0 -57 -32 -101t-90.5 -68.5t-139.5 -24.5h-192v658h205q61 0 107 -19.5t72.5 -55.5t26.5 -84q0 -38 -17 -72.5t-47.5 -61t-70.5 -42t-86 -15.5zM174 386h125q40 0 65.5 24t25.5 65q0 37 -23.5 65.5t-87.5 28.5h-68v-480
h96q59 0 88 28t29 77t-33.5 77.5t-112.5 28.5h-104v86z" />
    <glyph glyph-name="C" unicode="C" horiz-adv-x="652" 
d="M394 -13q-102 0 -179 41.5t-120 116t-43 172.5q0 84 28.5 149.5t78.5 111t115 69.5t139 24q53 0 107 -14.5t103 -43.5l-58 -112q-45 39 -88.5 57.5t-90.5 18.5q-61 0 -105.5 -28.5t-68 -82t-23.5 -127.5q0 -79 30 -137.5t79.5 -91t107.5 -32.5q52 0 96 21t74 55l53 -100
q-52 -34 -111.5 -50.5t-123.5 -16.5z" />
    <glyph glyph-name="D" unicode="D" horiz-adv-x="734" 
d="M95 0v658h218q79 0 146.5 -20.5t117.5 -60t77.5 -97.5t27.5 -133q0 -60 -20.5 -121.5t-65.5 -112.5t-119 -82t-181 -31h-201zM221 91h86q73 0 120 19.5t73.5 53t37 75t10.5 86.5q0 63 -24 117.5t-80 88.5t-152 34h-71v-474z" />
    <glyph glyph-name="E" unicode="E" horiz-adv-x="579" 
d="M528 0h-433v658h399v-100h-277v-458h311v-100zM134 285v97h322v-97h-322z" />
    <glyph glyph-name="F" unicode="F" horiz-adv-x="540" 
d="M95 0v658h403v-100h-277v-558h-126zM134 259v100h326v-100h-326z" />
    <glyph glyph-name="G" unicode="G" horiz-adv-x="722" 
d="M421 -13q-114 0 -197 41.5t-127.5 115.5t-44.5 172q0 77 28 142t78.5 112.5t119 74t150.5 26.5q56 0 116 -14.5t106 -46.5l-56 -115q-49 48 -100.5 65t-93.5 17q-67 0 -114 -30.5t-72 -85t-25 -125.5q0 -76 31.5 -134t88.5 -90.5t134 -32.5q41 0 82 8.5t76 29.5l-65 -75
v200h-115v92h233v-293q-34 -18 -73 -30t-79.5 -18t-80.5 -6z" />
    <glyph glyph-name="H" unicode="H" horiz-adv-x="764" 
d="M543 0v658h126v-658h-126zM95 0v658h127v-658h-127zM134 284v101h496v-101h-496z" />
    <glyph glyph-name="I" unicode="I" horiz-adv-x="331" 
d="M100 0v658h131v-658h-131z" />
    <glyph glyph-name="J" unicode="J" horiz-adv-x="319" 
d="M103 62v596h126v-596q0 -70 -16 -117.5t-45.5 -78t-70 -49t-89.5 -30.5l-31 72q42 16 70 37.5t42 60t14 105.5z" />
    <glyph glyph-name="K" unicode="K" horiz-adv-x="647" 
d="M475 0l-272 336l244 322h151l-293 -341l10 57l340 -374h-180zM95 0v658h123v-658h-123z" />
    <glyph glyph-name="L" unicode="L" horiz-adv-x="553" 
d="M95 0v658h126v-658h-126zM134 0v99h400v-99h-400z" />
    <glyph glyph-name="M" unicode="M" horiz-adv-x="920" 
d="M711 0l-18 597l60 29l-259 -574h-74l-237 520l1 86h88l220 -475h-35l211 475h132l38 -658h-127zM83 0l46 658h90l-21 -658h-115z" />
    <glyph glyph-name="N" unicode="N" horiz-adv-x="774" 
d="M95 0v658h99l17 -658h-116zM626 0h-50l-441 574l2 84h82l404 -525zM679 658v-658h-99l-17 658h116z" />
    <glyph glyph-name="O" unicode="O" horiz-adv-x="787" 
d="M385 -13q-97 0 -172 43.5t-118 120t-43 173.5q0 80 28 144t77.5 109t113 69.5t134.5 24.5q96 0 170.5 -43.5t117 -119.5t42.5 -174q0 -80 -28 -144t-76.5 -109.5t-111.5 -69.5t-134 -24zM408 79q59 0 102 29t66 82t23 124q0 83 -29.5 142t-79 91t-110.5 32
q-56 0 -98.5 -28.5t-66 -81.5t-23.5 -125q0 -82 29.5 -141.5t78.5 -91.5t108 -32z" />
    <glyph glyph-name="P" unicode="P" horiz-adv-x="600" 
d="M275 218q-15 0 -44 2t-57 8v93q35 -4 59 -5.5t52 -1.5q51 0 83.5 12.5t48 39t15.5 66.5q0 64 -39 98t-105 34h-69v-564h-124v658h214q75 0 131.5 -24t88.5 -68t32 -105q0 -49 -21 -92.5t-59 -77.5t-90.5 -53.5t-115.5 -19.5z" />
    <glyph glyph-name="Q" unicode="Q" horiz-adv-x="787" 
d="M385 -13q-97 0 -172 43.5t-118 120t-43 173.5q0 80 28 144t77.5 109t113 69.5t134.5 24.5q96 0 170.5 -43.5t117 -119.5t42.5 -174q0 -80 -28 -144t-76.5 -109.5t-111.5 -69.5t-134 -24zM408 79q59 0 102 29t66 82t23 124q0 83 -29.5 142t-79 91t-110.5 32
q-56 0 -98.5 -28.5t-66 -81.5t-23.5 -125q0 -82 29.5 -141.5t78.5 -91.5t108 -32zM513 48q26 -47 60 -79.5t73 -49t81 -16.5q7 0 19.5 1.5t26.5 7.5l26 -62q-43 -16 -74.5 -20.5t-52.5 -4.5q-95 0 -165 44t-122 131z" />
    <glyph glyph-name="R" unicode="R" horiz-adv-x="680" 
d="M95 0v658h196q75 0 130 -21t85 -59.5t30 -91.5q0 -44 -20 -84t-54.5 -71t-78.5 -49t-92 -18h-151v84h167q28 0 51 16t37 42.5t14 57.5q0 46 -33.5 74t-95.5 28h-63v-566h-122zM589 -11q-42 0 -73.5 11.5t-57.5 36.5t-54 67l-123 188l99 35l144 -180q24 -29 43 -44.5
t35.5 -20.5t30.5 -5q6 0 17.5 1t21.5 5l27 -71q-32 -13 -58.5 -18t-51.5 -5z" />
    <glyph glyph-name="S" unicode="S" horiz-adv-x="529" 
d="M365 162q0 27 -16 47t-42.5 36t-57.5 31t-62.5 32t-58 39t-42.5 52t-16 71q0 64 30.5 108.5t81 68.5t111.5 24q38 0 84 -9t82 -27l-44 -114q-31 27 -72 41.5t-74 14.5q-31 0 -49 -12t-25.5 -29.5t-7.5 -33.5q0 -24 16 -42t42.5 -33.5t58.5 -30.5t63.5 -33t58 -41.5
t42.5 -54t16 -72.5q0 -68 -33 -114.5t-86.5 -70t-116.5 -23.5q-65 0 -120 19t-90 44l61 105q37 -31 84 -51.5t92 -20.5q39 0 64.5 21t25.5 58z" />
    <glyph glyph-name="T" unicode="T" horiz-adv-x="617" 
d="M243 0v658h130v-658h-130zM28 559v99h561v-99h-561z" />
    <glyph glyph-name="U" unicode="U" horiz-adv-x="733" 
d="M359 -13q-82 0 -144 32.5t-96.5 92.5t-34.5 142v404h128v-377q0 -61 20 -104t58.5 -65.5t91.5 -22.5q52 0 88 20.5t54.5 57.5t18.5 85v406h110v-377q0 -89 -36.5 -155t-102.5 -102.5t-155 -36.5z" />
    <glyph glyph-name="V" unicode="V" horiz-adv-x="674" 
d="M269 0l-238 658h143l215 -630h-77l206 630h125l-250 -658h-124z" />
    <glyph glyph-name="W" unicode="W" horiz-adv-x="968" 
d="M625 0l-192 658h124l182 -630h-74l148 630h120l-183 -658h-125zM217 0l-181 658h133l157 -630h-72l172 630h100l-184 -658h-125z" />
    <glyph glyph-name="X" unicode="X" horiz-adv-x="639" 
d="M25 0l230 326l-219 332h155l144 -237l138 237h141l-219 -318l233 -340h-154l-160 245l-146 -245h-143z" />
    <glyph glyph-name="Y" unicode="Y" horiz-adv-x="637" 
d="M278 226l-263 432h155l192 -356zM253 0v300h129v-300h-129zM360 232l-68 70l195 356h135z" />
    <glyph glyph-name="Z" unicode="Z" horiz-adv-x="613" 
d="M52 0l-1 84l424 568l55 -88l-462 -5v99h495v-83l-423 -569l-50 88l483 5v-99h-521z" />
    <glyph glyph-name="bracketleft" unicode="[" horiz-adv-x="380" 
d="M84 -222v933h102v-933h-102zM84 -222v80h254v-80h-254zM84 631v80h254v-80h-254z" />
    <glyph glyph-name="backslash" unicode="\" horiz-adv-x="391" 
d="M276 -222l-244 909l91 24l246 -911z" />
    <glyph glyph-name="bracketright" unicode="]" horiz-adv-x="380" 
d="M296 -222h-102v933h102v-933zM296 -222h-254v80h254v-80zM296 631h-254v80h254v-80z" />
    <glyph glyph-name="asciicircum" unicode="^" horiz-adv-x="428" 
d="M110 410l-78 66l182 191l182 -191l-78 -66l-104 118z" />
    <glyph glyph-name="underscore" unicode="_" horiz-adv-x="550" 
d="M42 -136v86h466v-86h-466z" />
    <glyph glyph-name="grave" unicode="`" horiz-adv-x="286" 
d="M158 505l-129 206h131l82 -206h-84z" />
    <glyph glyph-name="a" unicode="a" horiz-adv-x="462" 
d="M370 -8q-45 0 -71.5 31.5t-25.5 92.5l4 170q1 26 -4 41.5t-15 22.5t-25 7t-32 -6.5t-29.5 -23t-14.5 -45.5l-111 13q6 30 24.5 55t46.5 43.5t62.5 28.5t72.5 10q71 0 101.5 -35.5t29.5 -94.5l-2 -208q0 -11 5.5 -16.5t13.5 -5.5t15.5 3t13.5 8l32 -54
q-15 -16 -38.5 -26.5t-52.5 -10.5zM149 -8q-51 0 -82 28.5t-31 73.5q0 26 11.5 49.5t41.5 42.5t85 31l163 36l5 -51l-141 -41q-31 -9 -40.5 -22.5t-9.5 -26.5q0 -16 11.5 -26t30.5 -10q25 0 62 18t83 42l2 -39q-44 -43 -91 -74t-100 -31z" />
    <glyph glyph-name="b" unicode="b" horiz-adv-x="549" 
d="M253 -10q-58 0 -108.5 15t-70.5 40l114 60q20 -21 46 -31t54 -10q36 0 58 18t32 46.5t10 61.5q0 51 -14.5 85t-39.5 50.5t-56 16.5q-37 0 -68 -18.5t-52 -51.5l-37 30q23 34 53.5 63t69 47.5t84.5 18.5q35 0 67.5 -13t59.5 -38t42.5 -62.5t15.5 -87.5q0 -59 -27.5 -114.5
t-85 -90.5t-147.5 -35zM74 45v655l114 21v-616z" />
    <glyph glyph-name="c" unicode="c" horiz-adv-x="447" 
d="M253 -13q-63 0 -112 28t-77 76.5t-28 111.5q0 67 31.5 119t85.5 82t122 30q44 0 79 -13.5t63 -38.5l-48 -89q-26 27 -52.5 42t-56.5 15q-34 0 -56.5 -18.5t-33 -49t-10.5 -66.5q0 -44 16.5 -75.5t45 -48t63.5 -16.5q25 0 51 11t51 33l34 -65q-27 -26 -56.5 -41t-57.5 -21
t-54 -6z" />
    <glyph glyph-name="d" unicode="d" horiz-adv-x="537" 
d="M228 -10q-58 0 -101.5 27t-67 74t-23.5 107q0 67 29 119.5t77.5 83t105.5 30.5q36 0 66 -12.5t52 -36.5t33 -58l-28 -35q-17 30 -43 45t-56 15q-34 0 -59.5 -17t-39 -48t-13.5 -73q0 -40 11.5 -72.5t34 -51.5t54.5 -19q26 0 56.5 15.5t52.5 54.5l40 -21
q-22 -43 -48.5 -71t-59.5 -42t-73 -14zM380 -11l-21 86v625l115 21v-710z" />
    <glyph glyph-name="e" unicode="e" horiz-adv-x="463" 
d="M243 -13q-60 0 -107 24.5t-73.5 71.5t-26.5 113q0 71 30 124.5t81 83.5t115 30q81 0 122 -49t41 -132q0 -11 -0.5 -25.5t-2.5 -27.5h-98v55q0 47 -16 73t-57 26q-33 0 -57 -17.5t-36.5 -49t-12.5 -73.5q0 -65 34 -101.5t89 -36.5q31 0 60.5 11.5t56.5 34.5l37 -60
q-29 -29 -60 -45.5t-61 -23t-58 -6.5zM92 200l13 69h304v-69h-317z" />
    <glyph glyph-name="f" unicode="f" horiz-adv-x="358" 
d="M95 0v419q0 97 34 162t90.5 97.5t124.5 32.5q37 0 69 -9t60 -32l-53 -83q-26 23 -52.5 33t-49.5 10q-28 0 -48 -10.5t-33 -32t-19 -55.5t-6 -81v-451h-117zM20 347l7 66l337 8l-7 -76z" />
    <glyph glyph-name="g" unicode="g" horiz-adv-x="496" 
d="M212 -289q-53 0 -95 14.5t-65.5 42.5t-23.5 66q0 47 46.5 93.5t139.5 80.5l26 -28q-48 -25 -71.5 -57t-23.5 -65q0 -34 27.5 -52.5t70.5 -18.5q33 0 61.5 10.5t45.5 31t17 49.5q0 27 -14.5 40t-46.5 19t-83 11q-41 5 -79.5 15t-62.5 30.5t-24 55.5q0 29 15.5 51t43 40
t63.5 34l28 -30q-16 -6 -34.5 -20t-18.5 -35q0 -16 12.5 -25.5t42 -15t79.5 -11.5q50 -5 93 -15t69.5 -34t26.5 -73q0 -61 -37 -107t-97 -71.5t-131 -25.5zM224 119q-52 0 -90.5 19.5t-59.5 53t-21 76.5q0 49 26 86t69.5 58.5t97.5 21.5q76 0 122.5 -41t46.5 -107
q0 -48 -24 -85.5t-67 -59.5t-100 -22zM242 196q22 0 37.5 9t24 25t8.5 38q0 39 -23 64t-62 25q-32 0 -51 -19.5t-19 -54.5q0 -26 11 -45.5t30.5 -30.5t43.5 -11zM315 348l-11 53l179 21v-74h-168z" />
    <glyph glyph-name="h" unicode="h" horiz-adv-x="545" 
d="M366 0v233q0 51 -22 80.5t-63 29.5q-22 0 -45.5 -8t-44 -23t-32.5 -37l-37 25q28 42 61.5 70.5t71 43t78.5 14.5q62 0 105.5 -40.5t43.5 -112.5v-275h-116zM75 0v700l114 21v-721h-114z" />
    <glyph glyph-name="i" unicode="i" horiz-adv-x="274" 
d="M79 0v411l116 21v-432h-116zM137 513q-33 0 -53 19t-20 51t20 51.5t53 19.5q32 0 52 -19.5t20 -51.5t-20 -51t-52 -19z" />
    <glyph glyph-name="j" unicode="j" horiz-adv-x="274" 
d="M79 0v411l116 21v-432q0 -122 -45.5 -193t-140.5 -96l-26 53q49 27 72.5 84t23.5 152zM137 513q-33 0 -53 19t-20 51t20 51.5t53 19.5q32 0 52 -19.5t20 -51.5t-20 -51t-52 -19z" />
    <glyph glyph-name="k" unicode="k" horiz-adv-x="492" 
d="M340 0l-145 203h-15v24l150 194h148v-2l-229 -222l15 77l231 -272v-2h-155zM74 0v700l114 21v-721h-114z" />
    <glyph glyph-name="l" unicode="l" horiz-adv-x="263" 
d="M75 0v700l114 21v-721h-114z" />
    <glyph glyph-name="m" unicode="m" horiz-adv-x="780" 
d="M601 0v243q0 47 -18.5 73.5t-54.5 26.5q-29 0 -60.5 -18t-47.5 -50l-37 25q27 42 58 70.5t66 43t73 14.5q57 0 97 -40.5t40 -112.5v-275h-116zM335 0v243q0 47 -19 73.5t-54 26.5q-20 0 -42 -8t-41 -23t-31 -37l-36 25q27 42 58.5 70.5t68 43t75.5 14.5q56 0 96.5 -40.5
t40.5 -112.5v-275h-116zM63 0v411l95 21l21 -86v-346h-116z" />
    <glyph glyph-name="n" unicode="n" horiz-adv-x="535" 
d="M356 0v233q0 51 -22 80.5t-63 29.5q-22 0 -46 -8t-44 -23t-33 -37l-36 25q28 42 61 70.5t70.5 43t78.5 14.5q42 0 76 -18t54 -52.5t20 -82.5v-275h-116zM63 0v411l95 21l21 -86v-346h-116z" />
    <glyph glyph-name="o" unicode="o" horiz-adv-x="534" 
d="M258 -13q-64 0 -114.5 28t-79 77t-28.5 111q0 68 31.5 120t86 81.5t123.5 29.5q64 0 113.5 -27.5t78.5 -76t29 -111.5q0 -67 -31 -119.5t-85 -82.5t-124 -30zM275 67q35 0 57 20t32 52t10 67q0 48 -15.5 81t-41 50t-57.5 17q-34 0 -56.5 -19t-33 -50t-10.5 -68
q0 -48 15.5 -81.5t42 -51t57.5 -17.5z" />
    <glyph glyph-name="p" unicode="p" horiz-adv-x="537" 
d="M284 -7q-55 0 -92.5 27.5t-53.5 76.5l28 33q17 -28 43 -42.5t56 -14.5q35 0 60 17t38.5 48t13.5 73q0 38 -11.5 69t-34 50t-54.5 19q-26 0 -56.5 -15t-53.5 -53l-40 23q34 63 77.5 93.5t103.5 30.5q59 0 102.5 -26.5t67 -72.5t23.5 -105q0 -66 -29.5 -118t-78.5 -82.5
t-109 -30.5zM63 -289v700l94 21l21 -86v-614z" />
    <glyph glyph-name="q" unicode="q" horiz-adv-x="538" 
d="M288 428q38 0 75.5 -4t67.5 -10.5t44 -16.5l-115 -68q-16 12 -44 18.5t-50 6.5q-41 0 -64 -17t-32.5 -47.5t-9.5 -69.5q0 -47 15.5 -79t42 -48t58.5 -16q35 0 64.5 18t50.5 49l36 -25q-21 -32 -50 -61t-65.5 -47t-80.5 -18q-36 0 -70.5 13t-63 38.5t-45 63.5t-16.5 88
q0 58 26.5 111t82 87t143.5 34zM475 397v-665l-115 -21v618z" />
    <glyph glyph-name="r" unicode="r" horiz-adv-x="383" 
d="M63 0v411l95 21l21 -86v-346h-116zM159 264l-26 25q32 63 76 101t94 38q24 0 44 -6t35 -18l-45 -100q-13 10 -31 16t-38 6q-29 0 -59 -15t-50 -47z" />
    <glyph glyph-name="s" unicode="s" horiz-adv-x="392" 
d="M186 -14q-31 0 -60.5 5t-54 13t-41.5 18l31 92q27 -23 63.5 -36.5t67.5 -13.5q32 0 44.5 14.5t12.5 30.5q0 21 -14.5 33t-38 20.5t-49 17t-49 22.5t-38 36.5t-14.5 59.5q0 46 22.5 76t60 45.5t82.5 15.5q33 0 67.5 -7.5t59.5 -22.5l-31 -86q-20 22 -52 32t-50 10
q-31 0 -43 -12t-12 -26q0 -19 15 -30.5t38.5 -20t50 -17.5t50 -23.5t38.5 -37.5t15 -60q0 -29 -10.5 -55.5t-32 -47.5t-53.5 -33t-75 -12z" />
    <glyph glyph-name="t" unicode="t" horiz-adv-x="384" 
d="M231 -7q-38 0 -70.5 15.5t-52 46t-19.5 74.5v272l42 109l74 16v-375q0 -38 17 -55t42 -17q17 0 36.5 5.5t38.5 17.5l32 -49q-30 -31 -67 -45.5t-73 -14.5zM341 345l-326 2l7 66l326 8z" />
    <glyph glyph-name="u" unicode="u" horiz-adv-x="531" 
d="M214 -7q-65 0 -108 41t-43 112v265l116 21v-244q0 -51 21.5 -80.5t62.5 -29.5q21 0 44 8t43 23t32 37l37 -25q-27 -41 -60 -69.5t-69.5 -43.5t-75.5 -15zM373 -11l-21 86v336l116 21v-421z" />
    <glyph glyph-name="v" unicode="v" horiz-adv-x="451" 
d="M172 0l-161 421h129l116 -390h-46l115 390h117l-165 -421h-105z" />
    <glyph glyph-name="w" unicode="w" horiz-adv-x="730" 
d="M156 0l-145 421h126l90 -348h-21l109 348h108l123 -348l-28 -1l80 349h121l-147 -421h-104l-116 323h15l-105 -323h-106z" />
    <glyph glyph-name="x" unicode="x" horiz-adv-x="461" 
d="M8 0l163 215l-146 206h144l73 -131l79 131h125l-149 -201l156 -220h-144l-84 147l-87 -147h-130z" />
    <glyph glyph-name="y" unicode="y" horiz-adv-x="474" 
d="M224 -56l-213 477h127l132 -351zM346 421h117l-270 -710h-123l160 325z" />
    <glyph glyph-name="z" unicode="z" horiz-adv-x="424" 
d="M26 41l247 349l62 -39l-289 -7l5 77h341l6 -35l-249 -359l-54 44l303 6l-5 -77h-357z" />
    <glyph glyph-name="braceleft" unicode="{" horiz-adv-x="433" 
d="M391 -222q-125 0 -189.5 60.5t-64.5 176.5v91q0 52 -23.5 77.5t-71.5 25.5v71q48 0 71.5 25.5t23.5 77.5v91q0 116 64.5 176.5t189.5 60.5v-70q-76 0 -113 -43t-37 -124v-91q0 -62 -23.5 -101t-91.5 -57v39q68 -19 91.5 -58.5t23.5 -102.5v-88q0 -81 37 -124t113 -43v-70
z" />
    <glyph glyph-name="bar" unicode="|" horiz-adv-x="394" 
d="M150 -222v933h94v-933h-94z" />
    <glyph glyph-name="braceright" unicode="}" horiz-adv-x="433" 
d="M42 -222v70q77 0 113.5 43t36.5 124v88q0 63 23.5 102.5t91.5 58.5v-39q-68 18 -91.5 57t-23.5 101v91q0 81 -36.5 124t-113.5 43v70q125 0 189.5 -60.5t64.5 -176.5v-91q0 -52 23.5 -77.5t71.5 -25.5v-71q-48 0 -71.5 -25.5t-23.5 -77.5v-91q0 -116 -64.5 -176.5
t-189.5 -60.5z" />
    <glyph glyph-name="asciitilde" unicode="~" horiz-adv-x="550" 
d="M369 151q-32 0 -59.5 11t-51 25.5t-44.5 25.5t-42 11q-22 0 -36.5 -17t-20.5 -55l-73 15q7 44 25.5 76t47 49.5t65.5 17.5q32 0 59 -11t50.5 -25.5t45 -25.5t42.5 -11q23 0 37.5 17t20.5 55l73 -15q-7 -45 -26.5 -77t-48 -49t-64.5 -17z" />
    <glyph glyph-name="uni00A0" unicode="&#xa0;" horiz-adv-x="246" 
 />
    <glyph glyph-name="exclamdown" unicode="&#xa1;" horiz-adv-x="279" 
d="M173 231l26 -426h-139l24 426h89zM128 470q36 0 57.5 -20.5t21.5 -55.5t-21.5 -56t-57.5 -21q-34 0 -55.5 21t-21.5 56t21.5 55.5t55.5 20.5z" />
    <glyph glyph-name="cent" unicode="&#xa2;" horiz-adv-x="506" 
d="M306 -7q-79 0 -137.5 32t-90.5 86.5t-32 119.5q0 69 33.5 125.5t92 90t134.5 33.5q51 0 96.5 -16t81.5 -45l-73 -78q-21 26 -52 40.5t-64 14.5q-39 0 -69 -18.5t-47 -52.5t-17 -83q0 -48 18 -83.5t53.5 -55.5t87.5 -20q33 0 59.5 10t42.5 29l57 -76q-34 -25 -78.5 -39
t-95.5 -14zM250 -100v673h86v-673h-86z" />
    <glyph glyph-name="sterling" unicode="&#xa3;" horiz-adv-x="583" 
d="M118 48l36 402q10 104 72 162.5t159 58.5q50 0 84 -14t64 -35l-69 -95q-18 24 -47.5 39.5t-54.5 15.5q-27 0 -44.5 -16t-27 -45t-14.5 -70l-40 -403h-118zM105 -16l-73 23q11 35 30 63.5t46.5 45t63.5 16.5q27 0 61 -5t70 -11.5t71 -11.5t65 -5q25 0 42.5 9t27.5 25
l51 -30q-15 -49 -50 -82.5t-82 -33.5q-31 0 -64 7.5t-66 17t-64.5 16.5t-60.5 7q-24 0 -42 -13.5t-26 -37.5zM58 283l10 80l371 10l-10 -90h-371z" />
    <glyph glyph-name="currency.lf" unicode="&#xa4;" horiz-adv-x="581" 
d="M292 166q-51 0 -90.5 21.5t-62.5 59t-23 84.5t22.5 84t62 58t90.5 21t90.5 -21.5t62 -58.5t22.5 -85q0 -47 -22.5 -84t-61.5 -58t-90 -21zM98 93l-58 58l139 130l56 -60zM178 379l-138 129l59 58l134 -126zM292 255q21 0 37.5 9.5t25.5 26.5t9 38q0 22 -9.5 39t-26 27
t-37.5 10q-20 0 -37 -9.5t-26.5 -26t-9.5 -38.5t10 -39t26.5 -27t37.5 -10zM483 93l-139 130l60 57l137 -129zM409 384l-58 59l131 123l59 -58z" />
    <glyph glyph-name="yen" unicode="&#xa5;" horiz-adv-x="637" 
d="M277 272l-262 386h142l198 -336zM260 0v340h119v-340h-119zM87 91v79h464v-79h-464zM87 229v79h464v-79h-464zM359 266l-74 56l189 336h148z" />
    <glyph glyph-name="brokenbar" unicode="&#xa6;" horiz-adv-x="394" 
d="M150 311v400h96v-400h-96zM150 -289v400h96v-400h-96z" />
    <glyph glyph-name="section" unicode="&#xa7;" horiz-adv-x="521" 
d="M362 -83l-33 53q34 38 41.5 72.5t7.5 52.5q0 46 -17.5 82.5t-44.5 68.5t-58 61t-58 59.5t-44.5 65.5t-17.5 77q0 45 20.5 78.5t56 52t78.5 18.5q33 0 66 -11.5t58 -34.5l-48 -81q-21 22 -45.5 33t-44.5 11t-33 -12t-13 -35q0 -27 18 -53.5t46.5 -54t60 -57.5t60 -65
t46.5 -76t18 -91q0 -59 -29.5 -109.5t-90.5 -104.5zM231 -195q-33 0 -65.5 11.5t-58.5 34.5l48 81q21 -22 46 -33t44 -11q20 0 33 12.5t13 34.5q0 28 -18 54t-46.5 53.5t-60 57.5t-60 65t-46.5 76t-18 91q0 59 29.5 109.5t90.5 104.5l33 -53q-34 -37 -41.5 -72t-7.5 -54
q0 -46 17.5 -82.5t44.5 -68t58 -61t58 -59.5t44.5 -64.5t17.5 -77.5q0 -45 -20.5 -78.5t-55.5 -52t-79 -18.5z" />
    <glyph glyph-name="dieresis" unicode="&#xa8;" horiz-adv-x="344" 
d="M74 501q-30 0 -49 18t-19 47q0 30 19 48.5t49 18.5t48.5 -18.5t18.5 -48.5q0 -29 -18.5 -47t-48.5 -18zM272 501q-31 0 -50 18t-19 47q0 30 19 48.5t50 18.5q29 0 47.5 -18.5t18.5 -48.5q0 -29 -18.5 -47t-47.5 -18z" />
    <glyph glyph-name="copyright" unicode="&#xa9;" horiz-adv-x="767" 
d="M383 -93q-74 0 -137 25.5t-109 70.5t-71.5 104t-25.5 126q0 68 25.5 128t72 106t109 72t137.5 26q76 0 138.5 -26.5t108.5 -72.5t71 -106t25 -126q0 -68 -25.5 -127t-72 -104t-109.5 -70.5t-137 -25.5zM384 -13q56 0 103 19t81.5 53t53 79t18.5 97q0 51 -19 96.5t-53 80
t-81 54t-104 19.5t-103.5 -19.5t-81 -54t-53 -80t-18.5 -97.5q0 -53 19.5 -98t54 -78.5t81.5 -52t102 -18.5zM384 60q-50 0 -89 22t-61.5 60t-22.5 86q0 52 25 92.5t68.5 64t97.5 23.5q38 0 67.5 -11.5t54.5 -32.5l-55 -60q-19 18 -38 27.5t-41 9.5q-27 0 -45 -14.5
t-26.5 -37.5t-8.5 -50q0 -34 12.5 -58t33.5 -37t46 -13q42 0 82 33l43 -44q-35 -35 -72.5 -47.5t-70.5 -12.5z" />
    <glyph glyph-name="ordfeminine" unicode="&#xaa;" horiz-adv-x="391" 
d="M310 302q-41 0 -63 26.5t-20 76.5l3 140q1 28 -8 38.5t-29 10.5q-12 0 -25 -5.5t-23.5 -19t-14.5 -36.5l-92 11q4 33 29 60t63.5 43.5t85.5 16.5q49 0 73.5 -27.5t24.5 -78.5l-2 -170q0 -18 13 -18q7 0 14.5 4t12.5 10l40 -39q-10 -20 -31.5 -31.5t-50.5 -11.5zM124 302
q-42 0 -68 25.5t-26 64.5q0 21 9.5 39t34.5 32.5t70 24.5l136 30l4 -46l-117 -34q-26 -7 -34 -16t-8 -19q0 -14 10 -22.5t25 -8.5q21 0 51.5 15t69.5 35l1 -37q-38 -37 -74.5 -60t-83.5 -23z" />
    <glyph glyph-name="guillemotleft" unicode="&#xab;" horiz-adv-x="571" 
d="M232 21l-200 190l200 190l60 -38l-123 -157v10l123 -156zM469 21l-200 190l200 190l60 -38l-123 -157v10l123 -156z" />
    <glyph glyph-name="logicalnot" unicode="&#xac;" horiz-adv-x="550" 
d="M42 257v86h466v-86h-466zM508 80h-86v222h86v-222z" />
    <glyph glyph-name="registered" unicode="&#xae;" horiz-adv-x="557" 
d="M278 226q-71 0 -127.5 31.5t-88.5 86t-32 124.5t32 125t88.5 86.5t127.5 31.5q72 0 128.5 -31.5t88.5 -86.5t32 -125t-32 -124.5t-88.5 -86t-128.5 -31.5zM279 286q54 0 96.5 23.5t66.5 65t24 93.5q0 53 -24 94.5t-66.5 65t-96.5 23.5t-96.5 -23.5t-67 -65t-24.5 -94.5
q0 -52 24.5 -93.5t67 -65t96.5 -23.5zM186 338v263h93q47 0 73 -19.5t26 -55.5q0 -37 -30 -60.5t-80 -23.5h-80v43h80q25 0 39.5 11.5t14.5 29.5q0 16 -11.5 24t-31.5 8h-37v-220h-56zM324 338l-62 125l49 2l80 -127h-67z" />
    <glyph glyph-name="macron" unicode="&#xaf;" horiz-adv-x="363" 
d="M49 509v82h265v-82h-265z" />
    <glyph glyph-name="degree" unicode="&#xb0;" horiz-adv-x="349" 
d="M176 373q-45 0 -80 19t-55 52t-20 75t20 74.5t55 51t79 18.5q45 0 80 -19t54.5 -52t19.5 -75q0 -41 -19.5 -74t-54 -51.5t-79.5 -18.5zM176 446q30 0 49.5 20t19.5 51q0 32 -20 52.5t-50 20.5t-50 -20t-20 -51t20 -52t51 -21z" />
    <glyph glyph-name="plusminus" unicode="&#xb1;" horiz-adv-x="550" 
d="M42 0v86h466v-86h-466zM42 317v86h466v-86h-466zM318 130h-86v462h86v-462z" />
    <glyph glyph-name="uni00B2" unicode="&#xb2;" horiz-adv-x="330" 
d="M28 470q46 34 86.5 63t66 57t25.5 57q0 20 -12.5 30t-27.5 10q-18 0 -34 -13.5t-16 -39.5h-82q0 43 19 71t50 42.5t67 14.5q59 0 90.5 -32t31.5 -79q0 -44 -26 -77.5t-69 -65t-95 -68.5l35 42h163v-76h-253z" />
    <glyph glyph-name="uni00B3" unicode="&#xb3;" horiz-adv-x="305" 
d="M147 569v31q36 0 67.5 -11t51.5 -31.5t20 -50.5q0 -24 -15.5 -49t-46.5 -42t-77 -17q-49 0 -85.5 20.5t-50.5 51.5l60 41q12 -18 32 -28.5t45 -10.5q21 0 39.5 8.5t18.5 28.5t-25.5 30t-83.5 10v63q47 0 71 11t24 32q0 15 -15 23t-36 8q-27 0 -43.5 -13.5t-20.5 -27.5
l-64 33q14 32 47.5 57.5t92.5 25.5q61 0 90 -27t29 -62q0 -31 -20 -54t-48.5 -36t-56.5 -14z" />
    <glyph glyph-name="acute" unicode="&#xb4;" horiz-adv-x="288" 
d="M46 505l82 206h131l-129 -206h-84z" />
    <glyph glyph-name="uni00B5" unicode="&#xb5;" horiz-adv-x="548" 
d="M73 -289q-7 175 -8.5 350t-1.5 350l116 21v-244q0 -50 21 -80t64 -30q21 0 43 8t42 23t33 37l27 -25q-22 -39 -48 -68t-55 -44.5t-63 -15.5q-25 0 -50 8t-43 24l14 23q-2 -79 7.5 -158t22.5 -158zM433 -7q-30 0 -50 11t-30.5 32t-10.5 51v324l116 21v-326q0 -16 6 -23.5
t19 -7.5q9 0 18 4t16 10l20 -48q-13 -21 -40.5 -34.5t-63.5 -13.5z" />
    <glyph glyph-name="paragraph" unicode="&#xb6;" horiz-adv-x="677" 
d="M329 -213l-31 72q42 16 70 37.5t42 60t14 105.5v86h-87q-86 0 -150 32.5t-99.5 92t-35.5 138.5q0 75 39 130.5t109 86t163 30.5h286v-99h-99v-497q0 -70 -16 -117.5t-45.5 -78t-70 -49t-89.5 -30.5z" />
    <glyph glyph-name="periodcentered" unicode="&#xb7;" horiz-adv-x="260" 
d="M131 153q-36 0 -57.5 21t-21.5 55q0 35 21.5 56t57.5 21q35 0 56 -21t21 -56q0 -34 -21 -55t-56 -21z" />
    <glyph glyph-name="cedilla" unicode="&#xb8;" horiz-adv-x="253" 
d="M76 0h70l-27 -81l-47 9q10 5 24.5 8t30.5 3q47 0 76.5 -24.5t29.5 -65.5q0 -43 -34 -69.5t-90 -26.5q-29 0 -53.5 8t-44.5 24l15 36q11 -4 26 -7.5t28 -3.5q28 0 40 13.5t12 28.5q0 20 -17 31.5t-42 11.5q-6 0 -15 -1t-19 -3z" />
    <glyph glyph-name="uni00B9" unicode="&#xb9;" horiz-adv-x="295" 
d="M143 406v276l62 13l-142 -99l-44 69l155 90h56v-349h-87z" />
    <glyph glyph-name="ordmasculine" unicode="&#xba;" horiz-adv-x="433" 
d="M209 302q-52 0 -92.5 22.5t-63.5 62t-23 89.5q0 55 25 97t69.5 66t100.5 24q51 0 91.5 -22.5t63.5 -61.5t23 -89q0 -54 -25 -96.5t-68.5 -67t-100.5 -24.5zM223 372q28 0 44.5 15.5t24.5 40t8 51.5q0 37 -12 62.5t-32 39t-45 13.5q-27 0 -44 -15t-25.5 -39t-8.5 -52
q0 -37 12.5 -63t33 -39.5t44.5 -13.5z" />
    <glyph glyph-name="guillemotright" unicode="&#xbb;" horiz-adv-x="571" 
d="M339 401l200 -190l-200 -190l-60 38l123 157v-10l-123 156zM102 401l200 -190l-200 -190l-60 38l123 157v-10l-123 156z" />
    <glyph glyph-name="onequarter" unicode="&#xbc;" horiz-adv-x="750" 
d="M143 309v276l62 13l-142 -99l-44 69l155 90h56v-349h-87zM259 -13l-67 30l304 655l64 -32zM447 125l147 224h95v-349h-72v327h39l-129 -205l-42 21h247v-67h-262z" />
    <glyph glyph-name="onehalf" unicode="&#xbd;" horiz-adv-x="767" 
d="M143 309v276l62 13l-142 -99l-44 69l155 90h56v-349h-87zM259 -13l-67 30l304 655l64 -32zM465 64q46 34 86.5 63t66 57t25.5 57q0 20 -12.5 30t-27.5 10q-18 0 -34 -13.5t-16 -39.5h-82q0 43 19 71t50 42.5t67 14.5q59 0 90.5 -32t31.5 -79q0 -44 -26 -77.5t-69 -65
t-95 -68.5l35 42h163v-76h-253z" />
    <glyph glyph-name="threequarters" unicode="&#xbe;" horiz-adv-x="760" 
d="M147 472v31q36 0 67.5 -11t51.5 -31.5t20 -50.5q0 -24 -15.5 -49t-46.5 -42t-77 -17q-49 0 -85.5 20.5t-50.5 51.5l60 41q12 -18 32 -28.5t45 -10.5q21 0 39.5 8.5t18.5 28.5t-25.5 30t-83.5 10v63q47 0 71 11t24 32q0 15 -15 23t-36 8q-27 0 -43.5 -13.5t-20.5 -27.5
l-64 33q14 32 47.5 57.5t92.5 25.5q61 0 90 -27t29 -62q0 -31 -20 -54t-48.5 -36t-56.5 -14zM269 -13l-67 30l304 655l64 -32zM457 125l147 224h95v-349h-72v327h39l-129 -205l-42 21h247v-67h-262z" />
    <glyph glyph-name="questiondown" unicode="&#xbf;" horiz-adv-x="365" 
d="M241 239q9 -25 15.5 -58t6.5 -59q0 -36 -13 -58t-32 -35.5t-38.5 -23t-32.5 -21t-13 -29.5q0 -12 11 -22.5t43 -15t95 0.5v-118q-83 0 -139.5 18.5t-85.5 55t-29 89.5q0 40 14 64t35 39t42 28t35 29.5t14 44.5q0 13 -2.5 27.5t-6.5 30.5zM185 470q36 0 57.5 -20.5
t21.5 -55.5t-21.5 -56t-57.5 -21q-34 0 -55.5 21t-21.5 56t21.5 55.5t55.5 20.5z" />
    <glyph glyph-name="Agrave" unicode="&#xc0;" horiz-adv-x="676" 
d="M514 0l-207 592h49l-203 -592h-127l265 658h108l251 -658h-136zM143 186l36 99h284l53 -99h-373zM303 731l-112 176h139l65 -176h-92z" />
    <glyph glyph-name="Aacute" unicode="&#xc1;" horiz-adv-x="676" 
d="M514 0l-207 592h49l-203 -592h-127l265 658h108l251 -658h-136zM143 186l36 99h284l53 -99h-373zM287 731l65 176h139l-112 -176h-92z" />
    <glyph glyph-name="Acircumflex" unicode="&#xc2;" horiz-adv-x="676" 
d="M514 0l-207 592h49l-203 -592h-127l265 658h108l251 -658h-136zM143 186l36 99h284l53 -99h-373zM423 731l-101 101l-21 75h79l132 -176h-89zM169 731l132 176h79l-20 -73l-102 -103h-89z" />
    <glyph glyph-name="Atilde" unicode="&#xc3;" horiz-adv-x="676" 
d="M514 0l-207 592h49l-203 -592h-127l265 658h108l251 -658h-136zM143 186l36 99h284l53 -99h-373zM223 703l-62 15q10 33 28.5 59t42 41t49.5 15q17 0 37.5 -3t42 -6.5t40.5 -3.5t34.5 12.5t22.5 35.5l63 -14q-15 -56 -48.5 -91t-71.5 -35q-21 0 -42 3.5t-40.5 6.5
t-37.5 3q-19 0 -34.5 -10t-23.5 -28z" />
    <glyph glyph-name="Adieresis" unicode="&#xc4;" horiz-adv-x="676" 
d="M514 0l-207 592h49l-203 -592h-127l265 658h108l251 -658h-136zM143 186l36 99h284l53 -99h-373zM242 724q-30 0 -48.5 18.5t-18.5 46.5q0 30 18.5 48.5t48.5 18.5t48.5 -18.5t18.5 -48.5q0 -28 -18.5 -46.5t-48.5 -18.5zM440 724q-31 0 -50 18.5t-19 46.5q0 30 19 48.5
t50 18.5q29 0 47.5 -18.5t18.5 -48.5q0 -28 -18.5 -46.5t-47.5 -18.5z" />
    <glyph glyph-name="Aring" unicode="&#xc5;" horiz-adv-x="676" 
d="M514 0l-207 592h49l-203 -592h-127l265 658h108l251 -658h-136zM143 186l36 99h284l53 -99h-373zM340 689q-55 0 -90.5 29.5t-35.5 74.5q0 44 36.5 72.5t92.5 28.5q55 0 90 -29.5t35 -73.5t-36 -73t-92 -29zM342 742q19 0 30.5 13.5t11.5 35.5q0 23 -11.5 36.5
t-31.5 13.5q-19 0 -31 -13t-12 -35q0 -23 12.5 -37t31.5 -14z" />
    <glyph glyph-name="AE" unicode="&#xc6;" horiz-adv-x="891" 
d="M-10 0l391 658h104l-351 -658h-144zM197 203l53 99h252v-99h-305zM502 283v99h275v-99h-275zM443 0v658h372v-100h-257v-458h288v-100h-403z" />
    <glyph glyph-name="Ccedilla" unicode="&#xc7;" horiz-adv-x="652" 
d="M394 -13q-102 0 -179 41.5t-120 116t-43 172.5q0 84 28.5 149.5t78.5 111t115 69.5t139 24q53 0 107 -14.5t103 -43.5l-58 -112q-45 39 -88.5 57.5t-90.5 18.5q-61 0 -105.5 -28.5t-68 -82t-23.5 -127.5q0 -79 30 -137.5t79.5 -91t107.5 -32.5q52 0 96 21t74 55l53 -100
q-52 -34 -111.5 -50.5t-123.5 -16.5zM358 0h67l-25 -92l-47 15q10 8 24.5 12t33.5 4q50 0 81.5 -27.5t31.5 -73.5q0 -48 -37 -77t-99 -29q-31 0 -58 8t-49 24l21 56q14 -10 34.5 -16t39.5 -6q28 0 40 13.5t12 28.5q0 21 -19.5 33.5t-47.5 12.5q-10 0 -20 -1.5t-21 -4.5z" />
    <glyph glyph-name="Egrave" unicode="&#xc8;" horiz-adv-x="579" 
d="M528 0h-433v658h399v-100h-277v-458h311v-100zM134 285v97h322v-97h-322zM277 731l-112 176h139l65 -176h-92z" />
    <glyph glyph-name="Eacute" unicode="&#xc9;" horiz-adv-x="579" 
d="M528 0h-433v658h399v-100h-277v-458h311v-100zM134 285v97h322v-97h-322zM261 731l65 176h139l-112 -176h-92z" />
    <glyph glyph-name="Ecircumflex" unicode="&#xca;" horiz-adv-x="579" 
d="M528 0h-433v658h399v-100h-277v-458h311v-100zM134 285v97h322v-97h-322zM397 731l-101 101l-21 75h79l132 -176h-89zM143 731l132 176h79l-20 -73l-102 -103h-89z" />
    <glyph glyph-name="Edieresis" unicode="&#xcb;" horiz-adv-x="579" 
d="M528 0h-433v658h399v-100h-277v-458h311v-100zM134 285v97h322v-97h-322zM216 724q-30 0 -48.5 18.5t-18.5 46.5q0 30 18.5 48.5t48.5 18.5t48.5 -18.5t18.5 -48.5q0 -28 -18.5 -46.5t-48.5 -18.5zM414 724q-31 0 -50 18.5t-19 46.5q0 30 19 48.5t50 18.5
q29 0 47.5 -18.5t18.5 -48.5q0 -28 -18.5 -46.5t-47.5 -18.5z" />
    <glyph glyph-name="Igrave" unicode="&#xcc;" horiz-adv-x="331" 
d="M100 0v658h131v-658h-131zM122 731l-112 176h139l65 -176h-92z" />
    <glyph glyph-name="Iacute" unicode="&#xcd;" horiz-adv-x="331" 
d="M100 0v658h131v-658h-131zM106 731l65 176h139l-112 -176h-92z" />
    <glyph glyph-name="Icircumflex" unicode="&#xce;" horiz-adv-x="331" 
d="M100 0v658h131v-658h-131zM242 731l-101 101l-21 75h79l132 -176h-89zM-12 731l132 176h79l-20 -73l-102 -103h-89z" />
    <glyph glyph-name="Idieresis" unicode="&#xcf;" horiz-adv-x="331" 
d="M100 0v658h131v-658h-131zM61 724q-30 0 -48.5 18.5t-18.5 46.5q0 30 18.5 48.5t48.5 18.5t48.5 -18.5t18.5 -48.5q0 -28 -18.5 -46.5t-48.5 -18.5zM259 724q-31 0 -50 18.5t-19 46.5q0 30 19 48.5t50 18.5q29 0 47.5 -18.5t18.5 -48.5q0 -28 -18.5 -46.5t-47.5 -18.5z
" />
    <glyph glyph-name="Eth" unicode="&#xd0;" horiz-adv-x="743" 
d="M105 0v658h218q107 0 190.5 -36t131 -105.5t47.5 -169.5q0 -60 -20.5 -121.5t-65.5 -112.5t-119 -82t-181 -31h-201zM28 282v93h365v-93h-365zM231 91h86q73 0 120 19.5t73.5 53t37 75t10.5 86.5q0 63 -24 117.5t-80 88.5t-152 34h-71v-474z" />
    <glyph glyph-name="Ntilde" unicode="&#xd1;" horiz-adv-x="774" 
d="M95 0v658h99l17 -658h-116zM626 0h-50l-441 574l2 84h82l404 -525zM679 658v-658h-99l-17 658h116zM269 703l-62 15q10 33 28.5 59t42 41t49.5 15q17 0 37.5 -3t42 -6.5t40.5 -3.5t34.5 12.5t22.5 35.5l63 -14q-15 -56 -48.5 -91t-71.5 -35q-21 0 -42 3.5t-40.5 6.5
t-37.5 3q-19 0 -34.5 -10t-23.5 -28z" />
    <glyph glyph-name="Ograve" unicode="&#xd2;" horiz-adv-x="787" 
d="M385 -13q-97 0 -172 43.5t-118 120t-43 173.5q0 80 28 144t77.5 109t113 69.5t134.5 24.5q96 0 170.5 -43.5t117 -119.5t42.5 -174q0 -80 -28 -144t-76.5 -109.5t-111.5 -69.5t-134 -24zM408 79q59 0 102 29t66 82t23 124q0 83 -29.5 142t-79 91t-110.5 32
q-56 0 -98.5 -28.5t-66 -81.5t-23.5 -125q0 -82 29.5 -141.5t78.5 -91.5t108 -32zM362 731l-112 176h139l65 -176h-92z" />
    <glyph glyph-name="Oacute" unicode="&#xd3;" horiz-adv-x="787" 
d="M385 -13q-97 0 -172 43.5t-118 120t-43 173.5q0 80 28 144t77.5 109t113 69.5t134.5 24.5q96 0 170.5 -43.5t117 -119.5t42.5 -174q0 -80 -28 -144t-76.5 -109.5t-111.5 -69.5t-134 -24zM408 79q59 0 102 29t66 82t23 124q0 83 -29.5 142t-79 91t-110.5 32
q-56 0 -98.5 -28.5t-66 -81.5t-23.5 -125q0 -82 29.5 -141.5t78.5 -91.5t108 -32zM346 731l65 176h139l-112 -176h-92z" />
    <glyph glyph-name="Ocircumflex" unicode="&#xd4;" horiz-adv-x="787" 
d="M385 -13q-97 0 -172 43.5t-118 120t-43 173.5q0 80 28 144t77.5 109t113 69.5t134.5 24.5q96 0 170.5 -43.5t117 -119.5t42.5 -174q0 -80 -28 -144t-76.5 -109.5t-111.5 -69.5t-134 -24zM408 79q59 0 102 29t66 82t23 124q0 83 -29.5 142t-79 91t-110.5 32
q-56 0 -98.5 -28.5t-66 -81.5t-23.5 -125q0 -82 29.5 -141.5t78.5 -91.5t108 -32zM482 731l-101 101l-21 75h79l132 -176h-89zM228 731l132 176h79l-20 -73l-102 -103h-89z" />
    <glyph glyph-name="Otilde" unicode="&#xd5;" horiz-adv-x="787" 
d="M385 -13q-97 0 -172 43.5t-118 120t-43 173.5q0 80 28 144t77.5 109t113 69.5t134.5 24.5q96 0 170.5 -43.5t117 -119.5t42.5 -174q0 -80 -28 -144t-76.5 -109.5t-111.5 -69.5t-134 -24zM408 79q59 0 102 29t66 82t23 124q0 83 -29.5 142t-79 91t-110.5 32
q-56 0 -98.5 -28.5t-66 -81.5t-23.5 -125q0 -82 29.5 -141.5t78.5 -91.5t108 -32zM282 703l-62 15q10 33 28.5 59t42 41t49.5 15q17 0 37.5 -3t42 -6.5t40.5 -3.5t34.5 12.5t22.5 35.5l63 -14q-15 -56 -48.5 -91t-71.5 -35q-21 0 -42 3.5t-40.5 6.5t-37.5 3q-19 0 -34.5 -10
t-23.5 -28z" />
    <glyph glyph-name="Odieresis" unicode="&#xd6;" horiz-adv-x="787" 
d="M385 -13q-97 0 -172 43.5t-118 120t-43 173.5q0 80 28 144t77.5 109t113 69.5t134.5 24.5q96 0 170.5 -43.5t117 -119.5t42.5 -174q0 -80 -28 -144t-76.5 -109.5t-111.5 -69.5t-134 -24zM408 79q59 0 102 29t66 82t23 124q0 83 -29.5 142t-79 91t-110.5 32
q-56 0 -98.5 -28.5t-66 -81.5t-23.5 -125q0 -82 29.5 -141.5t78.5 -91.5t108 -32zM301 724q-30 0 -48.5 18.5t-18.5 46.5q0 30 18.5 48.5t48.5 18.5t48.5 -18.5t18.5 -48.5q0 -28 -18.5 -46.5t-48.5 -18.5zM499 724q-31 0 -50 18.5t-19 46.5q0 30 19 48.5t50 18.5
q29 0 47.5 -18.5t18.5 -48.5q0 -28 -18.5 -46.5t-47.5 -18.5z" />
    <glyph glyph-name="multiply" unicode="&#xd7;" horiz-adv-x="510" 
d="M389 35l-330 330l61 60l329 -329zM122 37l-61 61l327 327l61 -61z" />
    <glyph glyph-name="Oslash" unicode="&#xd8;" horiz-adv-x="785" 
d="M382 -13q-72 0 -132.5 26t-105 72t-68.5 107t-24 131q0 75 27.5 138.5t76 110.5t111.5 73t135 26q73 0 133.5 -26t105 -72.5t69 -107.5t24.5 -131q0 -75 -27.5 -138t-76.5 -110t-112.5 -73t-135.5 -26zM404 77q60 0 105 29t70 81.5t25 121.5q0 81 -27.5 142t-77.5 94.5
t-118 33.5q-60 0 -105 -29t-70 -81t-25 -122q0 -81 28 -141.5t78 -94.5t117 -34zM130 -58l-72 60l586 699l72 -63z" />
    <glyph glyph-name="Ugrave" unicode="&#xd9;" horiz-adv-x="733" 
d="M359 -13q-82 0 -144 32.5t-96.5 92.5t-34.5 142v404h128v-377q0 -61 20 -104t58.5 -65.5t91.5 -22.5q52 0 88 20.5t54.5 57.5t18.5 85v406h110v-377q0 -89 -36.5 -155t-102.5 -102.5t-155 -36.5zM344 731l-112 176h139l65 -176h-92z" />
    <glyph glyph-name="Uacute" unicode="&#xda;" horiz-adv-x="733" 
d="M359 -13q-82 0 -144 32.5t-96.5 92.5t-34.5 142v404h128v-377q0 -61 20 -104t58.5 -65.5t91.5 -22.5q52 0 88 20.5t54.5 57.5t18.5 85v406h110v-377q0 -89 -36.5 -155t-102.5 -102.5t-155 -36.5zM328 731l65 176h139l-112 -176h-92z" />
    <glyph glyph-name="Ucircumflex" unicode="&#xdb;" horiz-adv-x="733" 
d="M359 -13q-82 0 -144 32.5t-96.5 92.5t-34.5 142v404h128v-377q0 -61 20 -104t58.5 -65.5t91.5 -22.5q52 0 88 20.5t54.5 57.5t18.5 85v406h110v-377q0 -89 -36.5 -155t-102.5 -102.5t-155 -36.5zM464 731l-101 101l-21 75h79l132 -176h-89zM210 731l132 176h79l-20 -73
l-102 -103h-89z" />
    <glyph glyph-name="Udieresis" unicode="&#xdc;" horiz-adv-x="733" 
d="M359 -13q-82 0 -144 32.5t-96.5 92.5t-34.5 142v404h128v-377q0 -61 20 -104t58.5 -65.5t91.5 -22.5q52 0 88 20.5t54.5 57.5t18.5 85v406h110v-377q0 -89 -36.5 -155t-102.5 -102.5t-155 -36.5zM283 724q-30 0 -48.5 18.5t-18.5 46.5q0 30 18.5 48.5t48.5 18.5
t48.5 -18.5t18.5 -48.5q0 -28 -18.5 -46.5t-48.5 -18.5zM481 724q-31 0 -50 18.5t-19 46.5q0 30 19 48.5t50 18.5q29 0 47.5 -18.5t18.5 -48.5q0 -28 -18.5 -46.5t-47.5 -18.5z" />
    <glyph glyph-name="Yacute" unicode="&#xdd;" horiz-adv-x="637" 
d="M278 226l-263 432h155l192 -356zM253 0v300h129v-300h-129zM360 232l-68 70l195 356h135zM265 731l65 176h139l-112 -176h-92z" />
    <glyph glyph-name="Thorn" unicode="&#xde;" horiz-adv-x="629" 
d="M95 0v658h124v-105h142q70 0 122.5 -24.5t82.5 -69t30 -104.5q0 -67 -36.5 -122t-98 -87.5t-136.5 -32.5h-151v99h172q37 0 66 15t45.5 42t16.5 63q0 53 -36.5 87.5t-97.5 34.5h-121v-454h-124z" />
    <glyph glyph-name="germandbls" unicode="&#xdf;" horiz-adv-x="552" 
d="M357 -9q-21 0 -51 4.5t-62 18.5l43 93q14 -10 33 -20t39 -10q29 0 39 19.5t10 39.5q0 26 -14 47t-33.5 40t-39.5 37.5t-33.5 39t-13.5 45.5q0 26 13.5 46.5t30.5 40.5t30.5 44.5t13.5 57.5q0 39 -21.5 65t-62.5 26q-51 0 -73 -46t-22 -141v-438h-117v440q0 78 29 139.5
t83 96.5t128 35q56 0 94 -20t57.5 -54t19.5 -76q0 -38 -13 -65t-30.5 -47t-30.5 -38t-13 -39q0 -19 13 -35.5t32 -33.5t38.5 -37.5t32.5 -47t13 -63.5q0 -27 -8.5 -55.5t-27 -53t-49.5 -40t-77 -15.5z" />
    <glyph glyph-name="agrave" unicode="&#xe0;" horiz-adv-x="462" 
d="M370 -8q-45 0 -71.5 31.5t-25.5 92.5l4 170q1 26 -4 41.5t-15 22.5t-25 7t-32 -6.5t-29.5 -23t-14.5 -45.5l-111 13q6 30 24.5 55t46.5 43.5t62.5 28.5t72.5 10q71 0 101.5 -35.5t29.5 -94.5l-2 -208q0 -11 5.5 -16.5t13.5 -5.5t15.5 3t13.5 8l32 -54
q-15 -16 -38.5 -26.5t-52.5 -10.5zM149 -8q-51 0 -82 28.5t-31 73.5q0 26 11.5 49.5t41.5 42.5t85 31l163 36l5 -51l-141 -41q-31 -9 -40.5 -22.5t-9.5 -26.5q0 -16 11.5 -26t30.5 -10q25 0 62 18t83 42l2 -39q-44 -43 -91 -74t-100 -31zM198 505l-129 206h131l82 -206h-84z
" />
    <glyph glyph-name="aacute" unicode="&#xe1;" horiz-adv-x="462" 
d="M370 -8q-45 0 -71.5 31.5t-25.5 92.5l4 170q1 26 -4 41.5t-15 22.5t-25 7t-32 -6.5t-29.5 -23t-14.5 -45.5l-111 13q6 30 24.5 55t46.5 43.5t62.5 28.5t72.5 10q71 0 101.5 -35.5t29.5 -94.5l-2 -208q0 -11 5.5 -16.5t13.5 -5.5t15.5 3t13.5 8l32 -54
q-15 -16 -38.5 -26.5t-52.5 -10.5zM149 -8q-51 0 -82 28.5t-31 73.5q0 26 11.5 49.5t41.5 42.5t85 31l163 36l5 -51l-141 -41q-31 -9 -40.5 -22.5t-9.5 -26.5q0 -16 11.5 -26t30.5 -10q25 0 62 18t83 42l2 -39q-44 -43 -91 -74t-100 -31zM168 505l82 206h131l-129 -206h-84z
" />
    <glyph glyph-name="acircumflex" unicode="&#xe2;" horiz-adv-x="462" 
d="M370 -8q-45 0 -71.5 31.5t-25.5 92.5l4 170q1 26 -4 41.5t-15 22.5t-25 7t-32 -6.5t-29.5 -23t-14.5 -45.5l-111 13q6 30 24.5 55t46.5 43.5t62.5 28.5t72.5 10q71 0 101.5 -35.5t29.5 -94.5l-2 -208q0 -11 5.5 -16.5t13.5 -5.5t15.5 3t13.5 8l32 -54
q-15 -16 -38.5 -26.5t-52.5 -10.5zM149 -8q-51 0 -82 28.5t-31 73.5q0 26 11.5 49.5t41.5 42.5t85 31l163 36l5 -51l-141 -41q-31 -9 -40.5 -22.5t-9.5 -26.5q0 -16 11.5 -26t30.5 -10q25 0 62 18t83 42l2 -39q-44 -43 -91 -74t-100 -31zM293 505l-86 136l-21 70h79
l112 -206h-84zM74 505l112 206h79l-20 -68l-87 -138h-84z" />
    <glyph glyph-name="atilde" unicode="&#xe3;" horiz-adv-x="462" 
d="M370 -8q-45 0 -71.5 31.5t-25.5 92.5l4 170q1 26 -4 41.5t-15 22.5t-25 7t-32 -6.5t-29.5 -23t-14.5 -45.5l-111 13q6 30 24.5 55t46.5 43.5t62.5 28.5t72.5 10q71 0 101.5 -35.5t29.5 -94.5l-2 -208q0 -11 5.5 -16.5t13.5 -5.5t15.5 3t13.5 8l32 -54
q-15 -16 -38.5 -26.5t-52.5 -10.5zM149 -8q-51 0 -82 28.5t-31 73.5q0 26 11.5 49.5t41.5 42.5t85 31l163 36l5 -51l-141 -41q-31 -9 -40.5 -22.5t-9.5 -26.5q0 -16 11.5 -26t30.5 -10q25 0 62 18t83 42l2 -39q-44 -43 -91 -74t-100 -31zM128 482l-62 15q13 49 43.5 82
t65.5 33q16 0 34.5 -3t38.5 -6.5t37 -3.5q16 0 28 12.5t19 35.5l62 -14q-13 -56 -43.5 -91t-65.5 -35q-19 0 -38 3.5t-37 6.5t-35 3q-16 0 -28.5 -10t-18.5 -28z" />
    <glyph glyph-name="adieresis" unicode="&#xe4;" horiz-adv-x="462" 
d="M370 -8q-45 0 -71.5 31.5t-25.5 92.5l4 170q1 26 -4 41.5t-15 22.5t-25 7t-32 -6.5t-29.5 -23t-14.5 -45.5l-111 13q6 30 24.5 55t46.5 43.5t62.5 28.5t72.5 10q71 0 101.5 -35.5t29.5 -94.5l-2 -208q0 -11 5.5 -16.5t13.5 -5.5t15.5 3t13.5 8l32 -54
q-15 -16 -38.5 -26.5t-52.5 -10.5zM149 -8q-51 0 -82 28.5t-31 73.5q0 26 11.5 49.5t41.5 42.5t85 31l163 36l5 -51l-141 -41q-31 -9 -40.5 -22.5t-9.5 -26.5q0 -16 11.5 -26t30.5 -10q25 0 62 18t83 42l2 -39q-44 -43 -91 -74t-100 -31zM126 501q-30 0 -49 18t-19 47
q0 30 19 48.5t49 18.5t48.5 -18.5t18.5 -48.5q0 -29 -18.5 -47t-48.5 -18zM324 501q-31 0 -50 18t-19 47q0 30 19 48.5t50 18.5q29 0 47.5 -18.5t18.5 -48.5q0 -29 -18.5 -47t-47.5 -18z" />
    <glyph glyph-name="aring" unicode="&#xe5;" horiz-adv-x="462" 
d="M370 -8q-45 0 -71.5 31.5t-25.5 92.5l4 170q1 26 -4 41.5t-15 22.5t-25 7t-32 -6.5t-29.5 -23t-14.5 -45.5l-111 13q6 30 24.5 55t46.5 43.5t62.5 28.5t72.5 10q71 0 101.5 -35.5t29.5 -94.5l-2 -208q0 -11 5.5 -16.5t13.5 -5.5t15.5 3t13.5 8l32 -54
q-15 -16 -38.5 -26.5t-52.5 -10.5zM149 -8q-51 0 -82 28.5t-31 73.5q0 26 11.5 49.5t41.5 42.5t85 31l163 36l5 -51l-141 -41q-31 -9 -40.5 -22.5t-9.5 -26.5q0 -16 11.5 -26t30.5 -10q25 0 62 18t83 42l2 -39q-44 -43 -91 -74t-100 -31zM224 484q-33 0 -59.5 13.5t-41.5 37
t-15 53.5t15.5 53t42.5 36.5t61 13.5q33 0 59 -13.5t41 -37.5t15 -54q0 -29 -15.5 -52.5t-42 -36.5t-60.5 -13zM226 534q18 0 29.5 14.5t11.5 37.5q0 25 -11.5 39.5t-30.5 14.5t-30.5 -14t-11.5 -38t12 -39t31 -15z" />
    <glyph glyph-name="ae" unicode="&#xe6;" horiz-adv-x="648" 
d="M450 -11q-39 0 -71.5 11.5t-56 33.5t-36 53.5t-11.5 71.5l2 126q1 43 -11 58t-38 15q-16 0 -33.5 -5.5t-31 -21.5t-19.5 -50l-107 13q3 28 20.5 53t46 44.5t65 30.5t77.5 11q65 0 96.5 -34t31.5 -98v-136q0 -27 11 -47t33 -30.5t54 -10.5q29 0 59 11t56 33l41 -62
q-29 -28 -60 -43t-61 -21t-57 -6zM144 -11q-55 0 -86.5 31.5t-31.5 81.5q0 22 11 45.5t43 43t94 28.5l437 66l12 -74l-421 -52q-38 -4 -51 -18t-13 -25q0 -19 12.5 -31t33.5 -12q33 0 71 19.5t85 44.5l-1 -44q-46 -47 -90.5 -75.5t-104.5 -28.5zM529 211v65q0 8 -3.5 25.5
t-18.5 33t-48 15.5q-34 0 -60 -22t-38 -59l-50 56q29 48 74 77.5t94 29.5q44 0 77 -20.5t52 -57t19 -84.5q0 -4 -0.5 -21.5t-3.5 -37.5h-94z" />
    <glyph glyph-name="ccedilla" unicode="&#xe7;" horiz-adv-x="447" 
d="M253 -13q-63 0 -112 28t-77 76.5t-28 111.5q0 67 31.5 119t85.5 82t122 30q44 0 79 -13.5t63 -38.5l-48 -89q-26 27 -52.5 42t-56.5 15q-34 0 -56.5 -18.5t-33 -49t-10.5 -66.5q0 -44 16.5 -75.5t45 -48t63.5 -16.5q25 0 51 11t51 33l34 -65q-27 -26 -56.5 -41t-57.5 -21
t-54 -6zM203 0h70l-27 -81l-47 9q10 5 24.5 8t30.5 3q47 0 76.5 -24.5t29.5 -65.5q0 -43 -34 -69.5t-90 -26.5q-29 0 -53.5 8t-44.5 24l15 36q11 -4 26 -7.5t28 -3.5q28 0 40 13.5t12 28.5q0 20 -17 31.5t-42 11.5q-6 0 -15 -1t-19 -3z" />
    <glyph glyph-name="egrave" unicode="&#xe8;" horiz-adv-x="463" 
d="M243 -13q-60 0 -107 24.5t-73.5 71.5t-26.5 113q0 71 30 124.5t81 83.5t115 30q81 0 122 -49t41 -132q0 -11 -0.5 -25.5t-2.5 -27.5h-98v55q0 47 -16 73t-57 26q-33 0 -57 -17.5t-36.5 -49t-12.5 -73.5q0 -65 34 -101.5t89 -36.5q31 0 60.5 11.5t56.5 34.5l37 -60
q-29 -29 -60 -45.5t-61 -23t-58 -6.5zM92 200l13 69h304v-69h-317zM219 505l-129 206h131l82 -206h-84z" />
    <glyph glyph-name="eacute" unicode="&#xe9;" horiz-adv-x="463" 
d="M243 -13q-60 0 -107 24.5t-73.5 71.5t-26.5 113q0 71 30 124.5t81 83.5t115 30q81 0 122 -49t41 -132q0 -11 -0.5 -25.5t-2.5 -27.5h-98v55q0 47 -16 73t-57 26q-33 0 -57 -17.5t-36.5 -49t-12.5 -73.5q0 -65 34 -101.5t89 -36.5q31 0 60.5 11.5t56.5 34.5l37 -60
q-29 -29 -60 -45.5t-61 -23t-58 -6.5zM92 200l13 69h304v-69h-317zM189 505l82 206h131l-129 -206h-84z" />
    <glyph glyph-name="ecircumflex" unicode="&#xea;" horiz-adv-x="463" 
d="M243 -13q-60 0 -107 24.5t-73.5 71.5t-26.5 113q0 71 30 124.5t81 83.5t115 30q81 0 122 -49t41 -132q0 -11 -0.5 -25.5t-2.5 -27.5h-98v55q0 47 -16 73t-57 26q-33 0 -57 -17.5t-36.5 -49t-12.5 -73.5q0 -65 34 -101.5t89 -36.5q31 0 60.5 11.5t56.5 34.5l37 -60
q-29 -29 -60 -45.5t-61 -23t-58 -6.5zM92 200l13 69h304v-69h-317zM314 505l-86 136l-21 70h79l112 -206h-84zM95 505l112 206h79l-20 -68l-87 -138h-84z" />
    <glyph glyph-name="edieresis" unicode="&#xeb;" horiz-adv-x="463" 
d="M243 -13q-60 0 -107 24.5t-73.5 71.5t-26.5 113q0 71 30 124.5t81 83.5t115 30q81 0 122 -49t41 -132q0 -11 -0.5 -25.5t-2.5 -27.5h-98v55q0 47 -16 73t-57 26q-33 0 -57 -17.5t-36.5 -49t-12.5 -73.5q0 -65 34 -101.5t89 -36.5q31 0 60.5 11.5t56.5 34.5l37 -60
q-29 -29 -60 -45.5t-61 -23t-58 -6.5zM92 200l13 69h304v-69h-317zM147 501q-30 0 -49 18t-19 47q0 30 19 48.5t49 18.5t48.5 -18.5t18.5 -48.5q0 -29 -18.5 -47t-48.5 -18zM345 501q-31 0 -50 18t-19 47q0 30 19 48.5t50 18.5q29 0 47.5 -18.5t18.5 -48.5q0 -29 -18.5 -47
t-47.5 -18z" />
    <glyph glyph-name="igrave" unicode="&#xec;" horiz-adv-x="274" 
d="M79 0v411l116 21v-432h-116zM120 505l-129 206h131l82 -206h-84z" />
    <glyph glyph-name="iacute" unicode="&#xed;" horiz-adv-x="274" 
d="M79 0v411l116 21v-432h-116zM80 505l82 206h131l-129 -206h-84z" />
    <glyph glyph-name="icircumflex" unicode="&#xee;" horiz-adv-x="274" 
d="M79 0v411l116 21v-432h-116zM205 505l-86 136l-21 70h79l112 -206h-84zM-14 505l112 206h79l-20 -68l-87 -138h-84z" />
    <glyph glyph-name="idieresis" unicode="&#xef;" horiz-adv-x="274" 
d="M79 0v411l116 21v-432h-116zM48 501q-30 0 -49 18t-19 47q0 30 19 48.5t49 18.5t48.5 -18.5t18.5 -48.5q0 -29 -18.5 -47t-48.5 -18zM226 501q-31 0 -50 18t-19 47q0 30 19 48.5t50 18.5q29 0 47.5 -18.5t18.5 -48.5q0 -29 -18.5 -47t-47.5 -18z" />
    <glyph glyph-name="eth" unicode="&#xf0;" horiz-adv-x="527" 
d="M258 -10q-64 0 -114 27.5t-79 76t-29 110.5t29 110.5t78.5 76t110.5 27.5q50 0 89 -19.5t61 -54.5l-27 -54q-21 26 -46 40t-59 14q-39 0 -63.5 -17.5t-36.5 -47t-12 -64.5q0 -44 15.5 -76t42 -48.5t58.5 -16.5q55 0 78 45.5t23 111.5q0 85 -34.5 166t-101.5 148.5
t-163 109.5l30 66q85 -29 155 -80t121 -116t79 -136.5t28 -142.5q0 -72 -28 -130t-80.5 -92t-124.5 -34zM103 452l-43 69l343 198l42 -70z" />
    <glyph glyph-name="ntilde" unicode="&#xf1;" horiz-adv-x="535" 
d="M356 0v233q0 51 -22 80.5t-63 29.5q-22 0 -46 -8t-44 -23t-33 -37l-36 25q28 42 61 70.5t70.5 43t78.5 14.5q42 0 76 -18t54 -52.5t20 -82.5v-275h-116zM63 0v411l95 21l21 -86v-346h-116zM160 482l-62 15q13 49 43.5 82t65.5 33q16 0 34.5 -3t38.5 -6.5t37 -3.5
q16 0 28 12.5t19 35.5l62 -14q-13 -56 -43.5 -91t-65.5 -35q-19 0 -38 3.5t-37 6.5t-35 3q-16 0 -28.5 -10t-18.5 -28z" />
    <glyph glyph-name="ograve" unicode="&#xf2;" horiz-adv-x="534" 
d="M258 -13q-64 0 -114.5 28t-79 77t-28.5 111q0 68 31.5 120t86 81.5t123.5 29.5q64 0 113.5 -27.5t78.5 -76t29 -111.5q0 -67 -31 -119.5t-85 -82.5t-124 -30zM275 67q35 0 57 20t32 52t10 67q0 48 -15.5 81t-41 50t-57.5 17q-34 0 -56.5 -19t-33 -50t-10.5 -68
q0 -48 15.5 -81.5t42 -51t57.5 -17.5zM250 505l-129 206h131l82 -206h-84z" />
    <glyph glyph-name="oacute" unicode="&#xf3;" horiz-adv-x="534" 
d="M258 -13q-64 0 -114.5 28t-79 77t-28.5 111q0 68 31.5 120t86 81.5t123.5 29.5q64 0 113.5 -27.5t78.5 -76t29 -111.5q0 -67 -31 -119.5t-85 -82.5t-124 -30zM275 67q35 0 57 20t32 52t10 67q0 48 -15.5 81t-41 50t-57.5 17q-34 0 -56.5 -19t-33 -50t-10.5 -68
q0 -48 15.5 -81.5t42 -51t57.5 -17.5zM220 505l82 206h131l-129 -206h-84z" />
    <glyph glyph-name="ocircumflex" unicode="&#xf4;" horiz-adv-x="534" 
d="M258 -13q-64 0 -114.5 28t-79 77t-28.5 111q0 68 31.5 120t86 81.5t123.5 29.5q64 0 113.5 -27.5t78.5 -76t29 -111.5q0 -67 -31 -119.5t-85 -82.5t-124 -30zM275 67q35 0 57 20t32 52t10 67q0 48 -15.5 81t-41 50t-57.5 17q-34 0 -56.5 -19t-33 -50t-10.5 -68
q0 -48 15.5 -81.5t42 -51t57.5 -17.5zM345 505l-86 136l-21 70h79l112 -206h-84zM126 505l112 206h79l-20 -68l-87 -138h-84z" />
    <glyph glyph-name="otilde" unicode="&#xf5;" horiz-adv-x="534" 
d="M258 -13q-64 0 -114.5 28t-79 77t-28.5 111q0 68 31.5 120t86 81.5t123.5 29.5q64 0 113.5 -27.5t78.5 -76t29 -111.5q0 -67 -31 -119.5t-85 -82.5t-124 -30zM275 67q35 0 57 20t32 52t10 67q0 48 -15.5 81t-41 50t-57.5 17q-34 0 -56.5 -19t-33 -50t-10.5 -68
q0 -48 15.5 -81.5t42 -51t57.5 -17.5zM180 482l-62 15q13 49 43.5 82t65.5 33q16 0 34.5 -3t38.5 -6.5t37 -3.5q16 0 28 12.5t19 35.5l62 -14q-13 -56 -43.5 -91t-65.5 -35q-19 0 -38 3.5t-37 6.5t-35 3q-16 0 -28.5 -10t-18.5 -28z" />
    <glyph glyph-name="odieresis" unicode="&#xf6;" horiz-adv-x="534" 
d="M258 -13q-64 0 -114.5 28t-79 77t-28.5 111q0 68 31.5 120t86 81.5t123.5 29.5q64 0 113.5 -27.5t78.5 -76t29 -111.5q0 -67 -31 -119.5t-85 -82.5t-124 -30zM275 67q35 0 57 20t32 52t10 67q0 48 -15.5 81t-41 50t-57.5 17q-34 0 -56.5 -19t-33 -50t-10.5 -68
q0 -48 15.5 -81.5t42 -51t57.5 -17.5zM178 501q-30 0 -49 18t-19 47q0 30 19 48.5t49 18.5t48.5 -18.5t18.5 -48.5q0 -29 -18.5 -47t-48.5 -18zM376 501q-31 0 -50 18t-19 47q0 30 19 48.5t50 18.5q29 0 47.5 -18.5t18.5 -48.5q0 -29 -18.5 -47t-47.5 -18z" />
    <glyph glyph-name="divide" unicode="&#xf7;" horiz-adv-x="550" 
d="M42 187v86h466v-86h-466zM276 348q-29 0 -46 17t-17 44q0 28 17 45t46 17q27 0 44 -17t17 -45q0 -27 -17 -44t-44 -17zM276 -10q-29 0 -46 17t-17 44q0 28 17 45t46 17q27 0 44 -17t17 -45q0 -27 -17 -44t-44 -17z" />
    <glyph glyph-name="oslash" unicode="&#xf8;" horiz-adv-x="534" 
d="M258 -13q-64 0 -114.5 28t-79 77t-28.5 111q0 67 31.5 119t86 82t123.5 30q64 0 113.5 -28t78.5 -76.5t29 -110.5q0 -67 -31 -119.5t-85 -82.5t-124 -30zM275 66q39 0 63 20t35 52.5t11 67.5q0 48 -16.5 81t-44.5 50.5t-63 17.5q-38 0 -62.5 -19.5t-36 -50.5t-11.5 -68
q0 -48 17 -81.5t45.5 -51.5t62.5 -18zM93 -51l-63 53l415 465l64 -53z" />
    <glyph glyph-name="ugrave" unicode="&#xf9;" horiz-adv-x="531" 
d="M214 -7q-65 0 -108 41t-43 112v265l116 21v-244q0 -51 21.5 -80.5t62.5 -29.5q21 0 44 8t43 23t32 37l37 -25q-27 -41 -60 -69.5t-69.5 -43.5t-75.5 -15zM373 -11l-21 86v336l116 21v-421zM248 505l-129 206h131l82 -206h-84z" />
    <glyph glyph-name="uacute" unicode="&#xfa;" horiz-adv-x="531" 
d="M214 -7q-65 0 -108 41t-43 112v265l116 21v-244q0 -51 21.5 -80.5t62.5 -29.5q21 0 44 8t43 23t32 37l37 -25q-27 -41 -60 -69.5t-69.5 -43.5t-75.5 -15zM373 -11l-21 86v336l116 21v-421zM218 505l82 206h131l-129 -206h-84z" />
    <glyph glyph-name="ucircumflex" unicode="&#xfb;" horiz-adv-x="531" 
d="M214 -7q-65 0 -108 41t-43 112v265l116 21v-244q0 -51 21.5 -80.5t62.5 -29.5q21 0 44 8t43 23t32 37l37 -25q-27 -41 -60 -69.5t-69.5 -43.5t-75.5 -15zM373 -11l-21 86v336l116 21v-421zM343 505l-86 136l-21 70h79l112 -206h-84zM124 505l112 206h79l-20 -68l-87 -138
h-84z" />
    <glyph glyph-name="udieresis" unicode="&#xfc;" horiz-adv-x="531" 
d="M214 -7q-65 0 -108 41t-43 112v265l116 21v-244q0 -51 21.5 -80.5t62.5 -29.5q21 0 44 8t43 23t32 37l37 -25q-27 -41 -60 -69.5t-69.5 -43.5t-75.5 -15zM373 -11l-21 86v336l116 21v-421zM176 501q-30 0 -49 18t-19 47q0 30 19 48.5t49 18.5t48.5 -18.5t18.5 -48.5
q0 -29 -18.5 -47t-48.5 -18zM374 501q-31 0 -50 18t-19 47q0 30 19 48.5t50 18.5q29 0 47.5 -18.5t18.5 -48.5q0 -29 -18.5 -47t-47.5 -18z" />
    <glyph glyph-name="yacute" unicode="&#xfd;" horiz-adv-x="474" 
d="M224 -56l-213 477h127l132 -351zM346 421h117l-270 -710h-123l160 325zM179 505l82 206h131l-129 -206h-84z" />
    <glyph glyph-name="thorn" unicode="&#xfe;" horiz-adv-x="538" 
d="M285 -7q-55 0 -92.5 27.5t-53.5 76.5l28 35q17 -28 43 -42.5t56 -14.5q35 0 60 17t38.5 48t13.5 73q0 38 -11.5 69t-34 50t-54.5 19q-26 0 -56.5 -15t-53.5 -53l-40 21q34 63 77.5 93.5t103.5 30.5q59 0 102.5 -26.5t67 -72.5t23.5 -105q0 -66 -29.5 -118t-78.5 -82.5
t-109 -30.5zM64 -289v989l115 21v-989z" />
    <glyph glyph-name="ydieresis" unicode="&#xff;" horiz-adv-x="474" 
d="M224 -56l-213 477h127l132 -351zM346 421h117l-270 -710h-123l160 325zM137 501q-30 0 -49 18t-19 47q0 30 19 48.5t49 18.5t48.5 -18.5t18.5 -48.5q0 -29 -18.5 -47t-48.5 -18zM335 501q-31 0 -50 18t-19 47q0 30 19 48.5t50 18.5q29 0 47.5 -18.5t18.5 -48.5
q0 -29 -18.5 -47t-47.5 -18z" />
    <glyph glyph-name="Amacron" unicode="&#x100;" horiz-adv-x="676" 
d="M514 0l-207 592h49l-203 -592h-127l265 658h108l251 -658h-136zM143 186l36 99h284l53 -99h-373zM178 746v82h325v-82h-325z" />
    <glyph glyph-name="amacron" unicode="&#x101;" horiz-adv-x="462" 
d="M370 -8q-45 0 -71.5 31.5t-25.5 92.5l4 170q1 26 -4 41.5t-15 22.5t-25 7t-32 -6.5t-29.5 -23t-14.5 -45.5l-111 13q6 30 24.5 55t46.5 43.5t62.5 28.5t72.5 10q71 0 101.5 -35.5t29.5 -94.5l-2 -208q0 -11 5.5 -16.5t13.5 -5.5t15.5 3t13.5 8l32 -54
q-15 -16 -38.5 -26.5t-52.5 -10.5zM149 -8q-51 0 -82 28.5t-31 73.5q0 26 11.5 49.5t41.5 42.5t85 31l163 36l5 -51l-141 -41q-31 -9 -40.5 -22.5t-9.5 -26.5q0 -16 11.5 -26t30.5 -10q25 0 62 18t83 42l2 -39q-44 -43 -91 -74t-100 -31zM92 509v82h265v-82h-265z" />
    <glyph glyph-name="Abreve" unicode="&#x102;" horiz-adv-x="676" 
d="M514 0l-207 592h49l-203 -592h-127l265 658h108l251 -658h-136zM143 186l36 99h284l53 -99h-373zM341 705q-63 0 -104 41t-54 115l63 10q8 -34 34 -53.5t61 -19.5t61.5 19.5t33.5 53.5l63 -10q-13 -74 -54 -115t-104 -41z" />
    <glyph glyph-name="abreve" unicode="&#x103;" horiz-adv-x="462" 
d="M370 -8q-45 0 -71.5 31.5t-25.5 92.5l4 170q1 26 -4 41.5t-15 22.5t-25 7t-32 -6.5t-29.5 -23t-14.5 -45.5l-111 13q6 30 24.5 55t46.5 43.5t62.5 28.5t72.5 10q71 0 101.5 -35.5t29.5 -94.5l-2 -208q0 -11 5.5 -16.5t13.5 -5.5t15.5 3t13.5 8l32 -54
q-15 -16 -38.5 -26.5t-52.5 -10.5zM149 -8q-51 0 -82 28.5t-31 73.5q0 26 11.5 49.5t41.5 42.5t85 31l163 36l5 -51l-141 -41q-31 -9 -40.5 -22.5t-9.5 -26.5q0 -16 11.5 -26t30.5 -10q25 0 62 18t83 42l2 -39q-44 -43 -91 -74t-100 -31zM224 495q-59 0 -97 42.5t-50 118.5
l63 9q6 -35 29.5 -56.5t54.5 -21.5q32 0 55 21.5t29 56.5l64 -9q-12 -76 -50.5 -118.5t-97.5 -42.5z" />
    <glyph glyph-name="Aogonek" unicode="&#x104;" horiz-adv-x="676" 
d="M514 0l-207 592h49l-203 -592h-127l265 658h108l251 -658h-136zM143 186l36 99h284l53 -99h-373zM594 -289q-76 0 -117.5 37.5t-41.5 99.5q0 50 32 101t102 92l81 -41q-48 -25 -70.5 -57t-22.5 -67q0 -31 18.5 -56t61.5 -25q9 0 18.5 1.5t18.5 5.5l28 -61
q-24 -15 -49.5 -22.5t-58.5 -7.5z" />
    <glyph glyph-name="aogonek" unicode="&#x105;" horiz-adv-x="460" 
d="M374 2q-50 0 -76 29.5t-25 84.5l4 170q1 28 -3.5 43.5t-14.5 21.5t-26 6q-15 0 -31.5 -7.5t-28.5 -26t-16 -51.5l-111 13q4 30 22 56.5t47 47t66 32t79 11.5q59 0 89 -34t29 -96l-2 -207q0 -11 4.5 -16.5t14.5 -5.5t18.5 3t18.5 7l33 -51zM366 -289q-70 0 -109.5 34.5
t-39.5 89.5q0 59 51 115.5t164 102.5l33 -21q-70 -37 -103 -82.5t-33 -89.5q0 -32 17.5 -50.5t49.5 -18.5q16 0 28.5 4t23.5 11l29 -59q-25 -18 -50.5 -27t-60.5 -9zM153 -8q-55 0 -86 28.5t-31 72.5q0 27 11.5 50t41.5 41t85 30l163 36l5 -48l-141 -41q-31 -9 -40.5 -22.5
t-9.5 -26.5q0 -16 11.5 -26t30.5 -10q25 0 62 18t83 42l2 -39q-44 -43 -91 -74t-96 -31z" />
    <glyph glyph-name="Cacute" unicode="&#x106;" horiz-adv-x="652" 
d="M394 -13q-102 0 -179 41.5t-120 116t-43 172.5q0 84 28.5 149.5t78.5 111t115 69.5t139 24q53 0 107 -14.5t103 -43.5l-58 -112q-45 39 -88.5 57.5t-90.5 18.5q-61 0 -105.5 -28.5t-68 -82t-23.5 -127.5q0 -79 30 -137.5t79.5 -91t107.5 -32.5q52 0 96 21t74 55l53 -100
q-52 -34 -111.5 -50.5t-123.5 -16.5zM341 731l65 176h139l-112 -176h-92z" />
    <glyph glyph-name="cacute" unicode="&#x107;" horiz-adv-x="447" 
d="M253 -13q-63 0 -112 28t-77 76.5t-28 111.5q0 67 31.5 119t85.5 82t122 30q44 0 79 -13.5t63 -38.5l-48 -89q-26 27 -52.5 42t-56.5 15q-34 0 -56.5 -18.5t-33 -49t-10.5 -66.5q0 -44 16.5 -75.5t45 -48t63.5 -16.5q25 0 51 11t51 33l34 -65q-27 -26 -56.5 -41t-57.5 -21
t-54 -6zM208 505l82 206h131l-129 -206h-84z" />
    <glyph glyph-name="Ccircumflex" unicode="&#x108;" horiz-adv-x="652" 
d="M394 -13q-102 0 -179 41.5t-120 116t-43 172.5q0 84 28.5 149.5t78.5 111t115 69.5t139 24q53 0 107 -14.5t103 -43.5l-58 -112q-45 39 -88.5 57.5t-90.5 18.5q-61 0 -105.5 -28.5t-68 -82t-23.5 -127.5q0 -79 30 -137.5t79.5 -91t107.5 -32.5q52 0 96 21t74 55l53 -100
q-52 -34 -111.5 -50.5t-123.5 -16.5zM477 731l-101 101l-21 75h79l132 -176h-89zM223 731l132 176h79l-20 -73l-102 -103h-89z" />
    <glyph glyph-name="ccircumflex" unicode="&#x109;" horiz-adv-x="447" 
d="M253 -13q-63 0 -112 28t-77 76.5t-28 111.5q0 67 31.5 119t85.5 82t122 30q44 0 79 -13.5t63 -38.5l-48 -89q-26 27 -52.5 42t-56.5 15q-34 0 -56.5 -18.5t-33 -49t-10.5 -66.5q0 -44 16.5 -75.5t45 -48t63.5 -16.5q25 0 51 11t51 33l34 -65q-27 -26 -56.5 -41t-57.5 -21
t-54 -6zM333 505l-86 136l-21 70h79l112 -206h-84zM114 505l112 206h79l-20 -68l-87 -138h-84z" />
    <glyph glyph-name="Cdotaccent" unicode="&#x10a;" horiz-adv-x="652" 
d="M394 -13q-102 0 -179 41.5t-120 116t-43 172.5q0 84 28.5 149.5t78.5 111t115 69.5t139 24q53 0 107 -14.5t103 -43.5l-58 -112q-45 39 -88.5 57.5t-90.5 18.5q-61 0 -105.5 -28.5t-68 -82t-23.5 -127.5q0 -79 30 -137.5t79.5 -91t107.5 -32.5q52 0 96 21t74 55l53 -100
q-52 -34 -111.5 -50.5t-123.5 -16.5zM395 731q-33 0 -53 19t-20 51t20 51.5t53 19.5q32 0 52 -19.5t20 -51.5t-20 -51t-52 -19z" />
    <glyph glyph-name="cdotaccent" unicode="&#x10b;" horiz-adv-x="447" 
d="M253 -13q-63 0 -112 28t-77 76.5t-28 111.5q0 67 31.5 119t85.5 82t122 30q44 0 79 -13.5t63 -38.5l-48 -89q-26 27 -52.5 42t-56.5 15q-34 0 -56.5 -18.5t-33 -49t-10.5 -66.5q0 -44 16.5 -75.5t45 -48t63.5 -16.5q25 0 51 11t51 33l34 -65q-27 -26 -56.5 -41t-57.5 -21
t-54 -6zM265 513q-33 0 -53 19t-20 51t20 51.5t53 19.5q32 0 52 -19.5t20 -51.5t-20 -51t-52 -19z" />
    <glyph glyph-name="Ccaron" unicode="&#x10c;" horiz-adv-x="652" 
d="M394 -13q-102 0 -179 41.5t-120 116t-43 172.5q0 84 28.5 149.5t78.5 111t115 69.5t139 24q53 0 107 -14.5t103 -43.5l-58 -112q-45 39 -88.5 57.5t-90.5 18.5q-61 0 -105.5 -28.5t-68 -82t-23.5 -127.5q0 -79 30 -137.5t79.5 -91t107.5 -32.5q52 0 96 21t74 55l53 -100
q-52 -34 -111.5 -50.5t-123.5 -16.5zM355 731l21 75l101 101h89l-132 -176h-79zM355 731l-132 176h89l102 -103l20 -73h-79z" />
    <glyph glyph-name="ccaron" unicode="&#x10d;" horiz-adv-x="447" 
d="M253 -13q-63 0 -112 28t-77 76.5t-28 111.5q0 67 31.5 119t85.5 82t122 30q44 0 79 -13.5t63 -38.5l-48 -89q-26 27 -52.5 42t-56.5 15q-34 0 -56.5 -18.5t-33 -49t-10.5 -66.5q0 -44 16.5 -75.5t45 -48t63.5 -16.5q25 0 51 11t51 33l34 -65q-27 -26 -56.5 -41t-57.5 -21
t-54 -6zM226 505l21 70l86 136h84l-112 -206h-79zM226 505l-112 206h84l87 -138l20 -68h-79z" />
    <glyph glyph-name="Dcaron" unicode="&#x10e;" horiz-adv-x="734" 
d="M95 0v658h218q79 0 146.5 -20.5t117.5 -60t77.5 -97.5t27.5 -133q0 -60 -20.5 -121.5t-65.5 -112.5t-119 -82t-181 -31h-201zM221 91h86q73 0 120 19.5t73.5 53t37 75t10.5 86.5q0 63 -24 117.5t-80 88.5t-152 34h-71v-474zM288 731l21 75l101 101h89l-132 -176h-79z
M288 731l-132 176h89l102 -103l20 -73h-79z" />
    <glyph glyph-name="dcaron" unicode="&#x10f;" horiz-adv-x="537" 
d="M228 -10q-58 0 -101.5 27t-67 74t-23.5 107q0 67 29 119.5t77.5 83t105.5 30.5q36 0 66 -12.5t52 -36.5t33 -58l-28 -35q-17 30 -43 45t-56 15q-34 0 -59.5 -17t-39 -48t-13.5 -73q0 -40 11.5 -72.5t34 -51.5t54.5 -19q26 0 56.5 15.5t52.5 54.5l40 -21
q-22 -43 -48.5 -71t-59.5 -42t-73 -14zM380 -11l-21 86v625l115 21v-710zM599 463l-71 -1v248h101z" />
    <glyph glyph-name="Dcroat" unicode="&#x110;" horiz-adv-x="743" 
d="M105 0v658h218q107 0 190.5 -36t131 -105.5t47.5 -169.5q0 -60 -20.5 -121.5t-65.5 -112.5t-119 -82t-181 -31h-201zM28 282v93h365v-93h-365zM231 91h86q73 0 120 19.5t73.5 53t37 75t10.5 86.5q0 63 -24 117.5t-80 88.5t-152 34h-71v-474z" />
    <glyph glyph-name="dcroat" unicode="&#x111;" horiz-adv-x="537" 
d="M228 -10q-58 0 -101.5 27t-67 74t-23.5 107q0 67 29 119.5t77.5 83t105.5 30.5q36 0 66 -12.5t52 -36.5t33 -58l-28 -35q-17 30 -43 45t-56 15q-34 0 -59.5 -17t-39 -48t-13.5 -73q0 -40 11.5 -72.5t34 -51.5t54.5 -19q26 0 56.5 15.5t52.5 54.5l40 -21
q-22 -43 -48.5 -71t-59.5 -42t-73 -14zM380 -11l-21 86v625l115 21v-710zM205 595l366 -2l-8 -76l-366 -8z" />
    <glyph glyph-name="Emacron" unicode="&#x112;" horiz-adv-x="579" 
d="M528 0h-433v658h399v-100h-277v-458h311v-100zM134 285v97h322v-97h-322zM152 746v82h325v-82h-325z" />
    <glyph glyph-name="emacron" unicode="&#x113;" horiz-adv-x="462" 
d="M243 -13q-60 0 -107 24.5t-73.5 71.5t-26.5 113q0 71 30 124.5t81 83.5t115 30q81 0 122 -49t41 -132q0 -11 -0.5 -25.5t-2.5 -27.5h-98v55q0 47 -16 73t-57 26q-33 0 -57 -17.5t-36.5 -49t-12.5 -73.5q0 -65 34 -101.5t89 -36.5q31 0 60.5 11.5t56.5 34.5l37 -60
q-29 -29 -60 -45.5t-61 -23t-58 -6.5zM92 200l13 69h304v-69h-317zM111 509v82h265v-82h-265z" />
    <glyph glyph-name="Ebreve" unicode="&#x114;" horiz-adv-x="579" 
d="M528 0h-433v658h399v-100h-277v-458h311v-100zM134 285v97h322v-97h-322zM315 705q-63 0 -104 41t-54 115l63 10q8 -34 34 -53.5t61 -19.5t61.5 19.5t33.5 53.5l63 -10q-13 -74 -54 -115t-104 -41z" />
    <glyph glyph-name="ebreve" unicode="&#x115;" horiz-adv-x="463" 
d="M243 -13q-60 0 -107 24.5t-73.5 71.5t-26.5 113q0 71 30 124.5t81 83.5t115 30q81 0 122 -49t41 -132q0 -11 -0.5 -25.5t-2.5 -27.5h-98v55q0 47 -16 73t-57 26q-33 0 -57 -17.5t-36.5 -49t-12.5 -73.5q0 -65 34 -101.5t89 -36.5q31 0 60.5 11.5t56.5 34.5l37 -60
q-29 -29 -60 -45.5t-61 -23t-58 -6.5zM92 200l13 69h304v-69h-317zM245 495q-59 0 -97 42.5t-50 118.5l63 9q6 -35 29.5 -56.5t54.5 -21.5q32 0 55 21.5t29 56.5l64 -9q-12 -76 -50.5 -118.5t-97.5 -42.5z" />
    <glyph glyph-name="Edotaccent" unicode="&#x116;" horiz-adv-x="579" 
d="M528 0h-433v658h399v-100h-277v-458h311v-100zM134 285v97h322v-97h-322zM315 731q-33 0 -53 19t-20 51t20 51.5t53 19.5q32 0 52 -19.5t20 -51.5t-20 -51t-52 -19z" />
    <glyph glyph-name="edotaccent" unicode="&#x117;" horiz-adv-x="462" 
d="M243 -13q-60 0 -107 24.5t-73.5 71.5t-26.5 113q0 71 30 124.5t81 83.5t115 30q81 0 122 -49t41 -132q0 -11 -0.5 -25.5t-2.5 -27.5h-98v55q0 47 -16 73t-57 26q-33 0 -57 -17.5t-36.5 -49t-12.5 -73.5q0 -65 34 -101.5t89 -36.5q31 0 60.5 11.5t56.5 34.5l37 -60
q-29 -29 -60 -45.5t-61 -23t-58 -6.5zM92 200l13 69h304v-69h-317zM244 513q-33 0 -53 19t-20 51t20 51.5t53 19.5q32 0 52 -19.5t20 -51.5t-20 -51t-52 -19z" />
    <glyph glyph-name="Eogonek" unicode="&#x118;" horiz-adv-x="579" 
d="M528 0h-433v658h399v-100h-277v-458h311v-100zM134 285v97h322v-97h-322zM472 -289q-76 0 -117.5 37.5t-41.5 99.5q0 52 41.5 106t134.5 97l39 -51q-48 -25 -70.5 -57t-22.5 -67q0 -31 18.5 -56t61.5 -25q9 0 18.5 1.5t18.5 5.5l28 -61q-24 -15 -49.5 -22.5t-58.5 -7.5z
" />
    <glyph glyph-name="eogonek" unicode="&#x119;" horiz-adv-x="463" 
d="M243 -13q-60 0 -107 24.5t-73.5 71.5t-26.5 113q0 71 30 124.5t81 83.5t115 30q81 0 122 -49t41 -132q0 -11 -0.5 -25.5t-2.5 -27.5h-98v55q0 47 -16 72t-57 25q-34 0 -58 -17.5t-37 -48.5t-13 -72q0 -65 34 -101.5t91 -36.5q31 0 60 11.5t56 33.5l39 -62
q-29 -28 -60 -44t-61.5 -22t-58.5 -6zM308 -289q-45 0 -78.5 16t-51.5 42.5t-18 55.5q0 40 17 76.5t56.5 72t107.5 72.5l82 13q-53 -51 -85.5 -86t-47.5 -62t-15 -53q0 -31 19 -49.5t51 -18.5q16 0 28 3.5t22 10.5l32 -58q-25 -17 -52.5 -26t-66.5 -9zM92 200l13 69h304v-69
h-317z" />
    <glyph glyph-name="Ecaron" unicode="&#x11a;" horiz-adv-x="579" 
d="M528 0h-433v658h399v-100h-277v-458h311v-100zM134 285v97h322v-97h-322zM275 731l21 75l101 101h89l-132 -176h-79zM275 731l-132 176h89l102 -103l20 -73h-79z" />
    <glyph glyph-name="ecaron" unicode="&#x11b;" horiz-adv-x="463" 
d="M243 -13q-60 0 -107 24.5t-73.5 71.5t-26.5 113q0 71 30 124.5t81 83.5t115 30q81 0 122 -49t41 -132q0 -11 -0.5 -25.5t-2.5 -27.5h-98v55q0 47 -16 73t-57 26q-33 0 -57 -17.5t-36.5 -49t-12.5 -73.5q0 -65 34 -101.5t89 -36.5q31 0 60.5 11.5t56.5 34.5l37 -60
q-29 -29 -60 -45.5t-61 -23t-58 -6.5zM92 200l13 69h304v-69h-317zM207 505l21 70l86 136h84l-112 -206h-79zM207 505l-112 206h84l87 -138l20 -68h-79z" />
    <glyph glyph-name="Gcircumflex" unicode="&#x11c;" horiz-adv-x="722" 
d="M421 -13q-114 0 -197 41.5t-127.5 115.5t-44.5 172q0 77 28 142t78.5 112.5t119 74t150.5 26.5q56 0 116 -14.5t106 -46.5l-56 -115q-49 48 -100.5 65t-93.5 17q-67 0 -114 -30.5t-72 -85t-25 -125.5q0 -76 31.5 -134t88.5 -90.5t134 -32.5q41 0 82 8.5t76 29.5l-65 -75
v200h-115v92h233v-293q-34 -18 -73 -30t-79.5 -18t-80.5 -6zM483 731l-101 101l-21 75h79l132 -176h-89zM229 731l132 176h79l-20 -73l-102 -103h-89z" />
    <glyph glyph-name="gcircumflex" unicode="&#x11d;" horiz-adv-x="496" 
d="M212 -289q-53 0 -95 14.5t-65.5 42.5t-23.5 66q0 47 46.5 93.5t139.5 80.5l26 -28q-48 -25 -71.5 -57t-23.5 -65q0 -34 27.5 -52.5t70.5 -18.5q33 0 61.5 10.5t45.5 31t17 49.5q0 27 -14.5 40t-46.5 19t-83 11q-41 5 -79.5 15t-62.5 30.5t-24 55.5q0 29 15.5 51t43 40
t63.5 34l28 -30q-16 -6 -34.5 -20t-18.5 -35q0 -16 12.5 -25.5t42 -15t79.5 -11.5q50 -5 93 -15t69.5 -34t26.5 -73q0 -61 -37 -107t-97 -71.5t-131 -25.5zM224 119q-52 0 -90.5 19.5t-59.5 53t-21 76.5q0 49 26 86t69.5 58.5t97.5 21.5q76 0 122.5 -41t46.5 -107
q0 -48 -24 -85.5t-67 -59.5t-100 -22zM242 196q22 0 37.5 9t24 25t8.5 38q0 39 -23 64t-62 25q-32 0 -51 -19.5t-19 -54.5q0 -26 11 -45.5t30.5 -30.5t43.5 -11zM315 348l-11 53l179 21v-74h-168zM322 505l-86 136l-21 70h79l112 -206h-84zM103 505l112 206h79l-20 -68
l-87 -138h-84z" />
    <glyph glyph-name="Gbreve" unicode="&#x11e;" horiz-adv-x="722" 
d="M421 -13q-114 0 -197 41.5t-127.5 115.5t-44.5 172q0 77 28 142t78.5 112.5t119 74t150.5 26.5q56 0 116 -14.5t106 -46.5l-56 -115q-49 48 -100.5 65t-93.5 17q-67 0 -114 -30.5t-72 -85t-25 -125.5q0 -76 31.5 -134t88.5 -90.5t134 -32.5q41 0 82 8.5t76 29.5l-65 -75
v200h-115v92h233v-293q-34 -18 -73 -30t-79.5 -18t-80.5 -6zM401 705q-63 0 -104 41t-54 115l63 10q8 -34 34 -53.5t61 -19.5t61.5 19.5t33.5 53.5l63 -10q-13 -74 -54 -115t-104 -41z" />
    <glyph glyph-name="gbreve" unicode="&#x11f;" horiz-adv-x="496" 
d="M212 -289q-53 0 -95 14.5t-65.5 42.5t-23.5 66q0 47 46.5 93.5t139.5 80.5l26 -28q-48 -25 -71.5 -57t-23.5 -65q0 -34 27.5 -52.5t70.5 -18.5q33 0 61.5 10.5t45.5 31t17 49.5q0 27 -14.5 40t-46.5 19t-83 11q-41 5 -79.5 15t-62.5 30.5t-24 55.5q0 29 15.5 51t43 40
t63.5 34l28 -30q-16 -6 -34.5 -20t-18.5 -35q0 -16 12.5 -25.5t42 -15t79.5 -11.5q50 -5 93 -15t69.5 -34t26.5 -73q0 -61 -37 -107t-97 -71.5t-131 -25.5zM224 119q-52 0 -90.5 19.5t-59.5 53t-21 76.5q0 49 26 86t69.5 58.5t97.5 21.5q76 0 122.5 -41t46.5 -107
q0 -48 -24 -85.5t-67 -59.5t-100 -22zM242 196q22 0 37.5 9t24 25t8.5 38q0 39 -23 64t-62 25q-32 0 -51 -19.5t-19 -54.5q0 -26 11 -45.5t30.5 -30.5t43.5 -11zM315 348l-11 53l179 21v-74h-168zM253 495q-59 0 -97 42.5t-50 118.5l63 9q6 -35 29.5 -56.5t54.5 -21.5
q32 0 55 21.5t29 56.5l64 -9q-12 -76 -50.5 -118.5t-97.5 -42.5z" />
    <glyph glyph-name="Gdotaccent" unicode="&#x120;" horiz-adv-x="722" 
d="M421 -13q-114 0 -197 41.5t-127.5 115.5t-44.5 172q0 77 28 142t78.5 112.5t119 74t150.5 26.5q56 0 116 -14.5t106 -46.5l-56 -115q-49 48 -100.5 65t-93.5 17q-67 0 -114 -30.5t-72 -85t-25 -125.5q0 -76 31.5 -134t88.5 -90.5t134 -32.5q41 0 82 8.5t76 29.5l-65 -75
v200h-115v92h233v-293q-34 -18 -73 -30t-79.5 -18t-80.5 -6zM401 731q-33 0 -53 19t-20 51t20 51.5t53 19.5q32 0 52 -19.5t20 -51.5t-20 -51t-52 -19z" />
    <glyph glyph-name="gdotaccent" unicode="&#x121;" horiz-adv-x="496" 
d="M212 -289q-53 0 -95 14.5t-65.5 42.5t-23.5 66q0 47 46.5 93.5t139.5 80.5l26 -28q-48 -25 -71.5 -57t-23.5 -65q0 -34 27.5 -52.5t70.5 -18.5q33 0 61.5 10.5t45.5 31t17 49.5q0 27 -14.5 40t-46.5 19t-83 11q-41 5 -79.5 15t-62.5 30.5t-24 55.5q0 29 15.5 51t43 40
t63.5 34l28 -30q-16 -6 -34.5 -20t-18.5 -35q0 -16 12.5 -25.5t42 -15t79.5 -11.5q50 -5 93 -15t69.5 -34t26.5 -73q0 -61 -37 -107t-97 -71.5t-131 -25.5zM224 119q-52 0 -90.5 19.5t-59.5 53t-21 76.5q0 49 26 86t69.5 58.5t97.5 21.5q76 0 122.5 -41t46.5 -107
q0 -48 -24 -85.5t-67 -59.5t-100 -22zM242 196q22 0 37.5 9t24 25t8.5 38q0 39 -23 64t-62 25q-32 0 -51 -19.5t-19 -54.5q0 -26 11 -45.5t30.5 -30.5t43.5 -11zM315 348l-11 53l179 21v-74h-168zM254 513q-33 0 -53 19t-20 51t20 51.5t53 19.5q32 0 52 -19.5t20 -51.5
t-20 -51t-52 -19z" />
    <glyph glyph-name="uni0122" unicode="&#x122;" horiz-adv-x="722" 
d="M421 -13q-114 0 -197 41.5t-127.5 115.5t-44.5 172q0 77 28 142t78.5 112.5t119 74t150.5 26.5q56 0 116 -14.5t106 -46.5l-56 -115q-49 48 -100.5 65t-93.5 17q-67 0 -114 -30.5t-72 -85t-25 -125.5q0 -76 31.5 -134t88.5 -90.5t134 -32.5q41 0 82 8.5t76 29.5l-65 -75
v200h-115v92h233v-293q-34 -18 -73 -30t-79.5 -18t-80.5 -6zM388 -309l-44 36q16 20 24 44.5t8 48.5q0 23 -6 41.5t-17 28.5l83 61q25 -18 36.5 -44t11.5 -55q0 -46 -26 -92t-70 -69z" />
    <glyph glyph-name="uni0123" unicode="&#x123;" horiz-adv-x="496" 
d="M212 -289q-53 0 -95 14.5t-65.5 42.5t-23.5 66q0 47 46.5 93.5t139.5 80.5l26 -28q-48 -25 -71.5 -57t-23.5 -65q0 -34 27.5 -52.5t70.5 -18.5q33 0 61.5 10.5t45.5 31t17 49.5q0 27 -14.5 40t-46.5 19t-83 11q-41 5 -79.5 15t-62.5 30.5t-24 55.5q0 29 15.5 51t43 40
t63.5 34l28 -30q-16 -6 -34.5 -20t-18.5 -35q0 -16 12.5 -25.5t42 -15t79.5 -11.5q50 -5 93 -15t69.5 -34t26.5 -73q0 -61 -37 -107t-97 -71.5t-131 -25.5zM224 119q-52 0 -90.5 19.5t-59.5 53t-21 76.5q0 49 26 86t69.5 58.5t97.5 21.5q76 0 122.5 -41t46.5 -107
q0 -48 -24 -85.5t-67 -59.5t-100 -22zM242 196q22 0 37.5 9t24 25t8.5 38q0 39 -23 64t-62 25q-32 0 -51 -19.5t-19 -54.5q0 -26 11 -45.5t30.5 -30.5t43.5 -11zM315 348l-11 53l179 21v-74h-168zM280 745l44 -36q-16 -20 -24 -44.5t-8 -48.5q0 -22 6 -41t17 -29l-83 -61
q-25 18 -36.5 44t-11.5 55q0 47 26 93t70 68z" />
    <glyph glyph-name="Hcircumflex" unicode="&#x124;" horiz-adv-x="764" 
d="M543 0v658h126v-658h-126zM95 0v658h127v-658h-127zM134 284v101h496v-101h-496zM464 731l-101 101l-21 75h79l132 -176h-89zM210 731l132 176h79l-20 -73l-102 -103h-89z" />
    <glyph glyph-name="hcircumflex" unicode="&#x125;" horiz-adv-x="545" 
d="M366 0v233q0 51 -22 80.5t-63 29.5q-22 0 -45.5 -8t-44 -23t-32.5 -37l-37 25q28 42 61.5 70.5t71 43t78.5 14.5q62 0 105.5 -40.5t43.5 -112.5v-275h-116zM75 0v700l114 21v-721h-114zM219 773l-101 101l-21 75h79l132 -176h-89zM-35 773l132 176h79l-20 -73l-102 -103
h-89z" />
    <glyph glyph-name="Hbar" unicode="&#x126;" horiz-adv-x="762" 
d="M541 0v658h126v-658h-126zM95 0v658h126v-658h-126zM134 177v94h494v-94h-494zM134 396v94h494v-94h-494z" />
    <glyph glyph-name="hbar" unicode="&#x127;" horiz-adv-x="545" 
d="M366 0v233q0 51 -22 80.5t-63 29.5q-22 0 -45.5 -8t-44 -23t-32.5 -37l-37 25q28 42 61.5 70.5t71 43t78.5 14.5q62 0 105.5 -40.5t43.5 -112.5v-275h-116zM75 0v700l114 21v-721h-114zM341 513l-366 2l8 76l366 8z" />
    <glyph glyph-name="Itilde" unicode="&#x128;" horiz-adv-x="331" 
d="M100 0v658h131v-658h-131zM42 703l-62 15q10 33 28.5 59t42 41t49.5 15q17 0 37.5 -3t42 -6.5t40.5 -3.5t34.5 12.5t22.5 35.5l63 -14q-15 -56 -48.5 -91t-71.5 -35q-21 0 -42 3.5t-40.5 6.5t-37.5 3q-19 0 -34.5 -10t-23.5 -28z" />
    <glyph glyph-name="itilde" unicode="&#x129;" horiz-adv-x="274" 
d="M79 0v411l116 21v-432h-116zM49 482l-62 15q13 49 42 82t63 33q20 0 44 -6.5t46 -6.5q14 0 25.5 12.5t16.5 35.5l62 -14q-13 -56 -41.5 -91t-62.5 -35q-24 0 -46.5 6.5t-43.5 6.5q-14 0 -25.5 -10t-17.5 -28z" />
    <glyph glyph-name="Imacron" unicode="&#x12a;" horiz-adv-x="331" 
d="M100 0v658h131v-658h-131zM-3 746v82h325v-82h-325z" />
    <glyph glyph-name="imacron" unicode="&#x12b;" horiz-adv-x="274" 
d="M79 0v411l116 21v-432h-116zM4 509v82h265v-82h-265z" />
    <glyph glyph-name="Ibreve" unicode="&#x12c;" horiz-adv-x="331" 
d="M100 0v658h131v-658h-131zM160 705q-63 0 -104 41t-54 115l63 10q8 -34 34 -53.5t61 -19.5t61.5 19.5t33.5 53.5l63 -10q-13 -74 -54 -115t-104 -41z" />
    <glyph glyph-name="ibreve" unicode="&#x12d;" horiz-adv-x="274" 
d="M79 0v411l116 21v-432h-116zM136 495q-59 0 -97 42.5t-50 118.5l63 9q6 -35 29.5 -56.5t54.5 -21.5q32 0 55 21.5t29 56.5l64 -9q-12 -76 -50.5 -118.5t-97.5 -42.5z" />
    <glyph glyph-name="Iogonek" unicode="&#x12e;" horiz-adv-x="331" 
d="M100 0v658h131v-658h-131zM184 -289q-67 0 -105 36t-38 95q0 47 32 97t102 90l56 -29q-32 -27 -47.5 -60t-15.5 -71q0 -28 14 -51t45 -23q13 0 25.5 2.5t24.5 7.5l28 -61q-25 -16 -54 -24.5t-67 -8.5z" />
    <glyph glyph-name="iogonek" unicode="&#x12f;" horiz-adv-x="274" 
d="M79 0v411l116 21v-432h-116zM137 513q-33 0 -53 19t-20 51t20 51.5t53 19.5q32 0 52 -19.5t20 -51.5t-20 -51t-52 -19zM148 -289q-63 0 -97.5 36t-34.5 95q0 50 32 102t102 95l45 -39q-32 -27 -47.5 -60t-15.5 -71q0 -28 14 -51t45 -23q13 0 25.5 2.5t24.5 7.5l28 -61
q-25 -16 -54 -24.5t-67 -8.5z" />
    <glyph glyph-name="Idotaccent" unicode="&#x130;" horiz-adv-x="331" 
d="M100 0v658h131v-658h-131zM160 731q-33 0 -53 19t-20 51t20 51.5t53 19.5q32 0 52 -19.5t20 -51.5t-20 -51t-52 -19z" />
    <glyph glyph-name="dotlessi" unicode="&#x131;" horiz-adv-x="274" 
d="M79 0v411l116 21v-432h-116z" />
    <glyph glyph-name="IJ" unicode="&#x132;" horiz-adv-x="727" 
d="M212 280v-19q0 -55 19.5 -96t55.5 -63.5t84 -22.5q49 0 82 20.5t50.5 59.5t17.5 92v407h126v-375q0 -89 -36 -156t-102.5 -103.5t-157.5 -36.5q-78 0 -138.5 30.5t-94.5 88t-34 138.5v36h128zM84 397v261h130v-261h-130z" />
    <glyph glyph-name="ij" unicode="&#x133;" horiz-adv-x="548" 
d="M79 0v411l116 21v-432h-116zM137 513q-33 0 -53 19t-20 51t20 51.5t53 19.5q32 0 52 -19.5t20 -51.5t-20 -51t-52 -19zM353 0v411l116 21v-432q0 -122 -45.5 -193t-140.5 -96l-26 53q49 27 72.5 84t23.5 152zM411 513q-33 0 -53 19t-20 51t20 51.5t53 19.5q32 0 52 -19.5
t20 -51.5t-20 -51t-52 -19z" />
    <glyph glyph-name="Jcircumflex" unicode="&#x134;" horiz-adv-x="319" 
d="M103 62v596h126v-596q0 -70 -16 -117.5t-45.5 -78t-70 -49t-89.5 -30.5l-31 72q42 16 70 37.5t42 60t14 105.5zM243 731l-101 101l-21 75h79l132 -176h-89zM-11 731l132 176h79l-20 -73l-102 -103h-89z" />
    <glyph glyph-name="jcircumflex" unicode="&#x135;" horiz-adv-x="274" 
d="M79 0v411l116 21v-432q0 -122 -45.5 -193t-140.5 -96l-26 53q49 27 72.5 84t23.5 152zM205 505l-86 136l-21 70h79l112 -206h-84zM-14 505l112 206h79l-20 -68l-87 -138h-84z" />
    <glyph glyph-name="uni0136" unicode="&#x136;" horiz-adv-x="647" 
d="M475 0l-272 336l244 322h151l-293 -341l10 57l340 -374h-180zM95 0v658h123v-658h-123zM319 -309l-44 36q16 20 24 44.5t8 48.5q0 23 -6 41.5t-17 28.5l83 61q25 -18 36.5 -44t11.5 -55q0 -46 -26 -92t-70 -69z" />
    <glyph glyph-name="uni0137" unicode="&#x137;" horiz-adv-x="492" 
d="M340 0l-145 203h-15v24l150 194h148v-2l-229 -222l15 77l231 -272v-2h-155zM74 0v700l114 21v-721h-114zM229 -309l-44 36q16 20 24 44.5t8 48.5q0 23 -6 41.5t-17 28.5l83 61q25 -18 36.5 -44t11.5 -55q0 -46 -26 -92t-70 -69z" />
    <glyph glyph-name="kgreenlandic" unicode="&#x138;" horiz-adv-x="483" 
d="M331 0l-160 227l150 194h150l-231 -224l10 77l233 -274h-152zM63 0v411l115 21v-432h-115z" />
    <glyph glyph-name="Lacute" unicode="&#x139;" horiz-adv-x="553" 
d="M95 0v658h126v-658h-126zM134 0v99h400v-99h-400zM108 731l65 176h139l-112 -176h-92z" />
    <glyph glyph-name="lacute" unicode="&#x13a;" horiz-adv-x="263" 
d="M75 0v700l114 21v-721h-114zM87 784l65 176h139l-112 -176h-92z" />
    <glyph glyph-name="uni013B" unicode="&#x13b;" horiz-adv-x="553" 
d="M95 0v658h126v-658h-126zM134 0v99h400v-99h-400zM292 -309l-44 36q16 20 24 44.5t8 48.5q0 23 -6 41.5t-17 28.5l83 61q25 -18 36.5 -44t11.5 -55q0 -46 -26 -92t-70 -69z" />
    <glyph glyph-name="uni013C" unicode="&#x13c;" horiz-adv-x="263" 
d="M75 0v700l114 21v-721h-114zM111 -309l-44 36q16 20 24 44.5t8 48.5q0 23 -6 41.5t-17 28.5l83 61q25 -18 36.5 -44t11.5 -55q0 -46 -26 -92t-70 -69z" />
    <glyph glyph-name="Lcaron" unicode="&#x13d;" horiz-adv-x="553" 
d="M95 0v658h126v-658h-126zM134 0v99h400v-99h-400zM435 371l-71 -1v288h111z" />
    <glyph glyph-name="lcaron" unicode="&#x13e;" horiz-adv-x="263" 
d="M75 0v700l114 21v-721h-114zM313 463l-71 -1v248h101z" />
    <glyph glyph-name="Ldot" unicode="&#x13f;" horiz-adv-x="553" 
d="M95 0v658h126v-658h-126zM134 0v99h400v-99h-400zM438 290q-36 0 -57.5 21t-21.5 55q0 35 21.5 56t57.5 21q35 0 56 -21t21 -56q0 -34 -21 -55t-56 -21z" />
    <glyph glyph-name="ldot" unicode="&#x140;" horiz-adv-x="313" 
d="M75 0v700l114 21v-721h-114zM287 289q-33 0 -53 19t-20 51t20 51.5t53 19.5q32 0 52 -19.5t20 -51.5t-20 -51t-52 -19z" />
    <glyph glyph-name="Lslash" unicode="&#x141;" horiz-adv-x="584" 
d="M116 0v658h126v-658h-126zM155 0v99h400v-99h-400zM58 208l-47 82l342 198l48 -83z" />
    <glyph glyph-name="lslash" unicode="&#x142;" horiz-adv-x="303" 
d="M95 0v700l114 21v-721h-114zM31 226v92l250 152v-92z" />
    <glyph glyph-name="Nacute" unicode="&#x143;" horiz-adv-x="774" 
d="M95 0v658h99l17 -658h-116zM626 0h-50l-441 574l2 84h82l404 -525zM679 658v-658h-99l-17 658h116zM333 731l65 176h139l-112 -176h-92z" />
    <glyph glyph-name="nacute" unicode="&#x144;" horiz-adv-x="535" 
d="M356 0v233q0 51 -22 80.5t-63 29.5q-22 0 -46 -8t-44 -23t-33 -37l-36 25q28 42 61 70.5t70.5 43t78.5 14.5q42 0 76 -18t54 -52.5t20 -82.5v-275h-116zM63 0v411l95 21l21 -86v-346h-116zM200 505l82 206h131l-129 -206h-84z" />
    <glyph glyph-name="uni0145" unicode="&#x145;" horiz-adv-x="774" 
d="M95 0v658h99l17 -658h-116zM626 0h-50l-441 574l2 84h82l404 -525zM679 658v-658h-99l-17 658h116zM357 -309l-44 36q16 20 24 44.5t8 48.5q0 23 -6 41.5t-17 28.5l83 61q25 -18 36.5 -44t11.5 -55q0 -46 -26 -92t-70 -69z" />
    <glyph glyph-name="uni0146" unicode="&#x146;" horiz-adv-x="535" 
d="M356 0v233q0 51 -22 80.5t-63 29.5q-22 0 -46 -8t-44 -23t-33 -37l-36 25q28 42 61 70.5t70.5 43t78.5 14.5q42 0 76 -18t54 -52.5t20 -82.5v-275h-116zM63 0v411l95 21l21 -86v-346h-116zM227 -309l-44 36q16 20 24 44.5t8 48.5q0 23 -6 41.5t-17 28.5l83 61
q25 -18 36.5 -44t11.5 -55q0 -46 -26 -92t-70 -69z" />
    <glyph glyph-name="Ncaron" unicode="&#x147;" horiz-adv-x="774" 
d="M95 0v658h99l17 -658h-116zM626 0h-50l-441 574l2 84h82l404 -525zM679 658v-658h-99l-17 658h116zM347 731l21 75l101 101h89l-132 -176h-79zM347 731l-132 176h89l102 -103l20 -73h-79z" />
    <glyph glyph-name="ncaron" unicode="&#x148;" horiz-adv-x="535" 
d="M356 0v233q0 51 -22 80.5t-63 29.5q-22 0 -46 -8t-44 -23t-33 -37l-36 25q28 42 61 70.5t70.5 43t78.5 14.5q42 0 76 -18t54 -52.5t20 -82.5v-275h-116zM63 0v411l95 21l21 -86v-346h-116zM218 505l21 70l86 136h84l-112 -206h-79zM218 505l-112 206h84l87 -138l20 -68
h-79z" />
    <glyph glyph-name="napostrophe" unicode="&#x149;" horiz-adv-x="535" 
d="M356 0v233q0 51 -22 80.5t-63 29.5q-22 0 -46 -8t-44 -23t-33 -37l-36 25q28 42 61 70.5t70.5 43t78.5 14.5q42 0 76 -18t54 -52.5t20 -82.5v-275h-116zM63 0v411l95 21l21 -86v-346h-116zM103 482l-44 36q16 20 24 44.5t8 48.5q0 23 -6 41.5t-17 28.5l83 61
q25 -18 36.5 -44t11.5 -55q0 -46 -26 -92t-70 -69z" />
    <glyph glyph-name="Eng" unicode="&#x14a;" horiz-adv-x="774" 
d="M569 0l-434 564l2 94h75l411 -545zM95 0v658h99l17 -658h-116zM458 -213l-32 72q46 16 76.5 37.5t45.5 60t15 105.5l-10 596h126v-596q0 -70 -16 -117.5t-46 -78t-70.5 -49t-88.5 -30.5z" />
    <glyph glyph-name="eng" unicode="&#x14b;" horiz-adv-x="535" 
d="M286 -289l-26 53q49 27 72.5 84t23.5 152v233q0 51 -22 80.5t-63 29.5q-22 0 -46 -8t-44 -23t-33 -37l-36 25q28 42 61 70.5t70.5 43t78.5 14.5q42 0 76 -18t54 -52.5t20 -82.5v-275q0 -122 -45.5 -193t-140.5 -96zM63 0v411l95 21l21 -86v-346h-116z" />
    <glyph glyph-name="Omacron" unicode="&#x14c;" horiz-adv-x="787" 
d="M385 -13q-97 0 -172 43.5t-118 120t-43 173.5q0 80 28 144t77.5 109t113 69.5t134.5 24.5q96 0 170.5 -43.5t117 -119.5t42.5 -174q0 -80 -28 -144t-76.5 -109.5t-111.5 -69.5t-134 -24zM408 79q59 0 102 29t66 82t23 124q0 83 -29.5 142t-79 91t-110.5 32
q-56 0 -98.5 -28.5t-66 -81.5t-23.5 -125q0 -82 29.5 -141.5t78.5 -91.5t108 -32zM237 746v82h325v-82h-325z" />
    <glyph glyph-name="omacron" unicode="&#x14d;" horiz-adv-x="534" 
d="M258 -13q-64 0 -114.5 28t-79 77t-28.5 111q0 68 31.5 120t86 81.5t123.5 29.5q64 0 113.5 -27.5t78.5 -76t29 -111.5q0 -67 -31 -119.5t-85 -82.5t-124 -30zM275 67q35 0 57 20t32 52t10 67q0 48 -15.5 81t-41 50t-57.5 17q-34 0 -56.5 -19t-33 -50t-10.5 -68
q0 -48 15.5 -81.5t42 -51t57.5 -17.5zM144 509v82h265v-82h-265z" />
    <glyph glyph-name="Obreve" unicode="&#x14e;" horiz-adv-x="787" 
d="M385 -13q-97 0 -172 43.5t-118 120t-43 173.5q0 80 28 144t77.5 109t113 69.5t134.5 24.5q96 0 170.5 -43.5t117 -119.5t42.5 -174q0 -80 -28 -144t-76.5 -109.5t-111.5 -69.5t-134 -24zM408 79q59 0 102 29t66 82t23 124q0 83 -29.5 142t-79 91t-110.5 32
q-56 0 -98.5 -28.5t-66 -81.5t-23.5 -125q0 -82 29.5 -141.5t78.5 -91.5t108 -32zM400 705q-63 0 -104 41t-54 115l63 10q8 -34 34 -53.5t61 -19.5t61.5 19.5t33.5 53.5l63 -10q-13 -74 -54 -115t-104 -41z" />
    <glyph glyph-name="obreve" unicode="&#x14f;" horiz-adv-x="534" 
d="M258 -13q-64 0 -114.5 28t-79 77t-28.5 111q0 68 31.5 120t86 81.5t123.5 29.5q64 0 113.5 -27.5t78.5 -76t29 -111.5q0 -67 -31 -119.5t-85 -82.5t-124 -30zM275 67q35 0 57 20t32 52t10 67q0 48 -15.5 81t-41 50t-57.5 17q-34 0 -56.5 -19t-33 -50t-10.5 -68
q0 -48 15.5 -81.5t42 -51t57.5 -17.5zM276 495q-59 0 -97 42.5t-50 118.5l63 9q6 -35 29.5 -56.5t54.5 -21.5q32 0 55 21.5t29 56.5l64 -9q-12 -76 -50.5 -118.5t-97.5 -42.5z" />
    <glyph glyph-name="Ohungarumlaut" unicode="&#x150;" horiz-adv-x="787" 
d="M385 -13q-97 0 -172 43.5t-118 120t-43 173.5q0 80 28 144t77.5 109t113 69.5t134.5 24.5q96 0 170.5 -43.5t117 -119.5t42.5 -174q0 -80 -28 -144t-76.5 -109.5t-111.5 -69.5t-134 -24zM408 79q59 0 102 29t66 82t23 124q0 83 -29.5 142t-79 91t-110.5 32
q-56 0 -98.5 -28.5t-66 -81.5t-23.5 -125q0 -82 29.5 -141.5t78.5 -91.5t108 -32zM257 731l65 176h139l-112 -176h-92zM434 731l65 176h139l-112 -176h-92z" />
    <glyph glyph-name="ohungarumlaut" unicode="&#x151;" horiz-adv-x="534" 
d="M258 -13q-64 0 -114.5 28t-79 77t-28.5 111q0 68 31.5 120t86 81.5t123.5 29.5q64 0 113.5 -27.5t78.5 -76t29 -111.5q0 -67 -31 -119.5t-85 -82.5t-124 -30zM275 67q35 0 57 20t32 52t10 67q0 48 -15.5 81t-41 50t-57.5 17q-34 0 -56.5 -19t-33 -50t-10.5 -68
q0 -48 15.5 -81.5t42 -51t57.5 -17.5zM133 505l82 206h131l-129 -206h-84zM311 505l82 206h131l-129 -206h-84z" />
    <glyph glyph-name="OE" unicode="&#x152;" horiz-adv-x="939" 
d="M389 -7q-75 0 -138.5 24.5t-110.5 68.5t-73 104t-26 130q0 76 29 139t80.5 109t119 71.5t143.5 25.5q37 0 71 -6t65 -17l-23 -109q-19 20 -57 30t-77 10q-49 0 -88.5 -15.5t-68 -46t-44 -73.5t-15.5 -99q0 -58 17 -105t48 -81t74.5 -52t95.5 -18q37 0 67 10t56 30l49 -77
q-41 -25 -89.5 -39t-104.5 -14zM499 284v99h326v-99h-326zM465 0v658h398v-100h-277v-458h308v-100h-429z" />
    <glyph glyph-name="oe" unicode="&#x153;" horiz-adv-x="729" 
d="M232 -13q-59 0 -106 27t-73.5 76.5t-26.5 114.5q0 68 28.5 119.5t77.5 80.5t110 29t101 -29.5t59.5 -80.5t19.5 -116q0 -63 -22.5 -113t-64.5 -79t-103 -29zM250 70q32 0 50 19t25.5 49.5t7.5 62.5q0 48 -13 81.5t-35.5 51t-51.5 17.5t-49 -18t-29.5 -48t-9.5 -68
q0 -48 15 -81t39 -49.5t51 -16.5zM532 -12q-57 0 -99.5 25.5t-66 73.5t-23.5 114q0 69 26.5 121.5t72.5 82t104 29.5q75 0 115 -48t40 -128q0 -15 -0.5 -29t-2.5 -29h-95v55q0 45 -16.5 72t-54.5 27q-28 0 -50 -16t-34 -48t-12 -79q0 -61 29 -99t82 -38q29 0 58.5 11.5
t57.5 33.5l38 -60q-27 -28 -57 -43.5t-58.5 -21.5t-53.5 -6zM377 200l14 69h294v-69h-308z" />
    <glyph glyph-name="Racute" unicode="&#x154;" horiz-adv-x="680" 
d="M95 0v658h196q75 0 130 -21t85 -59.5t30 -91.5q0 -44 -20 -84t-54.5 -71t-78.5 -49t-92 -18h-151v84h167q28 0 51 16t37 42.5t14 57.5q0 46 -33.5 74t-95.5 28h-63v-566h-122zM589 -11q-42 0 -73.5 11.5t-57.5 36.5t-54 67l-123 188l99 35l144 -180q24 -29 43 -44.5
t35.5 -20.5t30.5 -5q6 0 17.5 1t21.5 5l27 -71q-32 -13 -58.5 -18t-51.5 -5zM237 731l65 176h139l-112 -176h-92z" />
    <glyph glyph-name="racute" unicode="&#x155;" horiz-adv-x="383" 
d="M63 0v411l95 21l21 -86v-346h-116zM159 264l-26 25q32 63 76 101t94 38q24 0 44 -6t35 -18l-45 -100q-13 10 -31 16t-38 6q-29 0 -59 -15t-50 -47zM156 505l82 206h131l-129 -206h-84z" />
    <glyph glyph-name="uni0156" unicode="&#x156;" horiz-adv-x="680" 
d="M95 0v658h196q75 0 130 -21t85 -59.5t30 -91.5q0 -44 -20 -84t-54.5 -71t-78.5 -49t-92 -18h-151v84h167q28 0 51 16t37 42.5t14 57.5q0 46 -33.5 74t-95.5 28h-63v-566h-122zM589 -11q-42 0 -73.5 11.5t-57.5 36.5t-54 67l-123 188l99 35l144 -180q24 -29 43 -44.5
t35.5 -20.5t30.5 -5q6 0 17.5 1t21.5 5l27 -71q-32 -13 -58.5 -18t-51.5 -5zM314 -309l-44 36q16 20 24 44.5t8 48.5q0 23 -6 41.5t-17 28.5l83 61q25 -18 36.5 -44t11.5 -55q0 -46 -26 -92t-70 -69z" />
    <glyph glyph-name="uni0157" unicode="&#x157;" horiz-adv-x="383" 
d="M63 0v411l95 21l21 -86v-346h-116zM159 264l-26 25q32 63 76 101t94 38q24 0 44 -6t35 -18l-45 -100q-13 10 -31 16t-38 6q-29 0 -59 -15t-50 -47zM131 -309l-44 36q16 20 24 44.5t8 48.5q0 23 -6 41.5t-17 28.5l83 61q25 -18 36.5 -44t11.5 -55q0 -46 -26 -92t-70 -69z
" />
    <glyph glyph-name="Rcaron" unicode="&#x158;" horiz-adv-x="680" 
d="M95 0v658h196q75 0 130 -21t85 -59.5t30 -91.5q0 -44 -20 -84t-54.5 -71t-78.5 -49t-92 -18h-151v84h167q28 0 51 16t37 42.5t14 57.5q0 46 -33.5 74t-95.5 28h-63v-566h-122zM589 -11q-42 0 -73.5 11.5t-57.5 36.5t-54 67l-123 188l99 35l144 -180q24 -29 43 -44.5
t35.5 -20.5t30.5 -5q6 0 17.5 1t21.5 5l27 -71q-32 -13 -58.5 -18t-51.5 -5zM251 731l21 75l101 101h89l-132 -176h-79zM251 731l-132 176h89l102 -103l20 -73h-79z" />
    <glyph glyph-name="rcaron" unicode="&#x159;" horiz-adv-x="383" 
d="M63 0v411l95 21l21 -86v-346h-116zM159 264l-26 25q32 63 76 101t94 38q24 0 44 -6t35 -18l-45 -100q-13 10 -31 16t-38 6q-29 0 -59 -15t-50 -47zM174 505l21 70l86 136h84l-112 -206h-79zM174 505l-112 206h84l87 -138l20 -68h-79z" />
    <glyph glyph-name="Sacute" unicode="&#x15a;" horiz-adv-x="529" 
d="M365 162q0 27 -16 47t-42.5 36t-57.5 31t-62.5 32t-58 39t-42.5 52t-16 71q0 64 30.5 108.5t81 68.5t111.5 24q38 0 84 -9t82 -27l-44 -114q-31 27 -72 41.5t-74 14.5q-31 0 -49 -12t-25.5 -29.5t-7.5 -33.5q0 -24 16 -42t42.5 -33.5t58.5 -30.5t63.5 -33t58 -41.5
t42.5 -54t16 -72.5q0 -68 -33 -114.5t-86.5 -70t-116.5 -23.5q-65 0 -120 19t-90 44l61 105q37 -31 84 -51.5t92 -20.5q39 0 64.5 21t25.5 58zM237 731l65 176h139l-112 -176h-92z" />
    <glyph glyph-name="sacute" unicode="&#x15b;" horiz-adv-x="392" 
d="M186 -14q-31 0 -60.5 5t-54 13t-41.5 18l31 92q27 -23 63.5 -36.5t67.5 -13.5q32 0 44.5 14.5t12.5 30.5q0 21 -14.5 33t-38 20.5t-49 17t-49 22.5t-38 36.5t-14.5 59.5q0 46 22.5 76t60 45.5t82.5 15.5q33 0 67.5 -7.5t59.5 -22.5l-31 -86q-20 22 -52 32t-50 10
q-31 0 -43 -12t-12 -26q0 -19 15 -30.5t38.5 -20t50 -17.5t50 -23.5t38.5 -37.5t15 -60q0 -29 -10.5 -55.5t-32 -47.5t-53.5 -33t-75 -12zM140 505l82 206h131l-129 -206h-84z" />
    <glyph glyph-name="Scircumflex" unicode="&#x15c;" horiz-adv-x="529" 
d="M365 162q0 27 -16 47t-42.5 36t-57.5 31t-62.5 32t-58 39t-42.5 52t-16 71q0 64 30.5 108.5t81 68.5t111.5 24q38 0 84 -9t82 -27l-44 -114q-31 27 -72 41.5t-74 14.5q-31 0 -49 -12t-25.5 -29.5t-7.5 -33.5q0 -24 16 -42t42.5 -33.5t58.5 -30.5t63.5 -33t58 -41.5
t42.5 -54t16 -72.5q0 -68 -33 -114.5t-86.5 -70t-116.5 -23.5q-65 0 -120 19t-90 44l61 105q37 -31 84 -51.5t92 -20.5q39 0 64.5 21t25.5 58zM373 731l-101 101l-21 75h79l132 -176h-89zM119 731l132 176h79l-20 -73l-102 -103h-89z" />
    <glyph glyph-name="scircumflex" unicode="&#x15d;" horiz-adv-x="392" 
d="M186 -14q-31 0 -60.5 5t-54 13t-41.5 18l31 92q27 -23 63.5 -36.5t67.5 -13.5q32 0 44.5 14.5t12.5 30.5q0 21 -14.5 33t-38 20.5t-49 17t-49 22.5t-38 36.5t-14.5 59.5q0 46 22.5 76t60 45.5t82.5 15.5q33 0 67.5 -7.5t59.5 -22.5l-31 -86q-20 22 -52 32t-50 10
q-31 0 -43 -12t-12 -26q0 -19 15 -30.5t38.5 -20t50 -17.5t50 -23.5t38.5 -37.5t15 -60q0 -29 -10.5 -55.5t-32 -47.5t-53.5 -33t-75 -12zM265 505l-86 136l-21 70h79l112 -206h-84zM46 505l112 206h79l-20 -68l-87 -138h-84z" />
    <glyph glyph-name="Scedilla" unicode="&#x15e;" horiz-adv-x="529" 
d="M365 162q0 27 -16 47t-42.5 36t-57.5 31t-62.5 32t-58 39t-42.5 52t-16 71q0 64 30.5 108.5t81 68.5t111.5 24q38 0 84 -9t82 -27l-44 -114q-31 27 -72 41.5t-74 14.5q-31 0 -49 -12t-25.5 -29.5t-7.5 -33.5q0 -24 16 -42t42.5 -33.5t58.5 -30.5t63.5 -33t58 -41.5
t42.5 -54t16 -72.5q0 -68 -33 -114.5t-86.5 -70t-116.5 -23.5q-65 0 -120 19t-90 44l61 105q37 -31 84 -51.5t92 -20.5q39 0 64.5 21t25.5 58zM232 0h67l-25 -92l-47 15q10 8 24.5 12t33.5 4q50 0 81.5 -27.5t31.5 -73.5q0 -48 -37 -77t-99 -29q-31 0 -58 8t-49 24l21 56
q14 -10 34.5 -16t39.5 -6q28 0 40 13.5t12 28.5q0 21 -19.5 33.5t-47.5 12.5q-10 0 -20 -1.5t-21 -4.5z" />
    <glyph glyph-name="scedilla" unicode="&#x15f;" horiz-adv-x="392" 
d="M186 -14q-31 0 -60.5 5t-54 13t-41.5 18l31 92q27 -23 63.5 -36.5t67.5 -13.5q32 0 44.5 14.5t12.5 30.5q0 21 -14.5 33t-38 20.5t-49 17t-49 22.5t-38 36.5t-14.5 59.5q0 46 22.5 76t60 45.5t82.5 15.5q33 0 67.5 -7.5t59.5 -22.5l-31 -86q-20 22 -52 32t-50 10
q-31 0 -43 -12t-12 -26q0 -19 15 -30.5t38.5 -20t50 -17.5t50 -23.5t38.5 -37.5t15 -60q0 -29 -10.5 -55.5t-32 -47.5t-53.5 -33t-75 -12zM159 0h70l-27 -81l-47 9q10 5 24.5 8t30.5 3q47 0 76.5 -24.5t29.5 -65.5q0 -43 -34 -69.5t-90 -26.5q-29 0 -53.5 8t-44.5 24l15 36
q11 -4 26 -7.5t28 -3.5q28 0 40 13.5t12 28.5q0 20 -17 31.5t-42 11.5q-6 0 -15 -1t-19 -3z" />
    <glyph glyph-name="Scaron" unicode="&#x160;" horiz-adv-x="529" 
d="M365 162q0 27 -16 47t-42.5 36t-57.5 31t-62.5 32t-58 39t-42.5 52t-16 71q0 64 30.5 108.5t81 68.5t111.5 24q38 0 84 -9t82 -27l-44 -114q-31 27 -72 41.5t-74 14.5q-31 0 -49 -12t-25.5 -29.5t-7.5 -33.5q0 -24 16 -42t42.5 -33.5t58.5 -30.5t63.5 -33t58 -41.5
t42.5 -54t16 -72.5q0 -68 -33 -114.5t-86.5 -70t-116.5 -23.5q-65 0 -120 19t-90 44l61 105q37 -31 84 -51.5t92 -20.5q39 0 64.5 21t25.5 58zM251 731l21 75l101 101h89l-132 -176h-79zM251 731l-132 176h89l102 -103l20 -73h-79z" />
    <glyph glyph-name="scaron" unicode="&#x161;" horiz-adv-x="392" 
d="M186 -14q-31 0 -60.5 5t-54 13t-41.5 18l31 92q27 -23 63.5 -36.5t67.5 -13.5q32 0 44.5 14.5t12.5 30.5q0 21 -14.5 33t-38 20.5t-49 17t-49 22.5t-38 36.5t-14.5 59.5q0 46 22.5 76t60 45.5t82.5 15.5q33 0 67.5 -7.5t59.5 -22.5l-31 -86q-20 22 -52 32t-50 10
q-31 0 -43 -12t-12 -26q0 -19 15 -30.5t38.5 -20t50 -17.5t50 -23.5t38.5 -37.5t15 -60q0 -29 -10.5 -55.5t-32 -47.5t-53.5 -33t-75 -12zM158 505l21 70l86 136h84l-112 -206h-79zM158 505l-112 206h84l87 -138l20 -68h-79z" />
    <glyph glyph-name="uni0162" unicode="&#x162;" horiz-adv-x="617" 
d="M243 0v658h130v-658h-130zM28 559v99h561v-99h-561zM276 0h67l-25 -92l-47 15q10 8 24.5 12t33.5 4q50 0 81.5 -27.5t31.5 -73.5q0 -48 -37 -77t-99 -29q-31 0 -58 8t-49 24l21 56q14 -10 34.5 -16t39.5 -6q28 0 40 13.5t12 28.5q0 21 -19.5 33.5t-47.5 12.5
q-10 0 -20 -1.5t-21 -4.5z" />
    <glyph glyph-name="uni0163" unicode="&#x163;" horiz-adv-x="384" 
d="M231 -7q-38 0 -70.5 15.5t-52 46t-19.5 74.5v272l42 109l74 16v-375q0 -38 17 -55t42 -17q17 0 36.5 5.5t38.5 17.5l32 -49q-30 -31 -67 -45.5t-73 -14.5zM341 345l-326 2l7 66l326 8zM187 0h70l-27 -81l-47 9q10 5 24.5 8t30.5 3q47 0 76.5 -24.5t29.5 -65.5
q0 -43 -34 -69.5t-90 -26.5q-29 0 -53.5 8t-44.5 24l15 36q11 -4 26 -7.5t28 -3.5q28 0 40 13.5t12 28.5q0 20 -17 31.5t-42 11.5q-6 0 -15 -1t-19 -3z" />
    <glyph glyph-name="Tcaron" unicode="&#x164;" horiz-adv-x="617" 
d="M243 0v658h130v-658h-130zM28 559v99h561v-99h-561zM269 731l21 75l101 101h89l-132 -176h-79zM269 731l-132 176h89l102 -103l20 -73h-79z" />
    <glyph glyph-name="tcaron" unicode="&#x165;" horiz-adv-x="384" 
d="M231 -7q-38 0 -70.5 15.5t-52 46t-19.5 74.5v272l42 109l74 16v-135v-18v-222q0 -38 17 -55t42 -17q17 0 36.5 5.5t38.5 17.5l32 -49q-30 -31 -67 -45.5t-73 -14.5zM341 345l-326 2l7 66l326 8zM321 463l-71 -1v248h101z" />
    <glyph glyph-name="Tbar" unicode="&#x166;" horiz-adv-x="617" 
d="M243 0v658h130v-658h-130zM28 559v99h561v-99h-561zM126 283v93h365v-93h-365z" />
    <glyph glyph-name="tbar" unicode="&#x167;" horiz-adv-x="386" 
d="M231 -7q-38 0 -70.5 15.5t-52 46t-19.5 74.5v272l42 109l74 16v-375q0 -38 17 -55t42 -17q17 0 36.5 5.5t38.5 17.5l32 -49q-30 -31 -67 -45.5t-73 -14.5zM312 201l-293 1l6 61l293 7zM341 345l-326 2l7 66l326 8z" />
    <glyph glyph-name="Utilde" unicode="&#x168;" horiz-adv-x="733" 
d="M359 -13q-82 0 -144 32.5t-96.5 92.5t-34.5 142v404h128v-377q0 -61 20 -104t58.5 -65.5t91.5 -22.5q52 0 88 20.5t54.5 57.5t18.5 85v406h110v-377q0 -89 -36.5 -155t-102.5 -102.5t-155 -36.5zM264 703l-62 15q10 33 28.5 59t42 41t49.5 15q17 0 37.5 -3t42 -6.5
t40.5 -3.5t34.5 12.5t22.5 35.5l63 -14q-15 -56 -48.5 -91t-71.5 -35q-21 0 -42 3.5t-40.5 6.5t-37.5 3q-19 0 -34.5 -10t-23.5 -28z" />
    <glyph glyph-name="utilde" unicode="&#x169;" horiz-adv-x="531" 
d="M214 -7q-65 0 -108 41t-43 112v265l116 21v-244q0 -51 21.5 -80.5t62.5 -29.5q21 0 44 8t43 23t32 37l37 -25q-27 -41 -60 -69.5t-69.5 -43.5t-75.5 -15zM373 -11l-21 86v336l116 21v-421zM178 482l-62 15q13 49 43.5 82t65.5 33q16 0 34.5 -3t38.5 -6.5t37 -3.5
q16 0 28 12.5t19 35.5l62 -14q-13 -56 -43.5 -91t-65.5 -35q-19 0 -38 3.5t-37 6.5t-35 3q-16 0 -28.5 -10t-18.5 -28z" />
    <glyph glyph-name="Umacron" unicode="&#x16a;" horiz-adv-x="733" 
d="M359 -13q-82 0 -144 32.5t-96.5 92.5t-34.5 142v404h128v-377q0 -61 20 -104t58.5 -65.5t91.5 -22.5q52 0 88 20.5t54.5 57.5t18.5 85v406h110v-377q0 -89 -36.5 -155t-102.5 -102.5t-155 -36.5zM219 746v82h325v-82h-325z" />
    <glyph glyph-name="umacron" unicode="&#x16b;" horiz-adv-x="531" 
d="M214 -7q-65 0 -108 41t-43 112v265l116 21v-244q0 -51 21.5 -80.5t62.5 -29.5q21 0 44 8t43 23t32 37l37 -25q-27 -41 -60 -69.5t-69.5 -43.5t-75.5 -15zM373 -11l-21 86v336l116 21v-421zM142 509v82h265v-82h-265z" />
    <glyph glyph-name="Ubreve" unicode="&#x16c;" horiz-adv-x="733" 
d="M359 -13q-82 0 -144 32.5t-96.5 92.5t-34.5 142v404h128v-377q0 -61 20 -104t58.5 -65.5t91.5 -22.5q52 0 88 20.5t54.5 57.5t18.5 85v406h110v-377q0 -89 -36.5 -155t-102.5 -102.5t-155 -36.5zM382 705q-63 0 -104 41t-54 115l63 10q8 -34 34 -53.5t61 -19.5t61.5 19.5
t33.5 53.5l63 -10q-13 -74 -54 -115t-104 -41z" />
    <glyph glyph-name="ubreve" unicode="&#x16d;" horiz-adv-x="531" 
d="M214 -7q-65 0 -108 41t-43 112v265l116 21v-244q0 -51 21.5 -80.5t62.5 -29.5q21 0 44 8t43 23t32 37l37 -25q-27 -41 -60 -69.5t-69.5 -43.5t-75.5 -15zM373 -11l-21 86v336l116 21v-421zM274 495q-59 0 -97 42.5t-50 118.5l63 9q6 -35 29.5 -56.5t54.5 -21.5
q32 0 55 21.5t29 56.5l64 -9q-12 -76 -50.5 -118.5t-97.5 -42.5z" />
    <glyph glyph-name="Uring" unicode="&#x16e;" horiz-adv-x="733" 
d="M359 -13q-82 0 -144 32.5t-96.5 92.5t-34.5 142v404h128v-377q0 -61 20 -104t58.5 -65.5t91.5 -22.5q52 0 88 20.5t54.5 57.5t18.5 85v406h110v-377q0 -89 -36.5 -155t-102.5 -102.5t-155 -36.5zM381 689q-55 0 -90.5 29.5t-35.5 74.5q0 44 36.5 72.5t92.5 28.5
q55 0 90 -29.5t35 -73.5t-36 -73t-92 -29zM383 742q19 0 30.5 13.5t11.5 35.5q0 23 -11.5 36.5t-31.5 13.5q-19 0 -31 -13t-12 -35q0 -23 12.5 -37t31.5 -14z" />
    <glyph glyph-name="uring" unicode="&#x16f;" horiz-adv-x="531" 
d="M214 -7q-65 0 -108 41t-43 112v265l116 21v-244q0 -51 21.5 -80.5t62.5 -29.5q21 0 44 8t43 23t32 37l37 -25q-27 -41 -60 -69.5t-69.5 -43.5t-75.5 -15zM373 -11l-21 86v336l116 21v-421zM274 484q-33 0 -59.5 13.5t-41.5 37t-15 53.5t15.5 53t42.5 36.5t61 13.5
q33 0 59 -13.5t41 -37.5t15 -54q0 -29 -15.5 -52.5t-42 -36.5t-60.5 -13zM276 534q18 0 29.5 14.5t11.5 37.5q0 25 -11.5 39.5t-30.5 14.5t-30.5 -14t-11.5 -38t12 -39t31 -15z" />
    <glyph glyph-name="Uhungarumlaut" unicode="&#x170;" horiz-adv-x="733" 
d="M359 -13q-82 0 -144 32.5t-96.5 92.5t-34.5 142v404h128v-377q0 -61 20 -104t58.5 -65.5t91.5 -22.5q52 0 88 20.5t54.5 57.5t18.5 85v406h110v-377q0 -89 -36.5 -155t-102.5 -102.5t-155 -36.5zM239 731l65 176h139l-112 -176h-92zM416 731l65 176h139l-112 -176h-92z
" />
    <glyph glyph-name="uhungarumlaut" unicode="&#x171;" horiz-adv-x="531" 
d="M214 -7q-65 0 -108 41t-43 112v265l116 21v-244q0 -51 21.5 -80.5t62.5 -29.5q21 0 44 8t43 23t32 37l37 -25q-27 -41 -60 -69.5t-69.5 -43.5t-75.5 -15zM373 -11l-21 86v336l116 21v-421zM131 505l82 206h131l-129 -206h-84zM309 505l82 206h131l-129 -206h-84z" />
    <glyph glyph-name="Uogonek" unicode="&#x172;" horiz-adv-x="733" 
d="M359 -13q-82 0 -144 32.5t-96.5 92.5t-34.5 142v404h128v-377q0 -61 20 -104t58.5 -65.5t91.5 -22.5q52 0 88 20.5t54.5 57.5t18.5 85v406h110v-377q0 -89 -36.5 -155t-102.5 -102.5t-155 -36.5zM420 -289q-77 0 -118.5 40t-41.5 110q0 48 36 99t117 92l41 -31
q-37 -27 -54.5 -61t-17.5 -72q0 -37 18.5 -65t61.5 -28q9 0 18.5 1.5t18.5 5.5l28 -61q-24 -15 -49.5 -22.5t-57.5 -7.5z" />
    <glyph glyph-name="uogonek" unicode="&#x173;" horiz-adv-x="531" 
d="M214 -7q-65 0 -108 41t-43 112v265l116 21v-244q0 -51 21.5 -80.5t62.5 -29.5q21 0 44 8t43 23t32 37l37 -25q-27 -41 -60 -69.5t-69.5 -43.5t-75.5 -15zM373 -11l-21 86v336l116 21v-421zM394 -290q-46 0 -75.5 17.5t-44 46.5t-14.5 64t17 71t57.5 71.5t110.5 67.5
l23 -37q-48 -30 -70.5 -67.5t-22.5 -78.5q0 -31 15.5 -51t45.5 -20q8 0 17.5 1.5t18.5 5.5l28 -61q-20 -13 -47 -21.5t-59 -8.5z" />
    <glyph glyph-name="Wcircumflex" unicode="&#x174;" horiz-adv-x="968" 
d="M625 0l-192 658h124l182 -630h-74l148 630h120l-183 -658h-125zM217 0l-181 658h133l157 -630h-72l172 630h100l-184 -658h-125zM566 731l-101 101l-21 75h79l132 -176h-89zM312 731l132 176h79l-20 -73l-102 -103h-89z" />
    <glyph glyph-name="wcircumflex" unicode="&#x175;" horiz-adv-x="730" 
d="M156 0l-145 421h126l90 -348h-21l109 348h108l123 -348l-28 -1l80 349h121l-147 -421h-104l-116 323h15l-105 -323h-106zM433 505l-86 136l-21 70h79l112 -206h-84zM214 505l112 206h79l-20 -68l-87 -138h-84z" />
    <glyph glyph-name="Ycircumflex" unicode="&#x176;" horiz-adv-x="637" 
d="M278 226l-263 432h155l192 -356zM253 0v300h129v-300h-129zM360 232l-68 70l195 356h135zM401 731l-101 101l-21 75h79l132 -176h-89zM147 731l132 176h79l-20 -73l-102 -103h-89z" />
    <glyph glyph-name="ycircumflex" unicode="&#x177;" horiz-adv-x="474" 
d="M224 -56l-213 477h127l132 -351zM346 421h117l-270 -710h-123l160 325zM304 505l-86 136l-21 70h79l112 -206h-84zM85 505l112 206h79l-20 -68l-87 -138h-84z" />
    <glyph glyph-name="Ydieresis" unicode="&#x178;" horiz-adv-x="637" 
d="M278 226l-263 432h155l192 -356zM253 0v300h129v-300h-129zM360 232l-68 70l195 356h135zM220 724q-30 0 -48.5 18.5t-18.5 46.5q0 30 18.5 48.5t48.5 18.5t48.5 -18.5t18.5 -48.5q0 -28 -18.5 -46.5t-48.5 -18.5zM418 724q-31 0 -50 18.5t-19 46.5q0 30 19 48.5t50 18.5
q29 0 47.5 -18.5t18.5 -48.5q0 -28 -18.5 -46.5t-47.5 -18.5z" />
    <glyph glyph-name="Zacute" unicode="&#x179;" horiz-adv-x="613" 
d="M52 0l-1 84l424 568l55 -88l-462 -5v99h495v-83l-423 -569l-50 88l483 5v-99h-521zM270 731l65 176h139l-112 -176h-92z" />
    <glyph glyph-name="zacute" unicode="&#x17a;" horiz-adv-x="424" 
d="M26 41l247 349l62 -39l-289 -7l5 77h341l6 -35l-249 -359l-54 44l303 6l-5 -77h-357zM165 505l82 206h131l-129 -206h-84z" />
    <glyph glyph-name="Zdotaccent" unicode="&#x17b;" horiz-adv-x="613" 
d="M52 0l-1 84l424 568l55 -88l-462 -5v99h495v-83l-423 -569l-50 88l483 5v-99h-521zM324 731q-33 0 -53 19t-20 51t20 51.5t53 19.5q32 0 52 -19.5t20 -51.5t-20 -51t-52 -19z" />
    <glyph glyph-name="zdotaccent" unicode="&#x17c;" horiz-adv-x="424" 
d="M26 41l247 349l62 -39l-289 -7l5 77h341l6 -35l-249 -359l-54 44l303 6l-5 -77h-357zM222 513q-33 0 -53 19t-20 51t20 51.5t53 19.5q32 0 52 -19.5t20 -51.5t-20 -51t-52 -19z" />
    <glyph glyph-name="Zcaron" unicode="&#x17d;" horiz-adv-x="613" 
d="M52 0l-1 84l424 568l55 -88l-462 -5v99h495v-83l-423 -569l-50 88l483 5v-99h-521zM284 731l21 75l101 101h89l-132 -176h-79zM284 731l-132 176h89l102 -103l20 -73h-79z" />
    <glyph glyph-name="zcaron" unicode="&#x17e;" horiz-adv-x="424" 
d="M26 41l247 349l62 -39l-289 -7l5 77h341l6 -35l-249 -359l-54 44l303 6l-5 -77h-357zM183 505l21 70l86 136h84l-112 -206h-79zM183 505l-112 206h84l87 -138l20 -68h-79z" />
    <glyph glyph-name="longs" unicode="&#x17f;" horiz-adv-x="286" 
d="M76 0v419q0 77 18.5 132.5t51 90.5t75 52t90.5 17q40 0 68.5 -11t59.5 -33l-55 -88q-30 28 -51.5 39.5t-46.5 11.5q-32 0 -52.5 -18.5t-30.5 -58t-10 -102.5v-451h-117z" />
    <glyph glyph-name="uni018F" unicode="&#x18f;" horiz-adv-x="722" 
d="M334 -13q-79 0 -143 34.5t-101.5 95t-37.5 137.5q0 19 0.5 37t2.5 36l126 -27q-2 -8 -3 -21t-1 -23q0 -51 24.5 -91.5t65 -64t89.5 -23.5q58 0 99 29.5t63 82.5t22 125q0 77 -26.5 135.5t-74.5 92t-113 33.5q-40 0 -72.5 -12.5t-59.5 -34.5t-52 -52l-60 103
q38 30 81 50.5t90 31t95 10.5q74 0 133.5 -26t101.5 -72t64.5 -107t22.5 -131q0 -75 -25.5 -138.5t-71.5 -110.5t-107 -73t-132 -26zM121 236l-66 91h531v-91h-465z" />
    <glyph glyph-name="florin" unicode="&#x192;" horiz-adv-x="401" 
d="M106 -289q-35 0 -59 9t-47 26l56 87q14 -13 26.5 -19t25.5 -6q16 0 27 9t16.5 35t3.5 77l-20 532q-2 52 2 93t15.5 70.5t30.5 49t47 28.5t65 9q35 0 59.5 -9t46.5 -26l-56 -87q-14 14 -26.5 19.5t-25.5 5.5q-15 0 -26 -9t-15.5 -35t-2.5 -77l20 -532q2 -52 -2.5 -93
t-16 -70.5t-31.5 -49t-48 -28.5t-65 -9zM367 345l-337 2l7 66l337 8z" />
    <glyph glyph-name="Ohorn" unicode="&#x1a0;" horiz-adv-x="787" 
d="M385 -13q-97 0 -172 43.5t-118 120t-43 173.5q0 80 28 144t77.5 109t113 69.5t134.5 24.5q96 0 170.5 -43.5t117 -119.5t42.5 -174q0 -80 -28 -144t-76.5 -109.5t-111.5 -69.5t-134 -24zM408 79q59 0 102 29t66 82t23 124q0 83 -29.5 142t-79 91t-110.5 32
q-56 0 -98.5 -28.5t-66 -81.5t-23.5 -125q0 -82 29.5 -141.5t78.5 -91.5t108 -32zM541 532l-11 68q56 16 90.5 37.5t34.5 72.5q0 20 -7 37.5t-22 28.5l76 59q29 -20 44.5 -49t15.5 -68q0 -55 -27.5 -92.5t-77 -60t-116.5 -33.5z" />
    <glyph glyph-name="ohorn" unicode="&#x1a1;" horiz-adv-x="554" 
d="M258 -13q-64 0 -114.5 28t-79 77t-28.5 111q0 68 31.5 120t86 81.5t123.5 29.5q64 0 113.5 -27.5t78.5 -76t29 -111.5q0 -67 -31 -119.5t-85 -82.5t-124 -30zM275 67q35 0 57 20t32 52t10 67q0 48 -15.5 81t-41 50t-57.5 17q-34 0 -56.5 -19t-33 -50t-10.5 -68
q0 -48 15.5 -81.5t42 -51t57.5 -17.5zM401 332l-21 63q36 0 55.5 23t19.5 51q0 17 -5 33t-17 29l82 61q28 -23 40.5 -52t12.5 -58q0 -38 -21 -72.5t-58.5 -56t-87.5 -21.5z" />
    <glyph glyph-name="Uhorn" unicode="&#x1af;" horiz-adv-x="747" 
d="M360 -13q-83 0 -145 32.5t-96.5 92.5t-34.5 142v404h128v-367q0 -69 21 -113.5t59.5 -66.5t90.5 -22q50 0 84.5 19t52.5 55t18 86v366h115v-334q0 -89 -36.5 -155t-102.5 -102.5t-154 -36.5zM568 552l-30 63q39 5 69 16.5t47.5 32t17.5 51.5q0 19 -7.5 35t-22.5 26l76 59
q29 -20 44.5 -49t15.5 -67q0 -51 -26.5 -86.5t-73.5 -55.5t-110 -25z" />
    <glyph glyph-name="uhorn" unicode="&#x1b0;" horiz-adv-x="556" 
d="M213 -7q-63 0 -106.5 41t-43.5 112v265l116 21v-244q0 -51 22 -80.5t63 -29.5q22 0 45.5 8t44 23t32.5 37l37 -25q-28 -41 -61 -70t-70.5 -43.5t-78.5 -14.5zM377 -11l-21 86v304l116 21v-389zM389 325l-33 54q51 12 79.5 35t28.5 63q0 22 -7.5 38.5t-17.5 26.5l78 60
q29 -19 44.5 -47t15.5 -62q0 -43 -24 -79t-66.5 -59t-97.5 -30z" />
    <glyph glyph-name="uni01B7" unicode="&#x1b7;" horiz-adv-x="563" 
d="M269 -13q-59 0 -109.5 18t-86 51.5t-51.5 80.5l115 43q20 -33 43 -54.5t51.5 -32.5t64.5 -11q30 0 53 7t38 20.5t22.5 33t7.5 45.5q0 23 -9.5 47t-36 43.5t-76.5 29t-132 3.5l-23 63l293 248l45 -58l-432 -5v99h465v-83l-274 -240l-20 68q110 10 181 -13.5t105.5 -71
t34.5 -109.5q0 -71 -37 -120.5t-98 -75.5t-134 -26z" />
    <glyph glyph-name="uni01CD" unicode="&#x1cd;" horiz-adv-x="676" 
d="M514 0l-207 592h49l-203 -592h-127l265 658h108l251 -658h-136zM143 186l36 99h284l53 -99h-373zM301 731l21 75l101 101h89l-132 -176h-79zM301 731l-132 176h89l102 -103l20 -73h-79z" />
    <glyph glyph-name="uni01CE" unicode="&#x1ce;" horiz-adv-x="462" 
d="M370 -8q-45 0 -71.5 31.5t-25.5 92.5l4 170q1 26 -4 41.5t-15 22.5t-25 7t-32 -6.5t-29.5 -23t-14.5 -45.5l-111 13q6 30 24.5 55t46.5 43.5t62.5 28.5t72.5 10q71 0 101.5 -35.5t29.5 -94.5l-2 -208q0 -11 5.5 -16.5t13.5 -5.5t15.5 3t13.5 8l32 -54
q-15 -16 -38.5 -26.5t-52.5 -10.5zM149 -8q-51 0 -82 28.5t-31 73.5q0 26 11.5 49.5t41.5 42.5t85 31l163 36l5 -51l-141 -41q-31 -9 -40.5 -22.5t-9.5 -26.5q0 -16 11.5 -26t30.5 -10q25 0 62 18t83 42l2 -39q-44 -43 -91 -74t-100 -31zM186 505l21 70l86 136h84l-112 -206
h-79zM186 505l-112 206h84l87 -138l20 -68h-79z" />
    <glyph glyph-name="uni01CF" unicode="&#x1cf;" horiz-adv-x="331" 
d="M100 0v658h131v-658h-131zM120 731l21 75l101 101h89l-132 -176h-79zM120 731l-132 176h89l102 -103l20 -73h-79z" />
    <glyph glyph-name="uni01D0" unicode="&#x1d0;" horiz-adv-x="274" 
d="M79 0v411l116 21v-432h-116zM98 505l21 70l86 136h84l-112 -206h-79zM98 505l-112 206h84l87 -138l20 -68h-79z" />
    <glyph glyph-name="uni01D1" unicode="&#x1d1;" horiz-adv-x="787" 
d="M385 -13q-97 0 -172 43.5t-118 120t-43 173.5q0 80 28 144t77.5 109t113 69.5t134.5 24.5q96 0 170.5 -43.5t117 -119.5t42.5 -174q0 -80 -28 -144t-76.5 -109.5t-111.5 -69.5t-134 -24zM408 79q59 0 102 29t66 82t23 124q0 83 -29.5 142t-79 91t-110.5 32
q-56 0 -98.5 -28.5t-66 -81.5t-23.5 -125q0 -82 29.5 -141.5t78.5 -91.5t108 -32zM360 731l21 75l101 101h89l-132 -176h-79zM360 731l-132 176h89l102 -103l20 -73h-79z" />
    <glyph glyph-name="uni01D2" unicode="&#x1d2;" horiz-adv-x="534" 
d="M258 -13q-64 0 -114.5 28t-79 77t-28.5 111q0 68 31.5 120t86 81.5t123.5 29.5q64 0 113.5 -27.5t78.5 -76t29 -111.5q0 -67 -31 -119.5t-85 -82.5t-124 -30zM275 67q35 0 57 20t32 52t10 67q0 48 -15.5 81t-41 50t-57.5 17q-34 0 -56.5 -19t-33 -50t-10.5 -68
q0 -48 15.5 -81.5t42 -51t57.5 -17.5zM238 505l21 70l86 136h84l-112 -206h-79zM238 505l-112 206h84l87 -138l20 -68h-79z" />
    <glyph glyph-name="uni01D3" unicode="&#x1d3;" horiz-adv-x="733" 
d="M359 -13q-82 0 -144 32.5t-96.5 92.5t-34.5 142v404h128v-377q0 -61 20 -104t58.5 -65.5t91.5 -22.5q52 0 88 20.5t54.5 57.5t18.5 85v406h110v-377q0 -89 -36.5 -155t-102.5 -102.5t-155 -36.5zM342 731l21 75l101 101h89l-132 -176h-79zM342 731l-132 176h89l102 -103
l20 -73h-79z" />
    <glyph glyph-name="uni01D4" unicode="&#x1d4;" horiz-adv-x="531" 
d="M214 -7q-65 0 -108 41t-43 112v265l116 21v-244q0 -51 21.5 -80.5t62.5 -29.5q21 0 44 8t43 23t32 37l37 -25q-27 -41 -60 -69.5t-69.5 -43.5t-75.5 -15zM373 -11l-21 86v336l116 21v-421zM236 505l21 70l86 136h84l-112 -206h-79zM236 505l-112 206h84l87 -138l20 -68
h-79z" />
    <glyph glyph-name="uni01D5" unicode="&#x1d5;" horiz-adv-x="733" 
d="M359 -13q-82 0 -144 32.5t-96.5 92.5t-34.5 142v404h128v-377q0 -61 20 -104t58.5 -65.5t91.5 -22.5q52 0 88 20.5t54.5 57.5t18.5 85v406h110v-377q0 -89 -36.5 -155t-102.5 -102.5t-155 -36.5zM271 703q-30 0 -48.5 18.5t-18.5 46.5q0 30 18.5 48.5t48.5 18.5
t48.5 -18.5t18.5 -48.5q0 -28 -18.5 -46.5t-48.5 -18.5zM469 703q-31 0 -50 18.5t-19 46.5q0 30 19 48.5t50 18.5q29 0 47.5 -18.5t18.5 -48.5q0 -28 -18.5 -46.5t-47.5 -18.5zM197 900v82h344v-82h-344z" />
    <glyph glyph-name="uni01D6" unicode="&#x1d6;" horiz-adv-x="531" 
d="M214 -7q-65 0 -108 41t-43 112v265l116 21v-244q0 -51 21.5 -80.5t62.5 -29.5q21 0 44 8t43 23t32 37l37 -25q-27 -41 -60 -69.5t-69.5 -43.5t-75.5 -15zM373 -11l-21 86v336l116 21v-421zM176 501q-30 0 -49 18t-19 47q0 30 19 48.5t49 18.5t48.5 -18.5t18.5 -48.5
q0 -29 -18.5 -47t-48.5 -18zM374 501q-31 0 -50 18t-19 47q0 30 19 48.5t50 18.5q29 0 47.5 -18.5t18.5 -48.5q0 -29 -18.5 -47t-47.5 -18zM142 681v82h265v-82h-265z" />
    <glyph glyph-name="uni01D7" unicode="&#x1d7;" horiz-adv-x="737" 
d="M359 -13q-82 0 -144 32.5t-96.5 92.5t-34.5 142v404h128v-377q0 -61 20 -104t58.5 -65.5t91.5 -22.5q52 0 88 20.5t54.5 57.5t18.5 85v406h110v-377q0 -89 -36.5 -155t-102.5 -102.5t-155 -36.5zM282 703q-30 0 -48.5 18.5t-18.5 46.5q0 30 18.5 48.5t48.5 18.5
t48.5 -18.5t18.5 -48.5q0 -28 -18.5 -46.5t-48.5 -18.5zM480 703q-31 0 -50 18.5t-19 46.5q0 30 19 48.5t50 18.5q29 0 47.5 -18.5t18.5 -48.5q0 -28 -18.5 -46.5t-47.5 -18.5zM334 862l65 176h139l-112 -176h-92z" />
    <glyph glyph-name="uni01D8" unicode="&#x1d8;" horiz-adv-x="531" 
d="M214 -7q-65 0 -108 41t-43 112v265l116 21v-244q0 -51 21.5 -80.5t62.5 -29.5q21 0 44 8t43 23t32 37l37 -25q-27 -41 -60 -69.5t-69.5 -43.5t-75.5 -15zM373 -11l-21 86v336l116 21v-421zM176 501q-30 0 -49 18t-19 47q0 30 19 48.5t49 18.5t48.5 -18.5t18.5 -48.5
q0 -29 -18.5 -47t-48.5 -18zM374 501q-31 0 -50 18t-19 47q0 30 19 48.5t50 18.5q29 0 47.5 -18.5t18.5 -48.5q0 -29 -18.5 -47t-47.5 -18zM218 677l82 206h131l-129 -206h-84z" />
    <glyph glyph-name="uni01D9" unicode="&#x1d9;" horiz-adv-x="733" 
d="M359 -13q-82 0 -144 32.5t-96.5 92.5t-34.5 142v404h128v-377q0 -61 20 -104t58.5 -65.5t91.5 -22.5q52 0 88 20.5t54.5 57.5t18.5 85v406h110v-377q0 -89 -36.5 -155t-102.5 -102.5t-155 -36.5zM467 703q-30 0 -48.5 18.5t-18.5 46.5q0 30 18.5 48.5t48.5 18.5
t48.5 -18.5t18.5 -48.5q0 -28 -18.5 -46.5t-48.5 -18.5zM269 703q-29 0 -47.5 18.5t-18.5 46.5q0 30 18.5 48.5t47.5 18.5q31 0 50 -18.5t19 -48.5q0 -28 -19 -46.5t-50 -18.5zM331 862l21 75l101 101h89l-132 -176h-79zM331 862l-132 176h89l102 -103l20 -73h-79z" />
    <glyph glyph-name="uni01DA" unicode="&#x1da;" horiz-adv-x="531" 
d="M214 -7q-65 0 -108 41t-43 112v265l116 21v-244q0 -51 21.5 -80.5t62.5 -29.5q21 0 44 8t43 23t32 37l37 -25q-27 -41 -60 -69.5t-69.5 -43.5t-75.5 -15zM373 -11l-21 86v336l116 21v-421zM176 501q-30 0 -49 18t-19 47q0 30 19 48.5t49 18.5t48.5 -18.5t18.5 -48.5
q0 -29 -18.5 -47t-48.5 -18zM374 501q-31 0 -50 18t-19 47q0 30 19 48.5t50 18.5q29 0 47.5 -18.5t18.5 -48.5q0 -29 -18.5 -47t-47.5 -18zM236 677l21 70l86 136h84l-112 -206h-79zM236 677l-112 206h84l87 -138l20 -68h-79z" />
    <glyph glyph-name="uni01DB" unicode="&#x1db;" horiz-adv-x="733" 
d="M359 -13q-82 0 -144 32.5t-96.5 92.5t-34.5 142v404h128v-377q0 -61 20 -104t58.5 -65.5t91.5 -22.5q52 0 88 20.5t54.5 57.5t18.5 85v406h110v-377q0 -89 -36.5 -155t-102.5 -102.5t-155 -36.5zM469 703q-30 0 -48.5 18.5t-18.5 46.5q0 30 18.5 48.5t48.5 18.5
t48.5 -18.5t18.5 -48.5q0 -28 -18.5 -46.5t-48.5 -18.5zM271 703q-29 0 -47.5 18.5t-18.5 46.5q0 30 18.5 48.5t47.5 18.5q31 0 50 -18.5t19 -48.5q0 -28 -19 -46.5t-50 -18.5zM417 862h-92l-112 176h139z" />
    <glyph glyph-name="uni01DC" unicode="&#x1dc;" horiz-adv-x="531" 
d="M214 -7q-65 0 -108 41t-43 112v265l116 21v-244q0 -51 21.5 -80.5t62.5 -29.5q21 0 44 8t43 23t32 37l37 -25q-27 -41 -60 -69.5t-69.5 -43.5t-75.5 -15zM373 -11l-21 86v336l116 21v-421zM176 501q-30 0 -49 18t-19 47q0 30 19 48.5t49 18.5t48.5 -18.5t18.5 -48.5
q0 -29 -18.5 -47t-48.5 -18zM374 501q-31 0 -50 18t-19 47q0 30 19 48.5t50 18.5q29 0 47.5 -18.5t18.5 -48.5q0 -29 -18.5 -47t-47.5 -18zM248 677l-129 206h131l82 -206h-84z" />
    <glyph glyph-name="uni01E2" unicode="&#x1e2;" horiz-adv-x="891" 
d="M-10 0l391 658h104l-351 -658h-144zM197 203l53 99h252v-99h-305zM502 283v99h275v-99h-275zM443 0v658h372v-100h-257v-458h288v-100h-403zM379 746v82h325v-82h-325z" />
    <glyph glyph-name="uni01E3" unicode="&#x1e3;" horiz-adv-x="648" 
d="M450 -11q-39 0 -71.5 11.5t-56 33.5t-36 53.5t-11.5 71.5l2 126q1 43 -11 58t-38 15q-16 0 -33.5 -5.5t-31 -21.5t-19.5 -50l-107 13q3 28 20.5 53t46 44.5t65 30.5t77.5 11q65 0 96.5 -34t31.5 -98v-136q0 -27 11 -47t33 -30.5t54 -10.5q29 0 59 11t56 33l41 -62
q-29 -28 -60 -43t-61 -21t-57 -6zM144 -11q-55 0 -86.5 31.5t-31.5 81.5q0 22 11 45.5t43 43t94 28.5l437 66l12 -74l-421 -52q-38 -4 -51 -18t-13 -25q0 -19 12.5 -31t33.5 -12q33 0 71 19.5t85 44.5l-1 -44q-46 -47 -90.5 -75.5t-104.5 -28.5zM529 211v65q0 8 -3.5 25.5
t-18.5 33t-48 15.5q-34 0 -60 -22t-38 -59l-50 56q29 48 74 77.5t94 29.5q44 0 77 -20.5t52 -57t19 -84.5q0 -4 -0.5 -21.5t-3.5 -37.5h-94zM212 509v82h265v-82h-265z" />
    <glyph glyph-name="uni01E4" unicode="&#x1e4;" horiz-adv-x="732" 
d="M421 -13q-114 0 -197 41.5t-127.5 115.5t-44.5 172q0 77 28 142t78 112.5t118 74t148 26.5q62 0 124 -16t102 -48l-56 -111q-44 44 -96.5 62.5t-96.5 18.5q-66 0 -113.5 -30.5t-73 -85t-25.5 -125.5q0 -76 31.5 -134t88.5 -90.5t134 -32.5q41 0 82 9t76 31l-63 -77v332
h116v-333q-34 -18 -73 -30t-79.5 -18t-80.5 -6zM403 196v88h325v-88h-325z" />
    <glyph glyph-name="uni01E5" unicode="&#x1e5;" horiz-adv-x="538" 
d="M237 -289q-34 0 -68.5 7t-66 23t-57.5 41l75 86q35 -37 77 -54.5t76 -17.5q26 0 45 13t30 42.5t11 77.5v416l21 66l95 21v-499q0 -75 -35 -124.5t-89.5 -73.5t-113.5 -24zM229 -10q-59 0 -102.5 27t-67 74t-23.5 107q0 67 29.5 119.5t79 83t109.5 30.5q38 0 66.5 -13
t48.5 -37t30 -57l-28 -35q-16 30 -42.5 45t-56.5 15q-34 0 -59 -17t-39 -48t-14 -73q0 -40 11.5 -72.5t34 -51.5t54.5 -19q26 0 56.5 15.5t53.5 54.5l40 -21q-22 -43 -48.5 -71t-59.5 -42t-73 -14zM519 -128l-329 2l7 68l329 7z" />
    <glyph glyph-name="Gcaron" unicode="&#x1e6;" horiz-adv-x="722" 
d="M421 -13q-114 0 -197 41.5t-127.5 115.5t-44.5 172q0 77 28 142t78.5 112.5t119 74t150.5 26.5q56 0 116 -14.5t106 -46.5l-56 -115q-49 48 -100.5 65t-93.5 17q-67 0 -114 -30.5t-72 -85t-25 -125.5q0 -76 31.5 -134t88.5 -90.5t134 -32.5q41 0 82 8.5t76 29.5l-65 -75
v200h-115v92h233v-293q-34 -18 -73 -30t-79.5 -18t-80.5 -6zM361 731l21 75l101 101h89l-132 -176h-79zM361 731l-132 176h89l102 -103l20 -73h-79z" />
    <glyph glyph-name="gcaron" unicode="&#x1e7;" horiz-adv-x="496" 
d="M212 -289q-53 0 -95 14.5t-65.5 42.5t-23.5 66q0 47 46.5 93.5t139.5 80.5l26 -28q-48 -25 -71.5 -57t-23.5 -65q0 -34 27.5 -52.5t70.5 -18.5q33 0 61.5 10.5t45.5 31t17 49.5q0 27 -14.5 40t-46.5 19t-83 11q-41 5 -79.5 15t-62.5 30.5t-24 55.5q0 29 15.5 51t43 40
t63.5 34l28 -30q-16 -6 -34.5 -20t-18.5 -35q0 -16 12.5 -25.5t42 -15t79.5 -11.5q50 -5 93 -15t69.5 -34t26.5 -73q0 -61 -37 -107t-97 -71.5t-131 -25.5zM224 119q-52 0 -90.5 19.5t-59.5 53t-21 76.5q0 49 26 86t69.5 58.5t97.5 21.5q76 0 122.5 -41t46.5 -107
q0 -48 -24 -85.5t-67 -59.5t-100 -22zM242 196q22 0 37.5 9t24 25t8.5 38q0 39 -23 64t-62 25q-32 0 -51 -19.5t-19 -54.5q0 -26 11 -45.5t30.5 -30.5t43.5 -11zM315 348l-11 53l179 21v-74h-168zM215 505l21 70l86 136h84l-112 -206h-79zM215 505l-112 206h84l87 -138
l20 -68h-79z" />
    <glyph glyph-name="uni01E8" unicode="&#x1e8;" horiz-adv-x="647" 
d="M475 0l-272 336l244 322h151l-293 -341l10 57l340 -374h-180zM95 0v658h123v-658h-123zM300 731l21 75l101 101h89l-132 -176h-79zM300 731l-132 176h89l102 -103l20 -73h-79z" />
    <glyph glyph-name="uni01E9" unicode="&#x1e9;" horiz-adv-x="492" 
d="M340 0l-145 203h-15v24l150 194h148v-2l-229 -222l15 77l231 -272v-2h-155zM74 0v700l114 21v-721h-114zM101 795l21 70l86 136h84l-112 -206h-79zM101 795l-112 206h84l87 -138l20 -68h-79z" />
    <glyph glyph-name="uni01EA" unicode="&#x1ea;" horiz-adv-x="787" 
d="M385 -13q-97 0 -172 43.5t-118 120t-43 173.5q0 80 28 144t77.5 109t113 69.5t134.5 24.5q96 0 170.5 -43.5t117 -119.5t42.5 -174q0 -80 -28 -144t-76.5 -109.5t-111.5 -69.5t-134 -24zM408 79q59 0 102 29t66 82t23 124q0 83 -29.5 142t-79 91t-110.5 32
q-56 0 -98.5 -28.5t-66 -81.5t-23.5 -125q0 -82 29.5 -141.5t78.5 -91.5t108 -32zM455 -289q-77 0 -118.5 40t-41.5 110q0 48 36 99t117 92l41 -31q-37 -27 -54.5 -61t-17.5 -72q0 -37 18.5 -65t61.5 -28q9 0 18.5 1.5t18.5 5.5l28 -61q-24 -15 -49.5 -22.5t-57.5 -7.5z" />
    <glyph glyph-name="uni01EB" unicode="&#x1eb;" horiz-adv-x="534" 
d="M258 -13q-64 0 -114.5 28t-79 77t-28.5 111q0 68 31.5 120t86 81.5t123.5 29.5q64 0 113.5 -27.5t78.5 -76t29 -111.5q0 -67 -31 -119.5t-85 -82.5t-124 -30zM275 67q35 0 57 20t32 52t10 67q0 48 -15.5 81t-41 50t-57.5 17q-34 0 -56.5 -19t-33 -50t-10.5 -68
q0 -48 15.5 -81.5t42 -51t57.5 -17.5zM309 -290q-74 0 -114.5 38t-40.5 98q0 53 35.5 103.5t114.5 90.5l40 -29q-40 -31 -57.5 -69t-17.5 -68q0 -40 22 -60t59 -20q11 0 20 1.5t18 5.5l28 -61q-23 -15 -49 -22.5t-58 -7.5z" />
    <glyph glyph-name="uni01EE" unicode="&#x1ee;" horiz-adv-x="563" 
d="M269 -13q-59 0 -109.5 18t-86 51.5t-51.5 80.5l115 43q20 -33 43 -54.5t51.5 -32.5t64.5 -11q30 0 53 7t38 20.5t22.5 33t7.5 45.5q0 23 -9.5 47t-36 43.5t-76.5 29t-132 3.5l-23 63l293 248l45 -58l-432 -5v99h465v-83l-274 -240l-20 68q110 10 181 -13.5t105.5 -71
t34.5 -109.5q0 -71 -37 -120.5t-98 -75.5t-134 -26zM242 731l21 75l101 101h89l-132 -176h-79zM242 731l-132 176h89l102 -103l20 -73h-79z" />
    <glyph glyph-name="uni01EF" unicode="&#x1ef;" horiz-adv-x="464" 
d="M211 -289q-42 0 -81 17t-68.5 48.5t-44.5 76.5l95 43q21 -49 50.5 -72t74.5 -23q52 0 71 28.5t19 68.5q0 68 -48 115.5t-159 63.5l-19 47l221 262l41 -58l-317 -4l3 97h363l16 -42l-224 -258l-35 54q87 -17 147 -49.5t91 -79.5t31 -109q0 -50 -19.5 -91.5t-52 -71.5
t-73 -46.5t-82.5 -16.5zM198 505l21 70l86 136h84l-112 -206h-79zM198 505l-112 206h84l87 -138l20 -68h-79z" />
    <glyph glyph-name="Aringacute" unicode="&#x1fa;" horiz-adv-x="676" 
d="M514 0l-207 592h49l-203 -592h-127l265 658h108l251 -658h-136zM143 186l36 99h284l53 -99h-373zM224 872l-25 56l238 128l40 -92zM335 682q-55 0 -90.5 27t-35.5 67q0 39 36.5 65t92.5 26q55 0 90 -26.5t35 -66.5t-36 -66t-92 -26zM337 727q17 0 27 12.5t10 34.5
t-10.5 35t-27.5 13t-27.5 -12.5t-10.5 -33.5q0 -22 11 -35.5t28 -13.5z" />
    <glyph glyph-name="aringacute" unicode="&#x1fb;" horiz-adv-x="462" 
d="M370 -8q-45 0 -71.5 31.5t-25.5 92.5l4 170q1 26 -4 41.5t-15 22.5t-25 7t-32 -6.5t-29.5 -23t-14.5 -45.5l-111 13q6 30 24.5 55t46.5 43.5t62.5 28.5t72.5 10q71 0 101.5 -35.5t29.5 -94.5l-2 -208q0 -11 5.5 -16.5t13.5 -5.5t15.5 3t13.5 8l32 -54
q-15 -16 -38.5 -26.5t-52.5 -10.5zM149 -8q-51 0 -82 28.5t-31 73.5q0 26 11.5 49.5t41.5 42.5t85 31l163 36l5 -51l-141 -41q-31 -9 -40.5 -22.5t-9.5 -26.5q0 -16 11.5 -26t30.5 -10q25 0 62 18t83 42l2 -39q-44 -43 -91 -74t-100 -31zM220 456q-33 0 -59.5 13.5
t-41.5 37.5t-15 53t15.5 52t42.5 36.5t61 13.5q33 0 59 -13.5t41 -37t15 -53.5q0 -29 -15.5 -52t-42 -36.5t-60.5 -13.5zM222 501q17 0 27 15.5t10 41.5q0 27 -10.5 43t-27.5 16t-27.5 -15.5t-10.5 -41.5q0 -27 11 -43t28 -16zM180 689l37 116h121l-86 -116h-72z" />
    <glyph glyph-name="AEacute" unicode="&#x1fc;" horiz-adv-x="891" 
d="M-10 0l391 658h104l-351 -658h-144zM197 203l53 99h252v-99h-305zM502 283v99h275v-99h-275zM443 0v658h372v-100h-257v-458h288v-100h-403zM488 731l65 176h139l-112 -176h-92z" />
    <glyph glyph-name="aeacute" unicode="&#x1fd;" horiz-adv-x="648" 
d="M450 -11q-39 0 -71.5 11.5t-56 33.5t-36 53.5t-11.5 71.5l2 126q1 43 -11 58t-38 15q-16 0 -33.5 -5.5t-31 -21.5t-19.5 -50l-107 13q3 28 20.5 53t46 44.5t65 30.5t77.5 11q65 0 96.5 -34t31.5 -98v-136q0 -27 11 -47t33 -30.5t54 -10.5q29 0 59 11t56 33l41 -62
q-29 -28 -60 -43t-61 -21t-57 -6zM144 -11q-55 0 -86.5 31.5t-31.5 81.5q0 22 11 45.5t43 43t94 28.5l437 66l12 -74l-421 -52q-38 -4 -51 -18t-13 -25q0 -19 12.5 -31t33.5 -12q33 0 71 19.5t85 44.5l-1 -44q-46 -47 -90.5 -75.5t-104.5 -28.5zM529 211v65q0 8 -3.5 25.5
t-18.5 33t-48 15.5q-34 0 -60 -22t-38 -59l-50 56q29 48 74 77.5t94 29.5q44 0 77 -20.5t52 -57t19 -84.5q0 -4 -0.5 -21.5t-3.5 -37.5h-94zM288 505l82 206h131l-129 -206h-84z" />
    <glyph glyph-name="Oslashacute" unicode="&#x1fe;" horiz-adv-x="785" 
d="M382 -13q-72 0 -132.5 26t-105 72t-68.5 107t-24 131q0 75 27.5 138.5t76 110.5t111.5 73t135 26q73 0 133.5 -26t105 -72.5t69 -107.5t24.5 -131q0 -75 -27.5 -138t-76.5 -110t-112.5 -73t-135.5 -26zM404 77q60 0 105 29t70 81.5t25 121.5q0 81 -27.5 142t-77.5 94.5
t-118 33.5q-60 0 -105 -29t-70 -81t-25 -122q0 -81 28 -141.5t78 -94.5t117 -34zM130 -58l-72 60l586 699l72 -63zM346 731l65 176h139l-112 -176h-92z" />
    <glyph glyph-name="oslashacute" unicode="&#x1ff;" horiz-adv-x="534" 
d="M258 -13q-64 0 -114.5 28t-79 77t-28.5 111q0 67 31.5 119t86 82t123.5 30q64 0 113.5 -28t78.5 -76.5t29 -110.5q0 -67 -31 -119.5t-85 -82.5t-124 -30zM275 66q39 0 63 20t35 52.5t11 67.5q0 48 -16.5 81t-44.5 50.5t-63 17.5q-38 0 -62.5 -19.5t-36 -50.5t-11.5 -68
q0 -48 17 -81.5t45.5 -51.5t62.5 -18zM93 -51l-63 53l415 465l64 -53zM216 505l82 206h131l-129 -206h-84z" />
    <glyph glyph-name="uni0218" unicode="&#x218;" horiz-adv-x="529" 
d="M365 162q0 27 -16 47t-42.5 36t-57.5 31t-62.5 32t-58 39t-42.5 52t-16 71q0 64 30.5 108.5t81 68.5t111.5 24q38 0 84 -9t82 -27l-44 -114q-31 27 -72 41.5t-74 14.5q-31 0 -49 -12t-25.5 -29.5t-7.5 -33.5q0 -24 16 -42t42.5 -33.5t58.5 -30.5t63.5 -33t58 -41.5
t42.5 -54t16 -72.5q0 -68 -33 -114.5t-86.5 -70t-116.5 -23.5q-65 0 -120 19t-90 44l61 105q37 -31 84 -51.5t92 -20.5q39 0 64.5 21t25.5 58zM235 -309l-44 36q16 20 24 44.5t8 48.5q0 23 -6 41.5t-17 28.5l83 61q25 -18 36.5 -44t11.5 -55q0 -46 -26 -92t-70 -69z" />
    <glyph glyph-name="uni0219" unicode="&#x219;" horiz-adv-x="392" 
d="M186 -14q-31 0 -60.5 5t-54 13t-41.5 18l31 92q27 -23 63.5 -36.5t67.5 -13.5q32 0 44.5 14.5t12.5 30.5q0 21 -14.5 33t-38 20.5t-49 17t-49 22.5t-38 36.5t-14.5 59.5q0 46 22.5 76t60 45.5t82.5 15.5q33 0 67.5 -7.5t59.5 -22.5l-31 -86q-20 22 -52 32t-50 10
q-31 0 -43 -12t-12 -26q0 -19 15 -30.5t38.5 -20t50 -17.5t50 -23.5t38.5 -37.5t15 -60q0 -29 -10.5 -55.5t-32 -47.5t-53.5 -33t-75 -12zM175 -309l-44 36q16 20 24 44.5t8 48.5q0 23 -6 41.5t-17 28.5l83 61q25 -18 36.5 -44t11.5 -55q0 -46 -26 -92t-70 -69z" />
    <glyph glyph-name="uni021A" unicode="&#x21a;" horiz-adv-x="617" 
d="M243 0v658h130v-658h-130zM28 559v99h561v-99h-561zM279 -309l-44 36q16 20 24 44.5t8 48.5q0 23 -6 41.5t-17 28.5l83 61q25 -18 36.5 -44t11.5 -55q0 -46 -26 -92t-70 -69z" />
    <glyph glyph-name="uni021B" unicode="&#x21b;" horiz-adv-x="384" 
d="M231 -7q-38 0 -70.5 15.5t-52 46t-19.5 74.5v272l42 109l74 16v-375q0 -38 17 -55t42 -17q17 0 36.5 5.5t38.5 17.5l32 -49q-30 -31 -67 -45.5t-73 -14.5zM341 345l-326 2l7 66l326 8zM203 -309l-44 36q16 20 24 44.5t8 48.5q0 23 -6 41.5t-17 28.5l83 61
q25 -18 36.5 -44t11.5 -55q0 -46 -26 -92t-70 -69z" />
    <glyph glyph-name="uni0232" unicode="&#x232;" horiz-adv-x="637" 
d="M278 226l-263 432h155l192 -356zM253 0v300h129v-300h-129zM360 232l-68 70l195 356h135zM156 746v82h325v-82h-325z" />
    <glyph glyph-name="uni0233" unicode="&#x233;" horiz-adv-x="474" 
d="M224 -56l-213 477h127l132 -351zM346 421h117l-270 -710h-123l160 325zM103 509v82h265v-82h-265z" />
    <glyph glyph-name="uni0237" unicode="&#x237;" horiz-adv-x="274" 
d="M79 0v411l116 21v-432q0 -122 -45.5 -193t-140.5 -96l-26 53q49 27 72.5 84t23.5 152z" />
    <glyph glyph-name="uni0251" unicode="&#x251;" horiz-adv-x="538" 
d="M228 -10q-58 0 -101.5 27t-67 74t-23.5 107q0 67 29.5 119.5t79 83t109.5 30.5q37 0 66 -13t49 -37t30 -57l-28 -35q-17 30 -43 45t-56 15q-34 0 -59.5 -17t-39 -48t-13.5 -73q0 -40 11.5 -72.5t34 -51.5t54.5 -19q26 0 56.5 15.5t52.5 54.5l40 -21q-22 -43 -48.5 -71
t-59.5 -42t-73 -14zM380 -11l-21 86v270l21 66l95 21v-421z" />
    <glyph glyph-name="uni0259" unicode="&#x259;" horiz-adv-x="463" 
d="M210 -13q-52 0 -91 20.5t-61 61t-22 99.5q0 15 0.5 29t2.5 29h98v-55q0 -51 21 -76.5t61 -25.5q36 0 59 18.5t34 50.5t11 73q0 63 -33 99t-89 36q-28 0 -56.5 -8t-54.5 -25l-43 66q29 22 59 33.5t59.5 16.5t55.5 5q91 0 148.5 -55t57.5 -154q0 -70 -26.5 -124t-75 -84
t-115.5 -30zM51 152v74h323l-13 -74h-310z" />
    <glyph glyph-name="uni0261" unicode="&#x261;" horiz-adv-x="538" 
d="M237 -289q-34 0 -68.5 7t-66 23t-57.5 41l75 86q35 -37 77 -54.5t76 -17.5q26 0 45 13t30 42.5t11 77.5v416l21 66l95 21v-499q0 -75 -35 -124.5t-89.5 -73.5t-113.5 -24zM229 -10q-59 0 -102.5 27t-67 74t-23.5 107q0 67 29.5 119.5t79 83t109.5 30.5q38 0 66.5 -13
t48.5 -37t30 -57l-28 -35q-16 30 -42.5 45t-56.5 15q-34 0 -59 -17t-39 -48t-14 -73q0 -40 11.5 -72.5t34 -51.5t54.5 -19q26 0 56.5 15.5t53.5 54.5l40 -21q-22 -43 -48.5 -71t-59.5 -42t-73 -14z" />
    <glyph glyph-name="uni0292" unicode="&#x292;" horiz-adv-x="464" 
d="M211 -289q-42 0 -81 17t-68.5 48.5t-44.5 76.5l95 43q21 -49 50.5 -72t74.5 -23q52 0 71 28.5t19 68.5q0 68 -48 115.5t-159 63.5l-19 47l221 262l41 -58l-317 -4l3 97h363l16 -42l-224 -258l-35 54q87 -17 147 -49.5t91 -79.5t31 -109q0 -50 -19.5 -91.5t-52 -71.5
t-73 -46.5t-82.5 -16.5z" />
    <glyph glyph-name="uni02BB" unicode="&#x2bb;" horiz-adv-x="247" 
d="M142 745l44 -36q-16 -20 -24 -44.5t-8 -48.5q0 -22 6 -41t17 -29l-83 -61q-25 18 -36.5 44t-11.5 55q0 47 26 93t70 68z" />
    <glyph glyph-name="uni02BC" unicode="&#x2bc;" horiz-adv-x="271" 
d="M121 414l-44 36q16 20 24 44.5t8 48.5q0 23 -6 41.5t-17 28.5l83 61q25 -18 36.5 -44t11.5 -55q0 -46 -26 -92t-70 -69z" />
    <glyph glyph-name="uni02BE" unicode="&#x2be;" horiz-adv-x="285" 
d="M77 484v45q32 2 49 17t17 42t-17 41.5t-49 15.5v46q71 -1 108 -27.5t37 -75.5q0 -51 -37 -77.5t-108 -26.5z" />
    <glyph glyph-name="uni02BF" unicode="&#x2bf;" horiz-adv-x="285" 
d="M208 484q-71 0 -108 26.5t-37 77.5q0 49 37 75.5t108 27.5v-46q-32 -1 -49 -15.5t-17 -41.5t17 -42t49 -17v-45z" />
    <glyph glyph-name="circumflex" unicode="&#x2c6;" horiz-adv-x="348" 
d="M242 505l-86 136l-21 70h79l112 -206h-84zM23 505l112 206h79l-20 -68l-87 -138h-84z" />
    <glyph glyph-name="caron" unicode="&#x2c7;" horiz-adv-x="349" 
d="M242 711h84l-112 -206h-79l21 70zM23 711h84l87 -138l20 -68h-79z" />
    <glyph glyph-name="uni02C8" unicode="&#x2c8;" horiz-adv-x="230" 
d="M67 511v190h96v-190h-96z" />
    <glyph glyph-name="uni02CA" unicode="&#x2ca;" horiz-adv-x="288" 
d="M46 505l82 206h131l-129 -206h-84z" />
    <glyph glyph-name="uni02CB" unicode="&#x2cb;" horiz-adv-x="288" 
d="M160 455l-106 156h119l67 -156h-80z" />
    <glyph glyph-name="uni02CC" unicode="&#x2cc;" horiz-adv-x="230" 
d="M67 -269v190h96v-190h-96z" />
    <glyph glyph-name="breve" unicode="&#x2d8;" horiz-adv-x="355" 
d="M177 495q-59 0 -97 42.5t-50 118.5l63 9q6 -35 29.5 -56.5t54.5 -21.5q32 0 55 21.5t29 56.5l64 -9q-12 -76 -50.5 -118.5t-97.5 -42.5z" />
    <glyph glyph-name="dotaccent" unicode="&#x2d9;" horiz-adv-x="197" 
d="M99 513q-33 0 -53 19t-20 51t20 51.5t53 19.5q32 0 52 -19.5t20 -51.5t-20 -51t-52 -19z" />
    <glyph glyph-name="ring" unicode="&#x2da;" horiz-adv-x="325" 
d="M160 484q-33 0 -59.5 13.5t-41.5 37t-15 53.5t15.5 53t42.5 36.5t61 13.5q33 0 59 -13.5t41 -37.5t15 -54q0 -29 -15.5 -52.5t-42 -36.5t-60.5 -13zM162 534q18 0 29.5 14.5t11.5 37.5q0 25 -11.5 39.5t-30.5 14.5t-30.5 -14t-11.5 -38t12 -39t31 -15z" />
    <glyph glyph-name="ogonek" unicode="&#x2db;" horiz-adv-x="331" 
d="M173 -289q-46 0 -75.5 17.5t-44 46.5t-14.5 64t17 71t57.5 71.5t110.5 67.5l23 -37q-48 -30 -70.5 -67.5t-22.5 -78.5q0 -31 15.5 -51t45.5 -20q8 0 17.5 1.5t18.5 5.5l28 -61q-20 -13 -47 -21.5t-59 -8.5z" />
    <glyph glyph-name="tilde" unicode="&#x2dc;" horiz-adv-x="381" 
d="M94 482l-62 15q13 49 43.5 82t65.5 33q16 0 34.5 -3t38.5 -6.5t37 -3.5q16 0 28 12.5t19 35.5l62 -14q-13 -56 -43.5 -91t-65.5 -35q-19 0 -38 3.5t-37 6.5t-35 3q-16 0 -28.5 -10t-18.5 -28z" />
    <glyph glyph-name="hungarumlaut" unicode="&#x2dd;" horiz-adv-x="459" 
d="M32 505l82 206h131l-129 -206h-84zM210 505l82 206h131l-129 -206h-84z" />
    <glyph glyph-name="gravecomb" unicode="&#x300;" 
d="M158 505l-129 206h131l82 -206h-84z" />
    <glyph glyph-name="acutecomb" unicode="&#x301;" 
d="M62 505l82 206h131l-129 -206h-84z" />
    <glyph glyph-name="uni0302" unicode="&#x302;" 
d="M242 505l-86 136l-21 70h79l112 -206h-84zM23 505l112 206h79l-20 -68l-87 -138h-84z" />
    <glyph glyph-name="tildecomb" unicode="&#x303;" 
d="M94 482l-62 15q13 49 43.5 82t65.5 33q16 0 34.5 -3t38.5 -6.5t37 -3.5q16 0 28 12.5t19 35.5l62 -14q-13 -56 -43.5 -91t-65.5 -35q-19 0 -38 3.5t-37 6.5t-35 3q-16 0 -28.5 -10t-18.5 -28z" />
    <glyph glyph-name="uni0304" unicode="&#x304;" 
d="M49 509v82h265v-82h-265z" />
    <glyph glyph-name="uni0306" unicode="&#x306;" 
d="M177 495q-59 0 -97 42.5t-50 118.5l63 9q6 -35 29.5 -56.5t54.5 -21.5q32 0 55 21.5t29 56.5l64 -9q-12 -76 -50.5 -118.5t-97.5 -42.5z" />
    <glyph glyph-name="uni0307" unicode="&#x307;" 
d="M99 513q-33 0 -53 19t-20 51t20 51.5t53 19.5q32 0 52 -19.5t20 -51.5t-20 -51t-52 -19z" />
    <glyph glyph-name="uni0308" unicode="&#x308;" 
d="M74 501q-30 0 -49 18t-19 47q0 30 19 48.5t49 18.5t48.5 -18.5t18.5 -48.5q0 -29 -18.5 -47t-48.5 -18zM272 501q-31 0 -50 18t-19 47q0 30 19 48.5t50 18.5q29 0 47.5 -18.5t18.5 -48.5q0 -29 -18.5 -47t-47.5 -18z" />
    <glyph glyph-name="hookabovecomb" unicode="&#x309;" 
d="M80 486l-6 91q41 0 62 14.5t21 39.5q0 23 -12.5 35.5t-35.5 12.5q-13 0 -28.5 -4t-26.5 -13l-36 49q29 23 59.5 31.5t54.5 8.5q37 0 64 -14.5t42 -39t15 -53.5q0 -46 -34.5 -76t-95.5 -30l49 37l-3 -89h-89z" />
    <glyph glyph-name="uni030A" unicode="&#x30a;" 
d="M160 484q-33 0 -59.5 13.5t-41.5 37t-15 53.5t15.5 53t42.5 36.5t61 13.5q33 0 59 -13.5t41 -37.5t15 -54q0 -29 -15.5 -52.5t-42 -36.5t-60.5 -13zM162 534q18 0 29.5 14.5t11.5 37.5q0 25 -11.5 39.5t-30.5 14.5t-30.5 -14t-11.5 -38t12 -39t31 -15z" />
    <glyph glyph-name="uni030B" unicode="&#x30b;" 
d="M32 505l82 206h131l-129 -206h-84zM210 505l82 206h131l-129 -206h-84z" />
    <glyph glyph-name="uni030C" unicode="&#x30c;" 
d="M135 505l21 70l86 136h84l-112 -206h-79zM135 505l-112 206h84l87 -138l20 -68h-79z" />
    <glyph glyph-name="uni0312" unicode="&#x312;" 
d="M142 745l44 -36q-16 -20 -24 -44.5t-8 -48.5q0 -22 6 -41t17 -29l-83 -61q-25 18 -36.5 44t-11.5 55q0 47 26 93t70 68z" />
    <glyph glyph-name="uni031B" unicode="&#x31b;" 
d="M53 332l-21 63q36 0 55.5 23t19.5 51q0 17 -5 33t-17 29l82 61q28 -23 40.5 -52t12.5 -58q0 -38 -21 -72.5t-58.5 -56t-87.5 -21.5z" />
    <glyph glyph-name="dotbelowcomb" unicode="&#x323;" 
d="M99 -226q-33 0 -53 19t-20 51t20 51.5t53 19.5q32 0 52 -19.5t20 -51.5t-20 -51t-52 -19z" />
    <glyph glyph-name="uni0324" unicode="&#x324;" 
d="M74 -201q-30 0 -49 18t-19 47q0 30 19 48.5t49 18.5t48.5 -18.5t18.5 -48.5q0 -29 -18.5 -47t-48.5 -18zM272 -201q-31 0 -50 18t-19 47q0 30 19 48.5t50 18.5q29 0 47.5 -18.5t18.5 -48.5q0 -29 -18.5 -47t-47.5 -18z" />
    <glyph glyph-name="uni0326" unicode="&#x326;" 
d="M132 -309l-44 36q16 20 24 44.5t8 48.5q0 23 -6 41.5t-17 28.5l83 61q25 -18 36.5 -44t11.5 -55q0 -46 -26 -92t-70 -69z" />
    <glyph glyph-name="uni0327" unicode="&#x327;" 
d="M76 0h70l-27 -81l-47 9q10 5 24.5 8t30.5 3q47 0 76.5 -24.5t29.5 -65.5q0 -43 -34 -69.5t-90 -26.5q-29 0 -53.5 8t-44.5 24l15 36q11 -4 26 -7.5t28 -3.5q28 0 40 13.5t12 28.5q0 20 -17 31.5t-42 11.5q-6 0 -15 -1t-19 -3z" />
    <glyph glyph-name="uni0328" unicode="&#x328;" 
d="M173 -289q-46 0 -75.5 17.5t-44 46.5t-14.5 64t17 71t57.5 71.5t110.5 67.5l23 -37q-48 -30 -70.5 -67.5t-22.5 -78.5q0 -31 15.5 -51t45.5 -20q8 0 17.5 1.5t18.5 5.5l28 -61q-20 -13 -47 -21.5t-59 -8.5z" />
    <glyph glyph-name="uni032D" unicode="&#x32d;" 
d="M239 -271l-86 136l-21 70h79l112 -206h-84zM20 -271l112 206h79l-20 -68l-87 -138h-84z" />
    <glyph glyph-name="uni032E" unicode="&#x32e;" 
d="M165 -238q-59 0 -97 42.5t-50 118.5l63 9q6 -35 29.5 -56.5t54.5 -21.5q32 0 55 21.5t29 56.5l64 -9q-12 -76 -50.5 -118.5t-97.5 -42.5z" />
    <glyph glyph-name="uni0331" unicode="&#x331;" 
d="M49 -171v82h265v-82h-265z" />
    <glyph glyph-name="uni0335" unicode="&#x335;" 
d="M417 281l-366 2l8 76l366 8z" />
    <glyph glyph-name="uni0337" unicode="&#x337;" 
d="M97 -52l-63 53l415 465l64 -53z" />
    <glyph glyph-name="uni0338" unicode="&#x338;" 
d="M72 -88l-72 60l586 699l72 -63z" />
    <glyph glyph-name="uni0374" unicode="&#x374;" horiz-adv-x="248" 
d="M46 412l82 246h131l-129 -246h-84z" />
    <glyph glyph-name="uni0375" unicode="&#x375;" horiz-adv-x="225" 
d="M6 -132l82 246h131l-129 -246h-84z" />
    <glyph glyph-name="uni037E" unicode="&#x37e;" horiz-adv-x="282" 
d="M113 -199l-50 29q18 28 27 62.5t9 68.5q0 35 -9 64t-27 45l103 51q26 -21 38.5 -50.5t12.5 -63.5q0 -40 -12.5 -80t-36 -73t-55.5 -53zM136 268q-36 0 -57.5 21t-21.5 55q0 35 21.5 56t57.5 21q35 0 56 -21t21 -56q0 -34 -21 -55t-56 -21z" />
    <glyph glyph-name="tonos" unicode="&#x384;" horiz-adv-x="291" 
d="M66 505l32 206h121l-79 -206h-74z" />
    <glyph glyph-name="dieresistonos" unicode="&#x385;" horiz-adv-x="344" 
d="M131 505l5 206h101l-42 -206h-64zM54 501q-30 0 -49 18t-19 47q0 30 19 48.5t49 18.5q26 0 41.5 -18.5t15.5 -48.5q0 -29 -15.5 -47t-41.5 -18zM292 501q-26 0 -42.5 18t-16.5 47q0 30 16.5 48.5t42.5 18.5q29 0 47.5 -18.5t18.5 -48.5q0 -29 -18.5 -47t-47.5 -18z" />
    <glyph glyph-name="Alphatonos" unicode="&#x386;" horiz-adv-x="706" 
d="M544 0l-207 592h49l-203 -592h-127l265 658h108l251 -658h-136zM173 186l36 99h284l53 -99h-373zM112 401h-87l35 257h121z" />
    <glyph glyph-name="anoteleia" unicode="&#x387;" horiz-adv-x="260" 
d="M131 278q-36 0 -57.5 21t-21.5 55q0 35 21.5 56t57.5 21q35 0 56 -21t21 -56q0 -34 -21 -55t-56 -21z" />
    <glyph glyph-name="Epsilontonos" unicode="&#x388;" horiz-adv-x="674" 
d="M618 0h-433v658h399v-100h-277v-458h311v-100zM224 285v97h322v-97h-322zM61 401h-87l35 257h121z" />
    <glyph glyph-name="Etatonos" unicode="&#x389;" horiz-adv-x="852" 
d="M633 0v658h126v-658h-126zM185 0v658h127v-658h-127zM224 284v101h496v-101h-496zM61 401h-87l35 257h121z" />
    <glyph glyph-name="Iotatonos" unicode="&#x38a;" horiz-adv-x="411" 
d="M180 0v658h131v-658h-131zM61 401h-87l35 257h121z" />
    <glyph glyph-name="Omicrontonos" unicode="&#x38c;" horiz-adv-x="855" 
d="M455 -13q-97 0 -172 43.5t-118 120t-43 173.5q0 80 28 144t77.5 109t113 69.5t134.5 24.5q96 0 170.5 -43.5t117 -119.5t42.5 -174q0 -80 -28 -144t-76.5 -109.5t-111.5 -69.5t-134 -24zM478 79q59 0 102 29t66 82t23 124q0 83 -29.5 142t-79 91t-110.5 32
q-56 0 -98.5 -28.5t-66 -81.5t-23.5 -125q0 -82 29.5 -141.5t78.5 -91.5t108 -32zM61 401h-87l35 257h121z" />
    <glyph glyph-name="Upsilontonos" unicode="&#x38e;" horiz-adv-x="772" 
d="M413 226l-263 432h155l192 -356zM388 0v300h129v-300h-129zM495 232l-68 70l195 356h135zM61 401h-87l35 257h121z" />
    <glyph glyph-name="Omegatonos" unicode="&#x38f;" horiz-adv-x="841" 
d="M355 35q-67 36 -117 82t-78 104t-28 129q0 88 40.5 160.5t116 116.5t179.5 44q100 0 172 -40t111 -107.5t39 -151.5q0 -73 -29.5 -138.5t-78.5 -117t-110 -85.5l-45 56q47 25 77 64t45 86t15 95q0 83 -31 138t-78.5 82.5t-99.5 27.5q-49 0 -93 -25t-72 -74.5t-28 -123.5
q0 -50 15 -100.5t44.5 -94t73.5 -74.5zM139 0v102l256 -14v-88h-256zM527 0v87l256 15v-102h-256zM61 401h-87l35 257h121z" />
    <glyph glyph-name="iotadieresistonos" unicode="&#x390;" horiz-adv-x="301" 
d="M162 -7q-41 0 -62 24t-21 70v324l118 21v-326q0 -16 6 -23.5t19 -7.5q9 0 18 4t16 10l18 -48q-14 -21 -43.5 -34.5t-68.5 -13.5zM99 505l5 206h101l-42 -206h-64zM22 501q-30 0 -49 18t-19 47q0 30 19 48.5t49 18.5q26 0 41.5 -18.5t15.5 -48.5q0 -29 -15.5 -47
t-41.5 -18zM260 501q-26 0 -42.5 18t-16.5 47q0 30 16.5 48.5t42.5 18.5q29 0 47.5 -18.5t18.5 -48.5q0 -29 -18.5 -47t-47.5 -18z" />
    <glyph glyph-name="Alpha" unicode="&#x391;" horiz-adv-x="676" 
d="M514 0l-207 592h49l-203 -592h-127l265 658h108l251 -658h-136zM143 186l36 99h284l53 -99h-373z" />
    <glyph glyph-name="Beta" unicode="&#x392;" horiz-adv-x="593" 
d="M285 308l21 70q72 0 127 -23t85.5 -64t30.5 -97q0 -57 -32 -101t-90.5 -68.5t-139.5 -24.5h-192v658h205q61 0 107 -19.5t72.5 -55.5t26.5 -84q0 -38 -17 -72.5t-47.5 -61t-70.5 -42t-86 -15.5zM174 386h125q40 0 65.5 24t25.5 65q0 37 -23.5 65.5t-87.5 28.5h-68v-480
h96q59 0 88 28t29 77t-33.5 77.5t-112.5 28.5h-104v86z" />
    <glyph glyph-name="Gamma" unicode="&#x393;" horiz-adv-x="504" 
d="M95 0v658h130v-658h-130zM155 559v99h321v-99h-321z" />
    <glyph glyph-name="uni0394" unicode="&#x394;" horiz-adv-x="656" 
d="M65 0v99h514v-99h-514zM620 0h-114l-212 592h54l-222 -592h-90v63l236 595h110l238 -596v-62z" />
    <glyph glyph-name="Epsilon" unicode="&#x395;" horiz-adv-x="579" 
d="M528 0h-433v658h399v-100h-277v-458h311v-100zM134 285v97h322v-97h-322z" />
    <glyph glyph-name="Zeta" unicode="&#x396;" horiz-adv-x="613" 
d="M52 0l-1 84l424 568l55 -88l-462 -5v99h495v-83l-423 -569l-50 88l483 5v-99h-521z" />
    <glyph glyph-name="Eta" unicode="&#x397;" horiz-adv-x="764" 
d="M543 0v658h126v-658h-126zM95 0v658h127v-658h-127zM134 284v101h496v-101h-496z" />
    <glyph glyph-name="Theta" unicode="&#x398;" horiz-adv-x="785" 
d="M382 -13q-72 0 -132.5 26t-105 72t-68.5 107t-24 131q0 75 27.5 138.5t76 110.5t111.5 73t135 26q73 0 133.5 -26t105 -72.5t69 -107.5t24.5 -131q0 -75 -27.5 -138t-76.5 -110t-112.5 -73t-135.5 -26zM404 77q59 0 102.5 29t68 81t24.5 122q0 82 -27 142.5t-76 94
t-115 33.5q-58 0 -102 -29t-68.5 -81t-24.5 -122q0 -81 27 -142t76.5 -94.5t114.5 -33.5zM256 277l-1 110h273l-1 -110h-271z" />
    <glyph glyph-name="Iota" unicode="&#x399;" horiz-adv-x="331" 
d="M100 0v658h131v-658h-131z" />
    <glyph glyph-name="Kappa" unicode="&#x39a;" horiz-adv-x="647" 
d="M475 0l-272 336l244 322h151l-293 -341l10 57l340 -374h-180zM95 0v658h123v-658h-123z" />
    <glyph glyph-name="Lambda" unicode="&#x39b;" horiz-adv-x="659" 
d="M24 0l244 658h124l244 -658h-133l-222 630h72l-197 -630h-132z" />
    <glyph glyph-name="Mu" unicode="&#x39c;" horiz-adv-x="920" 
d="M711 0l-18 597l60 29l-259 -574h-74l-237 520l1 86h88l220 -475h-35l211 475h132l38 -658h-127zM83 0l46 658h90l-21 -658h-115z" />
    <glyph glyph-name="Nu" unicode="&#x39d;" horiz-adv-x="774" 
d="M95 0v658h99l17 -658h-116zM626 0h-50l-441 574l2 84h82l404 -525zM679 658v-658h-99l-17 658h116z" />
    <glyph glyph-name="Xi" unicode="&#x39e;" horiz-adv-x="611" 
d="M50 0v101h511v-101h-511zM108 284v99h395v-99h-395zM60 558v100h491v-100h-491z" />
    <glyph glyph-name="Omicron" unicode="&#x39f;" horiz-adv-x="787" 
d="M385 -13q-97 0 -172 43.5t-118 120t-43 173.5q0 80 28 144t77.5 109t113 69.5t134.5 24.5q96 0 170.5 -43.5t117 -119.5t42.5 -174q0 -80 -28 -144t-76.5 -109.5t-111.5 -69.5t-134 -24zM408 79q59 0 102 29t66 82t23 124q0 83 -29.5 142t-79 91t-110.5 32
q-56 0 -98.5 -28.5t-66 -81.5t-23.5 -125q0 -82 29.5 -141.5t78.5 -91.5t108 -32z" />
    <glyph glyph-name="Pi" unicode="&#x3a0;" horiz-adv-x="747" 
d="M526 0v658h126v-658h-126zM95 0v658h126v-658h-126zM134 559v99h479v-99h-479z" />
    <glyph glyph-name="Rho" unicode="&#x3a1;" horiz-adv-x="600" 
d="M275 218q-15 0 -44 2t-57 8v93q35 -4 59 -5.5t52 -1.5q51 0 83.5 12.5t48 39t15.5 66.5q0 64 -39 98t-105 34h-69v-564h-124v658h214q75 0 131.5 -24t88.5 -68t32 -105q0 -49 -21 -92.5t-59 -77.5t-90.5 -53.5t-115.5 -19.5z" />
    <glyph glyph-name="Sigma" unicode="&#x3a3;" horiz-adv-x="616" 
d="M60 0v84l305 297l-15 -80l-290 276v81h493v-94l-390 5l19 42l255 -233v-65l-275 -260l-21 53l422 5v-111h-503z" />
    <glyph glyph-name="Tau" unicode="&#x3a4;" horiz-adv-x="617" 
d="M243 0v658h130v-658h-130zM28 559v99h561v-99h-561z" />
    <glyph glyph-name="Upsilon" unicode="&#x3a5;" horiz-adv-x="637" 
d="M278 226l-263 432h155l192 -356zM253 0v300h129v-300h-129zM360 232l-68 70l195 356h135z" />
    <glyph glyph-name="Phi" unicode="&#x3a6;" horiz-adv-x="795" 
d="M380 63q-102 0 -176.5 30t-115.5 87t-41 138q0 90 48.5 151.5t132 93.5t187.5 32q102 0 177 -30t116 -87t41 -138q0 -67 -28 -118.5t-78 -87t-117.5 -53.5t-145.5 -18zM406 143q65 0 113 19.5t74.5 59.5t26.5 102q0 66 -29 108t-80.5 61.5t-117.5 19.5q-67 0 -116 -19.5
t-75.5 -59t-26.5 -100.5q0 -63 29 -105.5t81.5 -64t120.5 -21.5zM342 -10v678h118v-678h-118z" />
    <glyph glyph-name="Chi" unicode="&#x3a7;" horiz-adv-x="639" 
d="M25 0l230 326l-219 332h155l144 -237l138 237h141l-219 -318l233 -340h-154l-160 245l-146 -245h-143z" />
    <glyph glyph-name="Psi" unicode="&#x3a8;" horiz-adv-x="739" 
d="M360 196q-69 0 -125 18.5t-96 54.5t-62 87.5t-22 116.5v185h118v-168q0 -74 27 -121t72.5 -69t101.5 -22q63 0 106 22t65 64.5t22 103.5v190h117v-158q0 -70 -23 -126.5t-66 -96t-102.5 -60.5t-132.5 -21zM312 0v658h116v-658h-116z" />
    <glyph glyph-name="uni03A9" unicode="&#x3a9;" horiz-adv-x="761" 
d="M275 35q-67 36 -117 82t-78 104t-28 129q0 88 40.5 160.5t116 116.5t179.5 44q100 0 172 -40t111 -107.5t39 -151.5q0 -73 -29.5 -138.5t-78.5 -117t-110 -85.5l-45 56q47 25 77 64t45 86t15 95q0 83 -31 138t-78.5 82.5t-99.5 27.5q-49 0 -93 -25t-72 -74.5t-28 -123.5
q0 -50 15 -100.5t44.5 -94t73.5 -74.5zM59 0v102l256 -14v-88h-256zM447 0v87l256 15v-102h-256z" />
    <glyph glyph-name="Iotadieresis" unicode="&#x3aa;" horiz-adv-x="331" 
d="M100 0v658h131v-658h-131zM61 724q-30 0 -48.5 18.5t-18.5 46.5q0 30 18.5 48.5t48.5 18.5t48.5 -18.5t18.5 -48.5q0 -28 -18.5 -46.5t-48.5 -18.5zM259 724q-31 0 -50 18.5t-19 46.5q0 30 19 48.5t50 18.5q29 0 47.5 -18.5t18.5 -48.5q0 -28 -18.5 -46.5t-47.5 -18.5z
" />
    <glyph glyph-name="Upsilondieresis" unicode="&#x3ab;" horiz-adv-x="637" 
d="M278 226l-263 432h155l192 -356zM253 0v300h129v-300h-129zM360 232l-68 70l195 356h135zM220 724q-30 0 -48.5 18.5t-18.5 46.5q0 30 18.5 48.5t48.5 18.5t48.5 -18.5t18.5 -48.5q0 -28 -18.5 -46.5t-48.5 -18.5zM418 724q-31 0 -50 18.5t-19 46.5q0 30 19 48.5t50 18.5
q29 0 47.5 -18.5t18.5 -48.5q0 -28 -18.5 -46.5t-47.5 -18.5z" />
    <glyph glyph-name="alphatonos" unicode="&#x3ac;" horiz-adv-x="580" 
d="M207 -13q-52 0 -90.5 28.5t-59.5 76.5t-21 106q0 72 29.5 125t78.5 82t107 29q44 0 73 -15.5t47 -42t29.5 -60.5t20.5 -70q13 -51 25 -90t26 -61.5t33 -22.5q8 0 18 3.5t18 10.5l37 -48q-13 -19 -40.5 -35t-61.5 -16q-35 0 -59.5 21.5t-40.5 55t-26 71.5t-18 72
q-9 41 -21 74.5t-30.5 53t-47.5 19.5q-22 0 -40 -15.5t-28 -45t-10 -72.5q0 -41 12.5 -74.5t34.5 -52.5t48 -19t51.5 22t49 59t43.5 83.5t35.5 96t25.5 95.5l93 -20q-21 -61 -46.5 -121.5t-56.5 -115t-67.5 -97t-79 -66.5t-91.5 -24zM241 505l32 206h121l-79 -206h-74z" />
    <glyph glyph-name="epsilontonos" unicode="&#x3ad;" horiz-adv-x="428" 
d="M214 -13q-47 0 -88 11.5t-65.5 37t-24.5 68.5q0 62 54 94t142 32v-36q-48 0 -89 9.5t-66.5 32.5t-25.5 63q0 38 23.5 68.5t68.5 48.5t107 18q44 0 86.5 -10.5t73.5 -39.5l-52 -83q-16 26 -50.5 39t-69.5 13q-24 0 -41.5 -6t-26.5 -17t-9 -28q0 -24 21 -35.5t64 -11.5h50
v-75h-50q-48 0 -73 -13.5t-25 -36.5q0 -15 11 -28t32 -21t51 -8q39 0 74 13t60 34l35 -63q-20 -25 -70 -47.5t-127 -22.5zM195 505l32 206h121l-79 -206h-74z" />
    <glyph glyph-name="etatonos" unicode="&#x3ae;" horiz-adv-x="547" 
d="M379 -289v512q0 66 -16.5 93t-45.5 27q-24 0 -49 -12.5t-45.5 -37t-33.5 -60.5l-44 17q28 58 60.5 97.5t71 60t83.5 20.5q36 0 66 -16t48 -51.5t18 -95.5v-534zM99 0v305q0 9 -2.5 16t-7 11t-12.5 4q-11 0 -21 -4t-18 -10l-28 38q23 30 53.5 49t65.5 19q27 0 45.5 -11
t28 -31.5t9.5 -51.5v-334h-113zM251 505l32 206h121l-79 -206h-74z" />
    <glyph glyph-name="iotatonos" unicode="&#x3af;" horiz-adv-x="301" 
d="M162 -7q-41 0 -62 24t-21 70v324l118 21v-326q0 -16 6 -23.5t19 -7.5q9 0 18 4t16 10l18 -48q-14 -21 -43.5 -34.5t-68.5 -13.5zM100 505l32 206h121l-79 -206h-74z" />
    <glyph glyph-name="upsilondieresistonos" unicode="&#x3b0;" horiz-adv-x="519" 
d="M236 -13q-79 0 -124 41t-45 112v271l116 21v-250q0 -52 24 -81t64 -29q29 0 47.5 17t27 51.5t8.5 86.5q0 47 -6 94t-17 90l118 21q10 -37 14.5 -73t4.5 -71q0 -94 -24 -161.5t-75 -103.5t-133 -36zM215 505l5 206h101l-42 -206h-64zM138 501q-30 0 -49 18t-19 47
q0 30 19 48.5t49 18.5q26 0 41.5 -18.5t15.5 -48.5q0 -29 -15.5 -47t-41.5 -18zM376 501q-26 0 -42.5 18t-16.5 47q0 30 16.5 48.5t42.5 18.5q29 0 47.5 -18.5t18.5 -48.5q0 -29 -18.5 -47t-47.5 -18z" />
    <glyph glyph-name="alpha" unicode="&#x3b1;" horiz-adv-x="580" 
d="M207 -13q-52 0 -90.5 28.5t-59.5 76.5t-21 106q0 72 29.5 125t78.5 82t107 29q44 0 73 -15.5t47 -42t29.5 -60.5t20.5 -70q13 -51 25 -90t26 -61.5t33 -22.5q8 0 18 3.5t18 10.5l37 -48q-13 -19 -40.5 -35t-61.5 -16q-35 0 -59.5 21.5t-40.5 55t-26 71.5t-18 72
q-9 41 -21 74.5t-30.5 53t-47.5 19.5q-22 0 -40 -15.5t-28 -45t-10 -72.5q0 -41 12.5 -74.5t34.5 -52.5t48 -19t51.5 22t49 59t43.5 83.5t35.5 96t25.5 95.5l93 -20q-21 -61 -46.5 -121.5t-56.5 -115t-67.5 -97t-79 -66.5t-91.5 -24z" />
    <glyph glyph-name="beta" unicode="&#x3b2;" horiz-adv-x="562" 
d="M74 -289v686q0 94 20.5 156t55 97.5t77.5 50.5t88 15q61 0 98 -20t54 -54t17 -76q0 -51 -21.5 -94t-63 -75.5t-102.5 -55.5l80 57q31 -15 65.5 -39t59 -61.5t24.5 -93.5q0 -60 -22.5 -109t-67 -78.5t-112.5 -29.5q-55 0 -107.5 26t-89.5 73l44 49q23 -30 64.5 -44.5
t77.5 -14.5q33 0 53 11.5t29 33.5t9 51q0 37 -15 71t-47 57.5t-84 27.5l-12 1v70l12 1q43 4 67.5 26t35 53.5t10.5 61.5q0 37 -19 66t-63 29q-37 0 -57 -22.5t-28.5 -56t-10.5 -69t-2 -61.5v-696z" />
    <glyph glyph-name="gamma" unicode="&#x3b3;" horiz-adv-x="471" 
d="M284 -238l-116 19q2 23 3 45.5t1 44.5q0 149 -43.5 278.5t-120.5 261.5l126 20q30 -58 57 -131t49 -154t34.5 -163.5t12.5 -158.5q0 -16 -0.5 -31.5t-2.5 -30.5zM330 421h122q-24 -116 -72.5 -233.5t-123.5 -234.5l-63 36q61 109 93.5 216.5t43.5 215.5z" />
    <glyph glyph-name="delta" unicode="&#x3b4;" horiz-adv-x="539" 
d="M269 -13q-63 0 -113 26t-79 73t-29 110q0 52 19 91t49 67t62 47t59.5 31t41.5 18l48 -53q-42 -16 -77.5 -41.5t-56.5 -62t-21 -85.5q0 -46 15.5 -76.5t42.5 -45.5t60 -15q36 0 57.5 16t31.5 42t10 57q0 52 -20.5 88.5t-52.5 63.5t-67.5 51t-67.5 49.5t-52.5 58
t-20.5 78.5q0 44 23.5 74t61.5 45.5t81 15.5q53 0 102 -13t111 -53l-67 -94q-36 30 -72 48t-65 18t-49 -12.5t-20 -43.5q0 -27 21 -47.5t54 -38.5t69.5 -39t69.5 -50t54 -69.5t21 -99.5q0 -61 -28.5 -113t-81 -84t-124.5 -32z" />
    <glyph glyph-name="epsilon" unicode="&#x3b5;" horiz-adv-x="428" 
d="M214 -13q-47 0 -88 11.5t-65.5 37t-24.5 68.5q0 62 54 94t142 32v-36q-48 0 -89 9.5t-66.5 32.5t-25.5 63q0 38 23.5 68.5t68.5 48.5t107 18q44 0 86.5 -10.5t73.5 -39.5l-52 -83q-16 26 -50.5 39t-69.5 13q-24 0 -41.5 -6t-26.5 -17t-9 -28q0 -24 21 -35.5t64 -11.5h50
v-75h-50q-48 0 -73 -13.5t-25 -36.5q0 -15 11 -28t32 -21t51 -8q39 0 74 13t60 34l35 -63q-20 -25 -70 -47.5t-127 -22.5z" />
    <glyph glyph-name="zeta" unicode="&#x3b6;" horiz-adv-x="440" 
d="M339 -195l-49 49q17 17 27 37.5t10 41.5q0 25 -11 35.5t-30 15t-43 8.5q-51 10 -93.5 30.5t-68 63t-25.5 118.5q0 53 17.5 105.5t47 102t67 94.5t78 84.5t78.5 70.5l78 -33q-44 -36 -82.5 -73t-70.5 -76t-55 -79t-35.5 -81.5t-12.5 -84.5q0 -39 14.5 -68t41.5 -47t64 -24
q36 -6 68.5 -16t53 -34t20.5 -72q0 -34 -11 -63.5t-31 -55t-47 -49.5zM93 600l6 111h317l7 -83z" />
    <glyph glyph-name="eta" unicode="&#x3b7;" horiz-adv-x="547" 
d="M379 -289v512q0 66 -16.5 93t-45.5 27q-24 0 -49 -12.5t-45.5 -37t-33.5 -60.5l-44 17q28 58 60.5 97.5t71 60t83.5 20.5q36 0 66 -16t48 -51.5t18 -95.5v-534zM99 0v305q0 9 -2.5 16t-7 11t-12.5 4q-11 0 -21 -4t-18 -10l-28 38q23 30 53.5 49t65.5 19q27 0 45.5 -11
t28 -31.5t9.5 -51.5v-334h-113z" />
    <glyph glyph-name="theta" unicode="&#x3b8;" horiz-adv-x="541" 
d="M263 -14q-66 0 -114.5 36t-74.5 113.5t-26 202.5q0 132 29 214t81 120.5t120 38.5q67 0 115 -35.5t74 -112.5t26 -203q0 -132 -29 -214.5t-81 -121t-120 -38.5zM277 77q39 0 61 24.5t31 81t9 152.5q0 108 -12 170.5t-37.5 89t-64.5 26.5q-37 0 -59.5 -24t-32 -80
t-9.5 -154q0 -108 12.5 -170.5t37.5 -89t64 -26.5zM117 308v87h290v-87h-290z" />
    <glyph glyph-name="iota" unicode="&#x3b9;" horiz-adv-x="301" 
d="M162 -7q-41 0 -62 24t-21 70v324l118 21v-326q0 -16 6 -23.5t19 -7.5q9 0 18 4t16 10l18 -48q-14 -21 -43.5 -34.5t-68.5 -13.5z" />
    <glyph glyph-name="kappa" unicode="&#x3ba;" horiz-adv-x="485" 
d="M333 0q-28 53 -63 100.5t-79 93.5h-21v23l158 204h147l-226 -234v77q66 -58 124 -124.5t109 -139.5h-149zM63 0v411l115 20v-431h-115z" />
    <glyph glyph-name="lambda" unicode="&#x3bb;" horiz-adv-x="495" 
d="M347 0l-118 383q-10 35 -21.5 63.5t-23 52t-21.5 42.5q-17 32 -41 47t-54 15h-12h-12l-19 108h27h26q54 0 101 -25t70 -86l228 -600h-130zM25 0l200 477l46 -126l-128 -351h-118z" />
    <glyph glyph-name="uni03BC" unicode="&#x3bc;" horiz-adv-x="548" 
d="M73 -289q-7 175 -8.5 350t-1.5 350l116 21v-244q0 -50 21 -80t64 -30q21 0 43 8t42 23t33 37l27 -25q-22 -39 -48 -68t-55 -44.5t-63 -15.5q-25 0 -50 8t-43 24l14 23q-2 -79 7.5 -158t22.5 -158zM433 -7q-30 0 -50 11t-30.5 32t-10.5 51v324l116 21v-326q0 -16 6 -23.5
t19 -7.5q9 0 18 4t16 10l20 -48q-13 -21 -40.5 -34.5t-63.5 -13.5z" />
    <glyph glyph-name="nu" unicode="&#x3bd;" horiz-adv-x="477" 
d="M176 0q-34 103 -76.5 205.5t-92.5 205.5l122 20q41 -100 72.5 -200t56.5 -200h-56q59 98 89.5 195.5t38.5 194.5h122q-19 -105 -60 -210.5t-108 -210.5h-108z" />
    <glyph glyph-name="xi" unicode="&#x3be;" horiz-adv-x="430" 
d="M348 -195l-49 49q17 17 27 37.5t10 41.5q0 20 -14.5 31.5t-39.5 17.5t-55 9t-61 12t-57.5 26.5t-42.5 47t-16 73.5q0 50 24 90.5t65 69t94 43.5t110 15l45 -55q-62 -1 -114.5 -15.5t-84 -43t-31.5 -71.5q0 -33 19 -51.5t49.5 -27.5t66.5 -13q29 -3 54.5 -9.5t46 -19.5
t32 -34.5t11.5 -54.5q0 -34 -11 -63.5t-31 -55t-47 -49.5zM254 313q-42 0 -77 11t-60 30.5t-39 46t-14 57.5q0 47 26 86t69 68t96 47t108 22l49 -43q-52 -4 -95.5 -15.5t-75.5 -29.5t-49 -43t-17 -56q0 -34 19 -53t45 -27t48 -9.5t29 -1.5h63l9 -90h-134zM53 603l6 108h347
l7 -73z" />
    <glyph glyph-name="omicron" unicode="&#x3bf;" horiz-adv-x="534" 
d="M258 -13q-64 0 -114.5 28t-79 77t-28.5 111q0 68 31.5 120t86 81.5t123.5 29.5q64 0 113.5 -27.5t78.5 -76t29 -111.5q0 -67 -31 -119.5t-85 -82.5t-124 -30zM275 67q35 0 57 20t32 52t10 67q0 48 -15.5 81t-41 50t-57.5 17q-34 0 -56.5 -19t-33 -50t-10.5 -68
q0 -48 15.5 -81.5t42 -51t57.5 -17.5z" />
    <glyph glyph-name="pi" unicode="&#x3c0;" horiz-adv-x="574" 
d="M96 0l15 411h93l5 -411h-113zM23 325l10 91l513 5l-10 -101zM343 127v284h96l9 -265q1 -29 5 -44.5t11.5 -21t18.5 -5.5q10 0 19.5 4.5t16.5 12.5l31 -48q-9 -16 -23.5 -27t-34.5 -17.5t-47 -6.5q-42 0 -64 16t-30 46t-8 72z" />
    <glyph glyph-name="rho" unicode="&#x3c1;" horiz-adv-x="522" 
d="M46 -289q1 62 1.5 123.5t0.5 121.5v118v113q0 75 30 130.5t82 86t118 30.5q63 0 109.5 -27t72.5 -74.5t26 -110.5q0 -66 -29 -119.5t-78.5 -84.5t-110.5 -31q-51 0 -88 22t-51 58l28 35q14 -16 40 -24.5t50 -8.5q38 0 63.5 17.5t38.5 49.5t13 76q0 68 -27.5 103t-70.5 35
q-30 0 -51.5 -17t-33 -48t-12.5 -75q-1 -76 -1.5 -133.5t-1 -103t-0.5 -84.5t1 -76.5t2 -80.5z" />
    <glyph glyph-name="uni03C2" unicode="&#x3c2;" horiz-adv-x="442" 
d="M322 -195l-45 47q17 16 26 36t9 43q0 21 -13 33t-34.5 19t-47.5 13q-31 8 -63 19.5t-58.5 33t-43 61t-16.5 102.5q0 69 32 119t86 76.5t120 26.5q46 0 82 -14.5t66 -40.5l-58 -95q-31 31 -61.5 48.5t-62.5 17.5q-30 0 -50 -16t-30 -42.5t-10 -58.5q0 -53 20 -81t50 -40
t60 -18q37 -7 62.5 -19.5t41 -28.5t22.5 -34.5t7 -39.5q0 -32 -13.5 -65t-34.5 -60t-43 -42z" />
    <glyph glyph-name="sigma" unicode="&#x3c3;" horiz-adv-x="555" 
d="M254 -13q-63 0 -112.5 27t-77.5 73t-28 102q0 58 31 111t90 87t143 34h231l-10 -101q-61 2 -118.5 3.5t-131.5 1.5q-58 0 -87 -27.5t-29 -83.5q0 -44 16 -76t43 -49.5t59 -17.5q29 0 47 14.5t26 41.5t8 64q0 41 -8.5 70t-24 50.5t-36.5 37.5l88 9q22 -17 46 -41
t41.5 -55.5t17.5 -73.5q0 -50 -28 -96.5t-78 -75.5t-118 -29z" />
    <glyph glyph-name="tau" unicode="&#x3c4;" horiz-adv-x="429" 
d="M11 325l10 91l383 5l-10 -101zM134 127l10 284h98v-265q0 -9 2 -26t12 -31t34 -14q14 0 29 6t25 18l43 -48q-19 -24 -54 -41t-81 -17q-44 0 -68.5 15.5t-35 38.5t-12.5 45t-2 35z" />
    <glyph glyph-name="upsilon" unicode="&#x3c5;" horiz-adv-x="519" 
d="M236 -13q-79 0 -124 41t-45 112v271l116 21v-250q0 -52 24 -81t64 -29q29 0 47.5 17t27 51.5t8.5 86.5q0 47 -6 94t-17 90l118 21q10 -37 14.5 -73t4.5 -71q0 -94 -24 -161.5t-75 -103.5t-133 -36z" />
    <glyph glyph-name="phi" unicode="&#x3c6;" horiz-adv-x="644" 
d="M317 -17q-81 0 -144.5 26.5t-100 76.5t-36.5 119q0 72 39.5 123.5t106.5 79.5t151 28q81 0 143 -26t97 -75t35 -118q0 -72 -37.5 -124.5t-103 -81t-150.5 -28.5zM275 -215l-6 826l107 21l-6 -826zM333 52q57 0 92.5 20t52 55t16.5 79q0 58 -23.5 93.5t-63.5 52.5t-90 17
q-57 0 -94 -19t-55 -53t-18 -80q0 -57 25.5 -93.5t67 -54t90.5 -17.5z" />
    <glyph glyph-name="chi" unicode="&#x3c7;" horiz-adv-x="491" 
d="M362 -289q-43 81 -79 162t-64 162q-42 96 -89 192t-105 184l120 20q42 -75 75.5 -155t59.5 -155q44 -103 93 -195t109 -195zM13 -279q41 101 90.5 197t105.5 197l60 -86q-40 -79 -72.5 -153.5t-57.5 -154.5h-126zM282 32l-61 88q39 75 70 150.5t55 150.5h125
q-40 -97 -87 -194.5t-102 -194.5z" />
    <glyph glyph-name="psi" unicode="&#x3c8;" horiz-adv-x="679" 
d="M306 -15q-58 0 -104 20.5t-78.5 56.5t-49.5 83.5t-17 100.5v165l115 21v-144q0 -53 12 -94t34 -68.5t53.5 -41.5t71.5 -14q60 0 97.5 19t55.5 58.5t18 99.5q0 38 -7 84t-18 80l120 21q12 -36 15.5 -73.5t3.5 -60.5q0 -92 -36 -162.5t-107.5 -110.5t-178.5 -40zM295 -215
l-6 826l107 21l-6 -826z" />
    <glyph glyph-name="omega" unicode="&#x3c9;" horiz-adv-x="715" 
d="M214 -13q-53 0 -91 24.5t-58.5 71.5t-20.5 114q0 73 22.5 127t65.5 107l110 -20q-37 -43 -56.5 -90t-19.5 -110q0 -38 8 -70t25 -50.5t42 -18.5q35 0 52.5 39t11.5 127l-5 72h105l-3 -66q-3 -69 10 -106t34 -51.5t41 -14.5q22 0 35.5 14.5t19.5 41t6 62.5q0 64 -18.5 119
t-57.5 102l121 20q29 -43 50 -93.5t21 -117.5q0 -61 -21.5 -114.5t-64 -86t-105.5 -32.5q-61 0 -98 33.5t-45 85.5h43q-20 -62 -63 -90.5t-96 -28.5z" />
    <glyph glyph-name="iotadieresis" unicode="&#x3ca;" horiz-adv-x="301" 
d="M162 -7q-41 0 -62 24t-21 70v324l118 21v-326q0 -16 6 -23.5t19 -7.5q9 0 18 4t16 10l18 -48q-14 -21 -43.5 -34.5t-68.5 -13.5zM41 501q-30 0 -49 18t-19 47q0 30 19 48.5t49 18.5t48.5 -18.5t18.5 -48.5q0 -29 -18.5 -47t-48.5 -18zM239 501q-31 0 -50 18t-19 47
q0 30 19 48.5t50 18.5q29 0 47.5 -18.5t18.5 -48.5q0 -29 -18.5 -47t-47.5 -18z" />
    <glyph glyph-name="upsilondieresis" unicode="&#x3cb;" horiz-adv-x="519" 
d="M236 -13q-79 0 -124 41t-45 112v271l116 21v-250q0 -52 24 -81t64 -29q29 0 47.5 17t27 51.5t8.5 86.5q0 47 -6 94t-17 90l118 21q10 -37 14.5 -73t4.5 -71q0 -94 -24 -161.5t-75 -103.5t-133 -36zM157 501q-30 0 -49 18t-19 47q0 30 19 48.5t49 18.5t48.5 -18.5
t18.5 -48.5q0 -29 -18.5 -47t-48.5 -18zM355 501q-31 0 -50 18t-19 47q0 30 19 48.5t50 18.5q29 0 47.5 -18.5t18.5 -48.5q0 -29 -18.5 -47t-47.5 -18z" />
    <glyph glyph-name="omicrontonos" unicode="&#x3cc;" horiz-adv-x="534" 
d="M258 -13q-64 0 -114.5 28t-79 77t-28.5 111q0 68 31.5 120t86 81.5t123.5 29.5q64 0 113.5 -27.5t78.5 -76t29 -111.5q0 -67 -31 -119.5t-85 -82.5t-124 -30zM275 67q35 0 57 20t32 52t10 67q0 48 -15.5 81t-41 50t-57.5 17q-34 0 -56.5 -19t-33 -50t-10.5 -68
q0 -48 15.5 -81.5t42 -51t57.5 -17.5zM237 505l32 206h121l-79 -206h-74z" />
    <glyph glyph-name="upsilontonos" unicode="&#x3cd;" horiz-adv-x="519" 
d="M236 -13q-79 0 -124 41t-45 112v271l116 21v-250q0 -52 24 -81t64 -29q29 0 47.5 17t27 51.5t8.5 86.5q0 47 -6 94t-17 90l118 21q10 -37 14.5 -73t4.5 -71q0 -94 -24 -161.5t-75 -103.5t-133 -36zM216 505l32 206h121l-79 -206h-74z" />
    <glyph glyph-name="omegatonos" unicode="&#x3ce;" horiz-adv-x="715" 
d="M214 -13q-53 0 -91 24.5t-58.5 71.5t-20.5 114q0 73 22.5 127t65.5 107l110 -20q-37 -43 -56.5 -90t-19.5 -110q0 -38 8 -70t25 -50.5t42 -18.5q35 0 52.5 39t11.5 127l-5 72h105l-3 -66q-3 -69 10 -106t34 -51.5t41 -14.5q22 0 35.5 14.5t19.5 41t6 62.5q0 64 -18.5 119
t-57.5 102l121 20q29 -43 50 -93.5t21 -117.5q0 -61 -21.5 -114.5t-64 -86t-105.5 -32.5q-61 0 -98 33.5t-45 85.5h43q-20 -62 -63 -90.5t-96 -28.5zM314 505l32 206h121l-79 -206h-74z" />
    <glyph glyph-name="uni03CF" unicode="&#x3cf;" horiz-adv-x="647" 
d="M470 -285l-116 50q41 72 91 137t112 123l-12 -97l-340 410l252 320h141l-293 -341l10 57l337 -374q-53 -64 -98.5 -135t-83.5 -150zM95 0v658h123v-658h-123z" />
    <glyph glyph-name="uni03D7" unicode="&#x3d7;" horiz-adv-x="485" 
d="M407 25l-37 -79q-39 77 -89.5 145t-110.5 126l158 204h147l-226 -234v77q66 -58 124 -124.5t109 -139.5q-53 -64 -98.5 -135t-83.5 -150l-101 50q41 72 93.5 137t114.5 123zM63 0v411l115 20v-431h-115z" />
    <glyph glyph-name="uni0400" unicode="&#x400;" horiz-adv-x="579" 
d="M528 0h-433v658h399v-100h-277v-458h311v-100zM134 285v97h322v-97h-322zM277 731l-112 176h139l65 -176h-92z" />
    <glyph glyph-name="uni0401" unicode="&#x401;" horiz-adv-x="579" 
d="M528 0h-433v658h399v-100h-277v-458h311v-100zM134 285v97h322v-97h-322zM216 724q-30 0 -48.5 18.5t-18.5 46.5q0 30 18.5 48.5t48.5 18.5t48.5 -18.5t18.5 -48.5q0 -28 -18.5 -46.5t-48.5 -18.5zM414 724q-31 0 -50 18.5t-19 46.5q0 30 19 48.5t50 18.5
q29 0 47.5 -18.5t18.5 -48.5q0 -28 -18.5 -46.5t-47.5 -18.5z" />
    <glyph glyph-name="uni0402" unicode="&#x402;" horiz-adv-x="747" 
d="M531 -195l-62 39q42 55 66 111t34 109t10 99q0 85 -32.5 127.5t-96.5 42.5q-29 0 -62.5 -9.5t-62.5 -26.5t-46 -42l-37 35q34 43 74.5 74t87.5 47.5t100 16.5q59 0 107 -22.5t76.5 -73t28.5 -134.5q0 -59 -17 -127t-57.5 -136t-110.5 -130zM188 0v658h130v-658h-130z
M28 562v96h561v-96h-561z" />
    <glyph glyph-name="uni0403" unicode="&#x403;" horiz-adv-x="514" 
d="M95 0v658h130v-658h-130zM155 559v99h331v-99h-331zM243 731l65 176h139l-112 -176h-92z" />
    <glyph glyph-name="uni0404" unicode="&#x404;" horiz-adv-x="663" 
d="M394 -13q-102 0 -179 41.5t-120 116t-43 172.5q0 84 28.5 149.5t78.5 111t115 69.5t139 24q53 0 107 -14.5t103 -43.5l-58 -112q-45 39 -88.5 57.5t-90.5 18.5q-63 0 -108 -28.5t-69.5 -82t-24.5 -127.5q0 -79 30.5 -137.5t81 -91t110.5 -32.5q52 0 96 21t74 55l53 -100
q-52 -34 -111.5 -50.5t-123.5 -16.5zM475 284l-337 7l7 86l338 11z" />
    <glyph glyph-name="uni0405" unicode="&#x405;" horiz-adv-x="529" 
d="M365 162q0 27 -16 47t-42.5 36t-57.5 31t-62.5 32t-58 39t-42.5 52t-16 71q0 64 30.5 108.5t81 68.5t111.5 24q38 0 84 -9t82 -27l-44 -114q-31 27 -72 41.5t-74 14.5q-31 0 -49 -12t-25.5 -29.5t-7.5 -33.5q0 -24 16 -42t42.5 -33.5t58.5 -30.5t63.5 -33t58 -41.5
t42.5 -54t16 -72.5q0 -68 -33 -114.5t-86.5 -70t-116.5 -23.5q-65 0 -120 19t-90 44l61 105q37 -31 84 -51.5t92 -20.5q39 0 64.5 21t25.5 58z" />
    <glyph glyph-name="uni0406" unicode="&#x406;" horiz-adv-x="331" 
d="M100 0v658h131v-658h-131z" />
    <glyph glyph-name="uni0407" unicode="&#x407;" horiz-adv-x="331" 
d="M100 0v658h131v-658h-131zM61 724q-30 0 -48.5 18.5t-18.5 46.5q0 30 18.5 48.5t48.5 18.5t48.5 -18.5t18.5 -48.5q0 -28 -18.5 -46.5t-48.5 -18.5zM259 724q-31 0 -50 18.5t-19 46.5q0 30 19 48.5t50 18.5q29 0 47.5 -18.5t18.5 -48.5q0 -28 -18.5 -46.5t-47.5 -18.5z
" />
    <glyph glyph-name="uni0408" unicode="&#x408;" horiz-adv-x="319" 
d="M103 62v596h126v-596q0 -70 -16 -117.5t-45.5 -78t-70 -49t-89.5 -30.5l-31 72q42 16 70 37.5t42 60t14 105.5z" />
    <glyph glyph-name="uni0409" unicode="&#x409;" horiz-adv-x="980" 
d="M471 0v658h121v-564h101q64 0 94.5 32.5t30.5 87.5t-30.5 87t-103.5 32h-134v95h156q111 0 173 -51t62 -143q0 -69 -32.5 -122t-92.5 -82.5t-143 -29.5h-202zM65 -10l-30 84q43 6 70 44.5t43.5 110t25.5 178.5t16 251h103q-2 -133 -7 -234.5t-15.5 -175.5t-27 -123.5
t-41 -79t-58.5 -42.5t-79 -13zM243 559v99h319v-99h-319z" />
    <glyph glyph-name="uni040A" unicode="&#x40a;" horiz-adv-x="1010" 
d="M501 0v658h121v-564h101q64 0 94.5 29t30.5 79q0 48 -30.5 76.5t-103.5 28.5h-134v96h156q111 0 173 -48t62 -133q0 -66 -32.5 -116t-92.5 -78t-143 -28h-202zM95 0v658h126v-658h-126zM134 304v99h454v-99h-454z" />
    <glyph glyph-name="uni040B" unicode="&#x40b;" horiz-adv-x="797" 
d="M586 0v173q0 74 -35 117t-100 43q-31 0 -64.5 -9.5t-62 -26.5t-45.5 -42l-37 35q35 45 76 75.5t87.5 46.5t97.5 16q60 0 108 -24.5t76.5 -69.5t28.5 -109v-225h-130zM188 0v658h130v-658h-130zM28 562v96h571v-96h-571z" />
    <glyph glyph-name="uni040C" unicode="&#x40c;" horiz-adv-x="647" 
d="M485 0l-280 338l262 320h151l-313 -341l10 57l337 -374h-167zM95 0v658h123v-658h-123zM286 731l65 176h139l-112 -176h-92z" />
    <glyph glyph-name="uni040D" unicode="&#x40d;" horiz-adv-x="769" 
d="M154 0v60l384 598h77v-63l-384 -595h-77zM95 0v658h126l-10 -658h-116zM548 0l10 658h116v-658h-126zM361 731l-112 176h139l65 -176h-92z" />
    <glyph glyph-name="uni040E" unicode="&#x40e;" horiz-adv-x="666" 
d="M234 -10q-32 0 -60 8.5t-50 21.5l27 65q21 -4 37 -6t31 -2q25 0 44 13t34 38t29 61l185 469h135l-230 -510q-21 -46 -44.5 -82t-56 -56t-81.5 -20zM315 119l-284 539h141l219 -460zM331 715q-53 0 -103 19.5t-88 56.5l78 75q39 -39 73.5 -50t62.5 -11q40 0 71.5 17.5
t64.5 57.5l51 -35q-32 -64 -89.5 -97t-120.5 -33z" />
    <glyph glyph-name="uni040F" unicode="&#x40f;" horiz-adv-x="747" 
d="M334 -185l-15 208h120l-15 -208h-90zM526 0v658h126v-658h-126zM134 0v99h479v-99h-479zM95 0v658h126v-658h-126z" />
    <glyph glyph-name="uni0410" unicode="&#x410;" horiz-adv-x="676" 
d="M514 0l-207 592h49l-203 -592h-127l265 658h108l251 -658h-136zM143 186l36 99h284l53 -99h-373z" />
    <glyph glyph-name="uni0411" unicode="&#x411;" horiz-adv-x="602" 
d="M95 0v658h405v-94h-284v-470h91q46 0 70 9t37 26q10 13 15 30t5 38q0 44 -31 69.5t-105 25.5h-124v95h146q112 0 174.5 -45t62.5 -125q0 -43 -14 -79.5t-40 -64.5q-32 -34 -84 -53.5t-132 -19.5h-192z" />
    <glyph glyph-name="uni0412" unicode="&#x412;" horiz-adv-x="593" 
d="M285 308l21 70q72 0 127 -23t85.5 -64t30.5 -97q0 -57 -32 -101t-90.5 -68.5t-139.5 -24.5h-192v658h205q61 0 107 -19.5t72.5 -55.5t26.5 -84q0 -38 -17 -72.5t-47.5 -61t-70.5 -42t-86 -15.5zM174 386h125q40 0 65.5 24t25.5 65q0 37 -23.5 65.5t-87.5 28.5h-68v-480
h96q59 0 88 28t29 77t-33.5 77.5t-112.5 28.5h-104v86z" />
    <glyph glyph-name="uni0413" unicode="&#x413;" horiz-adv-x="514" 
d="M95 0v658h130v-658h-130zM155 559v99h331v-99h-331z" />
    <glyph glyph-name="uni0414" unicode="&#x414;" horiz-adv-x="737" 
d="M77 0q43 95 70.5 203.5t43.5 224t24 230.5h111q-8 -115 -24 -230.5t-42 -224t-66 -203.5h-117zM57 -175l-30 273h125v-273h-95zM67 0v98h634l-37 -98h-597zM607 -175l-30 273h125v-273h-95zM491 0v658h126v-658h-126zM273 559v99h284v-99h-284z" />
    <glyph glyph-name="uni0415" unicode="&#x415;" horiz-adv-x="579" 
d="M528 0h-433v658h399v-100h-277v-458h311v-100zM134 285v97h322v-97h-322z" />
    <glyph glyph-name="uni0416" unicode="&#x416;" horiz-adv-x="1002" 
d="M805 0l-255 338l251 320h151l-312 -351l10 77l329 -384h-174zM23 0l329 384l10 -77l-312 351h151l251 -320l-255 -338h-174zM439 0v658h124v-658h-124z" />
    <glyph glyph-name="uni0417" unicode="&#x417;" horiz-adv-x="542" 
d="M236 -13q-40 0 -79 8t-73.5 23t-61.5 36l65 102q39 -34 84.5 -54t93.5 -20q39 0 62.5 13t34 35.5t10.5 50.5q0 51 -37.5 84t-131.5 33h-40v82h40q47 0 79.5 14t49 37.5t16.5 52.5q0 43 -27.5 67.5t-71.5 24.5q-37 0 -71 -19.5t-61 -55.5l-74 84q44 44 104.5 65t123.5 21
q61 0 106.5 -19t71 -54.5t25.5 -86.5q0 -52 -27 -92t-71.5 -62t-98.5 -22v38q68 0 117.5 -19.5t76.5 -57t27 -92.5q0 -62 -34 -111.5t-93.5 -77.5t-134.5 -28z" />
    <glyph glyph-name="uni0418" unicode="&#x418;" horiz-adv-x="769" 
d="M154 0v60l384 598h77v-63l-384 -595h-77zM95 0v658h126l-10 -658h-116zM548 0l10 658h116v-658h-126z" />
    <glyph glyph-name="uni0419" unicode="&#x419;" horiz-adv-x="769" 
d="M154 0v60l384 598h77v-63l-384 -595h-77zM95 0v658h126l-10 -658h-116zM548 0l10 658h116v-658h-126zM393 715q-53 0 -103 19.5t-88 56.5l78 75q39 -39 73.5 -50t62.5 -11q40 0 71.5 17.5t64.5 57.5l51 -35q-32 -64 -89.5 -97t-120.5 -33z" />
    <glyph glyph-name="uni041A" unicode="&#x41a;" horiz-adv-x="647" 
d="M485 0l-280 338l262 320h151l-313 -341l10 57l337 -374h-167zM95 0v658h123v-658h-123z" />
    <glyph glyph-name="uni041B" unicode="&#x41b;" horiz-adv-x="717" 
d="M65 -10l-30 84q43 6 70 44.5t43.5 110t25.5 178.5t16 251h103q-2 -133 -7 -234.5t-15.5 -175.5t-27 -123.5t-41 -79t-58.5 -42.5t-79 -13zM496 0v658h126v-658h-126zM243 559v99h319v-99h-319z" />
    <glyph glyph-name="uni041C" unicode="&#x41c;" horiz-adv-x="920" 
d="M711 0l-18 597l60 29l-259 -574h-74l-237 520l1 86h88l220 -475h-35l211 475h132l38 -658h-127zM83 0l46 658h90l-21 -658h-115z" />
    <glyph glyph-name="uni041D" unicode="&#x41d;" horiz-adv-x="764" 
d="M543 0v658h126v-658h-126zM95 0v658h127v-658h-127zM134 284v101h496v-101h-496z" />
    <glyph glyph-name="uni041E" unicode="&#x41e;" horiz-adv-x="787" 
d="M385 -13q-97 0 -172 43.5t-118 120t-43 173.5q0 80 28 144t77.5 109t113 69.5t134.5 24.5q96 0 170.5 -43.5t117 -119.5t42.5 -174q0 -80 -28 -144t-76.5 -109.5t-111.5 -69.5t-134 -24zM408 79q59 0 102 29t66 82t23 124q0 83 -29.5 142t-79 91t-110.5 32
q-56 0 -98.5 -28.5t-66 -81.5t-23.5 -125q0 -82 29.5 -141.5t78.5 -91.5t108 -32z" />
    <glyph glyph-name="uni041F" unicode="&#x41f;" horiz-adv-x="747" 
d="M526 0v658h126v-658h-126zM95 0v658h126v-658h-126zM134 559v99h479v-99h-479z" />
    <glyph glyph-name="uni0420" unicode="&#x420;" horiz-adv-x="600" 
d="M275 218q-15 0 -44 2t-57 8v93q35 -4 59 -5.5t52 -1.5q51 0 83.5 12.5t48 39t15.5 66.5q0 64 -39 98t-105 34h-69v-564h-124v658h214q75 0 131.5 -24t88.5 -68t32 -105q0 -49 -21 -92.5t-59 -77.5t-90.5 -53.5t-115.5 -19.5z" />
    <glyph glyph-name="uni0421" unicode="&#x421;" horiz-adv-x="652" 
d="M394 -13q-102 0 -179 41.5t-120 116t-43 172.5q0 84 28.5 149.5t78.5 111t115 69.5t139 24q53 0 107 -14.5t103 -43.5l-58 -112q-45 39 -88.5 57.5t-90.5 18.5q-61 0 -105.5 -28.5t-68 -82t-23.5 -127.5q0 -79 30 -137.5t79.5 -91t107.5 -32.5q52 0 96 21t74 55l53 -100
q-52 -34 -111.5 -50.5t-123.5 -16.5z" />
    <glyph glyph-name="uni0422" unicode="&#x422;" horiz-adv-x="617" 
d="M243 0v658h130v-658h-130zM28 559v99h561v-99h-561z" />
    <glyph glyph-name="uni0423" unicode="&#x423;" horiz-adv-x="666" 
d="M234 -10q-32 0 -60 8.5t-50 21.5l27 65q21 -4 37 -6t31 -2q25 0 44 13t34 38t29 61l185 469h135l-230 -510q-21 -46 -44.5 -82t-56 -56t-81.5 -20zM315 119l-284 539h141l219 -460z" />
    <glyph glyph-name="uni0424" unicode="&#x424;" horiz-adv-x="845" 
d="M406 63q-110 0 -189.5 30t-122 87t-42.5 138q0 90 49.5 151.5t137 93.5t200.5 32q111 0 190.5 -30t122 -87.5t42.5 -138.5q0 -67 -28.5 -118.5t-80.5 -86.5t-123 -53t-156 -18zM434 143q73 0 124 19.5t78.5 59.5t27.5 101q0 67 -31 108.5t-86.5 61.5t-130.5 20
t-127.5 -19.5t-80 -58.5t-27.5 -99q0 -64 31.5 -107t88.5 -64.5t133 -21.5zM366 -10v678h120v-678h-120z" />
    <glyph glyph-name="uni0425" unicode="&#x425;" horiz-adv-x="639" 
d="M25 0l230 326l-219 332h155l144 -237l138 237h141l-219 -318l233 -340h-154l-160 245l-146 -245h-143z" />
    <glyph glyph-name="uni0426" unicode="&#x426;" horiz-adv-x="787" 
d="M600 0v98h145l-61 -98h-84zM645 -185l-30 283h130v-283h-100zM526 0v658h126v-658h-126zM134 0v99h479v-99h-479zM95 0v658h126v-658h-126z" />
    <glyph glyph-name="uni0427" unicode="&#x427;" horiz-adv-x="687" 
d="M466 0v658h126v-658h-126zM299 239q-67 0 -118 25.5t-79.5 73.5t-28.5 114v206h126v-164q0 -74 34 -117t109 -43q24 0 52 3.5t52 10t36 14.5l57 -45q-28 -25 -69 -42.5t-86 -26.5t-85 -9z" />
    <glyph glyph-name="uni0428" unicode="&#x428;" horiz-adv-x="1028" 
d="M95 0v658h126v-658h-126zM451 0v658h126v-658h-126zM807 0v658h126v-658h-126zM134 0v99h760v-99h-760z" />
    <glyph glyph-name="uni0429" unicode="&#x429;" horiz-adv-x="1068" 
d="M881 0v98h145l-61 -98h-84zM926 -185l-30 283h130v-283h-100zM95 0v658h126v-658h-126zM451 0v658h126v-658h-126zM807 0v658h126v-658h-126zM134 0v99h760v-99h-760z" />
    <glyph glyph-name="uni042A" unicode="&#x42a;" horiz-adv-x="716" 
d="M205 0v658h121v-564h101q64 0 94.5 32.5t30.5 87.5t-30.5 87t-103.5 32h-134v95h156q111 0 173 -51t62 -143q0 -69 -32.5 -122t-92.5 -82.5t-143 -29.5h-202zM28 559v99h231v-99h-231z" />
    <glyph glyph-name="uni042B" unicode="&#x42b;" horiz-adv-x="887" 
d="M95 0v658h121v-564h91q59 0 87 32.5t28 87.5t-28 87t-96 32h-124v95h146q107 0 166 -51t59 -143q0 -69 -31 -122t-89 -82.5t-138 -29.5h-192zM656 0v658h128l3 -658h-131z" />
    <glyph glyph-name="uni042C" unicode="&#x42c;" horiz-adv-x="604" 
d="M95 0v658h121v-564h101q64 0 94.5 32.5t30.5 87.5t-30.5 87t-103.5 32h-134v95h156q111 0 173 -51t62 -143q0 -69 -32.5 -122t-92.5 -82.5t-143 -29.5h-202z" />
    <glyph glyph-name="uni042D" unicode="&#x42d;" horiz-adv-x="669" 
d="M266 -13q-61 0 -121 17.5t-109 54.5l61 96q43 -38 91 -57t100 -19q56 0 100.5 29t71 82.5t26.5 128.5q0 79 -28.5 137.5t-78.5 91t-113 32.5q-56 0 -98 -23t-72 -58l-57 107q52 33 114 49t129 16q103 0 178 -41.5t116 -115.5t41 -173q0 -84 -29.5 -149.5t-80 -111
t-113 -69.5t-128.5 -24zM186 283l8 104l337 -7l-7 -86z" />
    <glyph glyph-name="uni042E" unicode="&#x42e;" horiz-adv-x="1038" 
d="M649 -13q-96 0 -166.5 45t-109.5 121.5t-39 169.5q0 75 25 138.5t70.5 110.5t106 73t132.5 26q68 0 126 -26t101 -72.5t67 -107.5t24 -131q0 -75 -27 -138t-74 -110t-107.5 -73t-128.5 -26zM95 0v658h126v-658h-126zM134 284v99h273v-99h-273zM670 77q53 0 94 28.5t64 82
t23 126.5q0 79 -26.5 138.5t-72.5 93t-104 33.5q-59 0 -99 -29t-60.5 -82t-20.5 -125q0 -79 24 -139t69.5 -93.5t108.5 -33.5z" />
    <glyph glyph-name="uni042F" unicode="&#x42f;" horiz-adv-x="635" 
d="M419 0v566h-96q-53 0 -81 -24.5t-28 -74.5q0 -49 32 -84t98 -35q13 0 31.5 1.5t39 3.5t38.5 5v-69q-35 -13 -73.5 -21.5t-76.5 -8.5q-45 0 -83.5 13t-67.5 37.5t-45.5 60t-16.5 79.5q0 64 32.5 110.5t89.5 72.5t130 26h198v-658h-121zM163 0h-153l256 327l92 -35z" />
    <glyph glyph-name="uni0430" unicode="&#x430;" horiz-adv-x="462" 
d="M370 -8q-45 0 -71.5 31.5t-25.5 92.5l4 170q1 26 -4 41.5t-15 22.5t-25 7t-32 -6.5t-29.5 -23t-14.5 -45.5l-111 13q6 30 24.5 55t46.5 43.5t62.5 28.5t72.5 10q71 0 101.5 -35.5t29.5 -94.5l-2 -208q0 -11 5.5 -16.5t13.5 -5.5t15.5 3t13.5 8l32 -54
q-15 -16 -38.5 -26.5t-52.5 -10.5zM149 -8q-51 0 -82 28.5t-31 73.5q0 26 11.5 49.5t41.5 42.5t85 31l163 36l5 -51l-141 -41q-31 -9 -40.5 -22.5t-9.5 -26.5q0 -16 11.5 -26t30.5 -10q25 0 62 18t83 42l2 -39q-44 -43 -91 -74t-100 -31z" />
    <glyph glyph-name="uni0431" unicode="&#x431;" horiz-adv-x="530" 
d="M255 -13q-43 0 -82 14t-69 48t-47 93.5t-17 151.5q0 49 9.5 104.5t38 109t84.5 98t149 71.5l119 34l-16 -128l-99 -21q-54 -11 -87.5 -23.5t-51.5 -30t-24.5 -45t-6.5 -68.5v-31.5t1 -29.5l2 -40q4 -74 14.5 -119t25.5 -68t33.5 -30.5t38.5 -7.5q41 0 62.5 18.5t29 47
t7.5 59.5q0 72 -29 101t-72 29q-24 0 -47 -8t-42.5 -23t-34.5 -36l-37 40q17 23 38.5 43.5t47 37t55.5 26t63 9.5q47 0 88.5 -20.5t68 -61.5t26.5 -103q0 -44 -14.5 -87t-44 -78t-74.5 -55.5t-106 -20.5z" />
    <glyph glyph-name="uni0432" unicode="&#x432;" horiz-adv-x="466" 
d="M63 0v421h206q59 0 98 -29.5t39 -75.5q0 -32 -20.5 -62.5t-55 -49.5t-77.5 -19l19 63q74 0 120.5 -33t46.5 -86q0 -55 -45.5 -92t-124.5 -37h-206zM164 80h109q32 0 48 14t16 35q0 22 -20.5 35t-68.5 13h-114v79h132q19 0 31 12.5t12 29.5q0 13 -10.5 27t-42.5 14h-92
v-259z" />
    <glyph glyph-name="uni0433" unicode="&#x433;" horiz-adv-x="385" 
d="M63 0v421h116v-421h-116zM123 334v87h238v-87h-238z" />
    <glyph glyph-name="uni0434" unicode="&#x434;" horiz-adv-x="547" 
d="M63 50q23 29 37 75t22 99.5t11.5 105t6.5 91.5h96q-3 -40 -6.5 -92t-10.5 -105.5t-20 -99t-34 -74.5h-102zM30 -145l-15 229h118l-15 -229h-88zM65 0l-20 84h483l-50 -84h-413zM427 -145l-15 229h116l-15 -229h-86zM343 0v421h111v-421h-111zM198 336v85h196v-85h-196z
" />
    <glyph glyph-name="uni0435" unicode="&#x435;" horiz-adv-x="463" 
d="M243 -13q-60 0 -107 24.5t-73.5 71.5t-26.5 113q0 71 30 124.5t81 83.5t115 30q81 0 122 -49t41 -132q0 -11 -0.5 -25.5t-2.5 -27.5h-98v55q0 47 -16 73t-57 26q-33 0 -57 -17.5t-36.5 -49t-12.5 -73.5q0 -65 34 -101.5t89 -36.5q31 0 60.5 11.5t56.5 34.5l37 -60
q-29 -29 -60 -45.5t-61 -23t-58 -6.5zM92 200l13 69h304v-69h-317z" />
    <glyph glyph-name="uni0436" unicode="&#x436;" horiz-adv-x="714" 
d="M564 0l-160 217l155 204h145l-226 -234v77l233 -264h-147zM3 0l233 264v-77l-226 234h145l155 -204l-160 -217h-147zM302 0v421h110v-421h-110z" />
    <glyph glyph-name="uni0437" unicode="&#x437;" horiz-adv-x="412" 
d="M186 -14q-58 0 -99.5 17.5t-66.5 37.5l40 86q29 -28 66 -43.5t72 -15.5q36 0 55.5 14t19.5 38t-20.5 40.5t-75.5 16.5h-40v75h40q40 0 58.5 16t18.5 35q0 18 -16.5 34.5t-51.5 16.5q-28 0 -54.5 -13t-46.5 -33l-43 71q36 34 80.5 45t81.5 11q68 0 112.5 -28.5t44.5 -86.5
q0 -40 -21.5 -66.5t-56 -39.5t-72.5 -13v36q72 0 118.5 -27.5t46.5 -87.5q0 -44 -26.5 -74.5t-69.5 -46t-94 -15.5z" />
    <glyph glyph-name="uni0438" unicode="&#x438;" horiz-adv-x="540" 
d="M362 0l10 421h105v-421h-115zM63 0v421h115l-10 -421h-105zM139 0v50l205 371h62v-53l-205 -368h-62z" />
    <glyph glyph-name="uni0439" unicode="&#x439;" horiz-adv-x="540" 
d="M362 0l10 421h105v-421h-115zM63 0v421h115l-10 -421h-105zM139 0v50l205 371h62v-53l-205 -368h-62zM266 492q-39 0 -76.5 17t-64.5 49l75 72q27 -32 52 -41.5t44 -9.5q26 0 46.5 12t41.5 40l51 -35q-25 -53 -71.5 -78.5t-97.5 -25.5z" />
    <glyph glyph-name="uni043A" unicode="&#x43a;" horiz-adv-x="485" 
d="M333 0l-163 227l158 194h147l-226 -224v77l233 -274h-149zM63 0v421h115v-421h-115z" />
    <glyph glyph-name="uni043B" unicode="&#x43b;" horiz-adv-x="499" 
d="M22 -7v97q33 3 51.5 38.5t28.5 108t15 184.5h93q-7 -102 -14.5 -175.5t-19.5 -122.5t-31.5 -77.5t-49 -40.5t-73.5 -12zM323 0v421h113v-421h-113zM175 336v85h196v-85h-196z" />
    <glyph glyph-name="uni043C" unicode="&#x43c;" horiz-adv-x="611" 
d="M63 0l20 418h73l-3 -418h-90zM437 0l6 364l40 24l-163 -359h-47l-144 328l7 61h61l125 -264h-27l125 264h112l16 -418h-111z" />
    <glyph glyph-name="uni043D" unicode="&#x43d;" horiz-adv-x="525" 
d="M347 0v421h115v-421h-115zM63 0v421h115v-421h-115zM118 168v86h289v-86h-289z" />
    <glyph glyph-name="uni043E" unicode="&#x43e;" horiz-adv-x="534" 
d="M258 -13q-64 0 -114.5 28t-79 77t-28.5 111q0 68 31.5 120t86 81.5t123.5 29.5q64 0 113.5 -27.5t78.5 -76t29 -111.5q0 -67 -31 -119.5t-85 -82.5t-124 -30zM275 67q35 0 57 20t32 52t10 67q0 48 -15.5 81t-41 50t-57.5 17q-34 0 -56.5 -19t-33 -50t-10.5 -68
q0 -48 15.5 -81.5t42 -51t57.5 -17.5z" />
    <glyph glyph-name="uni043F" unicode="&#x43f;" horiz-adv-x="519" 
d="M341 0v421h115v-421h-115zM63 0v421h115v-421h-115zM118 335v86h283v-86h-283z" />
    <glyph glyph-name="uni0440" unicode="&#x440;" horiz-adv-x="538" 
d="M285 -7q-55 0 -92.5 27.5t-53.5 76.5l28 35q17 -28 43 -42.5t56 -14.5q35 0 60 17t38.5 48t13.5 73q0 38 -11.5 69t-34 50t-54.5 19q-26 0 -56.5 -15t-53.5 -53l-40 21q34 63 77.5 93.5t103.5 30.5q59 0 102.5 -26.5t67 -72.5t23.5 -105q0 -66 -29.5 -118t-78.5 -82.5
t-109 -30.5zM63 -289v710h95l21 -75v-614z" />
    <glyph glyph-name="uni0441" unicode="&#x441;" horiz-adv-x="447" 
d="M253 -13q-63 0 -112 28t-77 76.5t-28 111.5q0 67 31.5 119t85.5 82t122 30q44 0 79 -13.5t63 -38.5l-48 -89q-26 27 -52.5 42t-56.5 15q-34 0 -56.5 -18.5t-33 -49t-10.5 -66.5q0 -44 16.5 -75.5t45 -48t63.5 -16.5q25 0 51 11t51 33l34 -65q-27 -26 -56.5 -41t-57.5 -21
t-54 -6z" />
    <glyph glyph-name="uni0442" unicode="&#x442;" horiz-adv-x="444" 
d="M164 0v421h116v-421h-116zM24 335v86h396v-86h-396z" />
    <glyph glyph-name="uni0443" unicode="&#x443;" horiz-adv-x="474" 
d="M224 -56l-213 477h127l132 -351zM346 421h117l-270 -710h-123l160 325z" />
    <glyph glyph-name="uni0444" unicode="&#x444;" horiz-adv-x="614" 
d="M254 -289v936l106 21v-936zM281 -12q-70 0 -125.5 24t-87.5 72t-32 119q0 66 30 117.5t85 81.5t130 31v-79q-53 0 -83 -19t-41.5 -50t-11.5 -68q0 -47 16.5 -80t47 -51t72.5 -19v-79zM341 -12v79q41 0 69.5 15.5t43.5 46.5t15 77t-15.5 78t-44 50t-68.5 20v79
q65 0 119 -24.5t86 -72t32 -117.5q0 -65 -29 -116.5t-82 -81.5t-126 -33z" />
    <glyph glyph-name="uni0445" unicode="&#x445;" horiz-adv-x="461" 
d="M8 0l163 215l-146 206h144l73 -131l79 131h125l-149 -201l156 -220h-144l-84 147l-87 -147h-130z" />
    <glyph glyph-name="uni0446" unicode="&#x446;" horiz-adv-x="540" 
d="M338 0v421h115v-421h-115zM118 0v86h280v-86h-280zM63 0v421h115v-421h-115zM391 0v86h134l-50 -86h-84zM428 -145l-19 231h116l-11 -231h-86z" />
    <glyph glyph-name="uni0447" unicode="&#x447;" horiz-adv-x="493" 
d="M202 133q-71 0 -112.5 41t-41.5 112v135h113v-93q0 -53 21 -81.5t67 -28.5q17 0 35 4t34 9.5t26 9.5l17 -60q-20 -14 -46.5 -25t-55.5 -17t-57 -6zM314 0v421h116v-421h-116z" />
    <glyph glyph-name="uni0448" unicode="&#x448;" horiz-adv-x="753" 
d="M118 0v86h261v-86h-261zM63 0v421h111v-421h-111zM579 0v421h111v-421h-111zM374 0v86h261v-86h-261zM321 0v421h111v-421h-111z" />
    <glyph glyph-name="uni0449" unicode="&#x449;" horiz-adv-x="777" 
d="M628 0v86h134l-50 -86h-84zM665 -145l-19 231h116l-11 -231h-86zM118 0v86h261v-86h-261zM63 0v421h111v-421h-111zM579 0v421h111v-421h-111zM374 0v86h261v-86h-261zM321 0v421h111v-421h-111z" />
    <glyph glyph-name="uni044A" unicode="&#x44a;" horiz-adv-x="484" 
d="M114 0v421h112v-336h62q32 0 50 15.5t18 42.5q0 34 -23.5 53t-66.5 19h-70v83h91q41 0 73 -9t54.5 -26.5t34 -42t11.5 -56.5q0 -48 -26.5 -85t-72.5 -58t-107 -21h-140zM14 335v86h156v-86h-156z" />
    <glyph glyph-name="uni044B" unicode="&#x44b;" horiz-adv-x="628" 
d="M63 0v421h112v-336h52q28 0 43 15.5t15 42.5q0 34 -21 53t-59 19h-60v83h81q52 0 88 -16t55.5 -46t19.5 -72q0 -48 -25 -85t-69 -58t-102 -21h-130zM449 0v421h116v-421h-116z" />
    <glyph glyph-name="uni044C" unicode="&#x44c;" horiz-adv-x="433" 
d="M63 0v421h112v-336h62q32 0 50 15.5t18 42.5q0 34 -23.5 53t-66.5 19h-65v83h86q41 0 73 -9t54.5 -26.5t34 -42t11.5 -56.5q0 -48 -26.5 -85t-72.5 -58t-107 -21h-140z" />
    <glyph glyph-name="uni044D" unicode="&#x44d;" horiz-adv-x="452" 
d="M175 -13q-45 0 -83 11t-69 31l38 84q29 -19 61 -29t63 -10q44 0 69.5 14.5t36.5 43.5t11 73q0 47 -18 80t-48.5 50.5t-68.5 17.5q-25 0 -51 -8t-51 -23l-31 65q41 28 84 37.5t76 9.5q67 0 116.5 -28t77.5 -76.5t28 -111.5q0 -66 -31.5 -118.5t-85.5 -82.5t-124 -30z
M104 169l7 84l246 -4l-7 -70z" />
    <glyph glyph-name="uni044E" unicode="&#x44e;" horiz-adv-x="713" 
d="M63 0v421h113v-421h-113zM118 168v86h184v-86h-184zM447 -13q-61 0 -106 27.5t-70 76t-25 112.5q0 69 28.5 121t78 81t112.5 29q61 0 109 -27t75.5 -75.5t27.5 -113.5q0 -69 -31.5 -121t-83.5 -81t-115 -29zM459 71q34 0 55.5 19.5t31.5 51t10 66.5q0 70 -32 106t-77 36
q-48 0 -70 -39t-22 -95q0 -72 30.5 -108.5t73.5 -36.5z" />
    <glyph glyph-name="uni044F" unicode="&#x44f;" horiz-adv-x="492" 
d="M325 0v342h-83q-31 0 -48.5 -13.5t-17.5 -39.5q0 -30 23.5 -46t69.5 -16q17 0 47.5 2.5t56.5 6.5v-76q-27 -4 -57 -6t-50 -2q-97 0 -147.5 33t-50.5 97q0 66 51.5 102.5t142.5 36.5h167v-421h-104zM42 0l139 200l73 -35l-79 -165h-133z" />
    <glyph glyph-name="uni0450" unicode="&#x450;" horiz-adv-x="463" 
d="M243 -13q-60 0 -107 24.5t-73.5 71.5t-26.5 113q0 71 30 124.5t81 83.5t115 30q81 0 122 -49t41 -132q0 -11 -0.5 -25.5t-2.5 -27.5h-98v55q0 47 -16 73t-57 26q-33 0 -57 -17.5t-36.5 -49t-12.5 -73.5q0 -65 34 -101.5t89 -36.5q31 0 60.5 11.5t56.5 34.5l37 -60
q-29 -29 -60 -45.5t-61 -23t-58 -6.5zM92 200l13 69h304v-69h-317zM219 505l-129 206h131l82 -206h-84z" />
    </font>
</defs>
</svg>
