<?xml version="1.0" standalone="no"?>
<!DOCTYPE svg PUBLIC "-//W3C//DTD SVG 1.1//EN" "http://www.w3.org/Graphics/SVG/1.1/DTD/svg11.dtd" >
<svg xmlns="http://www.w3.org/2000/svg" xmlns:xlink="http://www.w3.org/1999/xlink" version="1.1">
<metadata>
Created by FontForge 20170731 at Wed Jun 14 14:34:06 2023
 By Aleksey,,,
Copyright 2023 The Ysabeau Project Authors (https://github.com/CatharsisFonts/Ysabeau)
</metadata>
<defs>
<font id="YsabeauOffice-Regular" horiz-adv-x="0" >
  <font-face 
    font-family="Ysabeau Office"
    font-weight="400"
    font-stretch="normal"
    units-per-em="1000"
    panose-1="0 0 0 0 0 0 0 0 0 0"
    ascent="800"
    descent="-200"
    x-height="407"
    cap-height="658"
    bbox="-94 -291 1691 1024"
    underline-thickness="50"
    underline-position="-175"
    unicode-range="U+0020-FB02"
  />
<missing-glyph horiz-adv-x="527" 
d="M99 -289v1052h334v-1052h-334zM177 659h68v-40h-69v-34h175v34h-70v40h70v34h-174v-34zM176 448h175v36h-70v73h-105v-109zM211 484v37h34v-37h-34zM176 384h69v-38h-69v-35h105v73h70v35h-175v-35zM317 287h-141v-35h175v104h-34v-69zM245 168h36v26h36v-51h-106v84h-35
v-119h175v119h-106v-59zM176 -74h175v119h-175v-119zM211 -39v51h106v-51h-106zM176 -133h73l-73 -49v-35h175v35h-107l73 49h34v36h-175v-36z" />
    <glyph glyph-name="fi" unicode="fi" horiz-adv-x="595" 
d="M114 0v428q0 80 19 134t51 87t73 47.5t84 14.5q48 0 86 -16.5t73 -50.5l-50 -51q-30 35 -57 52.5t-63 17.5q-45 0 -78.5 -22t-51.5 -70t-18 -125v-446h-68zM486 355l-457 7l5 41l462 9zM428 0v383l68 29v-412h-68z" />
    <glyph glyph-name="fl" unicode="fl" horiz-adv-x="597" 
d="M114 0v429q0 92 31.5 155t87 95t125.5 32q41 0 73.5 -11.5t59.5 -27.5l-33 -51q-28 22 -55.5 32t-58.5 10q-82 0 -122 -53.5t-40 -163.5v-446h-68zM342 361l-312 1l3 41l313 4zM441 0v685l68 11v-696h-68z" />
    <glyph glyph-name="Aogonek_acutecomb.liga" unicode="&#x104;&#x301;" horiz-adv-x="681" 
d="M559 0l-235 617h28l-234 -617h-75l271 658h63l261 -658h-79zM162 226l21 59h296l32 -59h-349zM586 -289q-64 0 -100.5 33.5t-36.5 88.5q0 49 33 100t109 93l47 -26q-61 -32 -89 -71.5t-28 -79.5q0 -37 22 -62.5t66 -25.5q16 0 29 4t24 13l19 -37q-21 -15 -43 -22.5
t-52 -7.5zM303 735l81 172h82l-108 -172h-55z" />
    <glyph glyph-name="Eogonek_acutecomb.liga" unicode="&#x118;&#x301;" horiz-adv-x="579" 
d="M524 0h-415v658h384v-59h-312v-540h343v-59zM134 305v57h321v-57h-321zM472 -289q-64 0 -100.5 33.5t-36.5 88.5q0 50 38.5 102.5t126.5 95.5l24 -31q-61 -32 -89 -71t-28 -80q0 -36 22 -62t66 -26q16 0 29 4.5t24 12.5l19 -37q-21 -15 -43 -22.5t-52 -7.5zM246 735
l81 172h82l-108 -172h-55z" />
    <glyph glyph-name="IJ_acutecomb.liga" unicode="&#x132;&#x301;" horiz-adv-x="726" 
d="M168 276v-20q0 -64 24.5 -111t69.5 -73.5t104 -26.5q60 0 102.5 25.5t65.5 73t23 111.5v403h74v-386q0 -85 -34 -148.5t-96 -98t-146 -34.5q-77 0 -136.5 31t-92 88.5t-32.5 136.5v29h74zM94 401v257h75v-257h-75zM91 735l81 172h82l-108 -172h-55zM544 735l81 172h82
l-108 -172h-55z" />
    <glyph glyph-name="Iogonek_acutecomb.liga" unicode="&#x12e;&#x301;" horiz-adv-x="309" 
d="M116 0v658h77v-658h-77zM169 -289q-60 0 -94 33.5t-34 89.5q0 45 27.5 95t90.5 90l33 -19q-40 -32 -58.5 -72t-18.5 -79q0 -38 20 -63t57 -25q18 0 32.5 5t27.5 14l19 -37q-21 -16 -45.5 -24t-56.5 -8zM111 735l81 172h82l-108 -172h-55z" />
    <glyph glyph-name="J_acutecomb.liga" unicode="J&#x301;" horiz-adv-x="317" 
d="M131 47v611h74v-611q0 -58 -13.5 -100t-38.5 -71.5t-60 -49t-77 -30.5l-19 43q43 16 73 41t45.5 65t15.5 102zM125 735l81 172h82l-108 -172h-55z" />
    <glyph glyph-name="uni01EA0301.liga" unicode="&#x1ea;&#x301;" horiz-adv-x="791" 
d="M390 -9q-96 0 -171.5 43t-118.5 119t-43 173q0 76 26.5 139t74 108t110 69.5t134.5 24.5q96 0 171 -43t118 -118.5t43 -173.5q0 -76 -26.5 -139t-73.5 -108t-109.5 -69.5t-134.5 -24.5zM403 45q75 0 132 35t88.5 97.5t31.5 143.5q0 88 -35 153.5t-95.5 102t-136.5 36.5
q-73 0 -129.5 -35t-88.5 -97t-32 -144q0 -87 35 -153t95.5 -102.5t134.5 -36.5zM440 -289q-64 0 -100.5 35t-36.5 95q0 47 33.5 98t109.5 93l25 -21q-50 -32 -73 -73t-23 -83q0 -39 22 -66.5t66 -27.5q16 0 28.5 4.5t24.5 12.5l19 -37q-21 -15 -43 -22.5t-52 -7.5zM359 735
l81 172h82l-108 -172h-55z" />
    <glyph glyph-name="aogonek_acutecomb.liga" unicode="&#x105;&#x301;" horiz-adv-x="453" 
d="M358 -2q-35 0 -56.5 24t-20.5 72l3 196q1 31 -8 49t-23.5 25.5t-31.5 7.5q-21 0 -42.5 -8t-37 -26t-20.5 -49l-66 7q3 26 19.5 48.5t42 40t56.5 27t65 9.5q54 0 81 -32.5t26 -90.5l-3 -216q0 -18 7 -27.5t21 -9.5q13 0 24 5.5l21 10.5l21 -31zM349 -289q-57 0 -90 32.5
t-33 84.5q0 59 44.5 117t144.5 105l21 -20q-74 -42 -109.5 -91.5t-35.5 -98.5q0 -35 20 -58t56 -23q17 0 32.5 5t27.5 14l18 -34q-21 -16 -44.5 -24.5t-51.5 -8.5zM147 -5q-45 0 -73.5 25.5t-28.5 67.5q0 23 10.5 44t35.5 38t69 28l157 41l5 -36l-146 -45q-35 -11 -48 -26.5
t-13 -34.5q0 -23 15.5 -36.5t39.5 -13.5q27 0 60.5 18.5t79.5 49.5l10 -25q-44 -42 -86 -68.5t-87 -26.5zM184 510l102 197h78l-129 -197h-51z" />
    <glyph glyph-name="eogonek_acutecomb.liga" unicode="&#x119;&#x301;" horiz-adv-x="456" 
d="M248 -6q-59 0 -104.5 24t-71 68.5t-25.5 106.5q0 68 28 119.5t77 80t111 28.5q73 0 109.5 -42.5t36.5 -113.5v-17.5t-2 -17.5h-58v34q0 53 -22.5 80.5t-69.5 27.5q-44 0 -77 -21.5t-51.5 -59.5t-18.5 -89q0 -71 40.5 -113.5t109.5 -42.5q32 0 63.5 12.5t59.5 37.5l29 -36
q-27 -25 -55 -39.5t-55 -20.5t-54 -6zM315 -289q-39 0 -67.5 15t-43.5 40t-15 55q0 36 15 71.5t50 72t94 77.5l64 18q-56 -51 -90 -90t-50.5 -70t-16.5 -62q0 -35 21.5 -57t58.5 -22q21 0 36.5 5t29.5 15l19 -35q-22 -16 -47 -24.5t-58 -8.5zM88 230l9 43h300v-43h-309z
M211 509l102 197h78l-129 -197h-51z" />
    <glyph glyph-name="ij_acutecomb.liga" unicode="&#x133;&#x301;" horiz-adv-x="520" 
d="M96 0v409l68 11v-420h-68zM87 509l102 197h78l-129 -197h-51zM356 -11v420l68 11v-431q0 -117 -37 -185.5t-114 -92.5l-16 33q50 25 74.5 84.5t24.5 160.5zM346 509l102 197h78l-129 -197h-51z" />
    <glyph glyph-name="iogonek_acutecomb.liga" unicode="&#x12f;&#x301;" horiz-adv-x="260" 
d="M96 0v409l68 11v-420h-68zM141 -289q-58 0 -90 33.5t-32 89.5q0 47 27.5 97.5t90.5 92.5l27 -24q-40 -32 -58.5 -71.5t-18.5 -79.5q0 -38 20 -63t57 -25q18 0 32.5 5t27.5 14l19 -37q-21 -16 -45.5 -24t-56.5 -8zM87 509l102 197h78l-129 -197h-51z" />
    <glyph glyph-name="j_acutecomb.liga" unicode="j&#x301;" horiz-adv-x="260" 
d="M96 -11v420l68 11v-431q0 -117 -37 -185.5t-114 -92.5l-16 33q50 25 74.5 84.5t24.5 160.5zM87 509l102 197h78l-129 -197h-51z" />
    <glyph glyph-name="uni01EB0301.liga" unicode="&#x1eb;&#x301;" horiz-adv-x="519" 
d="M253 -8q-61 0 -108.5 27t-75 74.5t-27.5 108.5q0 64 29.5 114t80.5 78.5t115 28.5q61 0 108.5 -27t75 -74.5t27.5 -108.5q0 -64 -29 -114t-80 -78.5t-116 -28.5zM262 40q45 0 77 22.5t49 60.5t17 83q0 52 -19.5 89.5t-52.5 58t-75 20.5q-44 0 -76.5 -21.5t-49.5 -59
t-17 -83.5q0 -52 19.5 -90t53 -59t74.5 -21zM297 -290q-63 0 -97.5 34t-34.5 90q0 50 30 100.5t92 90.5l25 -19q-39 -35 -59 -78t-20 -79q0 -43 23 -66t63 -23q17 0 30.5 4.5t26.5 12.5l18 -37q-21 -15 -45 -22.5t-52 -7.5zM222 509l102 197h78l-129 -197h-51z" />
    <glyph glyph-name="f_b.liga" unicode="fb" horiz-adv-x="885" 
d="M114 0v429q0 92 31.5 155t87 95t125.5 32q41 0 73.5 -11.5t59.5 -27.5l-33 -51q-28 22 -55.5 32t-58.5 10q-82 0 -122 -53.5t-40 -163.5v-446h-68zM342 361l-312 1l3 41l313 4zM607 -5q-49 0 -96.5 13t-69.5 37l68 34q20 -17 52 -26t65 -9q47 0 79 22t48.5 59t16.5 83
q0 50 -17 86t-47.5 55.5t-72.5 19.5q-39 0 -76.5 -20t-64.5 -64l-24 16q23 36 52.5 62.5t64 41t73.5 14.5q38 0 71 -13.5t59 -39t40.5 -62t14.5 -83.5q0 -60 -26.5 -112t-79 -83t-130.5 -31zM441 45v641l68 10v-617z" />
    <glyph glyph-name="f_f.liga" unicode="ff" horiz-adv-x="657" 
d="M113 0v398q0 96 30 157t84 90.5t126 29.5q45 0 81 -11.5t75 -40.5l-42 -41q-34 26 -63.5 34.5t-61.5 8.5q-83 0 -121.5 -51t-38.5 -160v-414h-69zM652 357l-623 1l5 45l622 4zM423 0v428q0 71 17 123.5t47.5 88t73 53.5t93.5 18q31 0 60 -8t52 -24l-30 -51
q-21 15 -47 24.5t-56 9.5q-45 0 -73.5 -21t-43 -54t-20 -70.5t-5.5 -70.5v-446h-68z" />
    <glyph glyph-name="f_f_b.liga" unicode="ffb" horiz-adv-x="1190" 
d="M114 0v393q0 98 29 160t83 91.5t128 29.5q42 0 78.5 -11t77.5 -39l-45 -40q-34 25 -64 33.5t-62 8.5q-82 0 -120 -52.5t-38 -163.5v-410h-67zM649 361l-619 1l3 41l620 4zM420 0v429q0 92 31.5 155t86.5 95t125 32q41 0 73.5 -11.5t59.5 -27.5l-33 -51q-28 22 -55.5 32
t-58.5 10q-82 0 -122 -53.5t-40 -163.5v-446h-67zM912 -5q-49 0 -96.5 13t-69.5 37l68 34q20 -17 52 -26t65 -9q47 0 79 22t48.5 59t16.5 83q0 50 -17 86t-48 55.5t-72 19.5q-39 0 -76.5 -20t-64.5 -64l-24 16q23 36 52 62.5t64 41t74 14.5q38 0 71 -13.5t59 -39t40.5 -62
t14.5 -83.5q0 -60 -26.5 -112t-79 -83t-130.5 -31zM746 45v641l68 10v-617z" />
    <glyph glyph-name="f_f_h.liga" unicode="ffh" horiz-adv-x="1198" 
d="M114 0v393q0 98 29 160t83 91.5t128 29.5q42 0 78.5 -11t77.5 -39l-45 -40q-34 25 -64 33.5t-62 8.5q-82 0 -120 -52.5t-38 -163.5v-410h-67zM649 361l-619 1l3 41l620 4zM420 0v429q0 92 31.5 155t86.5 95t125 32q41 0 73.5 -11.5t59.5 -27.5l-33 -51q-28 22 -55.5 32
t-58.5 10q-82 0 -122 -53.5t-40 -163.5v-446h-67zM1052 0v240q0 60 -27 94t-77 34q-27 0 -56.5 -9.5t-55 -30t-39.5 -52.5l-24 15q22 45 55.5 73t72 41.5t76.5 13.5q63 0 103 -41t40 -115v-263h-68zM746 0v686l68 10v-696h-68z" />
    <glyph glyph-name="f_f_i.liga" unicode="ffi" horiz-adv-x="903" 
d="M421 0v428q0 80 19.5 134t52 87t73 47.5t83.5 14.5q50 0 87 -16.5t71 -50.5l-43 -46q-30 36 -59.5 50.5t-65.5 14.5q-45 0 -78.5 -23t-52 -70.5t-18.5 -123.5v-446h-69zM114 0v398q0 96 30.5 157t87 90t131.5 29q44 0 79.5 -11t75.5 -39l-44 -41q-35 26 -63.5 34.5
t-58.5 8.5q-86 0 -128 -51t-42 -160v-415h-68zM792 355l-763 7l5 41l769 9zM736 0v383l67 29v-412h-67z" />
    <glyph glyph-name="f_f_j.liga" unicode="ffj" horiz-adv-x="894" 
d="M413 0v428q0 80 19 134t51 87t73 47.5t85 14.5q47 0 85.5 -16.5t72.5 -50.5l-44 -46q-31 35 -60.5 50t-63.5 15q-46 0 -79.5 -22.5t-52 -70.5t-18.5 -124v-446h-68zM113 0v398q0 95 29.5 156.5t84 91t128.5 29.5q44 0 79.5 -11.5t75.5 -39.5l-45 -41q-34 25 -62.5 33.5
t-59.5 8.5q-83 0 -121.5 -51t-38.5 -160v-414h-70zM644 -289l-16 33q51 25 75 84.5t24 160.5v397l68 26v-423q0 -118 -36.5 -186t-114.5 -92zM786 355l-757 7l5 41l761 9z" />
    <glyph glyph-name="f_f_k.liga" unicode="ffk" horiz-adv-x="1130" 
d="M114 0v393q0 98 29 160t83 91.5t128 29.5q42 0 78.5 -11t77.5 -39l-45 -40q-34 25 -64 33.5t-62 8.5q-82 0 -120 -52.5t-38 -163.5v-410h-67zM649 361l-619 1l3 41l620 4zM420 0v429q0 92 31.5 155t86.5 95t125 32q41 0 73.5 -11.5t59.5 -27.5l-33 -51q-28 22 -55.5 32
t-58.5 10q-82 0 -122 -53.5t-40 -163.5v-446h-67zM1031 0l-223 220l217 194h90l-259 -212v46l266 -248h-91zM746 0v686l68 10v-696h-68z" />
    <glyph glyph-name="f_f_l.liga" unicode="ffl" horiz-adv-x="902" 
d="M114 0v393q0 98 29 160t83 91.5t128 29.5q42 0 78.5 -11t77.5 -39l-45 -40q-34 25 -64 33.5t-62 8.5q-82 0 -120 -52.5t-38 -163.5v-410h-67zM649 361l-619 1l3 41l620 4zM420 0v429q0 92 31.5 155t86.5 95t125 32q41 0 73.5 -11.5t59.5 -27.5l-33 -51q-28 22 -55.5 32
t-58.5 10q-82 0 -122 -53.5t-40 -163.5v-446h-67zM746 0v685l68 11v-696h-68z" />
    <glyph glyph-name="f_f_thorn.liga" unicode="ff&#xfe;" horiz-adv-x="1191" 
d="M114 0v393q0 98 29 160t83 91.5t128 29.5q42 0 78.5 -11t77.5 -39l-45 -40q-34 25 -64 33.5t-62 8.5q-82 0 -120 -52.5t-38 -163.5v-410h-67zM649 361l-619 1l3 41l620 4zM420 0v429q0 92 31.5 155t86.5 95t125 32q41 0 73.5 -11.5t59.5 -27.5l-33 -51q-28 22 -55.5 32
t-58.5 10q-82 0 -122 -53.5t-40 -163.5v-446h-67zM937 -5q-54 0 -94 26t-61 75l18 22q21 -36 54 -55t73 -19q45 0 78.5 21.5t52.5 59t19 86.5q0 46 -16.5 82.5t-47 58t-71.5 21.5q-37 0 -74.5 -19.5t-65.5 -65.5l-26 14q34 60 79 88.5t104 28.5q58 0 100.5 -26t66 -71.5
t23.5 -104.5q0 -64 -28 -114t-76 -79t-108 -29zM740 -289v975l68 10v-974z" />
    <glyph glyph-name="f_f_t.liga" unicode="fft" horiz-adv-x="989" 
d="M114 0v393q0 98 29.5 160t83 91.5t125.5 29.5q47 0 83 -11t75 -39l-42 -40q-35 26 -64.5 34t-65.5 8q-80 0 -118 -52.5t-38 -163.5v-410h-68zM945 357l-916 1l5 45l915 4zM417 0v428q0 80 18 134t49 87t71 47.5t84 14.5q37 0 67 -10.5t58 -30.5l-43 -50q-24 23 -47 31.5
t-47 8.5q-44 0 -76 -21.5t-49 -69t-17 -123.5v-446h-68zM847 -7q-39 0 -68.5 16t-45.5 44.5t-16 66.5v268l11 106l57 12v-375q0 -41 20 -64t54 -23q23 0 44.5 11t41.5 31l33 -33q-32 -34 -65.5 -47t-65.5 -13z" />
    <glyph glyph-name="f_h.liga" unicode="fh" horiz-adv-x="893" 
d="M114 0v429q0 92 31.5 155t87 95t125.5 32q41 0 73.5 -11.5t59.5 -27.5l-33 -51q-28 22 -55.5 32t-58.5 10q-82 0 -122 -53.5t-40 -163.5v-446h-68zM342 361l-312 1l3 41l313 4zM747 0v240q0 60 -27 94t-77 34q-26 0 -56 -9.5t-55.5 -30t-39.5 -52.5l-24 15q22 45 55.5 73
t72 41.5t76.5 13.5q63 0 103 -41t40 -115v-263h-68zM441 0v686l68 10v-696h-68z" />
    <glyph glyph-name="f_j.liga" unicode="fj" horiz-adv-x="595" 
d="M114 0v428q0 80 19 134t50.5 87t72.5 47.5t85 14.5q47 0 85.5 -16.5t73.5 -50.5l-45 -46q-30 35 -60 50t-64 15q-45 0 -78.5 -22.5t-52 -70t-18.5 -124.5v-446h-68zM345 -289l-16 33q50 25 74.5 84.5t24.5 160.5v397l68 26v-423q0 -118 -37 -186t-114 -92zM486 355
l-457 7l5 41l462 9z" />
    <glyph glyph-name="f_k.liga" unicode="fk" horiz-adv-x="825" 
d="M114 0v429q0 92 31.5 155t87 95t125.5 32q41 0 73.5 -11.5t59.5 -27.5l-33 -51q-28 22 -55.5 32t-58.5 10q-82 0 -122 -53.5t-40 -163.5v-446h-68zM342 361l-312 1l3 41l313 4zM726 0l-223 220l217 194h90l-259 -212v46l266 -248h-91zM441 0v686l68 10v-696h-68z" />
    <glyph glyph-name="f_thorn.liga" unicode="f&#xfe;" horiz-adv-x="886" 
d="M114 0v429q0 92 31.5 155t87 95t125.5 32q41 0 73.5 -11.5t59.5 -27.5l-33 -51q-28 22 -55.5 32t-58.5 10q-82 0 -122 -53.5t-40 -163.5v-446h-68zM342 361l-312 1l3 41l313 4zM632 -5q-54 0 -94 26t-61 75l18 22q22 -36 54.5 -55t72.5 -19q45 0 78.5 21.5t52.5 59
t19 86.5q0 46 -16.5 82.5t-47 58t-71.5 21.5q-37 0 -74.5 -19.5t-65.5 -65.5l-26 14q34 60 79 88.5t104 28.5q58 0 101 -26t66.5 -71.5t23.5 -104.5q0 -64 -28.5 -114t-76.5 -79t-108 -29zM435 -289v975l68 10v-974z" />
    <glyph glyph-name="f_t.liga" unicode="ft" horiz-adv-x="696" 
d="M114 0v428q0 80 18 134t49 87t71 47.5t86 14.5q37 0 69 -10.5t61 -30.5l-43 -47q-26 22 -50.5 30t-49.5 8q-45 0 -77 -22.5t-49 -70t-17 -122.5v-446h-68zM652 357l-623 1l5 45l622 4zM548 -7q-35 0 -63.5 15t-44.5 43.5t-16 68.5v274l23 108l46 9v-380q0 -43 20 -65
t53 -22q23 0 46 9t45 27l21 -30q-29 -30 -62.5 -43.5t-67.5 -13.5z" />
    <glyph glyph-name="longs_b.liga" unicode="&#x17f;b" horiz-adv-x="854" 
d="M93 0v429q0 92 31.5 155t85.5 95t123 32q39 0 70 -10.5t57 -25.5l-33 -51q-26 21 -52.5 30t-55.5 9q-79 0 -118 -53.5t-39 -163.5v-446h-69zM576 -5q-49 0 -96 13t-70 37l68 34q20 -17 52 -26t65 -9q48 0 80 22t48 59t16 83q0 50 -17 86t-47.5 55.5t-71.5 19.5
q-40 0 -77.5 -20t-64.5 -64l-24 16q23 36 52.5 62.5t64.5 41t74 14.5q37 0 70.5 -13.5t59.5 -39t40.5 -62t14.5 -83.5q0 -60 -27 -112t-79.5 -83t-130.5 -31zM410 45v641l68 10v-617z" />
    <glyph glyph-name="longs_h.liga" unicode="&#x17f;h" horiz-adv-x="862" 
d="M93 0v429q0 92 31.5 155t85.5 95t123 32q39 0 70 -10.5t57 -25.5l-33 -51q-26 21 -52.5 30t-55.5 9q-79 0 -118 -53.5t-39 -163.5v-446h-69zM716 0v240q0 60 -27 94t-77 34q-26 0 -56 -9.5t-55.5 -30t-39.5 -52.5l-24 15q22 45 55.5 73t72 41.5t76.5 13.5q63 0 103.5 -41
t40.5 -115v-263h-69zM410 0v686l68 10v-696h-68z" />
    <glyph glyph-name="longs_i.liga" unicode="&#x17f;i" horiz-adv-x="566" 
d="M93 0v429q0 79 18.5 133t51 87t73 47.5t83.5 14.5q49 0 85 -17t69 -50l-44 -47q-29 36 -57 51t-63 15q-45 0 -78.5 -23t-51 -70.5t-17.5 -123.5v-446h-69zM400 0v409l68 11v-420h-68z" />
    <glyph glyph-name="longs_j.liga" unicode="&#x17f;j" horiz-adv-x="565" 
d="M93 0v429q0 79 18.5 133t51 87t73 47.5t83.5 14.5q49 0 85 -17t69 -50l-44 -47q-29 37 -57 51.5t-63 14.5q-45 0 -78.5 -23t-51 -70.5t-17.5 -123.5v-446h-69zM317 -289l-16 33q51 25 75 84.5t24 160.5v420l68 11v-431q0 -117 -37 -185.5t-114 -92.5z" />
    <glyph glyph-name="longs_k.liga" unicode="&#x17f;k" horiz-adv-x="795" 
d="M93 0v429q0 92 31.5 155t85.5 95t123 32q39 0 70 -10.5t57 -25.5l-33 -51q-26 21 -52.5 30t-55.5 9q-79 0 -118 -53.5t-39 -163.5v-446h-69zM695 0l-223 220l217 194h91l-260 -212v46l267 -248h-92zM410 0v686l68 10v-696h-68z" />
    <glyph glyph-name="longs_l.liga" unicode="&#x17f;l" horiz-adv-x="566" 
d="M93 0v429q0 92 31.5 155t85.5 95t123 32q39 0 70 -10.5t57 -25.5l-33 -51q-26 21 -52.5 30t-55.5 9q-79 0 -118 -53.5t-39 -163.5v-446h-69zM410 0v685l68 11v-696h-68z" />
    <glyph glyph-name="longs_thorn.liga" unicode="&#x17f;&#xfe;" horiz-adv-x="856" 
d="M93 0v429q0 92 31.5 155t85.5 95t123 32q39 0 70 -10.5t57 -25.5l-33 -51q-26 21 -52.5 30t-55.5 9q-79 0 -118 -53.5t-39 -163.5v-446h-69zM601 -5q-53 0 -93.5 26t-61.5 75l19 22q21 -36 53.5 -55t72.5 -19q45 0 78.5 21.5t52.5 59t19 86.5q0 46 -16.5 82.5t-46.5 58
t-72 21.5q-37 0 -74 -19.5t-66 -65.5l-25 14q33 60 78 88.5t104 28.5q58 0 101 -26t66.5 -71.5t23.5 -104.5q0 -64 -28.5 -114t-76.5 -79t-108 -29zM404 -289v975l69 10v-974z" />
    <glyph glyph-name="longs_longs.liga" unicode="&#x17f;&#x17f;" horiz-adv-x="563" 
d="M93 0v393q0 98 28 160t81 91.5t127 29.5q38 0 72.5 -8.5t71.5 -30.5l-39 -45q-32 20 -60 28t-58 8q-80 0 -117 -51.5t-37 -164.5v-410h-69zM380 0v429q0 79 17.5 133.5t48 87t69.5 47t81 14.5q33 0 59 -9t51 -26l-32 -52q-26 21 -47.5 29.5t-44.5 8.5q-42 0 -72 -22
t-46 -69.5t-16 -124.5v-446h-68z" />
    <glyph glyph-name="longs_longs_b.liga" unicode="&#x17f;&#x17f;b" horiz-adv-x="1141" 
d="M93 0v393q0 98 28 160t81 91.5t127 29.5q38 0 72.5 -8.5t71.5 -30.5l-39 -45q-32 20 -60 28t-58 8q-80 0 -117 -51.5t-37 -164.5v-410h-69zM863 -5q-49 0 -96.5 13t-69.5 37l68 34q20 -17 52 -26t65 -9q47 0 79 22t48.5 59t16.5 83q0 50 -17 86t-47.5 55.5t-72.5 19.5
q-39 0 -76.5 -20t-64.5 -64l-24 16q23 36 52.5 62.5t64 41t73.5 14.5q38 0 71 -13.5t59 -39t40.5 -62t14.5 -83.5q0 -60 -26.5 -112t-79 -83t-130.5 -31zM697 45v641l68 10v-617zM380 0v429q0 92 31.5 155t85.5 95t123 32q39 0 70 -10.5t57 -25.5l-33 -51q-27 21 -53 30
t-56 9q-79 0 -118 -53.5t-39 -163.5v-446h-68z" />
    <glyph glyph-name="longs_longs_h.liga" unicode="&#x17f;&#x17f;h" horiz-adv-x="1149" 
d="M93 0v393q0 98 28 160t81 91.5t127 29.5q38 0 72.5 -8.5t71.5 -30.5l-39 -45q-32 20 -60 28t-58 8q-80 0 -117 -51.5t-37 -164.5v-410h-69zM1003 0v240q0 60 -27 94t-77 34q-26 0 -56 -9.5t-55.5 -30t-39.5 -52.5l-24 15q22 45 55.5 73t72 41.5t76.5 13.5q63 0 103 -41
t40 -115v-263h-68zM697 0v686l68 10v-696h-68zM380 0v429q0 92 31.5 155t85.5 95t123 32q39 0 70 -10.5t57 -25.5l-33 -51q-27 21 -53 30t-56 9q-79 0 -118 -53.5t-39 -163.5v-446h-68z" />
    <glyph glyph-name="longs_longs_i.liga" unicode="&#x17f;&#x17f;i" horiz-adv-x="852" 
d="M93 0v393q0 98 28 160t81 91.5t127 29.5q38 0 72.5 -8.5t71.5 -30.5l-39 -45q-32 20 -60 28t-58 8q-80 0 -117 -51.5t-37 -164.5v-410h-69zM380 0v429q0 79 18.5 133t51 87t73 47.5t83.5 14.5q49 0 85 -17t69 -50l-44 -47q-29 36 -57.5 51t-62.5 15q-45 0 -78.5 -23
t-51.5 -70.5t-18 -123.5v-446h-68zM687 0v409l68 11v-420h-68z" />
    <glyph glyph-name="longs_longs_j.liga" unicode="&#x17f;&#x17f;j" horiz-adv-x="852" 
d="M93 0v393q0 98 28 160t81 91.5t127 29.5q38 0 72.5 -8.5t71.5 -30.5l-39 -45q-32 20 -60 28t-58 8q-80 0 -117 -51.5t-37 -164.5v-410h-69zM380 0v429q0 79 18.5 133t51 87t73 47.5t83.5 14.5q49 0 85 -17t69 -50l-44 -47q-29 37 -57.5 51.5t-62.5 14.5q-45 0 -78.5 -23
t-51.5 -70.5t-18 -123.5v-446h-68zM604 -289l-17 33q52 25 76 84.5t24 160.5v420l68 11v-431q0 -117 -37 -185.5t-114 -92.5z" />
    <glyph glyph-name="longs_longs_k.liga" unicode="&#x17f;&#x17f;k" horiz-adv-x="1081" 
d="M93 0v393q0 98 28 160t81 91.5t127 29.5q38 0 72.5 -8.5t71.5 -30.5l-39 -45q-32 20 -60 28t-58 8q-80 0 -117 -51.5t-37 -164.5v-410h-69zM982 0l-223 220l217 194h90l-259 -212v46l266 -248h-91zM697 0v686l68 10v-696h-68zM380 0v429q0 92 31.5 155t85.5 95t123 32
q39 0 70 -10.5t57 -25.5l-33 -51q-27 21 -53 30t-56 9q-79 0 -118 -53.5t-39 -163.5v-446h-68z" />
    <glyph glyph-name="longs_longs_l.liga" unicode="&#x17f;&#x17f;l" horiz-adv-x="853" 
d="M93 0v393q0 98 28 160t81 91.5t127 29.5q38 0 72.5 -8.5t71.5 -30.5l-39 -45q-32 20 -60 28t-58 8q-80 0 -117 -51.5t-37 -164.5v-410h-69zM697 0v685l68 11v-696h-68zM380 0v429q0 92 31.5 155t85.5 95t123 32q39 0 70 -10.5t57 -25.5l-33 -51q-27 21 -53 30t-56 9
q-79 0 -118 -53.5t-39 -163.5v-446h-68z" />
    <glyph glyph-name="longs_longs_thorn.liga" unicode="&#x17f;&#x17f;&#xfe;" horiz-adv-x="1142" 
d="M93 0v393q0 98 28 160t81 91.5t127 29.5q38 0 72.5 -8.5t71.5 -30.5l-39 -45q-32 20 -60 28t-58 8q-80 0 -117 -51.5t-37 -164.5v-410h-69zM888 -5q-54 0 -94 26t-61 75l18 22q22 -36 54.5 -55t72.5 -19q45 0 78.5 21.5t52.5 59t19 86.5q0 46 -16.5 82.5t-47 58
t-71.5 21.5q-37 0 -74.5 -19.5t-65.5 -65.5l-26 14q34 60 79 88.5t104 28.5q58 0 101 -26t66.5 -71.5t23.5 -104.5q0 -64 -28.5 -114t-76.5 -79t-108 -29zM691 -289v975l68 10v-974zM380 0v429q0 92 31.5 155t85.5 95t123 32q39 0 70 -10.5t57 -25.5l-33 -51q-27 21 -53 30
t-56 9q-79 0 -118 -53.5t-39 -163.5v-446h-68z" />
    <glyph glyph-name="Yi_Yicy.liga" unicode="&#x407;&#x407;" horiz-adv-x="618" 
d="M116 0v658h75l2 -658h-77zM82 749q-22 0 -35.5 13t-13.5 34t13.5 34t35.5 13q21 0 34.5 -13t13.5 -34t-13.5 -34t-34.5 -13zM426 0v658h74l2 -658h-76zM531 749q-22 0 -35 13t-13 34t13 34t35 13q21 0 34.5 -13t13.5 -34t-13.5 -34t-34.5 -13zM306 749q-21 0 -34.5 13
t-13.5 34t13.5 34t35.5 13q21 0 34 -13t13 -34t-13 -34t-35 -13z" />
    <glyph glyph-name="yi_yicy.liga" unicode="&#x457;&#x457;" horiz-adv-x="520" 
d="M356 0v409l68 11v-420h-68zM96 0v409l68 11v-420h-68zM66 536q-22 0 -35.5 13t-13.5 34t13.5 34t35.5 13q21 0 34.5 -13t13.5 -34t-13.5 -34t-34.5 -13zM259 536q-21 0 -34.5 13t-13.5 34t13.5 34t34.5 13t34.5 -13t13.5 -34t-13.5 -34t-34.5 -13zM455 536
q-22 0 -35.5 13t-13.5 34t13.5 34t35.5 13q21 0 34.5 -13t13.5 -34t-13.5 -34t-34.5 -13z" />
    <glyph glyph-name=".notdef" horiz-adv-x="527" 
d="M99 -289v1052h334v-1052h-334zM177 659h68v-40h-69v-34h175v34h-70v40h70v34h-174v-34zM176 448h175v36h-70v73h-105v-109zM211 484v37h34v-37h-34zM176 384h69v-38h-69v-35h105v73h70v35h-175v-35zM317 287h-141v-35h175v104h-34v-69zM245 168h36v26h36v-51h-106v84h-35
v-119h175v119h-106v-59zM176 -74h175v119h-175v-119zM211 -39v51h106v-51h-106zM176 -133h73l-73 -49v-35h175v35h-107l73 49h34v36h-175v-36z" />
    <glyph glyph-name=".null" 
 />
    <glyph glyph-name="nonmarkingreturn" horiz-adv-x="333" 
 />
    <glyph glyph-name="space" unicode=" " horiz-adv-x="246" 
 />
    <glyph glyph-name="exclam" unicode="!" horiz-adv-x="280" 
d="M113 227l-14 431h81l-13 -431h-54zM140 -5q-23 0 -37.5 14t-14.5 36q0 23 14.5 37t37.5 14t37 -14t14 -37q0 -22 -14 -36t-37 -14z" />
    <glyph glyph-name="quotedbl" unicode="&#x22;" horiz-adv-x="445" 
d="M111 344l-14 314h70l-15 -314h-41zM293 344l-14 314h70l-15 -314h-41z" />
    <glyph glyph-name="numbersign" unicode="#" horiz-adv-x="627" 
d="M362 -41l-56 15l170 600l55 -16zM42 119v50h496v-50h-496zM151 -62l-56 15l171 600l55 -16zM88 344v50h496v-50h-496z" />
    <glyph glyph-name="dollar" unicode="$" horiz-adv-x="521" 
d="M254 -10q-62 0 -115 19t-88 51l42 60q34 -35 80 -55t94 -20q63 0 99 31t36 83q0 36 -17.5 61.5t-46 44t-63 34.5t-68.5 32.5t-62.5 38.5t-46 52.5t-17.5 73.5q0 55 26.5 93t72.5 58t104 20q44 0 90.5 -12t81.5 -37l-36 -57q-30 24 -69.5 38t-78.5 14q-42 0 -69.5 -15
t-41 -39t-13.5 -52q0 -31 17.5 -54.5t46 -41t63 -33.5t68.5 -34.5t62.5 -42t46 -56.5t17.5 -79q0 -58 -28.5 -97.5t-77 -59t-109.5 -19.5zM248 -110v876h57v-876h-57z" />
    <glyph glyph-name="percent" unicode="%" horiz-adv-x="672" 
d="M115 -6l-35 29l477 593l33 -29zM176 343q-41 0 -72.5 18t-49.5 48.5t-18 69.5q0 38 18 68t49.5 47.5t71.5 17.5q41 0 72.5 -17.5t49 -48t17.5 -69.5q0 -38 -17.5 -68.5t-48.5 -48t-72 -17.5zM176 387q38 0 63 25.5t25 63.5q0 40 -25.5 66t-63.5 26t-63.5 -25.5
t-25.5 -63.5q0 -40 25.5 -66t64.5 -26zM496 265q41 0 72.5 -18t49.5 -48.5t18 -69.5q0 -38 -18 -68t-49 -47.5t-72 -17.5t-72.5 17.5t-49 48.5t-17.5 69q0 39 17.5 69t49 47.5t71.5 17.5zM496 221q-37 0 -62.5 -25.5t-25.5 -63.5q0 -40 25.5 -66t63.5 -26t63.5 25.5
t25.5 63.5q0 40 -25.5 66t-64.5 26z" />
    <glyph glyph-name="ampersand" unicode="&#x26;" horiz-adv-x="688" 
d="M261 -6q-56 0 -98 19t-66 55t-24 87q0 52 23.5 90.5t60.5 69t79 57t79 52t60.5 54.5t23.5 66q0 35 -22 54t-62 19q-52 0 -80.5 -31t-28.5 -76q0 -26 11 -52.5t32 -56.5t52 -72q37 -47 82 -91t94.5 -81t100 -64.5t98.5 -42.5l-21 -55q-52 16 -106.5 44t-107.5 67.5
t-102 87t-90 99.5q-53 67 -81 118t-28 98q0 44 22 80t63.5 57.5t97.5 21.5q23 0 47.5 -5t46 -17.5t35.5 -35t14 -58.5q0 -45 -23.5 -80.5t-60.5 -64t-78.5 -55t-79 -53.5t-60.5 -59.5t-23 -75.5q0 -53 37 -83.5t99 -30.5q56 0 105.5 24t87.5 67t59.5 101t21.5 125h59
q0 -77 -27 -144.5t-75 -119t-111 -80.5t-136 -29z" />
    <glyph glyph-name="quotesingle" unicode="'" horiz-adv-x="263" 
d="M111 344l-14 314h70l-15 -314h-41z" />
    <glyph glyph-name="parenleft" unicode="(" horiz-adv-x="382" 
d="M316 -223q-76 38 -133.5 108.5t-89 163t-31.5 194.5q0 104 31.5 196.5t89 163.5t133.5 108l23 -35q-66 -41 -112 -105.5t-70 -147t-24 -180.5q0 -97 24 -179.5t70 -146t112 -105.5z" />
    <glyph glyph-name="parenright" unicode=")" horiz-adv-x="382" 
d="M66 -223l-21 31q66 43 112 107t70.5 147t24.5 181q0 99 -24.5 182t-70.5 148t-112 107l21 31q77 -38 134 -109t88 -163.5t31 -195.5t-31 -195.5t-88 -162.5t-134 -108z" />
    <glyph glyph-name="asterisk" unicode="*" horiz-adv-x="472" 
d="M290 332l-56 171l-118 -127l-50 46l143 106l-156 71l28 63l144 -103l20 169l68 -7l-53 -168l168 33l15 -67l-179 -1l84 -151z" />
    <glyph glyph-name="plus" unicode="+" horiz-adv-x="550" 
d="M44 204v52h462v-52h-462zM301 0h-52v459h52v-459z" />
    <glyph glyph-name="comma" unicode="," horiz-adv-x="279" 
d="M112 -184l-31 18q23 30 34.5 67t11.5 74q0 38 -10 67t-30 45l60 31q27 -22 38.5 -52t11.5 -65q0 -36 -10 -70.5t-29 -64t-46 -50.5z" />
    <glyph glyph-name="hyphen.ss02" unicode="-" horiz-adv-x="374" 
d="M34 193l1 60h304v-60h-305z" />
    <glyph glyph-name="period" unicode="." horiz-adv-x="255" 
d="M128 -5q-23 0 -37.5 14t-14.5 36q0 23 14.5 37t37.5 14t36.5 -14t13.5 -37q0 -22 -13.5 -36t-36.5 -14z" />
    <glyph glyph-name="slash" unicode="/" horiz-adv-x="387" 
d="M92 -222l-55 13l254 920l54 -14z" />
    <glyph glyph-name="zero.tf" unicode="0" horiz-adv-x="517" 
d="M255 -6q-63 0 -109 41t-71 115t-25 174q0 102 27 178.5t74.5 119t111.5 42.5q62 0 108 -41t70.5 -115t24.5 -173q0 -103 -26.5 -179.5t-74 -119t-110.5 -42.5zM262 52q41 0 70.5 34t45.5 94.5t16 141.5q0 86 -17 149.5t-48.5 99t-73.5 35.5q-40 0 -70 -34t-46.5 -94
t-16.5 -141q0 -86 17.5 -150t49.5 -99.5t73 -35.5z" />
    <glyph glyph-name="one.tf" unicode="1" horiz-adv-x="517" 
d="M289 0v600l51 3l-230 -168l-36 53l248 170h35v-658h-68z" />
    <glyph glyph-name="two.tf" unicode="2" horiz-adv-x="517" 
d="M58 37q72 71 130.5 132.5t99 115.5t62.5 103t22 94q0 56 -31.5 90t-86.5 34q-41 0 -78.5 -25.5t-60.5 -87.5l-52 23q34 82 88.5 115t116.5 33q56 0 94.5 -22.5t58 -61t19.5 -86.5q0 -67 -38 -140.5t-108 -153t-165 -168.5l8 28h331v-60h-398z" />
    <glyph glyph-name="three.tf" unicode="3" horiz-adv-x="517" 
d="M403 180q0 64 -47 102t-151 38v43q60 0 98 18t56.5 48.5t18.5 67.5q0 52 -32.5 82.5t-88.5 30.5q-46 0 -86 -25.5t-61 -79.5l-50 17q19 49 50.5 80t72 46.5t85.5 15.5q54 0 94.5 -19.5t63.5 -55t23 -85.5q0 -49 -25 -88t-75.5 -61.5t-128.5 -22.5v29q85 0 141.5 -22
t84.5 -61t28 -93q0 -44 -18 -79t-49.5 -60t-71 -38t-82.5 -13q-42 0 -82.5 13.5t-74.5 43.5t-54 80l55 32q23 -59 67.5 -85.5t98.5 -26.5q65 0 102.5 34.5t37.5 93.5z" />
    <glyph glyph-name="four.tf" unicode="4" horiz-adv-x="517" 
d="M388 658l3 -658h-64l1 609l31 1l-277 -415l-21 31h428v-56h-441l-24 40l306 453z" />
    <glyph glyph-name="five.tf" unicode="5" horiz-adv-x="517" 
d="M97 340l27 315l310 6v-63h-294l42 30l-22 -258zM97 111q28 -28 64 -42t76 -14q68 0 108.5 41t40.5 107q0 72 -44.5 112t-125.5 40q-16 0 -37.5 -2t-43.5 -5t-38 -8l18 54q22 6 56.5 9.5t66.5 3.5q102 0 159.5 -52.5t57.5 -145.5q0 -64 -26.5 -112.5t-74.5 -75.5t-112 -27
q-53 0 -97.5 19t-80.5 54z" />
    <glyph glyph-name="six.tf" unicode="6" horiz-adv-x="517" 
d="M302 370q59 0 97 -24t57 -64t19 -89q0 -58 -26 -103t-72.5 -70.5t-108.5 -25.5q-68 0 -115.5 31t-72 87.5t-24.5 131.5q0 67 18 127t52 111t80 89.5t103 63t121 31.5l13 -56q-67 -8 -125 -37t-100.5 -76.5t-67 -109.5t-24.5 -135q0 -60 18 -106.5t52 -72.5t82 -26
q56 0 91.5 35.5t35.5 97.5q0 40 -14.5 70.5t-43.5 49t-73 18.5q-47 0 -95 -23t-78 -65l-15 32q24 31 56 55t73 38.5t87 14.5z" />
    <glyph glyph-name="seven.tf" unicode="7" horiz-adv-x="517" 
d="M205 0h-75l279 617l35 -21h-382l6 62h421z" />
    <glyph glyph-name="eight.tf" unicode="8" horiz-adv-x="517" 
d="M259 -6q-57 0 -101.5 20t-70.5 56t-26 84q0 65 43 115.5t119 87.5l31 -27q-61 -31 -93 -71.5t-32 -90.5q0 -58 40.5 -90.5t100.5 -32.5q43 0 71.5 15.5t43.5 42.5t15 57q0 38 -17 64.5t-46 47t-62.5 37.5t-68 35t-63 39.5t-46 51t-17.5 69.5q0 47 23.5 83t66 56.5
t101.5 20.5q80 0 128 -38.5t48 -101.5q0 -58 -41 -104.5t-108 -80.5l-34 27q35 18 61.5 39t41.5 47.5t15 56.5q0 46 -32.5 75.5t-87.5 29.5q-53 0 -84.5 -27.5t-31.5 -73.5q0 -33 18 -56.5t46.5 -42t62.5 -35t68 -34.5t62.5 -41.5t46.5 -55t18 -75.5q0 -52 -26 -92.5
t-73 -63.5t-110 -23z" />
    <glyph glyph-name="nine.tf" unicode="9" horiz-adv-x="517" 
d="M222 288q-58 0 -96.5 24t-57.5 64t-19 89q0 59 26 103.5t73 70t109 25.5q68 0 115 -31t71.5 -87.5t24.5 -131.5q0 -67 -18 -127t-52 -111t-80 -89.5t-102.5 -63t-121.5 -31.5l-13 56q54 6 101.5 26t87 52.5t68.5 75t44.5 94.5t15.5 110q0 61 -18 107t-51.5 72t-81.5 26
q-57 0 -92.5 -35.5t-35.5 -97.5q0 -39 14.5 -70t44 -49.5t72.5 -18.5q48 0 95.5 23t77.5 65l16 -32q-24 -30 -56.5 -54.5t-73 -39t-87.5 -14.5z" />
    <glyph glyph-name="colon" unicode=":" horiz-adv-x="255" 
d="M128 -5q-23 0 -37.5 14t-14.5 36q0 23 14.5 37t37.5 14t36.5 -14t13.5 -37q0 -22 -13.5 -36t-36.5 -14zM128 284q-23 0 -37.5 14t-14.5 36q0 23 14.5 37t37.5 14t36.5 -14t13.5 -37q0 -22 -13.5 -36t-36.5 -14z" />
    <glyph glyph-name="semicolon" unicode=";" horiz-adv-x="282" 
d="M114 -184l-31 18q23 30 35 67t12 74q0 38 -10 67t-30 45l60 31q27 -22 38 -52t11 -65q0 -36 -10 -70.5t-29 -64t-46 -50.5zM141 279q-23 0 -37.5 14t-14.5 36q0 23 14.5 37t37.5 14q22 0 36 -14t14 -37q0 -22 -14 -36t-36 -14z" />
    <glyph glyph-name="less" unicode="&#x3c;" horiz-adv-x="537" 
d="M473 14l-418 195v43l418 195v-57l-382 -172v25l382 -173v-56z" />
    <glyph glyph-name="equal" unicode="=" horiz-adv-x="550" 
d="M44 114v52h462v-52h-462zM44 294v52h462v-52h-462z" />
    <glyph glyph-name="greater" unicode="&#x3e;" horiz-adv-x="537" 
d="M482 252v-43l-419 -195v56l383 173v-25l-383 172v57z" />
    <glyph glyph-name="question" unicode="?" horiz-adv-x="365" 
d="M141 222q-6 21 -10.5 49.5t-4.5 47.5q0 31 14.5 51t35.5 34t42.5 27.5t36 31.5t14.5 44q0 25 -19 45.5t-58 32t-101 9.5v67q74 0 127.5 -20t83 -56t29.5 -85q0 -39 -15 -62.5t-37 -39t-44.5 -29t-37.5 -30.5t-15 -45q0 -13 2 -30.5t7 -33.5zM184 -5q-23 0 -37.5 14
t-14.5 36q0 23 14.5 36.5t37.5 13.5t37 -13.5t14 -36.5q0 -22 -14 -36t-37 -14z" />
    <glyph glyph-name="at" unicode="@" horiz-adv-x="878" 
d="M368 29q-55 0 -86 36t-31 99q0 48 17.5 91.5t47 77t68 53t80.5 19.5q83 0 133 -87l-45 -37q-16 41 -40.5 61.5t-57.5 20.5q-39 0 -70.5 -25.5t-49.5 -67.5t-18 -93q0 -43 19.5 -70t60.5 -27q22 0 46.5 9t48 30.5t41.5 58.5l14 -4q-14 -50 -42 -82t-63 -47.5t-73 -15.5z
M466 603q78 0 142.5 -24t111.5 -68t73 -103.5t26 -131.5q0 -54 -15.5 -99t-42.5 -78.5t-63.5 -51.5t-77.5 -18q-29 0 -54.5 16t-37.5 49.5t-3 85.5l24 145l27 81h44l-40 -233q-8 -46 6.5 -69.5t49.5 -23.5q32 0 55.5 18.5t39 47.5t23.5 62.5t8 63.5q0 84 -37.5 146
t-103.5 96.5t-154 34.5q-77 0 -141 -27t-111 -74.5t-72.5 -112t-25.5 -141.5q0 -91 39.5 -162.5t116 -113t185.5 -41.5q49 0 101.5 9.5t100.5 28.5l20 -45q-54 -22 -109 -34.5t-116 -12.5q-90 0 -163 28t-125 78t-80 118t-28 148q0 86 30 160t84.5 130t129 87t163.5 31z" />
    <glyph glyph-name="A" unicode="A" horiz-adv-x="681" 
d="M559 0l-235 617h28l-234 -617h-75l271 658h63l261 -658h-79zM162 226l21 59h296l32 -59h-349z" />
    <glyph glyph-name="B" unicode="B" horiz-adv-x="584" 
d="M292 322l11 42q69 0 121 -22t81 -61.5t29 -94.5t-29 -96.5t-82.5 -65.5t-126.5 -24h-187v658h183q62 0 106 -19t68.5 -54.5t24.5 -84.5q0 -37 -15 -69.5t-42 -57t-63 -38t-79 -13.5zM155 369h144q55 0 89.5 32.5t34.5 85.5q0 51 -33.5 84t-109.5 33h-101v-550h128
q74 0 114 36t40 96q0 61 -43.5 96t-130.5 35h-132v52z" />
    <glyph glyph-name="C" unicode="C" horiz-adv-x="653" 
d="M395 -9q-100 0 -176.5 41.5t-119 116t-42.5 173.5q0 78 26 141.5t73.5 109t111 70t138.5 24.5q55 0 106 -14t96 -41l-35 -65q-43 32 -87 48.5t-96 16.5q-77 0 -134 -35t-88.5 -97.5t-31.5 -145.5q0 -87 35.5 -152t95.5 -101t134 -36q56 0 102 19t83 52l32 -58
q-50 -33 -105 -50t-118 -17z" />
    <glyph glyph-name="D" unicode="D" horiz-adv-x="739" 
d="M109 0v658h204q83 0 151 -22t117 -64t75 -101t26 -132q0 -63 -21 -124t-66 -109.5t-116 -77t-168 -28.5h-202zM183 54h134q78 0 132.5 22t89 60.5t50 87t15.5 103.5q0 76 -32.5 138.5t-99.5 100t-170 37.5h-119v-549z" />
    <glyph glyph-name="E" unicode="E" horiz-adv-x="579" 
d="M524 0h-415v658h384v-59h-312v-540h343v-59zM134 305v57h321v-57h-321z" />
    <glyph glyph-name="F" unicode="F" horiz-adv-x="541" 
d="M109 0v658h386v-59h-312v-599h-74zM134 282v59h323v-59h-323z" />
    <glyph glyph-name="G" unicode="G" horiz-adv-x="721" 
d="M419 -9q-109 0 -190.5 41.5t-126.5 116t-45 172.5q0 75 26.5 138.5t75.5 110t116 72t148 25.5q60 0 117 -16t101 -50l-33 -66q-46 42 -97.5 59.5t-102.5 17.5q-84 0 -144.5 -36t-94 -99t-33.5 -145q0 -85 37.5 -149.5t104 -101t153.5 -36.5q48 0 94.5 11.5t86.5 35.5
l-37 -46v204h-149v55h218v-259q-32 -18 -69.5 -30.5t-77 -18.5t-78.5 -6z" />
    <glyph glyph-name="H" unicode="H" horiz-adv-x="766" 
d="M583 0v658h74v-658h-74zM109 0v658h74v-658h-74zM134 304v60h499v-60h-499z" />
    <glyph glyph-name="I" unicode="I" horiz-adv-x="309" 
d="M116 0v658h77v-658h-77z" />
    <glyph glyph-name="J" unicode="J" horiz-adv-x="317" 
d="M131 47v611h74v-611q0 -58 -13.5 -100t-38.5 -71.5t-60 -49t-77 -30.5l-19 43q43 16 73 41t45.5 65t15.5 102z" />
    <glyph glyph-name="K" unicode="K" horiz-adv-x="615" 
d="M497 0l-328 336l296 322h93l-327 -333l6 36l369 -361h-109zM109 0v658h72v-658h-72z" />
    <glyph glyph-name="L" unicode="L" horiz-adv-x="549" 
d="M109 0v658h74v-658h-74zM134 0v59h391v-59h-391z" />
    <glyph glyph-name="M" unicode="M" horiz-adv-x="915" 
d="M747 0l-28 624l34 12l-275 -580h-45l-265 551l1 51h52l256 -528h-23l250 528h78l39 -658h-74zM94 0l43 658h54l-29 -658h-68z" />
    <glyph glyph-name="N" unicode="N" horiz-adv-x="773" 
d="M109 0v658h57l10 -658h-67zM633 0h-31l-468 609l1 49h49l447 -577zM664 658v-658h-58l-9 658h67z" />
    <glyph glyph-name="O" unicode="O" horiz-adv-x="791" 
d="M390 -9q-96 0 -171.5 43t-118.5 119t-43 173q0 76 26.5 139t74 108t110 69.5t134.5 24.5q96 0 171 -43t118 -118.5t43 -173.5q0 -76 -26.5 -139t-73.5 -108t-109.5 -69.5t-134.5 -24.5zM403 45q75 0 132 35t88.5 97.5t31.5 143.5q0 88 -35 153.5t-95.5 102t-136.5 36.5
q-73 0 -129.5 -35t-88.5 -97t-32 -144q0 -87 35 -153t95.5 -102.5t134.5 -36.5z" />
    <glyph glyph-name="P" unicode="P" horiz-adv-x="583" 
d="M264 233q-16 0 -47.5 2t-61.5 8v55q35 -4 64.5 -6t52.5 -2q62 0 103.5 19.5t62.5 55t21 84.5q0 75 -49.5 114t-131.5 39h-96v-602h-73v658h181q73 0 127.5 -22.5t85.5 -65.5t31 -105q0 -48 -19 -90t-54.5 -74t-85 -50t-111.5 -18z" />
    <glyph glyph-name="Q" unicode="Q" horiz-adv-x="791" 
d="M390 -9q-96 0 -171.5 43t-118.5 119t-43 173q0 76 26.5 139t74 108t110 69.5t134.5 24.5q96 0 171 -43t118 -118.5t43 -173.5q0 -76 -26.5 -139t-73.5 -108t-109.5 -69.5t-134.5 -24.5zM403 45q75 0 132 35t88.5 97.5t31.5 143.5q0 88 -35 153.5t-95.5 102t-136.5 36.5
q-73 0 -129.5 -35t-88.5 -97t-32 -144q0 -87 35 -153t95.5 -102.5t134.5 -36.5zM452 28q30 -41 64 -70t70.5 -45t76.5 -16q13 0 31.5 3t37.5 13l21 -46q-31 -16 -59 -20.5t-46 -4.5q-73 0 -137.5 40.5t-116.5 117.5z" />
    <glyph glyph-name="R" unicode="R" horiz-adv-x="676" 
d="M109 0v658h178q68 0 117.5 -20t76.5 -57t27 -89q0 -42 -19.5 -80t-52.5 -67.5t-75.5 -46.5t-89.5 -17h-134v54h143q41 0 75.5 20t56 53.5t21.5 71.5q0 57 -39 90t-113 33h-100v-603h-72zM611 -9q-40 0 -71.5 12.5t-61 41t-63.5 76.5l-127 180l59 21l138 -175
q32 -40 57 -62.5t47.5 -31.5t45.5 -9q9 0 22 1t26 5l15 -43q-25 -9 -46 -12.5t-41 -3.5z" />
    <glyph glyph-name="S" unicode="S" horiz-adv-x="522" 
d="M397 159q0 36 -17 61t-45.5 43.5t-62.5 34t-68 32.5t-62.5 38t-45.5 50.5t-17 71.5q0 55 26 94.5t72 61t105 21.5q42 0 86 -10.5t78 -31.5l-27 -66q-30 25 -70.5 39t-79.5 14q-41 0 -68.5 -15t-40.5 -38.5t-13 -51.5q0 -31 17.5 -53.5t46 -39.5t62.5 -32.5t68 -33
t62.5 -40.5t46 -55t17.5 -76q0 -59 -28 -101t-76.5 -64t-110.5 -22t-115.5 18.5t-88.5 49.5l37 61q36 -34 84 -53t97 -19q62 0 96.5 30.5t34.5 81.5z" />
    <glyph glyph-name="T" unicode="T" horiz-adv-x="628" 
d="M276 0v658h76v-658h-76zM27 599v59h574v-59h-574z" />
    <glyph glyph-name="U" unicode="U" horiz-adv-x="730" 
d="M362 -9q-80 0 -140.5 33t-94 93t-33.5 142v399h74v-384q0 -69 25 -119t72 -77t110 -27q62 0 106.5 25.5t68.5 72.5t24 108v401h65v-385q0 -85 -34.5 -148.5t-96.5 -98.5t-146 -35z" />
    <glyph glyph-name="V" unicode="V" horiz-adv-x="685" 
d="M304 0l-262 658h84l247 -640h-46l242 640h74l-268 -658h-71z" />
    <glyph glyph-name="W" unicode="W" horiz-adv-x="989" 
d="M674 0l-209 658h72l203 -640h-44l176 640h71l-196 -658h-73zM242 0l-195 658h78l180 -640h-42l197 640h59l-204 -658h-73z" />
    <glyph glyph-name="X" unicode="X" horiz-adv-x="631" 
d="M34 0l241 330l-230 328h91l186 -272l183 272h83l-230 -320l242 -338h-91l-199 282l-192 -282h-84z" />
    <glyph glyph-name="Y" unicode="Y" horiz-adv-x="632" 
d="M293 248l-266 410h91l224 -366zM278 0v293h75v-293h-75zM340 251l-41 41l227 366h79z" />
    <glyph glyph-name="Z" unicode="Z" horiz-adv-x="614" 
d="M57 0l-2 49l453 603l31 -50l-467 -3v59h489l1 -48l-453 -604l-29 50l493 3v-59h-516z" />
    <glyph glyph-name="bracketleft" unicode="[" horiz-adv-x="352" 
d="M99 -222v933h63v-933h-63zM99 -222v50h220v-50h-220zM99 661v50h220v-50h-220z" />
    <glyph glyph-name="backslash" unicode="\" horiz-adv-x="387" 
d="M296 -222l-254 919l54 14l255 -920z" />
    <glyph glyph-name="bracketright" unicode="]" horiz-adv-x="351" 
d="M253 -222h-61v933h61v-933zM253 -222h-221v48h221v-48zM253 663h-221v48h221v-48z" />
    <glyph glyph-name="asciicircum" unicode="^" horiz-adv-x="428" 
d="M83 420l-46 38l177 207l177 -207l-46 -38l-131 162z" />
    <glyph glyph-name="underscore" unicode="_" horiz-adv-x="550" 
d="M44 -124v52h462v-52h-462z" />
    <glyph glyph-name="grave" unicode="`" horiz-adv-x="263" 
d="M167 509l-129 197h77l103 -197h-51z" />
    <glyph glyph-name="a" unicode="a" horiz-adv-x="454" 
d="M371 -6q-38 0 -60 27.5t-21 79.5l4 189q1 31 -6.5 50.5t-21.5 29t-34 9.5q-21 0 -45 -10t-41.5 -31t-21.5 -54l-66 7q5 29 22 53t43 41.5t57 27t63 9.5q60 0 88.5 -33.5t27.5 -90.5l-2 -210q0 -22 7.5 -34t21.5 -12q11 0 22 5t19 15l23 -32q-13 -16 -34 -26t-45 -10z
M150 -6q-45 0 -73 25.5t-28 66.5q0 24 10 45t34.5 37.5t68.5 28.5l166 45l5 -36l-154 -48q-38 -12 -50.5 -28t-12.5 -34q0 -25 17 -37.5t41 -12.5q30 0 66 19.5t80 50.5l11 -24q-43 -41 -88 -69.5t-93 -28.5z" />
    <glyph glyph-name="b" unicode="b" horiz-adv-x="527" 
d="M249 -6q-50 0 -96.5 13.5t-69.5 37.5l67 36q20 -20 52.5 -30.5t66.5 -10.5q47 0 79 21.5t48 58t16 81.5q0 52 -17 89.5t-47 57.5t-71 20q-37 0 -77 -23t-67 -73l-24 32q23 35 52.5 61t64.5 40.5t76 14.5q39 0 72 -13.5t58 -39.5t39 -62.5t14 -83.5q0 -60 -26.5 -112
t-79 -83.5t-130.5 -31.5zM83 45v660l67 12v-636z" />
    <glyph glyph-name="c" unicode="c" horiz-adv-x="437" 
d="M252 -8q-61 0 -108 26.5t-74.5 74t-27.5 108.5q0 64 29 114t79 79t113 29q43 0 77 -14t61 -38l-29 -53q-25 26 -54 40t-63 14q-43 0 -75 -22t-48.5 -59t-16.5 -83q0 -49 20 -86t55.5 -57t79.5 -20q31 0 61 12.5t54 35.5l23 -39q-23 -22 -49 -36t-53 -20t-54 -6z" />
    <glyph glyph-name="d" unicode="d" horiz-adv-x="530" 
d="M234 -6q-57 0 -100.5 26.5t-67 72.5t-23.5 104q0 64 28.5 115t76 80t107.5 29q34 0 63.5 -11t53.5 -32t38 -52l-19 -30q-20 38 -53 56.5t-73 18.5q-44 0 -77.5 -21t-52.5 -58.5t-19 -87.5q0 -46 16.5 -82.5t46.5 -57.5t71 -21q37 0 74.5 19.5t64.5 67.5l28 -17
q-22 -40 -49.5 -66.5t-61 -39.5t-72.5 -13zM396 -6l-11 93v617l67 13v-711z" />
    <glyph glyph-name="e" unicode="e" horiz-adv-x="456" 
d="M247 -9q-59 0 -104 24.5t-70.5 70t-25.5 107.5q0 69 28.5 120.5t77 80t109.5 28.5q74 0 111 -42t37 -115q0 -8 -0.5 -17.5t-1.5 -17.5h-59v35q0 54 -22 81.5t-69 27.5q-44 0 -77 -21.5t-51 -59.5t-18 -91q0 -72 41 -114.5t107 -42.5q34 0 65 12t60 39l25 -37
q-27 -25 -54.5 -40t-54.5 -21.5t-54 -6.5zM85 230l9 43h305v-43h-314z" />
    <glyph glyph-name="f" unicode="f" horiz-adv-x="349" 
d="M114 0v428q0 94 29 156.5t81.5 94.5t120.5 32q31 0 59.5 -8t51.5 -24l-29 -51q-21 15 -47.5 24.5t-55.5 9.5q-46 0 -74 -21t-42.5 -54t-20 -70.5t-5.5 -70.5v-446h-68zM29 358l5 45l313 4l-5 -50z" />
    <glyph glyph-name="g" unicode="g" horiz-adv-x="483" 
d="M211 -289q-50 0 -89.5 15t-62 42.5t-22.5 64.5q0 47 40.5 93.5t123.5 81.5l20 -23q-59 -30 -86.5 -65.5t-27.5 -72.5q0 -43 33.5 -67t87.5 -24q45 0 81.5 17t58 46t21.5 65q0 32 -16.5 47t-50.5 22t-89 13q-44 4 -82 12t-61 25.5t-23 48.5q0 25 11.5 44t33 35.5
t50.5 32.5l26 -24q-25 -14 -43.5 -29.5t-18.5 -36.5q0 -19 15.5 -29.5t47.5 -16t80 -10.5q55 -6 97 -15.5t65.5 -31.5t23.5 -66q0 -55 -33.5 -99t-88.5 -69.5t-122 -25.5zM226 119q-48 0 -85 19t-58 52.5t-21 75.5q0 45 23.5 80.5t63.5 55.5t90 20q73 0 118 -40.5t45 -104.5
q0 -45 -22.5 -81t-62.5 -56.5t-91 -20.5zM236 165q32 0 54.5 13t35.5 36t13 53q0 48 -30.5 78.5t-80.5 30.5q-45 0 -73 -28.5t-28 -74.5q0 -31 13.5 -55.5t38.5 -38.5t57 -14zM310 363l-10 34l164 10v-44h-154z" />
    <glyph glyph-name="h" unicode="h" horiz-adv-x="535" 
d="M386 0v240q0 61 -27 94.5t-77 33.5q-26 0 -54.5 -10.5t-53.5 -32.5t-43 -57l-24 23q23 45 56.5 73.5t72 42t74.5 13.5q64 0 104 -41.5t40 -115.5v-263h-68zM84 0v704l67 13v-717h-67z" />
    <glyph glyph-name="i" unicode="i" horiz-adv-x="260" 
d="M96 0v409l68 11v-420h-68zM130 536q-21 0 -34.5 13t-13.5 34t13.5 34t34.5 13q22 0 35 -13t13 -34t-13 -34t-35 -13z" />
    <glyph glyph-name="j" unicode="j" horiz-adv-x="260" 
d="M96 -11v420l68 11v-431q0 -117 -37 -185.5t-114 -92.5l-16 33q50 25 74.5 84.5t24.5 160.5zM130 536q-21 0 -34.5 13t-13.5 34t13.5 34t34.5 13q22 0 35 -13t13 -34t-13 -34t-35 -13z" />
    <glyph glyph-name="k" unicode="k" horiz-adv-x="451" 
d="M350 0l-192 201h-18v19l199 194h90v-2l-246 -211l8 47l255 -246v-2h-96zM83 0v705l67 12v-717h-67z" />
    <glyph glyph-name="l" unicode="l" horiz-adv-x="244" 
d="M89 0v705l67 11v-716h-67z" />
    <glyph glyph-name="m" unicode="m" horiz-adv-x="795" 
d="M649 0v246q0 58 -23.5 90t-69.5 32q-36 0 -75.5 -24t-64.5 -76l-24 23q22 44 53 72.5t67.5 42.5t71.5 14q60 0 97 -41.5t37 -115.5v-263h-69zM365 0v246q0 58 -24 90t-70 32q-25 0 -51 -10.5t-50.5 -32.5t-41.5 -57l-23 23q22 44 53.5 72.5t68.5 42.5t72 14
q61 0 98 -41.5t37 -115.5v-263h-69zM78 0v408l56 12l12 -97v-323h-68z" />
    <glyph glyph-name="n" unicode="n" horiz-adv-x="530" 
d="M384 0v240q0 61 -27 94.5t-77 33.5q-26 0 -54.5 -10.5t-54 -32.5t-43.5 -57l-23 23q23 45 56.5 73.5t72 42t73.5 13.5q44 0 76.5 -18.5t50.5 -53.5t18 -85v-263h-68zM78 0v408l56 12l12 -99v-321h-68z" />
    <glyph glyph-name="o" unicode="o" horiz-adv-x="519" 
d="M253 -8q-61 0 -108.5 27t-75 74.5t-27.5 108.5q0 64 29.5 114t80.5 78.5t115 28.5q61 0 108.5 -27t75 -74.5t27.5 -108.5q0 -64 -29 -114t-80 -78.5t-116 -28.5zM262 40q45 0 77 22.5t49 60.5t17 83q0 52 -19.5 89.5t-52.5 58t-75 20.5q-44 0 -76.5 -21.5t-49.5 -59
t-17 -83.5q0 -52 19.5 -90t53 -59t74.5 -21z" />
    <glyph glyph-name="p" unicode="p" horiz-adv-x="528" 
d="M272 -6q-51 0 -91.5 23.5t-61.5 70.5l18 28q21 -36 53.5 -54.5t73.5 -18.5q44 0 77.5 21t52.5 58.5t19 87.5q0 45 -16 81t-46 57t-73 21q-36 0 -74 -19t-65 -68l-28 20q34 59 79.5 88t104.5 29q58 0 101 -26t66.5 -71.5t23.5 -104.5q0 -63 -28 -113.5t-76.5 -80
t-109.5 -29.5zM78 -289v697l55 12l12 -92v-606z" />
    <glyph glyph-name="q" unicode="q" horiz-adv-x="523" 
d="M276 420q34 0 67 -3.5t60.5 -10t41.5 -16.5l-68 -39q-18 11 -51 16t-62 5q-51 0 -84.5 -21t-50.5 -58t-17 -84q0 -50 18 -86.5t49.5 -56.5t70.5 -20q44 0 82 25t63 69l24 -26q-22 -34 -51 -61.5t-64 -42.5t-76 -15q-38 0 -72 14t-60.5 40t-41.5 63.5t-15 83.5
q0 60 27 111t79.5 82t130.5 31zM445 390v-668l-68 -11v640z" />
    <glyph glyph-name="r" unicode="r" horiz-adv-x="373" 
d="M78 0v409l56 11l12 -105v-315h-68zM134 260l-17 25q33 63 75 98.5t95 35.5q21 0 40 -5.5t33 -16.5l-29 -57q-11 9 -28.5 14t-35.5 5q-39 0 -71.5 -25.5t-61.5 -73.5z" />
    <glyph glyph-name="s" unicode="s" horiz-adv-x="378" 
d="M182 -9q-30 0 -57.5 5.5t-49.5 15t-38 19.5l20 56q24 -22 59.5 -35.5t68.5 -13.5q41 0 64.5 20.5t23.5 48.5q0 25 -15.5 40.5t-40 25.5t-51.5 19.5t-51.5 23t-40.5 35t-16 55.5q0 39 20 65t52 39t72 13q30 0 61.5 -7.5t54.5 -22.5l-20 -53q-19 19 -48 28.5t-52 9.5
q-37 0 -57.5 -17t-20.5 -42q0 -23 16 -38t40.5 -24.5t52 -19.5t52 -23.5t40.5 -36t16 -57.5q0 -26 -10.5 -49.5t-30.5 -41.5t-49 -28t-65 -10z" />
    <glyph glyph-name="t" unicode="t" horiz-adv-x="380" 
d="M234 -7q-36 0 -65 15t-45 43t-16 69v274l23 108l46 9v-380q0 -43 20 -65t55 -22q22 0 44 8t43 25l20 -33q-28 -26 -60.5 -38.5t-64.5 -12.5zM337 357l-313 1l5 45l311 4z" />
    <glyph glyph-name="u" unicode="u" horiz-adv-x="522" 
d="M219 -5q-62 0 -101.5 41.5t-39.5 114.5v257l68 12v-247q0 -59 26.5 -93t74.5 -34q26 0 53 10.5t51.5 33t40.5 57.5l25 -23q-22 -44 -54.5 -72.5t-69.5 -42.5t-74 -14zM387 -6l-12 102v312l69 12v-414z" />
    <glyph glyph-name="v" unicode="v" horiz-adv-x="452" 
d="M195 0l-169 414h76l149 -393l-35 -1l141 394h70l-171 -414h-61z" />
    <glyph glyph-name="w" unicode="w" horiz-adv-x="727" 
d="M173 0l-147 414h74l119 -369h-20l136 369h62l144 -369l-19 -1l108 370h72l-147 -414h-62l-142 358h17l-134 -358h-61z" />
    <glyph glyph-name="x" unicode="x" horiz-adv-x="446" 
d="M21 0l167 213l-153 201h85l110 -156l111 156h75l-154 -198l163 -216h-85l-120 172l-122 -172h-77z" />
    <glyph glyph-name="y" unicode="y" horiz-adv-x="468" 
d="M229 -31l-203 445h75l159 -366zM374 414h69l-285 -703h-73l148 314z" />
    <glyph glyph-name="z" unicode="z" horiz-adv-x="423" 
d="M35 26l277 362l36 -23l-295 -4l3 46h324l6 -21l-278 -369l-33 26l318 4l-3 -47h-348z" />
    <glyph glyph-name="braceleft" unicode="{" horiz-adv-x="409" 
d="M376 -222q-113 0 -171.5 54t-58.5 158v116q0 58 -28.5 87.5t-84.5 29.5v43q56 0 84.5 29.5t28.5 87.5v116q0 104 58.5 158t171.5 54v-47q-82 0 -123.5 -42.5t-41.5 -122.5v-116q0 -66 -30 -104t-102 -48v27q72 -10 102 -48.5t30 -105.5v-114q0 -80 41.5 -122.5
t123.5 -42.5v-47z" />
    <glyph glyph-name="bar" unicode="|" horiz-adv-x="389" 
d="M166 -222v933h57v-933h-57z" />
    <glyph glyph-name="braceright" unicode="}" horiz-adv-x="409" 
d="M32 -222v43q85 0 127 45t42 130v108q0 67 29.5 104.5t99.5 48.5v-25q-70 10 -99.5 47.5t-29.5 103.5v110q0 85 -42 130t-127 45v43q114 0 172 -55.5t58 -162.5v-110q0 -58 29 -87.5t85 -29.5v-43q-56 0 -85 -29.5t-29 -87.5v-110q0 -107 -58 -162.5t-172 -55.5z" />
    <glyph glyph-name="asciitilde" unicode="~" horiz-adv-x="550" 
d="M376 161q-34 0 -61 13t-50 30t-46 30t-50 13q-29 0 -49.5 -20t-30.5 -60l-45 10q9 38 27 65t44 42t59 15t60 -13t50 -30.5t46.5 -30.5t50.5 -13q29 0 50 20t30 60l45 -9q-8 -39 -26.5 -66t-44.5 -41.5t-59 -14.5z" />
    <glyph glyph-name="uni00A0" unicode="&#xa0;" horiz-adv-x="246" 
 />
    <glyph glyph-name="exclamdown" unicode="&#xa1;" horiz-adv-x="269" 
d="M155 236l14 -431h-81l13 431h54zM128 468q23 0 37.5 -13.5t14.5 -36.5q0 -22 -14.5 -36.5t-37.5 -14.5q-22 0 -36.5 14.5t-14.5 36.5q0 23 14.5 36.5t36.5 13.5z" />
    <glyph glyph-name="cent" unicode="&#xa2;" horiz-adv-x="494" 
d="M297 -6q-73 0 -129 31t-87 84.5t-31 118.5q0 69 32.5 124.5t89 87.5t128.5 32q46 0 86.5 -14t72.5 -40l-43 -47q-24 25 -55.5 38t-66.5 13q-50 0 -90 -23.5t-63 -65.5t-23 -99q0 -55 23 -97t65 -65.5t99 -23.5q38 0 69 11t53 32l34 -45q-32 -25 -73.5 -38.5t-90.5 -13.5z
M257 -100v666h52v-666h-52z" />
    <glyph glyph-name="sterling" unicode="&#xa3;" horiz-adv-x="588" 
d="M128 53l35 388q10 106 67.5 166t150.5 60q45 0 77.5 -13.5t59.5 -35.5l-40 -55q-21 24 -50.5 37.5t-59.5 13.5q-40 0 -68 -21t-44 -59t-22 -93l-36 -388h-70zM83 -19l-47 14q12 32 30.5 55.5t43.5 36t57 12.5q30 0 62.5 -7.5t66 -17t66 -16.5t63.5 -7q35 0 59 16t37 43
l33 -19q-16 -45 -50 -75t-85 -30q-32 0 -64 8.5t-63.5 19.5t-62.5 19.5t-61 8.5q-31 0 -52 -15.5t-33 -45.5zM62 299l5 51l365 6l-6 -57h-364z" />
    <glyph glyph-name="currency.lf" unicode="&#xa4;" horiz-adv-x="560" 
d="M282 160q-51 0 -90.5 22t-62.5 60.5t-23 87.5q0 48 22.5 86t62 60t90.5 22t90.5 -22.5t62 -60.5t22.5 -87t-22.5 -87t-61.5 -59.5t-90 -21.5zM71 96l-36 35l126 119l34 -36zM162 408l-127 120l36 34l124 -117zM282 213q32 0 58 14.5t40.5 41t14.5 59.5t-15 59.5t-41 42
t-58 15.5q-33 0 -59 -15t-41 -41t-15 -59q0 -34 15.5 -60.5t41.5 -41.5t59 -15zM489 96l-125 118l36 35l125 -118zM402 411l-35 36l122 115l36 -34z" />
    <glyph glyph-name="yen" unicode="&#xa5;" horiz-adv-x="632" 
d="M292 273l-265 385h83l229 -355zM282 0v315h70v-315h-70zM90 119v48h452v-48h-452zM90 247v47h452v-47h-452zM339 270l-44 33l224 355h86z" />
    <glyph glyph-name="brokenbar" unicode="&#xa6;" horiz-adv-x="389" 
d="M166 311v400h58v-400h-58zM166 -289v400h58v-400h-58z" />
    <glyph glyph-name="section" unicode="&#xa7;" horiz-adv-x="503" 
d="M351 -78l-20 33q37 39 48 77.5t11 64.5q0 48 -18.5 87.5t-47.5 74.5t-61.5 67t-61.5 64t-47.5 66t-18.5 73q0 40 18.5 68.5t49.5 44.5t69 16q35 0 67.5 -14.5t57.5 -45.5l-29 -47q-23 29 -50 43t-54 14q-30 0 -51 -18.5t-21 -50.5q0 -30 18.5 -59t48.5 -59t62.5 -62
t62.5 -69t49 -80t19 -94t-24 -98.5t-77 -95.5zM231 -195q-35 0 -67.5 14.5t-58.5 44.5l30 48q22 -30 49.5 -44t53.5 -14q31 0 52 19t21 51q0 30 -19 58.5t-49 58.5l-62.5 62.5t-62.5 69.5t-48.5 79.5t-18.5 93.5q0 52 23.5 99.5t76.5 95.5l20 -33q-37 -39 -48 -77.5
t-11 -65.5q0 -48 18.5 -87.5t47.5 -74.5t61.5 -67t62 -63.5t47.5 -65.5t18 -73q0 -40 -18.5 -69t-49 -44.5t-68.5 -15.5z" />
    <glyph glyph-name="dieresis" unicode="&#xa8;" horiz-adv-x="342" 
d="M76 518q-20 0 -33 12t-13 32t13 32.5t33 12.5t32.5 -12.5t12.5 -32.5t-12.5 -32t-32.5 -12zM267 518q-20 0 -33 12t-13 32t13 32.5t33 12.5t32.5 -12.5t12.5 -32.5t-12.5 -32t-32.5 -12z" />
    <glyph glyph-name="copyright" unicode="&#xa9;" horiz-adv-x="772" 
d="M385 -94q-71 0 -133.5 25.5t-109 70.5t-72 104.5t-25.5 126.5q0 68 25.5 128t72 105.5t109 71.5t134.5 26q73 0 135 -26.5t108.5 -72t72 -105.5t25.5 -127q0 -68 -26 -127t-72.5 -104t-109 -70.5t-134.5 -25.5zM386 -46q61 0 113.5 21.5t92 60t61.5 89.5t22 109t-22 109
t-61.5 89.5t-92 60.5t-113.5 22q-62 0 -114.5 -22t-92 -60.5t-61 -89.5t-21.5 -109q0 -59 22 -110t61.5 -89t92 -59.5t113.5 -21.5zM390 57q-50 0 -89.5 22.5t-62 62t-22.5 89.5q0 51 24 91.5t66 64t94 23.5q36 0 65.5 -11.5t53.5 -32.5l-33 -37q-20 19 -43 29.5t-50 10.5
q-36 0 -63 -18t-41 -48t-14 -66q0 -41 16.5 -72t45 -48t63.5 -17q56 0 97 39l27 -27q-29 -30 -64 -42.5t-70 -12.5z" />
    <glyph glyph-name="ordfeminine" unicode="&#xaa;" horiz-adv-x="406" 
d="M323 303q-34 0 -52.5 22.5t-17.5 67.5l3 161q1 36 -13 52t-41 16q-17 0 -37.5 -9t-35.5 -27t-19 -45l-55 6q4 34 28 60.5t59 42t73 15.5q46 0 69 -27.5t23 -76.5l-2 -178q-2 -39 27 -39q9 0 19.5 5.5t17.5 15.5l25 -24q-10 -17 -29 -27.5t-42 -10.5zM131 303
q-37 0 -60.5 21.5t-23.5 55.5q0 19 9 36t29.5 31t57.5 24l141 43l4 -35l-130 -42q-32 -12 -43 -24t-11 -27q0 -18 13 -29t34 -11q26 0 59 18t75 46l1 -30q-40 -36 -77 -56.5t-78 -20.5z" />
    <glyph glyph-name="guillemotleft" unicode="&#xab;" horiz-adv-x="533" 
d="M235 33l-194 178l194 178l37 -29l-143 -154v10l143 -153zM443 33l-194 178l194 178l37 -29l-143 -154v10l143 -153z" />
    <glyph glyph-name="logicalnot" unicode="&#xac;" horiz-adv-x="550" 
d="M44 274v52h462v-52h-462zM506 85h-52v216h52v-216z" />
    <glyph glyph-name="registered" unicode="&#xae;" horiz-adv-x="562" 
d="M280 226q-68 0 -123.5 32t-87.5 87t-32 123q0 69 32 124t87.5 87t123.5 32q70 0 125 -32t87.5 -87t32.5 -124t-32.5 -123.5t-88 -86.5t-124.5 -32zM281 263q58 0 105 27.5t73.5 74t26.5 103.5q0 58 -27 104.5t-73.5 74t-104.5 27.5q-57 0 -104 -27.5t-74.5 -74
t-27.5 -104.5q0 -57 27.5 -103.5t74 -74t104.5 -27.5zM193 337v263h85q44 0 68.5 -18.5t24.5 -52.5q0 -35 -28.5 -58.5t-75.5 -23.5h-72v28h72q31 0 50 15.5t19 38.5q0 21 -15.5 32t-42.5 11h-50v-235h-35zM353 337l-82 125l32 2l92 -127h-42z" />
    <glyph glyph-name="macron" unicode="&#xaf;" horiz-adv-x="363" 
d="M49 519v50h265v-50h-265z" />
    <glyph glyph-name="degree" unicode="&#xb0;" horiz-adv-x="349" 
d="M176 388q-41 0 -73.5 18t-51 49.5t-18.5 70.5q0 40 18.5 70.5t50.5 48.5t73 18t73.5 -18.5t50.5 -49.5t18 -71q0 -39 -18 -70t-50 -48.5t-73 -17.5zM176 435q38 0 62 25t24 64q0 40 -24.5 65.5t-62.5 25.5q-37 0 -62 -25t-25 -64t24.5 -65t63.5 -26z" />
    <glyph glyph-name="plusminus" unicode="&#xb1;" horiz-adv-x="550" 
d="M44 0v52h462v-52h-462zM44 303v52h462v-52h-462zM301 99h-52v459h52v-459z" />
    <glyph glyph-name="uni00B2" unicode="&#xb2;" horiz-adv-x="333" 
d="M37 444q54 44 98.5 79t71 68t26.5 66q0 28 -18.5 44t-44.5 16q-32 0 -54.5 -21t-22.5 -55h-50q0 38 17 65t46.5 41.5t65.5 14.5q52 0 82.5 -29t30.5 -74q0 -41 -26 -76.5t-71 -73t-105 -83.5l18 26h201v-46h-253z" />
    <glyph glyph-name="uni00B3" unicode="&#xb3;" horiz-adv-x="312" 
d="M138 573v21q43 0 75.5 -11t51.5 -31t19 -50q0 -26 -16 -49.5t-45 -38.5t-70 -15q-45 0 -79.5 19.5t-50.5 51.5l37 24q14 -24 38.5 -37t54.5 -13q33 0 57.5 15.5t24.5 43.5q0 29 -30.5 44t-96.5 15v39q56 0 84.5 17t28.5 46q0 27 -21 40t-49 13q-33 0 -55.5 -16.5
t-30.5 -39.5l-39 19q14 36 47 59t85 23q56 0 84 -26t28 -63q0 -30 -18.5 -52.5t-48 -34.5t-65.5 -13z" />
    <glyph glyph-name="acute" unicode="&#xb4;" horiz-adv-x="268" 
d="M50 509l102 197h78l-129 -197h-51z" />
    <glyph glyph-name="uni00B5" unicode="&#xb5;" horiz-adv-x="543" 
d="M92 -289q-11 175 -12.5 349t-1.5 349l68 11v-246q0 -60 27.5 -94t77.5 -34q25 0 52.5 10t51.5 31.5t37 56.5l19 -16q-18 -44 -45.5 -74t-60 -44.5t-66.5 -14.5q-35 0 -65.5 16.5t-46.5 52.5l11 10q0 -85 6.5 -174.5t18.5 -177.5zM443 -5q-24 0 -40 10t-24.5 29t-8.5 46
v329l68 11v-329q0 -23 8 -35t25 -12q11 0 23 7t21 20l15 -28q-12 -22 -35 -35t-52 -13z" />
    <glyph glyph-name="paragraph" unicode="&#xb6;" horiz-adv-x="652" 
d="M306 -213l-18 44q53 17 88 44t51.5 72t16.5 115v86h-107q-86 0 -150 32.5t-99.5 92t-35.5 138.5q0 75 39 130.5t109 86t163 30.5h263v-59h-108v-537q0 -64 -14 -110.5t-41.5 -78.5t-67 -52.5t-89.5 -33.5z" />
    <glyph glyph-name="periodcentered" unicode="&#xb7;" horiz-adv-x="255" 
d="M128 165q-23 0 -37.5 14t-14.5 36q0 23 14.5 37t37.5 14t36.5 -14t13.5 -37q0 -22 -13.5 -36t-36.5 -14z" />
    <glyph glyph-name="cedilla" unicode="&#xb8;" horiz-adv-x="249" 
d="M92 0h50l-31 -85l-36 10q10 4 23.5 6t27.5 2q49 0 79 -24t30 -62q0 -41 -35.5 -65.5t-86.5 -24.5q-29 0 -51 8t-42 25l15 29q14 -10 32.5 -16.5t37.5 -6.5q31 0 48 16t17 36q0 21 -19.5 36t-55.5 15q-7 0 -19 -1t-23 -3z" />
    <glyph glyph-name="uni00B9" unicode="&#xb9;" horiz-adv-x="295" 
d="M167 406v307l36 6l-148 -100l-27 42l156 95h35v-350h-52z" />
    <glyph glyph-name="ordmasculine" unicode="&#xba;" horiz-adv-x="430" 
d="M210 302q-50 0 -89.5 23t-62 63t-22.5 91q0 54 24 95.5t66 65.5t95 24q50 0 89.5 -23t61.5 -62t22 -90q0 -54 -24 -96t-65.5 -66.5t-94.5 -24.5zM218 345q36 0 61.5 19t39.5 50.5t14 68.5q0 42 -15.5 73t-42.5 48.5t-61 17.5q-36 0 -62 -18.5t-40.5 -49t-14.5 -68.5
q0 -43 16 -74.5t43.5 -49t61.5 -17.5z" />
    <glyph glyph-name="guillemotright" unicode="&#xbb;" horiz-adv-x="533" 
d="M296 391l195 -180l-195 -180l-36 23l152 162v-10l-152 161zM88 391l195 -180l-195 -180l-36 23l152 162v-10l-152 161z" />
    <glyph glyph-name="onequarter" unicode="&#xbc;" horiz-adv-x="751" 
d="M167 309v307l36 6l-148 -100l-27 42l156 95h35v-350h-52zM242 -7l-41 18l302 655l39 -20zM449 115l169 234h57v-349h-44v332h23l-157 -220l-24 14h259v-41h-269z" />
    <glyph glyph-name="onehalf" unicode="&#xbd;" horiz-adv-x="766" 
d="M167 309v307l36 6l-148 -100l-27 42l156 95h35v-350h-52zM242 -7l-41 18l302 655l39 -20zM469 38q54 44 98.5 79t71 68t26.5 66q0 28 -18.5 44t-44.5 16q-32 0 -54.5 -21t-22.5 -55h-50q0 38 17 65t46.5 41.5t65.5 14.5q52 0 82.5 -29t30.5 -74q0 -41 -26 -76.5t-71 -73
t-105 -83.5l18 26h201v-46h-253z" />
    <glyph glyph-name="threequarters" unicode="&#xbe;" horiz-adv-x="768" 
d="M138 476v21q43 0 75.5 -11t51.5 -31t19 -50q0 -26 -16 -49.5t-45 -38.5t-70 -15q-45 0 -79.5 19.5t-50.5 51.5l37 24q14 -24 38.5 -37t54.5 -13q33 0 57.5 15.5t24.5 43.5q0 29 -30.5 44t-96.5 15v39q56 0 84.5 17t28.5 46q0 27 -21 40t-49 13q-33 0 -55.5 -16.5
t-30.5 -39.5l-39 19q14 36 47 59t85 23q56 0 84 -26t28 -63q0 -30 -18.5 -52.5t-48 -34.5t-65.5 -13zM259 -7l-41 18l302 655l39 -20zM466 115l169 234h57v-349h-44v332h23l-157 -220l-24 14h259v-41h-269z" />
    <glyph glyph-name="questiondown" unicode="&#xbf;" horiz-adv-x="365" 
d="M223 241q7 -21 11.5 -49.5t4.5 -47.5q0 -33 -14 -53.5t-35.5 -34t-43 -25.5t-36 -28.5t-14.5 -43.5q0 -26 19 -46.5t58.5 -32.5t99.5 -9v-69q-73 0 -126.5 20t-83 56.5t-29.5 84.5q0 40 15 64t37.5 39.5t44.5 28.5t37 29.5t15 44.5q0 12 -2 29.5t-7 34.5zM184 468
q23 0 37 -13.5t14 -36.5q0 -22 -14 -36.5t-37 -14.5t-37 14.5t-14 36.5q0 23 14 36.5t37 13.5z" />
    <glyph glyph-name="Agrave" unicode="&#xc0;" horiz-adv-x="681" 
d="M559 0l-235 617h28l-234 -617h-75l271 658h63l261 -658h-79zM162 226l21 59h296l32 -59h-349zM329 735l-108 172h82l81 -172h-55z" />
    <glyph glyph-name="Aacute" unicode="&#xc1;" horiz-adv-x="681" 
d="M559 0l-235 617h28l-234 -617h-75l271 658h63l261 -658h-79zM162 226l21 59h296l32 -59h-349zM303 735l81 172h82l-108 -172h-55z" />
    <glyph glyph-name="Acircumflex" unicode="&#xc2;" horiz-adv-x="681" 
d="M559 0l-235 617h28l-234 -617h-75l271 658h63l261 -658h-79zM162 226l21 59h296l32 -59h-349zM442 735l-111 129l-13 43h49l130 -172h-55zM189 735l129 172h49l-12 -42l-112 -130h-54z" />
    <glyph glyph-name="Atilde" unicode="&#xc3;" horiz-adv-x="681" 
d="M559 0l-235 617h28l-234 -617h-75l271 658h63l261 -658h-79zM162 226l21 59h296l32 -59h-349zM213 721l-37 10q9 27 25 48t37 32.5t43 11.5q18 0 40.5 -4t45.5 -9t43 -5q23 0 41 14t27 39l38 -9q-14 -45 -43 -71.5t-64 -26.5q-21 0 -43.5 4.5t-44 9t-40.5 4.5
q-22 0 -40 -12t-28 -36z" />
    <glyph glyph-name="Adieresis" unicode="&#xc4;" horiz-adv-x="681" 
d="M559 0l-235 617h28l-234 -617h-75l271 658h63l261 -658h-79zM162 226l21 59h296l32 -59h-349zM247 740q-20 0 -32.5 12.5t-12.5 31.5q0 20 12.5 32.5t32.5 12.5t33 -12.5t13 -32.5q0 -19 -13 -31.5t-33 -12.5zM439 740q-20 0 -33 12.5t-13 31.5q0 20 13 32.5t33 12.5
t32.5 -12.5t12.5 -32.5q0 -19 -12.5 -31.5t-32.5 -12.5z" />
    <glyph glyph-name="Aring" unicode="&#xc5;" horiz-adv-x="681" 
d="M559 0l-235 617h28l-234 -617h-75l271 658h63l261 -658h-79zM162 226l21 59h296l32 -59h-349zM343 693q-46 0 -77 26.5t-31 65.5t31 64t79 25q46 0 76 -25.5t30 -65.5q0 -39 -30.5 -64.5t-77.5 -25.5zM344 732q21 0 34.5 14t13.5 37t-13.5 37.5t-35.5 14.5
q-21 0 -34.5 -13.5t-13.5 -36.5t14 -38t35 -15z" />
    <glyph glyph-name="AE" unicode="&#xc6;" horiz-adv-x="868" 
d="M-2 0l398 658h62l-375 -658h-85zM182 222l32 59h253v-59h-285zM467 304v58h286v-58h-286zM432 0v658h359v-59h-292v-540h322v-59h-389z" />
    <glyph glyph-name="Ccedilla" unicode="&#xc7;" horiz-adv-x="653" 
d="M395 -9q-100 0 -176.5 41.5t-119 116t-42.5 173.5q0 78 26 141.5t73.5 109t111 70t138.5 24.5q55 0 106 -14t96 -41l-35 -65q-43 32 -87 48.5t-96 16.5q-77 0 -134 -35t-88.5 -97.5t-31.5 -145.5q0 -87 35.5 -152t95.5 -101t134 -36q56 0 102 19t83 52l32 -58
q-50 -33 -105 -50t-118 -17zM362 0h50l-34 -93l-36 11q9 5 22 7.5t28 2.5q49 0 82.5 -26.5t33.5 -71.5q0 -44 -36 -71t-94 -27q-30 0 -54.5 8t-44.5 24l19 41q15 -12 35.5 -19t41.5 -7q33 0 49.5 16t16.5 36q0 23 -21.5 38.5t-58.5 15.5q-8 0 -19 -1.5t-22 -3.5z" />
    <glyph glyph-name="Egrave" unicode="&#xc8;" horiz-adv-x="579" 
d="M524 0h-415v658h384v-59h-312v-540h343v-59zM134 305v57h321v-57h-321zM300 735l-108 172h82l81 -172h-55z" />
    <glyph glyph-name="Eacute" unicode="&#xc9;" horiz-adv-x="579" 
d="M524 0h-415v658h384v-59h-312v-540h343v-59zM134 305v57h321v-57h-321zM275 735l81 172h82l-108 -172h-55z" />
    <glyph glyph-name="Ecircumflex" unicode="&#xca;" horiz-adv-x="579" 
d="M524 0h-415v658h384v-59h-312v-540h343v-59zM134 305v57h321v-57h-321zM414 735l-111 129l-13 43h49l130 -172h-55zM161 735l129 172h49l-12 -42l-112 -130h-54z" />
    <glyph glyph-name="Edieresis" unicode="&#xcb;" horiz-adv-x="579" 
d="M524 0h-415v658h384v-59h-312v-540h343v-59zM134 305v57h321v-57h-321zM218 740q-20 0 -32.5 12.5t-12.5 31.5q0 20 12.5 32.5t32.5 12.5t33 -12.5t13 -32.5q0 -19 -13 -31.5t-33 -12.5zM410 740q-20 0 -33 12.5t-13 31.5q0 20 13 32.5t33 12.5t32.5 -12.5t12.5 -32.5
q0 -19 -12.5 -31.5t-32.5 -12.5z" />
    <glyph glyph-name="Igrave" unicode="&#xcc;" horiz-adv-x="309" 
d="M116 0v658h77v-658h-77zM117 735l-108 172h82l81 -172h-55z" />
    <glyph glyph-name="Iacute" unicode="&#xcd;" horiz-adv-x="309" 
d="M116 0v658h77v-658h-77zM111 735l81 172h82l-108 -172h-55z" />
    <glyph glyph-name="Icircumflex" unicode="&#xce;" horiz-adv-x="309" 
d="M116 0v658h77v-658h-77zM250 735l-111 129l-13 43h49l130 -172h-55zM-3 735l129 172h49l-12 -42l-112 -130h-54z" />
    <glyph glyph-name="Idieresis" unicode="&#xcf;" horiz-adv-x="309" 
d="M116 0v658h77v-658h-77zM55 740q-20 0 -32.5 12.5t-12.5 31.5q0 20 12.5 32.5t32.5 12.5t33 -12.5t13 -32.5q0 -19 -13 -31.5t-33 -12.5zM247 740q-20 0 -33 12.5t-13 31.5q0 20 13 32.5t33 12.5t32.5 -12.5t12.5 -32.5q0 -19 -12.5 -31.5t-32.5 -12.5z" />
    <glyph glyph-name="Eth" unicode="&#xd0;" horiz-adv-x="744" 
d="M115 0v658h203q110 0 193.5 -38.5t130 -110t46.5 -170.5q0 -65 -22 -125.5t-67.5 -108.5t-115.5 -76.5t-167 -28.5h-201zM26 301v55h360v-55h-360zM188 54h134q78 0 133 22t89 60.5t50 87.5t16 103q0 78 -33 140t-100.5 99t-169.5 37h-119v-549z" />
    <glyph glyph-name="Ntilde" unicode="&#xd1;" horiz-adv-x="769" 
d="M109 0v658h57l10 -658h-67zM633 0h-31l-468 609l1 49h49l447 -577zM664 658v-658h-58l-9 658h67zM254 721l-37 10q9 27 25 48t37 32.5t43 11.5q18 0 40.5 -4t45.5 -9t43 -5q23 0 41 14t27 39l38 -9q-14 -45 -43 -71.5t-64 -26.5q-21 0 -43.5 4.5t-44 9t-40.5 4.5
q-22 0 -40 -12t-28 -36z" />
    <glyph glyph-name="Ograve" unicode="&#xd2;" horiz-adv-x="791" 
d="M390 -9q-96 0 -171.5 43t-118.5 119t-43 173q0 76 26.5 139t74 108t110 69.5t134.5 24.5q96 0 171 -43t118 -118.5t43 -173.5q0 -76 -26.5 -139t-73.5 -108t-109.5 -69.5t-134.5 -24.5zM403 45q75 0 132 35t88.5 97.5t31.5 143.5q0 88 -35 153.5t-95.5 102t-136.5 36.5
q-73 0 -129.5 -35t-88.5 -97t-32 -144q0 -87 35 -153t95.5 -102.5t134.5 -36.5zM384 735l-108 172h82l81 -172h-55z" />
    <glyph glyph-name="Oacute" unicode="&#xd3;" horiz-adv-x="791" 
d="M390 -9q-96 0 -171.5 43t-118.5 119t-43 173q0 76 26.5 139t74 108t110 69.5t134.5 24.5q96 0 171 -43t118 -118.5t43 -173.5q0 -76 -26.5 -139t-73.5 -108t-109.5 -69.5t-134.5 -24.5zM403 45q75 0 132 35t88.5 97.5t31.5 143.5q0 88 -35 153.5t-95.5 102t-136.5 36.5
q-73 0 -129.5 -35t-88.5 -97t-32 -144q0 -87 35 -153t95.5 -102.5t134.5 -36.5zM359 735l81 172h82l-108 -172h-55z" />
    <glyph glyph-name="Ocircumflex" unicode="&#xd4;" horiz-adv-x="791" 
d="M390 -9q-96 0 -171.5 43t-118.5 119t-43 173q0 76 26.5 139t74 108t110 69.5t134.5 24.5q96 0 171 -43t118 -118.5t43 -173.5q0 -76 -26.5 -139t-73.5 -108t-109.5 -69.5t-134.5 -24.5zM403 45q75 0 132 35t88.5 97.5t31.5 143.5q0 88 -35 153.5t-95.5 102t-136.5 36.5
q-73 0 -129.5 -35t-88.5 -97t-32 -144q0 -87 35 -153t95.5 -102.5t134.5 -36.5zM498 735l-111 129l-13 43h49l130 -172h-55zM245 735l129 172h49l-12 -42l-112 -130h-54z" />
    <glyph glyph-name="Otilde" unicode="&#xd5;" horiz-adv-x="791" 
d="M390 -9q-96 0 -171.5 43t-118.5 119t-43 173q0 76 26.5 139t74 108t110 69.5t134.5 24.5q96 0 171 -43t118 -118.5t43 -173.5q0 -76 -26.5 -139t-73.5 -108t-109.5 -69.5t-134.5 -24.5zM403 45q75 0 132 35t88.5 97.5t31.5 143.5q0 88 -35 153.5t-95.5 102t-136.5 36.5
q-73 0 -129.5 -35t-88.5 -97t-32 -144q0 -87 35 -153t95.5 -102.5t134.5 -36.5zM269 721l-37 10q9 27 25 48t37 32.5t43 11.5q18 0 40.5 -4t45.5 -9t43 -5q23 0 41 14t27 39l38 -9q-14 -45 -43 -71.5t-64 -26.5q-21 0 -43.5 4.5t-44 9t-40.5 4.5q-22 0 -40 -12t-28 -36z" />
    <glyph glyph-name="Odieresis" unicode="&#xd6;" horiz-adv-x="791" 
d="M390 -9q-96 0 -171.5 43t-118.5 119t-43 173q0 76 26.5 139t74 108t110 69.5t134.5 24.5q96 0 171 -43t118 -118.5t43 -173.5q0 -76 -26.5 -139t-73.5 -108t-109.5 -69.5t-134.5 -24.5zM403 45q75 0 132 35t88.5 97.5t31.5 143.5q0 88 -35 153.5t-95.5 102t-136.5 36.5
q-73 0 -129.5 -35t-88.5 -97t-32 -144q0 -87 35 -153t95.5 -102.5t134.5 -36.5zM302 740q-20 0 -32.5 12.5t-12.5 31.5q0 20 12.5 32.5t32.5 12.5t33 -12.5t13 -32.5q0 -19 -13 -31.5t-33 -12.5zM494 740q-20 0 -33 12.5t-13 31.5q0 20 13 32.5t33 12.5t32.5 -12.5
t12.5 -32.5q0 -19 -12.5 -31.5t-32.5 -12.5z" />
    <glyph glyph-name="multiply" unicode="&#xd7;" horiz-adv-x="510" 
d="M400 48l-326 327l36 36l326 -326zM111 49l-37 36l325 325l36 -36z" />
    <glyph glyph-name="Oslash" unicode="&#xd8;" horiz-adv-x="790" 
d="M389 -9q-72 0 -133 25.5t-106 70.5t-69 106t-24 132q0 74 26 136.5t73.5 108.5t109.5 71.5t134 25.5q73 0 134 -25t105.5 -71t69.5 -107t25 -132q0 -73 -26.5 -135.5t-74 -108.5t-110 -71.5t-134.5 -25.5zM401 44q75 0 133 35t91 97t33 143q0 86 -34.5 152.5t-94.5 104
t-140 37.5q-76 0 -134 -35t-90.5 -97t-32.5 -143q0 -86 34.5 -152t95 -104t139.5 -38zM115 -48l-42 36l595 708l43 -38z" />
    <glyph glyph-name="Ugrave" unicode="&#xd9;" horiz-adv-x="735" 
d="M362 -9q-80 0 -140.5 33t-94 93t-33.5 142v399h74v-384q0 -69 25 -119t72 -77t110 -27q62 0 106.5 25.5t68.5 72.5t24 108v401h65v-385q0 -85 -34.5 -148.5t-96.5 -98.5t-146 -35zM359 735l-108 172h82l81 -172h-55z" />
    <glyph glyph-name="Uacute" unicode="&#xda;" horiz-adv-x="730" 
d="M362 -9q-80 0 -140.5 33t-94 93t-33.5 142v399h74v-384q0 -69 25 -119t72 -77t110 -27q62 0 106.5 25.5t68.5 72.5t24 108v401h65v-385q0 -85 -34.5 -148.5t-96.5 -98.5t-146 -35zM333 735l81 172h82l-108 -172h-55z" />
    <glyph glyph-name="Ucircumflex" unicode="&#xdb;" horiz-adv-x="730" 
d="M362 -9q-80 0 -140.5 33t-94 93t-33.5 142v399h74v-384q0 -69 25 -119t72 -77t110 -27q62 0 106.5 25.5t68.5 72.5t24 108v401h65v-385q0 -85 -34.5 -148.5t-96.5 -98.5t-146 -35zM472 735l-111 129l-13 43h49l130 -172h-55zM219 735l129 172h49l-12 -42l-112 -130h-54z
" />
    <glyph glyph-name="Udieresis" unicode="&#xdc;" horiz-adv-x="730" 
d="M362 -9q-80 0 -140.5 33t-94 93t-33.5 142v399h74v-384q0 -69 25 -119t72 -77t110 -27q62 0 106.5 25.5t68.5 72.5t24 108v401h65v-385q0 -85 -34.5 -148.5t-96.5 -98.5t-146 -35zM277 740q-20 0 -32.5 12.5t-12.5 31.5q0 20 12.5 32.5t32.5 12.5t33 -12.5t13 -32.5
q0 -19 -13 -31.5t-33 -12.5zM469 740q-20 0 -33 12.5t-13 31.5q0 20 13 32.5t33 12.5t32.5 -12.5t12.5 -32.5q0 -19 -12.5 -31.5t-32.5 -12.5z" />
    <glyph glyph-name="Yacute" unicode="&#xdd;" horiz-adv-x="632" 
d="M293 248l-266 410h91l224 -366zM278 0v293h75v-293h-75zM340 251l-41 41l227 366h79zM276 735l81 172h82l-108 -172h-55z" />
    <glyph glyph-name="Thorn" unicode="&#xde;" horiz-adv-x="609" 
d="M109 0v658h73v-115h150q71 0 123.5 -23.5t82 -67t29.5 -103.5q0 -62 -34 -114t-93 -82t-134 -30h-151v58h162q53 0 93.5 20.5t63 55.5t22.5 79q0 69 -48 109t-127 40h-139v-485h-73z" />
    <glyph glyph-name="germandbls" unicode="&#xdf;" horiz-adv-x="540" 
d="M353 -8q-22 0 -53.5 6t-62.5 27l27 54q17 -14 40 -25t50 -11q41 0 60.5 26t19.5 61q0 32 -14.5 55.5t-36 43t-42.5 38t-35.5 39t-14.5 47.5t14 49t32 43.5t32 48t14 60.5q0 46 -27.5 76t-74.5 30q-66 0 -99.5 -51.5t-33.5 -150.5v-458h-69v459q0 74 26.5 131t75 89
t115.5 32q48 0 83 -18.5t53.5 -50.5t18.5 -74q0 -37 -14 -64.5t-32 -49.5t-32 -42t-14 -44q0 -22 14 -40t35 -35.5t42 -38.5t35 -48.5t14 -65.5q0 -28 -8.5 -54.5t-26.5 -47.5t-45.5 -33.5t-65.5 -12.5z" />
    <glyph glyph-name="agrave" unicode="&#xe0;" horiz-adv-x="449" 
d="M371 -6q-38 0 -60 27.5t-21 79.5l4 189q1 31 -6.5 50.5t-21.5 29t-34 9.5q-21 0 -45 -10t-41.5 -31t-21.5 -54l-66 7q5 29 22 53t43 41.5t57 27t63 9.5q60 0 88.5 -33.5t27.5 -90.5l-2 -210q0 -22 7.5 -34t21.5 -12q11 0 22 5t19 15l23 -32q-13 -16 -34 -26t-45 -10z
M150 -6q-45 0 -73 25.5t-28 66.5q0 24 10 45t34.5 37.5t68.5 28.5l166 45l5 -36l-154 -48q-38 -12 -50.5 -28t-12.5 -34q0 -25 17 -37.5t41 -12.5q30 0 66 19.5t80 50.5l11 -24q-43 -41 -88 -69.5t-93 -28.5zM222 509l-129 197h77l103 -197h-51z" />
    <glyph glyph-name="aacute" unicode="&#xe1;" horiz-adv-x="454" 
d="M371 -6q-38 0 -60 27.5t-21 79.5l4 189q1 31 -6.5 50.5t-21.5 29t-34 9.5q-21 0 -45 -10t-41.5 -31t-21.5 -54l-66 7q5 29 22 53t43 41.5t57 27t63 9.5q60 0 88.5 -33.5t27.5 -90.5l-2 -210q0 -22 7.5 -34t21.5 -12q11 0 22 5t19 15l23 -32q-13 -16 -34 -26t-45 -10z
M150 -6q-45 0 -73 25.5t-28 66.5q0 24 10 45t34.5 37.5t68.5 28.5l166 45l5 -36l-154 -48q-38 -12 -50.5 -28t-12.5 -34q0 -25 17 -37.5t41 -12.5q30 0 66 19.5t80 50.5l11 -24q-43 -41 -88 -69.5t-93 -28.5zM175 509l102 197h78l-129 -197h-51z" />
    <glyph glyph-name="acircumflex" unicode="&#xe2;" horiz-adv-x="454" 
d="M371 -6q-38 0 -60 27.5t-21 79.5l4 189q1 31 -6.5 50.5t-21.5 29t-34 9.5q-21 0 -45 -10t-41.5 -31t-21.5 -54l-66 7q5 29 22 53t43 41.5t57 27t63 9.5q60 0 88.5 -33.5t27.5 -90.5l-2 -210q0 -22 7.5 -34t21.5 -12q11 0 22 5t19 15l23 -32q-13 -16 -34 -26t-45 -10z
M150 -6q-45 0 -73 25.5t-28 66.5q0 24 10 45t34.5 37.5t68.5 28.5l166 45l5 -36l-154 -48q-38 -12 -50.5 -28t-12.5 -34q0 -25 17 -37.5t41 -12.5q30 0 66 19.5t80 50.5l11 -24q-43 -41 -88 -69.5t-93 -28.5zM302 509l-95 157l-13 40h49l110 -197h-51zM85 509l109 197h49
l-12 -39l-95 -158h-51z" />
    <glyph glyph-name="atilde" unicode="&#xe3;" horiz-adv-x="454" 
d="M371 -6q-38 0 -60 27.5t-21 79.5l4 189q1 31 -6.5 50.5t-21.5 29t-34 9.5q-21 0 -45 -10t-41.5 -31t-21.5 -54l-66 7q5 29 22 53t43 41.5t57 27t63 9.5q60 0 88.5 -33.5t27.5 -90.5l-2 -210q0 -22 7.5 -34t21.5 -12q11 0 22 5t19 15l23 -32q-13 -16 -34 -26t-45 -10z
M150 -6q-45 0 -73 25.5t-28 66.5q0 24 10 45t34.5 37.5t68.5 28.5l166 45l5 -36l-154 -48q-38 -12 -50.5 -28t-12.5 -34q0 -25 17 -37.5t41 -12.5q30 0 66 19.5t80 50.5l11 -24q-43 -41 -88 -69.5t-93 -28.5zM107 485l-37 10q12 41 40 66.5t59 25.5q16 0 34 -4t36 -8.5
t35 -4.5q21 0 37 14t25 39l37 -10q-11 -43 -38.5 -70.5t-60.5 -27.5q-19 0 -36.5 4.5t-34.5 9t-34 4.5q-21 0 -37 -12.5t-25 -35.5z" />
    <glyph glyph-name="adieresis" unicode="&#xe4;" horiz-adv-x="449" 
d="M371 -6q-38 0 -60 27.5t-21 79.5l4 189q1 31 -6.5 50.5t-21.5 29t-34 9.5q-21 0 -45 -10t-41.5 -31t-21.5 -54l-66 7q5 29 22 53t43 41.5t57 27t63 9.5q60 0 88.5 -33.5t27.5 -90.5l-2 -210q0 -22 7.5 -34t21.5 -12q11 0 22 5t19 15l23 -32q-13 -16 -34 -26t-45 -10z
M150 -6q-45 0 -73 25.5t-28 66.5q0 24 10 45t34.5 37.5t68.5 28.5l166 45l5 -36l-154 -48q-38 -12 -50.5 -28t-12.5 -34q0 -25 17 -37.5t41 -12.5q30 0 66 19.5t80 50.5l11 -24q-43 -41 -88 -69.5t-93 -28.5zM121 518q-20 0 -33 12t-13 32t13 32.5t33 12.5t32.5 -12.5
t12.5 -32.5t-12.5 -32t-32.5 -12zM312 518q-20 0 -33 12t-13 32t13 32.5t33 12.5t32.5 -12.5t12.5 -32.5t-12.5 -32t-32.5 -12z" />
    <glyph glyph-name="aring" unicode="&#xe5;" horiz-adv-x="449" 
d="M371 -6q-38 0 -60 27.5t-21 79.5l4 189q1 31 -6.5 50.5t-21.5 29t-34 9.5q-21 0 -45 -10t-41.5 -31t-21.5 -54l-66 7q5 29 22 53t43 41.5t57 27t63 9.5q60 0 88.5 -33.5t27.5 -90.5l-2 -210q0 -22 7.5 -34t21.5 -12q11 0 22 5t19 15l23 -32q-13 -16 -34 -26t-45 -10z
M150 -6q-45 0 -73 25.5t-28 66.5q0 24 10 45t34.5 37.5t68.5 28.5l166 45l5 -36l-154 -48q-38 -12 -50.5 -28t-12.5 -34q0 -25 17 -37.5t41 -12.5q30 0 66 19.5t80 50.5l11 -24q-43 -41 -88 -69.5t-93 -28.5zM217 487q-29 0 -52.5 12.5t-36.5 34t-13 48.5t13.5 48t37 33
t52.5 12q30 0 53 -12.5t36 -34t13 -48.5q0 -26 -13.5 -47.5t-37 -33.5t-52.5 -12zM218 524q21 0 35 16t14 40q0 26 -14 42t-35 16q-22 0 -36 -15.5t-14 -40.5t14.5 -41.5t35.5 -16.5z" />
    <glyph glyph-name="ae" unicode="&#xe6;" horiz-adv-x="634" 
d="M446 -7q-31 0 -59.5 9t-50.5 28t-35 49.5t-13 72.5l1 142q1 45 -15.5 64t-46.5 19q-22 0 -46.5 -10t-43 -31t-24.5 -57l-65 7q4 29 20.5 54t43.5 43.5t59 28.5t66 10q54 0 82 -31t28 -89l-1 -146q0 -41 15.5 -65.5t41.5 -35t55 -10.5q30 0 61 12t59 38l26 -37
q-26 -25 -53 -39t-53.5 -20t-51.5 -6zM149 -7q-51 0 -80.5 27t-29.5 71q0 21 10 42.5t38.5 39t83.5 27.5l415 77l9 -45l-407 -69q-48 -9 -65.5 -25.5t-17.5 -38.5q0 -25 18 -40.5t49 -15.5t66 19.5t74 57.5l16 -30q-42 -47 -85 -72t-94 -25zM538 232v49q0 18 -7 39
t-23.5 36.5t-47.5 15.5q-41 0 -72.5 -24.5t-48.5 -66.5l-30 34q27 49 69.5 78t92.5 29q38 0 66.5 -19.5t44 -51.5t15.5 -70v-21.5t-2 -27.5h-57z" />
    <glyph glyph-name="ccedilla" unicode="&#xe7;" horiz-adv-x="437" 
d="M252 -8q-61 0 -108 26.5t-74.5 74t-27.5 108.5q0 64 29 114t79 79t113 29q43 0 77 -14t61 -38l-29 -53q-25 26 -54 40t-63 14q-43 0 -75 -22t-48.5 -59t-16.5 -83q0 -49 20 -86t55.5 -57t79.5 -20q31 0 61 12.5t54 35.5l23 -39q-23 -22 -49 -36t-53 -20t-54 -6zM216 0h50
l-31 -85l-36 10q10 4 23.5 6t27.5 2q49 0 79 -24t30 -62q0 -41 -35.5 -65.5t-86.5 -24.5q-29 0 -51 8t-42 25l15 29q14 -10 32.5 -16.5t37.5 -6.5q31 0 48 16t17 36q0 21 -19.5 36t-55.5 15q-7 0 -19 -1t-23 -3z" />
    <glyph glyph-name="egrave" unicode="&#xe8;" horiz-adv-x="456" 
d="M247 -9q-59 0 -104 24.5t-70.5 70t-25.5 107.5q0 69 28.5 120.5t77 80t109.5 28.5q74 0 111 -42t37 -115q0 -8 -0.5 -17.5t-1.5 -17.5h-59v35q0 54 -22 81.5t-69 27.5q-44 0 -77 -21.5t-51 -59.5t-18 -91q0 -72 41 -114.5t107 -42.5q34 0 65 12t60 39l25 -37
q-27 -25 -54.5 -40t-54.5 -21.5t-54 -6.5zM85 230l9 43h305v-43h-314zM242 509l-129 197h77l103 -197h-51z" />
    <glyph glyph-name="eacute" unicode="&#xe9;" horiz-adv-x="456" 
d="M247 -9q-59 0 -104 24.5t-70.5 70t-25.5 107.5q0 69 28.5 120.5t77 80t109.5 28.5q74 0 111 -42t37 -115q0 -8 -0.5 -17.5t-1.5 -17.5h-59v35q0 54 -22 81.5t-69 27.5q-44 0 -77 -21.5t-51 -59.5t-18 -91q0 -72 41 -114.5t107 -42.5q34 0 65 12t60 39l25 -37
q-27 -25 -54.5 -40t-54.5 -21.5t-54 -6.5zM85 230l9 43h305v-43h-314zM206 509l102 197h78l-129 -197h-51z" />
    <glyph glyph-name="ecircumflex" unicode="&#xea;" horiz-adv-x="456" 
d="M247 -9q-59 0 -104 24.5t-70.5 70t-25.5 107.5q0 69 28.5 120.5t77 80t109.5 28.5q74 0 111 -42t37 -115q0 -8 -0.5 -17.5t-1.5 -17.5h-59v35q0 54 -22 81.5t-69 27.5q-44 0 -77 -21.5t-51 -59.5t-18 -91q0 -72 41 -114.5t107 -42.5q34 0 65 12t60 39l25 -37
q-27 -25 -54.5 -40t-54.5 -21.5t-54 -6.5zM85 230l9 43h305v-43h-314zM332 509l-95 157l-13 40h49l110 -197h-51zM115 509l109 197h49l-12 -39l-95 -158h-51z" />
    <glyph glyph-name="edieresis" unicode="&#xeb;" horiz-adv-x="456" 
d="M247 -9q-59 0 -104 24.5t-70.5 70t-25.5 107.5q0 69 28.5 120.5t77 80t109.5 28.5q74 0 111 -42t37 -115q0 -8 -0.5 -17.5t-1.5 -17.5h-59v35q0 54 -22 81.5t-69 27.5q-44 0 -77 -21.5t-51 -59.5t-18 -91q0 -72 41 -114.5t107 -42.5q34 0 65 12t60 39l25 -37
q-27 -25 -54.5 -40t-54.5 -21.5t-54 -6.5zM85 230l9 43h305v-43h-314zM153 518q-20 0 -33 12t-13 32t13 32.5t33 12.5t32.5 -12.5t12.5 -32.5t-12.5 -32t-32.5 -12zM344 518q-20 0 -33 12t-13 32t13 32.5t33 12.5t32.5 -12.5t12.5 -32.5t-12.5 -32t-32.5 -12z" />
    <glyph glyph-name="igrave" unicode="&#xec;" horiz-adv-x="260" 
d="M96 0v409l68 11v-420h-68zM132 509l-128 197h77l103 -197h-52z" />
    <glyph glyph-name="iacute" unicode="&#xed;" horiz-adv-x="260" 
d="M96 0v409l68 11v-420h-68zM87 509l102 197h78l-129 -197h-51z" />
    <glyph glyph-name="icircumflex" unicode="&#xee;" horiz-adv-x="260" 
d="M96 0v409l68 11v-420h-68zM213 509l-95 157l-13 40h49l110 -197h-51zM-4 509l109 197h49l-12 -39l-95 -158h-51z" />
    <glyph glyph-name="idieresis" unicode="&#xef;" horiz-adv-x="260" 
d="M96 0v409l68 11v-420h-68zM50 518q-20 0 -33 12t-13 32t13 32.5t33 12.5t32.5 -12.5t12.5 -32.5t-12.5 -32t-32.5 -12zM211 518q-20 0 -33 12t-13 32t13 32.5t33 12.5t32.5 -12.5t12.5 -32.5t-12.5 -32t-32.5 -12z" />
    <glyph glyph-name="eth" unicode="&#xf0;" horiz-adv-x="511" 
d="M254 -7q-61 0 -109 27t-75.5 74.5t-27.5 107.5q0 62 28 109.5t76.5 75t108.5 27.5q51 0 92.5 -20.5t69.5 -56.5l-18 -33q-27 32 -60 48.5t-74 16.5q-47 0 -80.5 -21.5t-51.5 -57.5t-18 -82q0 -49 19 -86.5t53 -57.5t77 -20q68 0 103 52.5t35 139.5t-36.5 171
t-106.5 154.5t-172 116.5l19 40q84 -33 151 -85t114.5 -116t72.5 -133.5t25 -138.5q0 -76 -26 -132.5t-74.5 -88t-114.5 -31.5zM98 471l-26 42l343 198l25 -42z" />
    <glyph glyph-name="ntilde" unicode="&#xf1;" horiz-adv-x="530" 
d="M384 0v240q0 61 -27 94.5t-77 33.5q-26 0 -54.5 -10.5t-54 -32.5t-43.5 -57l-23 23q23 45 56.5 73.5t72 42t73.5 13.5q44 0 76.5 -18.5t50.5 -53.5t18 -85v-263h-68zM78 0v408l56 12l12 -99v-321h-68zM150 485l-37 10q12 41 40 66.5t59 25.5q16 0 34 -4t36 -8.5t35 -4.5
q21 0 37 14t25 39l37 -10q-11 -43 -38.5 -70.5t-60.5 -27.5q-19 0 -36.5 4.5t-34.5 9t-34 4.5q-21 0 -37 -12.5t-25 -35.5z" />
    <glyph glyph-name="ograve" unicode="&#xf2;" horiz-adv-x="519" 
d="M253 -8q-61 0 -108.5 27t-75 74.5t-27.5 108.5q0 64 29.5 114t80.5 78.5t115 28.5q61 0 108.5 -27t75 -74.5t27.5 -108.5q0 -64 -29 -114t-80 -78.5t-116 -28.5zM262 40q45 0 77 22.5t49 60.5t17 83q0 52 -19.5 89.5t-52.5 58t-75 20.5q-44 0 -76.5 -21.5t-49.5 -59
t-17 -83.5q0 -52 19.5 -90t53 -59t74.5 -21zM259 509l-129 197h77l103 -197h-51z" />
    <glyph glyph-name="oacute" unicode="&#xf3;" horiz-adv-x="519" 
d="M253 -8q-61 0 -108.5 27t-75 74.5t-27.5 108.5q0 64 29.5 114t80.5 78.5t115 28.5q61 0 108.5 -27t75 -74.5t27.5 -108.5q0 -64 -29 -114t-80 -78.5t-116 -28.5zM262 40q45 0 77 22.5t49 60.5t17 83q0 52 -19.5 89.5t-52.5 58t-75 20.5q-44 0 -76.5 -21.5t-49.5 -59
t-17 -83.5q0 -52 19.5 -90t53 -59t74.5 -21zM222 509l102 197h78l-129 -197h-51z" />
    <glyph glyph-name="ocircumflex" unicode="&#xf4;" horiz-adv-x="519" 
d="M253 -8q-61 0 -108.5 27t-75 74.5t-27.5 108.5q0 64 29.5 114t80.5 78.5t115 28.5q61 0 108.5 -27t75 -74.5t27.5 -108.5q0 -64 -29 -114t-80 -78.5t-116 -28.5zM262 40q45 0 77 22.5t49 60.5t17 83q0 52 -19.5 89.5t-52.5 58t-75 20.5q-44 0 -76.5 -21.5t-49.5 -59
t-17 -83.5q0 -52 19.5 -90t53 -59t74.5 -21zM349 509l-95 157l-13 40h49l110 -197h-51zM132 509l109 197h49l-12 -39l-95 -158h-51z" />
    <glyph glyph-name="otilde" unicode="&#xf5;" horiz-adv-x="519" 
d="M253 -8q-61 0 -108.5 27t-75 74.5t-27.5 108.5q0 64 29.5 114t80.5 78.5t115 28.5q61 0 108.5 -27t75 -74.5t27.5 -108.5q0 -64 -29 -114t-80 -78.5t-116 -28.5zM262 40q45 0 77 22.5t49 60.5t17 83q0 52 -19.5 89.5t-52.5 58t-75 20.5q-44 0 -76.5 -21.5t-49.5 -59
t-17 -83.5q0 -52 19.5 -90t53 -59t74.5 -21zM154 485l-37 10q12 41 40 66.5t59 25.5q16 0 34 -4t36 -8.5t35 -4.5q21 0 37 14t25 39l37 -10q-11 -43 -38.5 -70.5t-60.5 -27.5q-19 0 -36.5 4.5t-34.5 9t-34 4.5q-21 0 -37 -12.5t-25 -35.5z" />
    <glyph glyph-name="odieresis" unicode="&#xf6;" horiz-adv-x="519" 
d="M253 -8q-61 0 -108.5 27t-75 74.5t-27.5 108.5q0 64 29.5 114t80.5 78.5t115 28.5q61 0 108.5 -27t75 -74.5t27.5 -108.5q0 -64 -29 -114t-80 -78.5t-116 -28.5zM262 40q45 0 77 22.5t49 60.5t17 83q0 52 -19.5 89.5t-52.5 58t-75 20.5q-44 0 -76.5 -21.5t-49.5 -59
t-17 -83.5q0 -52 19.5 -90t53 -59t74.5 -21zM170 518q-20 0 -33 12t-13 32t13 32.5t33 12.5t32.5 -12.5t12.5 -32.5t-12.5 -32t-32.5 -12zM361 518q-20 0 -33 12t-13 32t13 32.5t33 12.5t32.5 -12.5t12.5 -32.5t-12.5 -32t-32.5 -12z" />
    <glyph glyph-name="divide" unicode="&#xf7;" horiz-adv-x="550" 
d="M44 204v52h462v-52h-462zM276 386q-19 0 -31 11.5t-12 30.5t12 30.5t31 11.5q18 0 29.5 -11.5t11.5 -30.5t-11.5 -30.5t-29.5 -11.5zM276 -9q-19 0 -31 12t-12 30q0 19 12 31t31 12q18 0 29.5 -12t11.5 -31q0 -18 -11.5 -30t-29.5 -12z" />
    <glyph glyph-name="oslash" unicode="&#xf8;" horiz-adv-x="519" 
d="M253 -8q-61 0 -108.5 27t-75 74.5t-27.5 108.5q0 64 29.5 113.5t80.5 78.5t115 29q61 0 108.5 -27.5t75 -74.5t27.5 -108q0 -64 -29 -114t-80 -78.5t-116 -28.5zM262 39q47 0 80.5 23t50.5 61t17 83q0 52 -19.5 89.5t-54 58.5t-78.5 21q-46 0 -79.5 -22t-51.5 -59.5
t-18 -83.5q0 -52 20.5 -90t55 -59.5t77.5 -21.5zM77 -39l-38 32l406 456l39 -32z" />
    <glyph glyph-name="ugrave" unicode="&#xf9;" horiz-adv-x="521" 
d="M219 -5q-62 0 -101.5 41.5t-39.5 114.5v257l68 12v-247q0 -59 26.5 -93t74.5 -34q26 0 53 10.5t51.5 33t40.5 57.5l25 -23q-22 -44 -54.5 -72.5t-69.5 -42.5t-74 -14zM387 -6l-12 102v312l69 12v-414zM260 509l-129 197h77l103 -197h-51z" />
    <glyph glyph-name="uacute" unicode="&#xfa;" horiz-adv-x="521" 
d="M219 -5q-62 0 -101.5 41.5t-39.5 114.5v257l68 12v-247q0 -59 26.5 -93t74.5 -34q26 0 53 10.5t51.5 33t40.5 57.5l25 -23q-22 -44 -54.5 -72.5t-69.5 -42.5t-74 -14zM387 -6l-12 102v312l69 12v-414zM224 509l102 197h78l-129 -197h-51z" />
    <glyph glyph-name="ucircumflex" unicode="&#xfb;" horiz-adv-x="521" 
d="M219 -5q-62 0 -101.5 41.5t-39.5 114.5v257l68 12v-247q0 -59 26.5 -93t74.5 -34q26 0 53 10.5t51.5 33t40.5 57.5l25 -23q-22 -44 -54.5 -72.5t-69.5 -42.5t-74 -14zM387 -6l-12 102v312l69 12v-414zM350 509l-95 157l-13 40h49l110 -197h-51zM133 509l109 197h49
l-12 -39l-95 -158h-51z" />
    <glyph glyph-name="udieresis" unicode="&#xfc;" horiz-adv-x="521" 
d="M219 -5q-62 0 -101.5 41.5t-39.5 114.5v257l68 12v-247q0 -59 26.5 -93t74.5 -34q26 0 53 10.5t51.5 33t40.5 57.5l25 -23q-22 -44 -54.5 -72.5t-69.5 -42.5t-74 -14zM387 -6l-12 102v312l69 12v-414zM171 518q-20 0 -33 12t-13 32t13 32.5t33 12.5t32.5 -12.5
t12.5 -32.5t-12.5 -32t-32.5 -12zM362 518q-20 0 -33 12t-13 32t13 32.5t33 12.5t32.5 -12.5t12.5 -32.5t-12.5 -32t-32.5 -12z" />
    <glyph glyph-name="yacute" unicode="&#xfd;" horiz-adv-x="469" 
d="M229 -31l-203 445h75l159 -366zM374 414h69l-285 -703h-73l148 314zM191 509l102 197h78l-129 -197h-51z" />
    <glyph glyph-name="thorn" unicode="&#xfe;" horiz-adv-x="529" 
d="M273 -6q-51 0 -91.5 23.5t-61.5 70.5l18 30q21 -36 53.5 -54.5t73.5 -18.5q44 0 77.5 21t52.5 58.5t19 87.5q0 45 -16 81t-46 57t-73 21q-36 0 -74 -19t-65 -68l-28 18q34 59 79.5 88t104.5 29q58 0 101 -26t66.5 -71.5t23.5 -104.5q0 -63 -28 -113.5t-76.5 -80
t-109.5 -29.5zM79 -289v994l67 12v-994z" />
    <glyph glyph-name="ydieresis" unicode="&#xff;" horiz-adv-x="469" 
d="M229 -31l-203 445h75l159 -366zM374 414h69l-285 -703h-73l148 314zM139 518q-20 0 -33 12t-13 32t13 32.5t33 12.5t32.5 -12.5t12.5 -32.5t-12.5 -32t-32.5 -12zM330 518q-20 0 -33 12t-13 32t13 32.5t33 12.5t32.5 -12.5t12.5 -32.5t-12.5 -32t-32.5 -12z" />
    <glyph glyph-name="Amacron" unicode="&#x100;" horiz-adv-x="681" 
d="M559 0l-235 617h28l-234 -617h-75l271 658h63l261 -658h-79zM162 226l21 59h296l32 -59h-349zM180 759v49h325v-49h-325z" />
    <glyph glyph-name="amacron" unicode="&#x101;" horiz-adv-x="454" 
d="M371 -6q-38 0 -60 27.5t-21 79.5l4 189q1 31 -6.5 50.5t-21.5 29t-34 9.5q-21 0 -45 -10t-41.5 -31t-21.5 -54l-66 7q5 29 22 53t43 41.5t57 27t63 9.5q60 0 88.5 -33.5t27.5 -90.5l-2 -210q0 -22 7.5 -34t21.5 -12q11 0 22 5t19 15l23 -32q-13 -16 -34 -26t-45 -10z
M150 -6q-45 0 -73 25.5t-28 66.5q0 24 10 45t34.5 37.5t68.5 28.5l166 45l5 -36l-154 -48q-38 -12 -50.5 -28t-12.5 -34q0 -25 17 -37.5t41 -12.5q30 0 66 19.5t80 50.5l11 -24q-43 -41 -88 -69.5t-93 -28.5zM86 519v50h265v-50h-265z" />
    <glyph glyph-name="Abreve" unicode="&#x102;" horiz-adv-x="681" 
d="M559 0l-235 617h28l-234 -617h-75l271 658h63l261 -658h-79zM162 226l21 59h296l32 -59h-349zM343 715q-60 0 -98 36.5t-50 104.5l39 7q9 -45 38 -69t71 -24t71.5 24t37.5 68l39 -6q-12 -68 -50 -104.5t-98 -36.5z" />
    <glyph glyph-name="abreve" unicode="&#x103;" horiz-adv-x="454" 
d="M371 -6q-38 0 -60 27.5t-21 79.5l4 189q1 31 -6.5 50.5t-21.5 29t-34 9.5q-21 0 -45 -10t-41.5 -31t-21.5 -54l-66 7q5 29 22 53t43 41.5t57 27t63 9.5q60 0 88.5 -33.5t27.5 -90.5l-2 -210q0 -22 7.5 -34t21.5 -12q11 0 22 5t19 15l23 -32q-13 -16 -34 -26t-45 -10z
M150 -6q-45 0 -73 25.5t-28 66.5q0 24 10 45t34.5 37.5t68.5 28.5l166 45l5 -36l-154 -48q-38 -12 -50.5 -28t-12.5 -34q0 -25 17 -37.5t41 -12.5q30 0 66 19.5t80 50.5l11 -24q-43 -41 -88 -69.5t-93 -28.5zM218 500q-54 0 -89 38.5t-46 110.5l39 5q8 -47 33.5 -73.5
t62.5 -26.5q38 0 63 26.5t33 73.5l40 -5q-11 -72 -46 -110.5t-90 -38.5z" />
    <glyph glyph-name="Aogonek" unicode="&#x104;" horiz-adv-x="681" 
d="M559 0l-235 617h28l-234 -617h-75l271 658h63l261 -658h-79zM162 226l21 59h296l32 -59h-349zM586 -289q-64 0 -100.5 33.5t-36.5 88.5q0 49 33 100t109 93l47 -26q-61 -32 -89 -71.5t-28 -79.5q0 -37 22 -62.5t66 -25.5q16 0 29 4t24 13l19 -37q-21 -15 -43 -22.5
t-52 -7.5z" />
    <glyph glyph-name="aogonek" unicode="&#x105;" horiz-adv-x="443" 
d="M358 -2q-35 0 -56.5 24t-20.5 72l3 196q1 31 -8 49t-23.5 25.5t-31.5 7.5q-21 0 -42.5 -8t-37 -26t-20.5 -49l-66 7q3 26 19.5 48.5t42 40t56.5 27t65 9.5q54 0 81 -32.5t26 -90.5l-3 -216q0 -18 7 -27.5t21 -9.5q13 0 24 5.5l21 10.5l21 -31zM349 -289q-57 0 -90 32.5
t-33 84.5q0 59 44.5 117t144.5 105l21 -20q-74 -42 -109.5 -91.5t-35.5 -98.5q0 -35 20 -58t56 -23q17 0 32.5 5t27.5 14l18 -34q-21 -16 -44.5 -24.5t-51.5 -8.5zM147 -5q-45 0 -73.5 25.5t-28.5 67.5q0 23 10.5 44t35.5 38t69 28l157 41l5 -36l-146 -45q-35 -11 -48 -26.5
t-13 -34.5q0 -23 15.5 -36.5t39.5 -13.5q27 0 60.5 18.5t79.5 49.5l10 -25q-44 -42 -86 -68.5t-87 -26.5z" />
    <glyph glyph-name="Cacute" unicode="&#x106;" horiz-adv-x="653" 
d="M395 -9q-100 0 -176.5 41.5t-119 116t-42.5 173.5q0 78 26 141.5t73.5 109t111 70t138.5 24.5q55 0 106 -14t96 -41l-35 -65q-43 32 -87 48.5t-96 16.5q-77 0 -134 -35t-88.5 -97.5t-31.5 -145.5q0 -87 35.5 -152t95.5 -101t134 -36q56 0 102 19t83 52l32 -58
q-50 -33 -105 -50t-118 -17zM345 735l81 172h82l-108 -172h-55z" />
    <glyph glyph-name="cacute" unicode="&#x107;" horiz-adv-x="437" 
d="M252 -8q-61 0 -108 26.5t-74.5 74t-27.5 108.5q0 64 29 114t79 79t113 29q43 0 77 -14t61 -38l-29 -53q-25 26 -54 40t-63 14q-43 0 -75 -22t-48.5 -59t-16.5 -83q0 -49 20 -86t55.5 -57t79.5 -20q31 0 61 12.5t54 35.5l23 -39q-23 -22 -49 -36t-53 -20t-54 -6zM213 509
l102 197h78l-129 -197h-51z" />
    <glyph glyph-name="Ccircumflex" unicode="&#x108;" horiz-adv-x="653" 
d="M395 -9q-100 0 -176.5 41.5t-119 116t-42.5 173.5q0 78 26 141.5t73.5 109t111 70t138.5 24.5q55 0 106 -14t96 -41l-35 -65q-43 32 -87 48.5t-96 16.5q-77 0 -134 -35t-88.5 -97.5t-31.5 -145.5q0 -87 35.5 -152t95.5 -101t134 -36q56 0 102 19t83 52l32 -58
q-50 -33 -105 -50t-118 -17zM484 735l-111 129l-13 43h49l130 -172h-55zM231 735l129 172h49l-12 -42l-112 -130h-54z" />
    <glyph glyph-name="ccircumflex" unicode="&#x109;" horiz-adv-x="437" 
d="M252 -8q-61 0 -108 26.5t-74.5 74t-27.5 108.5q0 64 29 114t79 79t113 29q43 0 77 -14t61 -38l-29 -53q-25 26 -54 40t-63 14q-43 0 -75 -22t-48.5 -59t-16.5 -83q0 -49 20 -86t55.5 -57t79.5 -20q31 0 61 12.5t54 35.5l23 -39q-23 -22 -49 -36t-53 -20t-54 -6zM340 509
l-95 157l-13 40h49l110 -197h-51zM123 509l109 197h49l-12 -39l-95 -158h-51z" />
    <glyph glyph-name="Cdotaccent" unicode="&#x10a;" horiz-adv-x="653" 
d="M395 -9q-100 0 -176.5 41.5t-119 116t-42.5 173.5q0 78 26 141.5t73.5 109t111 70t138.5 24.5q55 0 106 -14t96 -41l-35 -65q-43 32 -87 48.5t-96 16.5q-77 0 -134 -35t-88.5 -97.5t-31.5 -145.5q0 -87 35.5 -152t95.5 -101t134 -36q56 0 102 19t83 52l32 -58
q-50 -33 -105 -50t-118 -17zM385 749q-21 0 -34.5 13t-13.5 34t13.5 34t34.5 13q22 0 35 -13t13 -34t-13 -34t-35 -13z" />
    <glyph glyph-name="cdotaccent" unicode="&#x10b;" horiz-adv-x="437" 
d="M252 -8q-61 0 -108 26.5t-74.5 74t-27.5 108.5q0 64 29 114t79 79t113 29q43 0 77 -14t61 -38l-29 -53q-25 26 -54 40t-63 14q-43 0 -75 -22t-48.5 -59t-16.5 -83q0 -49 20 -86t55.5 -57t79.5 -20q31 0 61 12.5t54 35.5l23 -39q-23 -22 -49 -36t-53 -20t-54 -6zM256 536
q-21 0 -34.5 13t-13.5 34t13.5 34t34.5 13q22 0 35 -13t13 -34t-13 -34t-35 -13z" />
    <glyph glyph-name="Ccaron" unicode="&#x10c;" horiz-adv-x="653" 
d="M395 -9q-100 0 -176.5 41.5t-119 116t-42.5 173.5q0 78 26 141.5t73.5 109t111 70t138.5 24.5q55 0 106 -14t96 -41l-35 -65q-43 32 -87 48.5t-96 16.5q-77 0 -134 -35t-88.5 -97.5t-31.5 -145.5q0 -87 35.5 -152t95.5 -101t134 -36q56 0 102 19t83 52l32 -58
q-50 -33 -105 -50t-118 -17zM361 735l13 43l111 129h55l-130 -172h-49zM361 735l-129 172h54l112 -130l12 -42h-49z" />
    <glyph glyph-name="ccaron" unicode="&#x10d;" horiz-adv-x="437" 
d="M252 -8q-61 0 -108 26.5t-74.5 74t-27.5 108.5q0 64 29 114t79 79t113 29q43 0 77 -14t61 -38l-29 -53q-25 26 -54 40t-63 14q-43 0 -75 -22t-48.5 -59t-16.5 -83q0 -49 20 -86t55.5 -57t79.5 -20q31 0 61 12.5t54 35.5l23 -39q-23 -22 -49 -36t-53 -20t-54 -6zM232 509
l13 41l95 156h51l-110 -197h-49zM232 509l-109 197h51l95 -158l12 -39h-49z" />
    <glyph glyph-name="Dcaron" unicode="&#x10e;" horiz-adv-x="739" 
d="M109 0v658h204q83 0 151 -22t117 -64t75 -101t26 -132q0 -63 -21 -124t-66 -109.5t-116 -77t-168 -28.5h-202zM183 54h134q78 0 132.5 22t89 60.5t50 87t15.5 103.5q0 76 -32.5 138.5t-99.5 100t-170 37.5h-119v-549zM310 735l13 43l111 129h55l-130 -172h-49zM310 735
l-129 172h54l112 -130l12 -42h-49z" />
    <glyph glyph-name="dcaron" unicode="&#x10f;" horiz-adv-x="530" 
d="M234 -6q-57 0 -100.5 26.5t-67 72.5t-23.5 104q0 64 28.5 115t76 80t107.5 29q34 0 63.5 -11t53.5 -32t38 -52l-19 -30q-20 38 -53 56.5t-73 18.5q-44 0 -77.5 -21t-52.5 -58.5t-19 -87.5q0 -46 16.5 -82.5t46.5 -57.5t71 -21q37 0 74.5 19.5t64.5 67.5l28 -17
q-22 -40 -49.5 -66.5t-61 -39.5t-72.5 -13zM396 -6l-11 93v617l67 13v-711zM575 463h-43v247h60z" />
    <glyph glyph-name="Dcroat" unicode="&#x110;" horiz-adv-x="744" 
d="M115 0v658h203q110 0 193.5 -38.5t130 -110t46.5 -170.5q0 -65 -22 -125.5t-67.5 -108.5t-115.5 -76.5t-167 -28.5h-201zM26 301v55h360v-55h-360zM188 54h134q78 0 133 22t89 60.5t50 87.5t16 103q0 78 -33 140t-100.5 99t-169.5 37h-119v-549z" />
    <glyph glyph-name="dcroat" unicode="&#x111;" horiz-adv-x="530" 
d="M234 -7q-57 0 -100 26.5t-66.5 73t-23.5 105.5q0 64 28 114.5t76 79.5t105 29q36 0 66.5 -11.5t54.5 -34t37 -56.5l-18 -23q-21 38 -53.5 57t-72.5 19q-44 0 -78.5 -21t-53.5 -59t-19 -87q0 -47 16.5 -84.5t47 -59t71.5 -21.5q37 0 74.5 19.5t65.5 67.5l25 -15
q-22 -40 -49 -66t-60.5 -39.5t-72.5 -13.5zM396 -6l-11 93v618l68 11v-710zM200 580l356 -2l-5 -46l-356 -4z" />
    <glyph glyph-name="Emacron" unicode="&#x112;" horiz-adv-x="579" 
d="M524 0h-415v658h384v-59h-312v-540h343v-59zM134 305v57h321v-57h-321zM152 759v49h325v-49h-325z" />
    <glyph glyph-name="emacron" unicode="&#x113;" horiz-adv-x="455" 
d="M247 -9q-59 0 -104 24.5t-70.5 70t-25.5 107.5q0 69 28.5 120.5t77 80t109.5 28.5q74 0 111 -42t37 -115q0 -8 -0.5 -17.5t-1.5 -17.5h-59v35q0 54 -22 81.5t-69 27.5q-44 0 -77 -21.5t-51 -59.5t-18 -91q0 -72 41 -114.5t107 -42.5q34 0 65 12t60 39l25 -37
q-27 -25 -54.5 -40t-54.5 -21.5t-54 -6.5zM85 230l9 43h305v-43h-314zM115 519v50h265v-50h-265z" />
    <glyph glyph-name="Ebreve" unicode="&#x114;" horiz-adv-x="579" 
d="M524 0h-415v658h384v-59h-312v-540h343v-59zM134 305v57h321v-57h-321zM315 715q-60 0 -98 36.5t-50 104.5l39 7q9 -45 38 -69t71 -24t71.5 24t37.5 68l39 -6q-12 -68 -50 -104.5t-98 -36.5z" />
    <glyph glyph-name="ebreve" unicode="&#x115;" horiz-adv-x="456" 
d="M247 -9q-59 0 -104 24.5t-70.5 70t-25.5 107.5q0 69 28.5 120.5t77 80t109.5 28.5q74 0 111 -42t37 -115q0 -8 -0.5 -17.5t-1.5 -17.5h-59v35q0 54 -22 81.5t-69 27.5q-44 0 -77 -21.5t-51 -59.5t-18 -91q0 -72 41 -114.5t107 -42.5q34 0 65 12t60 39l25 -37
q-27 -25 -54.5 -40t-54.5 -21.5t-54 -6.5zM85 230l9 43h305v-43h-314zM248 500q-54 0 -89 38.5t-46 110.5l39 5q8 -47 33.5 -73.5t62.5 -26.5q38 0 63 26.5t33 73.5l40 -5q-11 -72 -46 -110.5t-90 -38.5z" />
    <glyph glyph-name="Edotaccent" unicode="&#x116;" horiz-adv-x="579" 
d="M524 0h-415v658h384v-59h-312v-540h343v-59zM134 305v57h321v-57h-321zM315 749q-21 0 -34.5 13t-13.5 34t13.5 34t34.5 13q22 0 35 -13t13 -34t-13 -34t-35 -13z" />
    <glyph glyph-name="edotaccent" unicode="&#x117;" horiz-adv-x="455" 
d="M247 -9q-59 0 -104 24.5t-70.5 70t-25.5 107.5q0 69 28.5 120.5t77 80t109.5 28.5q74 0 111 -42t37 -115q0 -8 -0.5 -17.5t-1.5 -17.5h-59v35q0 54 -22 81.5t-69 27.5q-44 0 -77 -21.5t-51 -59.5t-18 -91q0 -72 41 -114.5t107 -42.5q34 0 65 12t60 39l25 -37
q-27 -25 -54.5 -40t-54.5 -21.5t-54 -6.5zM85 230l9 43h305v-43h-314zM248 536q-21 0 -34.5 13t-13.5 34t13.5 34t34.5 13q22 0 35 -13t13 -34t-13 -34t-35 -13z" />
    <glyph glyph-name="Eogonek" unicode="&#x118;" horiz-adv-x="579" 
d="M524 0h-415v658h384v-59h-312v-540h343v-59zM134 305v57h321v-57h-321zM472 -289q-64 0 -100.5 33.5t-36.5 88.5q0 50 38.5 102.5t126.5 95.5l24 -31q-61 -32 -89 -71t-28 -80q0 -36 22 -62t66 -26q16 0 29 4.5t24 12.5l19 -37q-21 -15 -43 -22.5t-52 -7.5z" />
    <glyph glyph-name="eogonek" unicode="&#x119;" horiz-adv-x="456" 
d="M248 -6q-59 0 -104.5 24t-71 68.5t-25.5 106.5q0 68 28 119.5t77 80t111 28.5q73 0 109.5 -42.5t36.5 -113.5v-17.5t-2 -17.5h-58v34q0 53 -22.5 80.5t-69.5 27.5q-44 0 -77 -21.5t-51.5 -59.5t-18.5 -89q0 -71 40.5 -113.5t109.5 -42.5q32 0 63.5 12.5t59.5 37.5l29 -36
q-27 -25 -55 -39.5t-55 -20.5t-54 -6zM315 -289q-39 0 -67.5 15t-43.5 40t-15 55q0 36 15 71.5t50 72t94 77.5l64 18q-56 -51 -90 -90t-50.5 -70t-16.5 -62q0 -35 21.5 -57t58.5 -22q21 0 36.5 5t29.5 15l19 -35q-22 -16 -47 -24.5t-58 -8.5zM88 230l9 43h300v-43h-309z" />
    <glyph glyph-name="Ecaron" unicode="&#x11a;" horiz-adv-x="579" 
d="M524 0h-415v658h384v-59h-312v-540h343v-59zM134 305v57h321v-57h-321zM290 735l13 43l111 129h55l-130 -172h-49zM290 735l-129 172h54l112 -130l12 -42h-49z" />
    <glyph glyph-name="ecaron" unicode="&#x11b;" horiz-adv-x="456" 
d="M247 -9q-59 0 -104 24.5t-70.5 70t-25.5 107.5q0 69 28.5 120.5t77 80t109.5 28.5q74 0 111 -42t37 -115q0 -8 -0.5 -17.5t-1.5 -17.5h-59v35q0 54 -22 81.5t-69 27.5q-44 0 -77 -21.5t-51 -59.5t-18 -91q0 -72 41 -114.5t107 -42.5q34 0 65 12t60 39l25 -37
q-27 -25 -54.5 -40t-54.5 -21.5t-54 -6.5zM85 230l9 43h305v-43h-314zM224 509l13 41l95 156h51l-110 -197h-49zM224 509l-109 197h51l95 -158l12 -39h-49z" />
    <glyph glyph-name="Gcircumflex" unicode="&#x11c;" horiz-adv-x="721" 
d="M419 -9q-109 0 -190.5 41.5t-126.5 116t-45 172.5q0 75 26.5 138.5t75.5 110t116 72t148 25.5q60 0 117 -16t101 -50l-33 -66q-46 42 -97.5 59.5t-102.5 17.5q-84 0 -144.5 -36t-94 -99t-33.5 -145q0 -85 37.5 -149.5t104 -101t153.5 -36.5q48 0 94.5 11.5t86.5 35.5
l-37 -46v204h-149v55h218v-259q-32 -18 -69.5 -30.5t-77 -18.5t-78.5 -6zM503 735l-111 129l-13 43h49l130 -172h-55zM250 735l129 172h49l-12 -42l-112 -130h-54z" />
    <glyph glyph-name="gcircumflex" unicode="&#x11d;" horiz-adv-x="483" 
d="M211 -289q-50 0 -89.5 15t-62 42.5t-22.5 64.5q0 47 40.5 93.5t123.5 81.5l20 -23q-59 -30 -86.5 -65.5t-27.5 -72.5q0 -43 33.5 -67t87.5 -24q45 0 81.5 17t58 46t21.5 65q0 32 -16.5 47t-50.5 22t-89 13q-44 4 -82 12t-61 25.5t-23 48.5q0 25 11.5 44t33 35.5
t50.5 32.5l26 -24q-25 -14 -43.5 -29.5t-18.5 -36.5q0 -19 15.5 -29.5t47.5 -16t80 -10.5q55 -6 97 -15.5t65.5 -31.5t23.5 -66q0 -55 -33.5 -99t-88.5 -69.5t-122 -25.5zM226 119q-48 0 -85 19t-58 52.5t-21 75.5q0 45 23.5 80.5t63.5 55.5t90 20q73 0 118 -40.5t45 -104.5
q0 -45 -22.5 -81t-62.5 -56.5t-91 -20.5zM236 165q32 0 54.5 13t35.5 36t13 53q0 48 -30.5 78.5t-80.5 30.5q-45 0 -73 -28.5t-28 -74.5q0 -31 13.5 -55.5t38.5 -38.5t57 -14zM310 363l-10 34l164 10v-44h-154zM328 509l-95 157l-13 40h49l110 -197h-51zM111 509l109 197h49
l-12 -39l-95 -158h-51z" />
    <glyph glyph-name="Gbreve" unicode="&#x11e;" horiz-adv-x="721" 
d="M419 -9q-109 0 -190.5 41.5t-126.5 116t-45 172.5q0 75 26.5 138.5t75.5 110t116 72t148 25.5q60 0 117 -16t101 -50l-33 -66q-46 42 -97.5 59.5t-102.5 17.5q-84 0 -144.5 -36t-94 -99t-33.5 -145q0 -85 37.5 -149.5t104 -101t153.5 -36.5q48 0 94.5 11.5t86.5 35.5
l-37 -46v204h-149v55h218v-259q-32 -18 -69.5 -30.5t-77 -18.5t-78.5 -6zM405 715q-60 0 -98 36.5t-50 104.5l39 7q9 -45 38 -69t71 -24t71.5 24t37.5 68l39 -6q-12 -68 -50 -104.5t-98 -36.5z" />
    <glyph glyph-name="gbreve" unicode="&#x11f;" horiz-adv-x="483" 
d="M211 -289q-50 0 -89.5 15t-62 42.5t-22.5 64.5q0 47 40.5 93.5t123.5 81.5l20 -23q-59 -30 -86.5 -65.5t-27.5 -72.5q0 -43 33.5 -67t87.5 -24q45 0 81.5 17t58 46t21.5 65q0 32 -16.5 47t-50.5 22t-89 13q-44 4 -82 12t-61 25.5t-23 48.5q0 25 11.5 44t33 35.5
t50.5 32.5l26 -24q-25 -14 -43.5 -29.5t-18.5 -36.5q0 -19 15.5 -29.5t47.5 -16t80 -10.5q55 -6 97 -15.5t65.5 -31.5t23.5 -66q0 -55 -33.5 -99t-88.5 -69.5t-122 -25.5zM226 119q-48 0 -85 19t-58 52.5t-21 75.5q0 45 23.5 80.5t63.5 55.5t90 20q73 0 118 -40.5t45 -104.5
q0 -45 -22.5 -81t-62.5 -56.5t-91 -20.5zM236 165q32 0 54.5 13t35.5 36t13 53q0 48 -30.5 78.5t-80.5 30.5q-45 0 -73 -28.5t-28 -74.5q0 -31 13.5 -55.5t38.5 -38.5t57 -14zM310 363l-10 34l164 10v-44h-154zM244 500q-54 0 -89 38.5t-46 110.5l39 5q8 -47 33.5 -73.5
t62.5 -26.5q38 0 63 26.5t33 73.5l40 -5q-11 -72 -46 -110.5t-90 -38.5z" />
    <glyph glyph-name="Gdotaccent" unicode="&#x120;" horiz-adv-x="721" 
d="M419 -9q-109 0 -190.5 41.5t-126.5 116t-45 172.5q0 75 26.5 138.5t75.5 110t116 72t148 25.5q60 0 117 -16t101 -50l-33 -66q-46 42 -97.5 59.5t-102.5 17.5q-84 0 -144.5 -36t-94 -99t-33.5 -145q0 -85 37.5 -149.5t104 -101t153.5 -36.5q48 0 94.5 11.5t86.5 35.5
l-37 -46v204h-149v55h218v-259q-32 -18 -69.5 -30.5t-77 -18.5t-78.5 -6zM404 749q-21 0 -34.5 13t-13.5 34t13.5 34t34.5 13q22 0 35 -13t13 -34t-13 -34t-35 -13z" />
    <glyph glyph-name="gdotaccent" unicode="&#x121;" horiz-adv-x="483" 
d="M211 -289q-50 0 -89.5 15t-62 42.5t-22.5 64.5q0 47 40.5 93.5t123.5 81.5l20 -23q-59 -30 -86.5 -65.5t-27.5 -72.5q0 -43 33.5 -67t87.5 -24q45 0 81.5 17t58 46t21.5 65q0 32 -16.5 47t-50.5 22t-89 13q-44 4 -82 12t-61 25.5t-23 48.5q0 25 11.5 44t33 35.5
t50.5 32.5l26 -24q-25 -14 -43.5 -29.5t-18.5 -36.5q0 -19 15.5 -29.5t47.5 -16t80 -10.5q55 -6 97 -15.5t65.5 -31.5t23.5 -66q0 -55 -33.5 -99t-88.5 -69.5t-122 -25.5zM226 119q-48 0 -85 19t-58 52.5t-21 75.5q0 45 23.5 80.5t63.5 55.5t90 20q73 0 118 -40.5t45 -104.5
q0 -45 -22.5 -81t-62.5 -56.5t-91 -20.5zM236 165q32 0 54.5 13t35.5 36t13 53q0 48 -30.5 78.5t-80.5 30.5q-45 0 -73 -28.5t-28 -74.5q0 -31 13.5 -55.5t38.5 -38.5t57 -14zM310 363l-10 34l164 10v-44h-154zM244 536q-21 0 -34.5 13t-13.5 34t13.5 34t34.5 13
q22 0 35 -13t13 -34t-13 -34t-35 -13z" />
    <glyph glyph-name="uni0122" unicode="&#x122;" horiz-adv-x="721" 
d="M419 -9q-109 0 -190.5 41.5t-126.5 116t-45 172.5q0 75 26.5 138.5t75.5 110t116 72t148 25.5q60 0 117 -16t101 -50l-33 -66q-46 42 -97.5 59.5t-102.5 17.5q-84 0 -144.5 -36t-94 -99t-33.5 -145q0 -85 37.5 -149.5t104 -101t153.5 -36.5q48 0 94.5 11.5t86.5 35.5
l-37 -46v204h-149v55h218v-259q-32 -18 -69.5 -30.5t-77 -18.5t-78.5 -6zM395 -290l-28 22q19 20 29.5 45.5t10.5 51.5q0 24 -7.5 43t-21.5 29l48 37q24 -16 34.5 -40t10.5 -51q0 -39 -20 -76.5t-56 -60.5z" />
    <glyph glyph-name="uni0123" unicode="&#x123;" horiz-adv-x="483" 
d="M211 -289q-50 0 -90 14.5t-62.5 42.5t-22.5 66q0 45 41.5 90t126.5 79l17 -18q-59 -30 -87.5 -65.5t-28.5 -72.5q0 -43 34.5 -66.5t88.5 -23.5q46 0 83.5 17t59.5 46t22 65q0 30 -17 45t-52 22t-91 12q-44 5 -82 13.5t-61 25.5t-23 49q0 23 12.5 41.5t35.5 34.5t54 31
l19 -20q-26 -12 -44.5 -28t-18.5 -37q0 -19 15.5 -29.5t47.5 -16t81 -11.5q56 -5 98.5 -14.5t66.5 -31.5t24 -66q0 -55 -33.5 -99t-89.5 -69.5t-124 -25.5zM225 119q-48 0 -84.5 19.5t-57 52.5t-20.5 76q0 45 23 80t62.5 55.5t89.5 20.5q72 0 117 -40.5t45 -105.5
q0 -45 -22 -80.5t-61.5 -56.5t-91.5 -21zM235 166q31 0 54.5 13t36.5 36t13 53q0 48 -31 78t-80 30q-46 0 -75 -27.5t-29 -73.5q0 -32 14.5 -56.5t39.5 -38.5t57 -14zM315 363l-16 33l165 12v-45h-149zM269 719l28 -23q-19 -20 -29.5 -45.5t-10.5 -51.5q0 -24 7.5 -42.5
t21.5 -29.5l-48 -37q-24 16 -34.5 40t-10.5 52q0 39 20.5 77t55.5 60z" />
    <glyph glyph-name="Hcircumflex" unicode="&#x124;" horiz-adv-x="766" 
d="M583 0v658h74v-658h-74zM109 0v658h74v-658h-74zM134 304v60h499v-60h-499zM479 735l-111 129l-13 43h49l130 -172h-55zM226 735l129 172h49l-12 -42l-112 -130h-54z" />
    <glyph glyph-name="hcircumflex" unicode="&#x125;" horiz-adv-x="535" 
d="M386 0v240q0 61 -27 94.5t-77 33.5q-26 0 -54.5 -10.5t-53.5 -32.5t-43 -57l-24 23q23 45 56.5 73.5t72 42t74.5 13.5q64 0 104 -41.5t40 -115.5v-263h-68zM84 0v704l67 13v-717h-67zM219 777l-111 129l-13 43h49l130 -172h-55zM-34 777l129 172h49l-12 -42l-112 -130
h-54z" />
    <glyph glyph-name="Hbar" unicode="&#x126;" horiz-adv-x="765" 
d="M582 0v658h74v-658h-74zM109 0v658h74v-658h-74zM134 189v56h498v-56h-498zM134 423v56h498v-56h-498z" />
    <glyph glyph-name="hbar" unicode="&#x127;" horiz-adv-x="535" 
d="M390 0v240q0 60 -27 94t-77 34q-27 0 -56.5 -9.5t-55.5 -30t-40 -52.5l-24 15q23 45 56.5 73t72 41.5t75.5 13.5q64 0 104 -41t40 -115v-263h-68zM84 0v705l67 11v-716h-67zM335 531l-356 1l4 46l356 5z" />
    <glyph glyph-name="Itilde" unicode="&#x128;" horiz-adv-x="309" 
d="M116 0v658h77v-658h-77zM22 721l-37 10q9 27 25 48t37 32.5t43 11.5q18 0 40.5 -4t45.5 -9t43 -5q23 0 41 14t27 39l38 -9q-14 -45 -43 -71.5t-64 -26.5q-21 0 -43.5 4.5t-44 9t-40.5 4.5q-22 0 -40 -12t-28 -36z" />
    <glyph glyph-name="itilde" unicode="&#x129;" horiz-adv-x="260" 
d="M96 0v409l68 11v-420h-68zM29 481l-39 10q12 40 37.5 66t55.5 26q22 0 46.5 -9t47.5 -9q18 0 32.5 14t21.5 39l38 -9q-11 -44 -36 -71t-56 -27q-26 0 -49 8.5t-45 8.5q-18 0 -32.5 -12t-21.5 -35z" />
    <glyph glyph-name="Imacron" unicode="&#x12a;" horiz-adv-x="309" 
d="M116 0v658h77v-658h-77zM-11 759v49h325v-49h-325z" />
    <glyph glyph-name="imacron" unicode="&#x12b;" horiz-adv-x="260" 
d="M96 0v409l68 11v-420h-68zM-3 519v50h265v-50h-265z" />
    <glyph glyph-name="Ibreve" unicode="&#x12c;" horiz-adv-x="309" 
d="M116 0v658h77v-658h-77zM152 715q-60 0 -98 36.5t-50 104.5l39 7q9 -45 38 -69t71 -24t71.5 24t37.5 68l39 -6q-12 -68 -50 -104.5t-98 -36.5z" />
    <glyph glyph-name="ibreve" unicode="&#x12d;" horiz-adv-x="260" 
d="M96 0v409l68 11v-420h-68zM129 500q-54 0 -89 38.5t-46 110.5l39 5q8 -47 33.5 -73.5t62.5 -26.5q38 0 63 26.5t33 73.5l40 -5q-11 -72 -46 -110.5t-90 -38.5z" />
    <glyph glyph-name="Iogonek" unicode="&#x12e;" horiz-adv-x="309" 
d="M116 0v658h77v-658h-77zM169 -289q-60 0 -94 33.5t-34 89.5q0 45 27.5 95t90.5 90l33 -19q-40 -32 -58.5 -72t-18.5 -79q0 -38 20 -63t57 -25q18 0 32.5 5t27.5 14l19 -37q-21 -16 -45.5 -24t-56.5 -8z" />
    <glyph glyph-name="iogonek" unicode="&#x12f;" horiz-adv-x="260" 
d="M96 0v409l68 11v-420h-68zM130 536q-21 0 -34.5 13t-13.5 34t13.5 34t34.5 13q22 0 35 -13t13 -34t-13 -34t-35 -13zM141 -289q-58 0 -90 33.5t-32 89.5q0 47 27.5 97.5t90.5 92.5l27 -24q-40 -32 -58.5 -71.5t-18.5 -79.5q0 -38 20 -63t57 -25q18 0 32.5 5t27.5 14
l19 -37q-21 -16 -45.5 -24t-56.5 -8z" />
    <glyph glyph-name="Idotaccent" unicode="&#x130;" horiz-adv-x="309" 
d="M116 0v658h77v-658h-77zM151 749q-21 0 -34.5 13t-13.5 34t13.5 34t34.5 13q22 0 35 -13t13 -34t-13 -34t-35 -13z" />
    <glyph glyph-name="dotlessi" unicode="&#x131;" horiz-adv-x="260" 
d="M96 0v409l68 11v-420h-68z" />
    <glyph glyph-name="IJ" unicode="&#x132;" horiz-adv-x="722" 
d="M168 276v-20q0 -64 24.5 -111t69.5 -73.5t104 -26.5q60 0 102.5 25.5t65.5 73t23 111.5v403h74v-386q0 -85 -34 -148.5t-96 -98t-146 -34.5q-77 0 -136.5 31t-92 88.5t-32.5 136.5v29h74zM94 401v257h75v-257h-75z" />
    <glyph glyph-name="ij" unicode="&#x133;" horiz-adv-x="520" 
d="M96 0v409l68 11v-420h-68zM130 536q-21 0 -34.5 13t-13.5 34t13.5 34t34.5 13q22 0 35 -13t13 -34t-13 -34t-35 -13zM356 -11v420l68 11v-431q0 -117 -37 -185.5t-114 -92.5l-16 33q50 25 74.5 84.5t24.5 160.5zM390 536q-21 0 -34.5 13t-13.5 34t13.5 34t34.5 13
q22 0 35 -13t13 -34t-13 -34t-35 -13z" />
    <glyph glyph-name="Jcircumflex" unicode="&#x134;" horiz-adv-x="317" 
d="M131 47v611h74v-611q0 -58 -13.5 -100t-38.5 -71.5t-60 -49t-77 -30.5l-19 43q43 16 73 41t45.5 65t15.5 102zM264 735l-111 129l-13 43h49l130 -172h-55zM11 735l129 172h49l-12 -42l-112 -130h-54z" />
    <glyph glyph-name="jcircumflex" unicode="&#x135;" horiz-adv-x="260" 
d="M96 -11v420l68 11v-431q0 -117 -37 -185.5t-114 -92.5l-16 33q50 25 74.5 84.5t24.5 160.5zM213 509l-95 157l-13 40h49l110 -197h-51zM-4 509l109 197h49l-12 -39l-95 -158h-51z" />
    <glyph glyph-name="uni0136" unicode="&#x136;" horiz-adv-x="615" 
d="M497 0l-328 336l296 322h93l-327 -333l6 36l369 -361h-109zM109 0v658h72v-658h-72zM314 -290l-28 22q19 20 29.5 45.5t10.5 51.5q0 24 -7.5 43t-21.5 29l48 37q24 -16 34.5 -40t10.5 -51q0 -39 -20 -76.5t-56 -60.5z" />
    <glyph glyph-name="uni0137" unicode="&#x137;" horiz-adv-x="451" 
d="M350 0l-192 201h-18v19l199 194h90v-2l-246 -211l8 47l255 -246v-2h-96zM83 0v705l67 12v-717h-67zM214 -290l-28 22q19 20 29.5 45.5t10.5 51.5q0 24 -7.5 43t-21.5 29l48 37q24 -16 34.5 -40t10.5 -51q0 -39 -20 -76.5t-56 -60.5z" />
    <glyph glyph-name="kgreenlandic" unicode="&#x138;" horiz-adv-x="446" 
d="M345 0l-209 220l195 194h91l-244 -213l6 47l253 -248h-92zM78 0v409l67 11v-420h-67z" />
    <glyph glyph-name="Lacute" unicode="&#x139;" horiz-adv-x="549" 
d="M109 0v658h74v-658h-74zM134 0v59h391v-59h-391zM108 735l81 172h82l-108 -172h-55z" />
    <glyph glyph-name="lacute" unicode="&#x13a;" horiz-adv-x="244" 
d="M89 0v705l67 11v-716h-67zM87 788l81 172h82l-108 -172h-55z" />
    <glyph glyph-name="uni013B" unicode="&#x13b;" horiz-adv-x="549" 
d="M109 0v658h74v-658h-74zM134 0v59h391v-59h-391zM298 -290l-28 22q19 20 29.5 45.5t10.5 51.5q0 24 -7.5 43t-21.5 29l48 37q24 -16 34.5 -40t10.5 -51q0 -39 -20 -76.5t-56 -60.5z" />
    <glyph glyph-name="uni013C" unicode="&#x13c;" horiz-adv-x="244" 
d="M89 0v705l67 11v-716h-67zM104 -290l-28 22q19 20 29.5 45.5t10.5 51.5q0 24 -7.5 43t-21.5 29l48 37q24 -16 34.5 -40t10.5 -51q0 -39 -20 -76.5t-56 -60.5z" />
    <glyph glyph-name="Lcaron" unicode="&#x13d;" horiz-adv-x="549" 
d="M109 0v658h74v-658h-74zM134 0v59h391v-59h-391zM426 390l-44 -1v269h65z" />
    <glyph glyph-name="lcaron" unicode="&#x13e;" horiz-adv-x="244" 
d="M89 0v705l67 11v-716h-67zM279 463h-43v247h60z" />
    <glyph glyph-name="Ldot" unicode="&#x13f;" horiz-adv-x="549" 
d="M109 0v658h74v-658h-74zM134 0v59h391v-59h-391zM425 307q-23 0 -37.5 14t-14.5 36q0 23 14.5 37t37.5 14t36.5 -14t13.5 -37q0 -22 -13.5 -36t-36.5 -14z" />
    <glyph glyph-name="ldot" unicode="&#x140;" horiz-adv-x="281" 
d="M89 0v705l67 11v-716h-67zM263 310q-21 0 -34.5 13t-13.5 34t13.5 34t34.5 13t34.5 -13t13.5 -34t-13.5 -34t-34.5 -13z" />
    <glyph glyph-name="Lslash" unicode="&#x141;" horiz-adv-x="571" 
d="M130 0v658h74v-658h-74zM155 0v59h391v-59h-391zM54 217l-28 49l332 192l28 -50z" />
    <glyph glyph-name="lslash" unicode="&#x142;" horiz-adv-x="284" 
d="M109 0v705l67 11v-716h-67zM34 250l1 55l222 133v-55z" />
    <glyph glyph-name="Nacute" unicode="&#x143;" horiz-adv-x="769" 
d="M109 0v658h57l10 -658h-67zM633 0h-31l-468 609l1 49h49l447 -577zM664 658v-658h-58l-9 658h67zM344 735l81 172h82l-108 -172h-55z" />
    <glyph glyph-name="nacute" unicode="&#x144;" horiz-adv-x="530" 
d="M384 0v240q0 61 -27 94.5t-77 33.5q-26 0 -54.5 -10.5t-54 -32.5t-43.5 -57l-23 23q23 45 56.5 73.5t72 42t73.5 13.5q44 0 76.5 -18.5t50.5 -53.5t18 -85v-263h-68zM78 0v408l56 12l12 -99v-321h-68zM218 509l102 197h78l-129 -197h-51z" />
    <glyph glyph-name="uni0145" unicode="&#x145;" horiz-adv-x="769" 
d="M109 0v658h57l10 -658h-67zM633 0h-31l-468 609l1 49h49l447 -577zM664 658v-658h-58l-9 658h67zM361 -290l-28 22q19 20 29.5 45.5t10.5 51.5q0 24 -7.5 43t-21.5 29l48 37q24 -16 34.5 -40t10.5 -51q0 -39 -20 -76.5t-56 -60.5z" />
    <glyph glyph-name="uni0146" unicode="&#x146;" horiz-adv-x="530" 
d="M384 0v240q0 61 -27 94.5t-77 33.5q-26 0 -54.5 -10.5t-54 -32.5t-43.5 -57l-23 23q23 45 56.5 73.5t72 42t73.5 13.5q44 0 76.5 -18.5t50.5 -53.5t18 -85v-263h-68zM78 0v408l56 12l12 -99v-321h-68zM238 -290l-28 22q19 20 29.5 45.5t10.5 51.5q0 24 -7.5 43t-21.5 29
l48 37q24 -16 34.5 -40t10.5 -51q0 -39 -20 -76.5t-56 -60.5z" />
    <glyph glyph-name="Ncaron" unicode="&#x147;" horiz-adv-x="769" 
d="M109 0v658h57l10 -658h-67zM633 0h-31l-468 609l1 49h49l447 -577zM664 658v-658h-58l-9 658h67zM359 735l13 43l111 129h55l-130 -172h-49zM359 735l-129 172h54l112 -130l12 -42h-49z" />
    <glyph glyph-name="ncaron" unicode="&#x148;" horiz-adv-x="530" 
d="M384 0v240q0 61 -27 94.5t-77 33.5q-26 0 -54.5 -10.5t-54 -32.5t-43.5 -57l-23 23q23 45 56.5 73.5t72 42t73.5 13.5q44 0 76.5 -18.5t50.5 -53.5t18 -85v-263h-68zM78 0v408l56 12l12 -99v-321h-68zM237 509l13 41l95 156h51l-110 -197h-49zM237 509l-109 197h51
l95 -158l12 -39h-49z" />
    <glyph glyph-name="napostrophe" unicode="&#x149;" horiz-adv-x="530" 
d="M384 0v240q0 61 -27 94.5t-77 33.5q-26 0 -54.5 -10.5t-54 -32.5t-43.5 -57l-23 23q23 45 56.5 73.5t72 42t73.5 13.5q44 0 76.5 -18.5t50.5 -53.5t18 -85v-263h-68zM78 0v408l56 12l12 -99v-321h-68zM100 476l-28 22q19 20 29.5 45.5t10.5 51.5q0 24 -7.5 43t-21.5 29
l48 37q24 -16 34.5 -40t10.5 -51q0 -39 -20 -76.5t-56 -60.5z" />
    <glyph glyph-name="Eng" unicode="&#x14a;" horiz-adv-x="769" 
d="M595 -2l-461 605l1 55h44l448 -593zM109 0v658h59l9 -658h-68zM470 -204l-19 43q46 16 77 41t47 65t16 102l-5 611h73v-611q0 -58 -13.5 -100t-38.5 -71.5t-60 -49t-77 -30.5z" />
    <glyph glyph-name="eng" unicode="&#x14b;" horiz-adv-x="530" 
d="M301 -291l-16 34q51 24 75 84t24 162v251q0 61 -27 94.5t-77 33.5q-26 0 -54.5 -10.5t-54 -32.5t-43.5 -57l-23 23q23 45 56.5 73.5t72 42t73.5 13.5q44 0 76.5 -18.5t50.5 -53.5t18 -85v-274q0 -119 -36.5 -187t-114.5 -93zM78 0v408l56 12l12 -99v-321h-68z" />
    <glyph glyph-name="Omacron" unicode="&#x14c;" horiz-adv-x="791" 
d="M390 -9q-96 0 -171.5 43t-118.5 119t-43 173q0 76 26.5 139t74 108t110 69.5t134.5 24.5q96 0 171 -43t118 -118.5t43 -173.5q0 -76 -26.5 -139t-73.5 -108t-109.5 -69.5t-134.5 -24.5zM403 45q75 0 132 35t88.5 97.5t31.5 143.5q0 88 -35 153.5t-95.5 102t-136.5 36.5
q-73 0 -129.5 -35t-88.5 -97t-32 -144q0 -87 35 -153t95.5 -102.5t134.5 -36.5zM236 759v49h325v-49h-325z" />
    <glyph glyph-name="omacron" unicode="&#x14d;" horiz-adv-x="519" 
d="M253 -8q-61 0 -108.5 27t-75 74.5t-27.5 108.5q0 64 29.5 114t80.5 78.5t115 28.5q61 0 108.5 -27t75 -74.5t27.5 -108.5q0 -64 -29 -114t-80 -78.5t-116 -28.5zM262 40q45 0 77 22.5t49 60.5t17 83q0 52 -19.5 89.5t-52.5 58t-75 20.5q-44 0 -76.5 -21.5t-49.5 -59
t-17 -83.5q0 -52 19.5 -90t53 -59t74.5 -21zM133 519v50h265v-50h-265z" />
    <glyph glyph-name="Obreve" unicode="&#x14e;" horiz-adv-x="791" 
d="M390 -9q-96 0 -171.5 43t-118.5 119t-43 173q0 76 26.5 139t74 108t110 69.5t134.5 24.5q96 0 171 -43t118 -118.5t43 -173.5q0 -76 -26.5 -139t-73.5 -108t-109.5 -69.5t-134.5 -24.5zM403 45q75 0 132 35t88.5 97.5t31.5 143.5q0 88 -35 153.5t-95.5 102t-136.5 36.5
q-73 0 -129.5 -35t-88.5 -97t-32 -144q0 -87 35 -153t95.5 -102.5t134.5 -36.5zM399 715q-60 0 -98 36.5t-50 104.5l39 7q9 -45 38 -69t71 -24t71.5 24t37.5 68l39 -6q-12 -68 -50 -104.5t-98 -36.5z" />
    <glyph glyph-name="obreve" unicode="&#x14f;" horiz-adv-x="519" 
d="M253 -8q-61 0 -108.5 27t-75 74.5t-27.5 108.5q0 64 29.5 114t80.5 78.5t115 28.5q61 0 108.5 -27t75 -74.5t27.5 -108.5q0 -64 -29 -114t-80 -78.5t-116 -28.5zM262 40q45 0 77 22.5t49 60.5t17 83q0 52 -19.5 89.5t-52.5 58t-75 20.5q-44 0 -76.5 -21.5t-49.5 -59
t-17 -83.5q0 -52 19.5 -90t53 -59t74.5 -21zM265 500q-54 0 -89 38.5t-46 110.5l39 5q8 -47 33.5 -73.5t62.5 -26.5q38 0 63 26.5t33 73.5l40 -5q-11 -72 -46 -110.5t-90 -38.5z" />
    <glyph glyph-name="Ohungarumlaut" unicode="&#x150;" horiz-adv-x="791" 
d="M390 -9q-96 0 -171.5 43t-118.5 119t-43 173q0 76 26.5 139t74 108t110 69.5t134.5 24.5q96 0 171 -43t118 -118.5t43 -173.5q0 -76 -26.5 -139t-73.5 -108t-109.5 -69.5t-134.5 -24.5zM403 45q75 0 132 35t88.5 97.5t31.5 143.5q0 88 -35 153.5t-95.5 102t-136.5 36.5
q-73 0 -129.5 -35t-88.5 -97t-32 -144q0 -87 35 -153t95.5 -102.5t134.5 -36.5zM277 735l81 172h82l-108 -172h-55zM445 735l81 172h82l-108 -172h-55z" />
    <glyph glyph-name="ohungarumlaut" unicode="&#x151;" horiz-adv-x="519" 
d="M253 -8q-61 0 -108.5 27t-75 74.5t-27.5 108.5q0 64 29.5 114t80.5 78.5t115 28.5q61 0 108.5 -27t75 -74.5t27.5 -108.5q0 -64 -29 -114t-80 -78.5t-116 -28.5zM262 40q45 0 77 22.5t49 60.5t17 83q0 52 -19.5 89.5t-52.5 58t-75 20.5q-44 0 -76.5 -21.5t-49.5 -59
t-17 -83.5q0 -52 19.5 -90t53 -59t74.5 -21zM137 509l102 197h78l-129 -197h-51zM310 509l102 197h78l-129 -197h-51z" />
    <glyph glyph-name="OE" unicode="&#x152;" horiz-adv-x="934" 
d="M398 -6q-77 0 -142 24.5t-113.5 69t-75 105t-26.5 131.5q0 74 28.5 136t78.5 108t117.5 71t145.5 25q29 0 56.5 -4t52.5 -11l-13 -64q-19 12 -48 18t-59 6q-62 0 -113.5 -19.5t-88.5 -56t-57.5 -87t-20.5 -112.5q0 -63 21.5 -115.5t60 -91t92 -59t116.5 -20.5q29 0 54 6
t47 19l29 -47q-31 -15 -66.5 -23.5t-75.5 -8.5zM492 304v59h323v-59h-323zM470 0v658h383v-59h-312v-540h342v-59h-413z" />
    <glyph glyph-name="oe" unicode="&#x153;" horiz-adv-x="750" 
d="M229 -8q-56 0 -101 26.5t-70.5 74.5t-25.5 110q0 65 27 114t74 77.5t104 28.5q58 0 98 -29t61 -78.5t21 -112.5q0 -61 -23 -108.5t-65 -75t-100 -27.5zM239 41q40 0 68 21.5t42 58t14 78.5q0 53 -16.5 92t-46 60.5t-68.5 21.5q-38 0 -68 -21.5t-46 -58.5t-16 -84
q0 -51 18.5 -89t50 -58.5t68.5 -20.5zM556 -8q-56 0 -98 25.5t-65.5 71.5t-23.5 110q0 66 26 116.5t72 79t103 28.5q71 0 106.5 -41.5t35.5 -109.5q0 -9 -0.5 -18t-1.5 -19h-57v35q0 50 -22.5 77t-68.5 27q-39 0 -70.5 -20t-49 -58t-17.5 -92q0 -72 37.5 -116t101.5 -44
q32 0 64 12t61 38l24 -36q-25 -25 -52 -39.5t-53.5 -20.5t-51.5 -6zM396 235l9 43h296v-43h-305z" />
    <glyph glyph-name="Racute" unicode="&#x154;" horiz-adv-x="676" 
d="M109 0v658h178q68 0 117.5 -20t76.5 -57t27 -89q0 -42 -19.5 -80t-52.5 -67.5t-75.5 -46.5t-89.5 -17h-134v54h143q41 0 75.5 20t56 53.5t21.5 71.5q0 57 -39 90t-113 33h-100v-603h-72zM611 -9q-40 0 -71.5 12.5t-61 41t-63.5 76.5l-127 180l59 21l138 -175
q32 -40 57 -62.5t47.5 -31.5t45.5 -9q9 0 22 1t26 5l15 -43q-25 -9 -46 -12.5t-41 -3.5zM248 735l81 172h82l-108 -172h-55z" />
    <glyph glyph-name="racute" unicode="&#x155;" horiz-adv-x="373" 
d="M78 0v409l56 11l12 -105v-315h-68zM134 260l-17 25q33 63 75 98.5t95 35.5q21 0 40 -5.5t33 -16.5l-29 -57q-11 9 -28.5 14t-35.5 5q-39 0 -71.5 -25.5t-61.5 -73.5zM173 509l102 197h78l-129 -197h-51z" />
    <glyph glyph-name="uni0156" unicode="&#x156;" horiz-adv-x="676" 
d="M109 0v658h178q68 0 117.5 -20t76.5 -57t27 -89q0 -42 -19.5 -80t-52.5 -67.5t-75.5 -46.5t-89.5 -17h-134v54h143q41 0 75.5 20t56 53.5t21.5 71.5q0 57 -39 90t-113 33h-100v-603h-72zM611 -9q-40 0 -71.5 12.5t-61 41t-63.5 76.5l-127 180l59 21l138 -175
q32 -40 57 -62.5t47.5 -31.5t45.5 -9q9 0 22 1t26 5l15 -43q-25 -9 -46 -12.5t-41 -3.5zM317 -290l-28 22q19 20 29.5 45.5t10.5 51.5q0 24 -7.5 43t-21.5 29l48 37q24 -16 34.5 -40t10.5 -51q0 -39 -20 -76.5t-56 -60.5z" />
    <glyph glyph-name="uni0157" unicode="&#x157;" horiz-adv-x="373" 
d="M78 0v409l56 11l12 -105v-315h-68zM134 260l-17 25q33 63 75 98.5t95 35.5q21 0 40 -5.5t33 -16.5l-29 -57q-11 9 -28.5 14t-35.5 5q-39 0 -71.5 -25.5t-61.5 -73.5zM157 -290l-28 22q19 20 29.5 45.5t10.5 51.5q0 24 -7.5 43t-21.5 29l48 37q24 -16 34.5 -40t10.5 -51
q0 -39 -20 -76.5t-56 -60.5z" />
    <glyph glyph-name="Rcaron" unicode="&#x158;" horiz-adv-x="676" 
d="M109 0v658h178q68 0 117.5 -20t76.5 -57t27 -89q0 -42 -19.5 -80t-52.5 -67.5t-75.5 -46.5t-89.5 -17h-134v54h143q41 0 75.5 20t56 53.5t21.5 71.5q0 57 -39 90t-113 33h-100v-603h-72zM611 -9q-40 0 -71.5 12.5t-61 41t-63.5 76.5l-127 180l59 21l138 -175
q32 -40 57 -62.5t47.5 -31.5t45.5 -9q9 0 22 1t26 5l15 -43q-25 -9 -46 -12.5t-41 -3.5zM263 735l13 43l111 129h55l-130 -172h-49zM263 735l-129 172h54l112 -130l12 -42h-49z" />
    <glyph glyph-name="rcaron" unicode="&#x159;" horiz-adv-x="373" 
d="M78 0v409l56 11l12 -105v-315h-68zM134 260l-17 25q33 63 75 98.5t95 35.5q21 0 40 -5.5t33 -16.5l-29 -57q-11 9 -28.5 14t-35.5 5q-39 0 -71.5 -25.5t-61.5 -73.5zM191 509l13 41l95 156h51l-110 -197h-49zM191 509l-109 197h51l95 -158l12 -39h-49z" />
    <glyph glyph-name="Sacute" unicode="&#x15a;" horiz-adv-x="522" 
d="M397 159q0 36 -17 61t-45.5 43.5t-62.5 34t-68 32.5t-62.5 38t-45.5 50.5t-17 71.5q0 55 26 94.5t72 61t105 21.5q42 0 86 -10.5t78 -31.5l-27 -66q-30 25 -70.5 39t-79.5 14q-41 0 -68.5 -15t-40.5 -38.5t-13 -51.5q0 -31 17.5 -53.5t46 -39.5t62.5 -32.5t68 -33
t62.5 -40.5t46 -55t17.5 -76q0 -59 -28 -101t-76.5 -64t-110.5 -22t-115.5 18.5t-88.5 49.5l37 61q36 -34 84 -53t97 -19q62 0 96.5 30.5t34.5 81.5zM238 735l81 172h82l-108 -172h-55z" />
    <glyph glyph-name="sacute" unicode="&#x15b;" horiz-adv-x="378" 
d="M182 -9q-30 0 -57.5 5.5t-49.5 15t-38 19.5l20 56q24 -22 59.5 -35.5t68.5 -13.5q41 0 64.5 20.5t23.5 48.5q0 25 -15.5 40.5t-40 25.5t-51.5 19.5t-51.5 23t-40.5 35t-16 55.5q0 39 20 65t52 39t72 13q30 0 61.5 -7.5t54.5 -22.5l-20 -53q-19 19 -48 28.5t-52 9.5
q-37 0 -57.5 -17t-20.5 -42q0 -23 16 -38t40.5 -24.5t52 -19.5t52 -23.5t40.5 -36t16 -57.5q0 -26 -10.5 -49.5t-30.5 -41.5t-49 -28t-65 -10zM151 509l102 197h78l-129 -197h-51z" />
    <glyph glyph-name="Scircumflex" unicode="&#x15c;" horiz-adv-x="522" 
d="M397 159q0 36 -17 61t-45.5 43.5t-62.5 34t-68 32.5t-62.5 38t-45.5 50.5t-17 71.5q0 55 26 94.5t72 61t105 21.5q42 0 86 -10.5t78 -31.5l-27 -66q-30 25 -70.5 39t-79.5 14q-41 0 -68.5 -15t-40.5 -38.5t-13 -51.5q0 -31 17.5 -53.5t46 -39.5t62.5 -32.5t68 -33
t62.5 -40.5t46 -55t17.5 -76q0 -59 -28 -101t-76.5 -64t-110.5 -22t-115.5 18.5t-88.5 49.5l37 61q36 -34 84 -53t97 -19q62 0 96.5 30.5t34.5 81.5zM377 735l-111 129l-13 43h49l130 -172h-55zM124 735l129 172h49l-12 -42l-112 -130h-54z" />
    <glyph glyph-name="scircumflex" unicode="&#x15d;" horiz-adv-x="378" 
d="M182 -9q-30 0 -57.5 5.5t-49.5 15t-38 19.5l20 56q24 -22 59.5 -35.5t68.5 -13.5q41 0 64.5 20.5t23.5 48.5q0 25 -15.5 40.5t-40 25.5t-51.5 19.5t-51.5 23t-40.5 35t-16 55.5q0 39 20 65t52 39t72 13q30 0 61.5 -7.5t54.5 -22.5l-20 -53q-19 19 -48 28.5t-52 9.5
q-37 0 -57.5 -17t-20.5 -42q0 -23 16 -38t40.5 -24.5t52 -19.5t52 -23.5t40.5 -36t16 -57.5q0 -26 -10.5 -49.5t-30.5 -41.5t-49 -28t-65 -10zM278 509l-95 157l-13 40h49l110 -197h-51zM61 509l109 197h49l-12 -39l-95 -158h-51z" />
    <glyph glyph-name="Scedilla" unicode="&#x15e;" horiz-adv-x="522" 
d="M397 159q0 36 -17 61t-45.5 43.5t-62.5 34t-68 32.5t-62.5 38t-45.5 50.5t-17 71.5q0 55 26 94.5t72 61t105 21.5q42 0 86 -10.5t78 -31.5l-27 -66q-30 25 -70.5 39t-79.5 14q-41 0 -68.5 -15t-40.5 -38.5t-13 -51.5q0 -31 17.5 -53.5t46 -39.5t62.5 -32.5t68 -33
t62.5 -40.5t46 -55t17.5 -76q0 -59 -28 -101t-76.5 -64t-110.5 -22t-115.5 18.5t-88.5 49.5l37 61q36 -34 84 -53t97 -19q62 0 96.5 30.5t34.5 81.5zM247 0h50l-34 -93l-36 11q9 5 22 7.5t28 2.5q49 0 82.5 -26.5t33.5 -71.5q0 -44 -36 -71t-94 -27q-30 0 -54.5 8t-44.5 24
l19 41q15 -12 35.5 -19t41.5 -7q33 0 49.5 16t16.5 36q0 23 -21.5 38.5t-58.5 15.5q-8 0 -19 -1.5t-22 -3.5z" />
    <glyph glyph-name="scedilla" unicode="&#x15f;" horiz-adv-x="378" 
d="M182 -9q-30 0 -57.5 5.5t-49.5 15t-38 19.5l20 56q24 -22 59.5 -35.5t68.5 -13.5q41 0 64.5 20.5t23.5 48.5q0 25 -15.5 40.5t-40 25.5t-51.5 19.5t-51.5 23t-40.5 35t-16 55.5q0 39 20 65t52 39t72 13q30 0 61.5 -7.5t54.5 -22.5l-20 -53q-19 19 -48 28.5t-52 9.5
q-37 0 -57.5 -17t-20.5 -42q0 -23 16 -38t40.5 -24.5t52 -19.5t52 -23.5t40.5 -36t16 -57.5q0 -26 -10.5 -49.5t-30.5 -41.5t-49 -28t-65 -10zM167 0h50l-31 -85l-36 10q10 4 23.5 6t27.5 2q49 0 79 -24t30 -62q0 -41 -35.5 -65.5t-86.5 -24.5q-29 0 -51 8t-42 25l15 29
q14 -10 32.5 -16.5t37.5 -6.5q31 0 48 16t17 36q0 21 -19.5 36t-55.5 15q-7 0 -19 -1t-23 -3z" />
    <glyph glyph-name="Scaron" unicode="&#x160;" horiz-adv-x="522" 
d="M397 159q0 36 -17 61t-45.5 43.5t-62.5 34t-68 32.5t-62.5 38t-45.5 50.5t-17 71.5q0 55 26 94.5t72 61t105 21.5q42 0 86 -10.5t78 -31.5l-27 -66q-30 25 -70.5 39t-79.5 14q-41 0 -68.5 -15t-40.5 -38.5t-13 -51.5q0 -31 17.5 -53.5t46 -39.5t62.5 -32.5t68 -33
t62.5 -40.5t46 -55t17.5 -76q0 -59 -28 -101t-76.5 -64t-110.5 -22t-115.5 18.5t-88.5 49.5l37 61q36 -34 84 -53t97 -19q62 0 96.5 30.5t34.5 81.5zM254 735l13 43l111 129h55l-130 -172h-49zM254 735l-129 172h54l112 -130l12 -42h-49z" />
    <glyph glyph-name="scaron" unicode="&#x161;" horiz-adv-x="378" 
d="M182 -9q-30 0 -57.5 5.5t-49.5 15t-38 19.5l20 56q24 -22 59.5 -35.5t68.5 -13.5q41 0 64.5 20.5t23.5 48.5q0 25 -15.5 40.5t-40 25.5t-51.5 19.5t-51.5 23t-40.5 35t-16 55.5q0 39 20 65t52 39t72 13q30 0 61.5 -7.5t54.5 -22.5l-20 -53q-19 19 -48 28.5t-52 9.5
q-37 0 -57.5 -17t-20.5 -42q0 -23 16 -38t40.5 -24.5t52 -19.5t52 -23.5t40.5 -36t16 -57.5q0 -26 -10.5 -49.5t-30.5 -41.5t-49 -28t-65 -10zM170 509l13 41l95 156h51l-110 -197h-49zM170 509l-109 197h51l95 -158l12 -39h-49z" />
    <glyph glyph-name="uni0162" unicode="&#x162;" horiz-adv-x="628" 
d="M276 0v658h76v-658h-76zM27 599v59h574v-59h-574zM293 0h50l-34 -93l-36 11q9 5 22 7.5t28 2.5q49 0 82.5 -26.5t33.5 -71.5q0 -44 -36 -71t-94 -27q-30 0 -54.5 8t-44.5 24l19 41q15 -12 35.5 -19t41.5 -7q33 0 49.5 16t16.5 36q0 23 -21.5 38.5t-58.5 15.5
q-8 0 -19 -1.5t-22 -3.5z" />
    <glyph glyph-name="uni0163" unicode="&#x163;" horiz-adv-x="380" 
d="M234 -7q-36 0 -65 15t-45 43t-16 69v274l23 108l46 9v-380q0 -43 20 -65t55 -22q22 0 44 8t43 25l20 -33q-28 -26 -60.5 -38.5t-64.5 -12.5zM337 357l-313 1l5 45l311 4zM201 0h50l-31 -85l-36 10q10 4 23.5 6t27.5 2q49 0 79 -24t30 -62q0 -41 -35.5 -65.5t-86.5 -24.5
q-29 0 -51 8t-42 25l15 29q14 -10 32.5 -16.5t37.5 -6.5q31 0 48 16t17 36q0 21 -19.5 36t-55.5 15q-7 0 -19 -1t-23 -3z" />
    <glyph glyph-name="Tcaron" unicode="&#x164;" horiz-adv-x="628" 
d="M276 0v658h76v-658h-76zM27 599v59h574v-59h-574zM290 735l13 43l111 129h55l-130 -172h-49zM290 735l-129 172h54l112 -130l12 -42h-49z" />
    <glyph glyph-name="tcaron" unicode="&#x165;" horiz-adv-x="380" 
d="M232 -7q-36 0 -64 15t-44 43.5t-16 67.5v275l23 108l45 9v-121v-12v-247q0 -43 20 -65t54 -22q22 0 46 9t45 27l21 -30q-29 -30 -63 -43.5t-67 -13.5zM336 361l-311 1l3 41l312 4zM292 463h-44v247h60z" />
    <glyph glyph-name="Tbar" unicode="&#x166;" horiz-adv-x="628" 
d="M276 0v658h76v-658h-76zM27 599v59h574v-59h-574zM136 307v55h356v-55h-356z" />
    <glyph glyph-name="tbar" unicode="&#x167;" horiz-adv-x="381" 
d="M232 -7q-36 0 -64 15t-44 43.5t-16 67.5v275l23 108l45 9v-380q0 -43 20 -65t54 -22q22 0 46 9t45 27l21 -30q-29 -30 -63 -43.5t-67 -13.5zM313 214l-285 1l3 38l285 3zM336 361l-311 1l3 41l312 4z" />
    <glyph glyph-name="Utilde" unicode="&#x168;" horiz-adv-x="730" 
d="M362 -9q-80 0 -140.5 33t-94 93t-33.5 142v399h74v-384q0 -69 25 -119t72 -77t110 -27q62 0 106.5 25.5t68.5 72.5t24 108v401h65v-385q0 -85 -34.5 -148.5t-96.5 -98.5t-146 -35zM243 721l-37 10q9 27 25 48t37 32.5t43 11.5q18 0 40.5 -4t45.5 -9t43 -5q23 0 41 14
t27 39l38 -9q-14 -45 -43 -71.5t-64 -26.5q-21 0 -43.5 4.5t-44 9t-40.5 4.5q-22 0 -40 -12t-28 -36z" />
    <glyph glyph-name="utilde" unicode="&#x169;" horiz-adv-x="521" 
d="M219 -5q-62 0 -101.5 41.5t-39.5 114.5v257l68 12v-247q0 -59 26.5 -93t74.5 -34q26 0 53 10.5t51.5 33t40.5 57.5l25 -23q-22 -44 -54.5 -72.5t-69.5 -42.5t-74 -14zM387 -6l-12 102v312l69 12v-414zM155 485l-37 10q12 41 40 66.5t59 25.5q16 0 34 -4t36 -8.5t35 -4.5
q21 0 37 14t25 39l37 -10q-11 -43 -38.5 -70.5t-60.5 -27.5q-19 0 -36.5 4.5t-34.5 9t-34 4.5q-21 0 -37 -12.5t-25 -35.5z" />
    <glyph glyph-name="Umacron" unicode="&#x16a;" horiz-adv-x="730" 
d="M362 -9q-80 0 -140.5 33t-94 93t-33.5 142v399h74v-384q0 -69 25 -119t72 -77t110 -27q62 0 106.5 25.5t68.5 72.5t24 108v401h65v-385q0 -85 -34.5 -148.5t-96.5 -98.5t-146 -35zM210 759v49h325v-49h-325z" />
    <glyph glyph-name="umacron" unicode="&#x16b;" horiz-adv-x="521" 
d="M219 -5q-62 0 -101.5 41.5t-39.5 114.5v257l68 12v-247q0 -59 26.5 -93t74.5 -34q26 0 53 10.5t51.5 33t40.5 57.5l25 -23q-22 -44 -54.5 -72.5t-69.5 -42.5t-74 -14zM387 -6l-12 102v312l69 12v-414zM134 519v50h265v-50h-265z" />
    <glyph glyph-name="Ubreve" unicode="&#x16c;" horiz-adv-x="730" 
d="M362 -9q-80 0 -140.5 33t-94 93t-33.5 142v399h74v-384q0 -69 25 -119t72 -77t110 -27q62 0 106.5 25.5t68.5 72.5t24 108v401h65v-385q0 -85 -34.5 -148.5t-96.5 -98.5t-146 -35zM373 715q-60 0 -98 36.5t-50 104.5l39 7q9 -45 38 -69t71 -24t71.5 24t37.5 68l39 -6
q-12 -68 -50 -104.5t-98 -36.5z" />
    <glyph glyph-name="ubreve" unicode="&#x16d;" horiz-adv-x="521" 
d="M219 -5q-62 0 -101.5 41.5t-39.5 114.5v257l68 12v-247q0 -59 26.5 -93t74.5 -34q26 0 53 10.5t51.5 33t40.5 57.5l25 -23q-22 -44 -54.5 -72.5t-69.5 -42.5t-74 -14zM387 -6l-12 102v312l69 12v-414zM267 500q-54 0 -89 38.5t-46 110.5l39 5q8 -47 33.5 -73.5
t62.5 -26.5q38 0 63 26.5t33 73.5l40 -5q-11 -72 -46 -110.5t-90 -38.5z" />
    <glyph glyph-name="Uring" unicode="&#x16e;" horiz-adv-x="730" 
d="M362 -9q-80 0 -140.5 33t-94 93t-33.5 142v399h74v-384q0 -69 25 -119t72 -77t110 -27q62 0 106.5 25.5t68.5 72.5t24 108v401h65v-385q0 -85 -34.5 -148.5t-96.5 -98.5t-146 -35zM373 693q-46 0 -77 26.5t-31 65.5t31 64t79 25q46 0 76 -25.5t30 -65.5
q0 -39 -30.5 -64.5t-77.5 -25.5zM374 732q21 0 34.5 14t13.5 37t-13.5 37.5t-35.5 14.5q-21 0 -34.5 -13.5t-13.5 -36.5t14 -38t35 -15z" />
    <glyph glyph-name="uring" unicode="&#x16f;" horiz-adv-x="521" 
d="M219 -5q-62 0 -101.5 41.5t-39.5 114.5v257l68 12v-247q0 -59 26.5 -93t74.5 -34q26 0 53 10.5t51.5 33t40.5 57.5l25 -23q-22 -44 -54.5 -72.5t-69.5 -42.5t-74 -14zM387 -6l-12 102v312l69 12v-414zM267 487q-29 0 -52.5 12.5t-36.5 34t-13 48.5t13.5 48t37 33t52.5 12
q30 0 53 -12.5t36 -34t13 -48.5q0 -26 -13.5 -47.5t-37 -33.5t-52.5 -12zM268 524q21 0 35 16t14 40q0 26 -14 42t-35 16q-22 0 -36 -15.5t-14 -40.5t14.5 -41.5t35.5 -16.5z" />
    <glyph glyph-name="Uhungarumlaut" unicode="&#x170;" horiz-adv-x="730" 
d="M362 -9q-80 0 -140.5 33t-94 93t-33.5 142v399h74v-384q0 -69 25 -119t72 -77t110 -27q62 0 106.5 25.5t68.5 72.5t24 108v401h65v-385q0 -85 -34.5 -148.5t-96.5 -98.5t-146 -35zM251 735l81 172h82l-108 -172h-55zM420 735l81 172h82l-108 -172h-55z" />
    <glyph glyph-name="uhungarumlaut" unicode="&#x171;" horiz-adv-x="521" 
d="M219 -5q-62 0 -101.5 41.5t-39.5 114.5v257l68 12v-247q0 -59 26.5 -93t74.5 -34q26 0 53 10.5t51.5 33t40.5 57.5l25 -23q-22 -44 -54.5 -72.5t-69.5 -42.5t-74 -14zM387 -6l-12 102v312l69 12v-414zM138 509l102 197h78l-129 -197h-51zM312 509l102 197h78l-129 -197
h-51z" />
    <glyph glyph-name="Uogonek" unicode="&#x172;" horiz-adv-x="730" 
d="M362 -9q-80 0 -140.5 33t-94 93t-33.5 142v399h74v-384q0 -69 25 -119t72 -77t110 -27q62 0 106.5 25.5t68.5 72.5t24 108v401h65v-385q0 -85 -34.5 -148.5t-96.5 -98.5t-146 -35zM404 -289q-64 0 -100.5 35t-36.5 95q0 47 33.5 98t109.5 93l25 -21q-50 -32 -73 -73
t-23 -83q0 -39 22 -66.5t66 -27.5q16 0 28.5 4.5t24.5 12.5l19 -37q-21 -15 -43 -22.5t-52 -7.5z" />
    <glyph glyph-name="uogonek" unicode="&#x173;" horiz-adv-x="521" 
d="M219 -5q-62 0 -101.5 41.5t-39.5 114.5v257l68 12v-247q0 -59 26.5 -93t74.5 -34q26 0 53 10.5t51.5 33t40.5 57.5l25 -23q-22 -44 -54.5 -72.5t-69.5 -42.5t-74 -14zM387 -6l-12 102v312l69 12v-414zM376 -290q-40 0 -65.5 16.5t-37.5 43t-12 56.5q0 38 17 73.5t52.5 69
t91.5 62.5l22 -28q-56 -34 -85 -75.5t-29 -86.5q0 -35 18 -58t52 -23q15 0 28 5t23 12l19 -37q-19 -14 -42.5 -22t-51.5 -8z" />
    <glyph glyph-name="Wcircumflex" unicode="&#x174;" horiz-adv-x="989" 
d="M674 0l-209 658h72l203 -640h-44l176 640h71l-196 -658h-73zM242 0l-195 658h78l180 -640h-42l197 640h59l-204 -658h-73zM593 735l-111 129l-13 43h49l130 -172h-55zM340 735l129 172h49l-12 -42l-112 -130h-54z" />
    <glyph glyph-name="wcircumflex" unicode="&#x175;" horiz-adv-x="727" 
d="M173 0l-147 414h74l119 -369h-20l136 369h62l144 -369l-19 -1l108 370h72l-147 -414h-62l-142 358h17l-134 -358h-61zM446 509l-95 157l-13 40h49l110 -197h-51zM229 509l109 197h49l-12 -39l-95 -158h-51z" />
    <glyph glyph-name="Ycircumflex" unicode="&#x176;" horiz-adv-x="632" 
d="M293 248l-266 410h91l224 -366zM278 0v293h75v-293h-75zM340 251l-41 41l227 366h79zM415 735l-111 129l-13 43h49l130 -172h-55zM162 735l129 172h49l-12 -42l-112 -130h-54z" />
    <glyph glyph-name="ycircumflex" unicode="&#x177;" horiz-adv-x="469" 
d="M229 -31l-203 445h75l159 -366zM374 414h69l-285 -703h-73l148 314zM318 509l-95 157l-13 40h49l110 -197h-51zM101 509l109 197h49l-12 -39l-95 -158h-51z" />
    <glyph glyph-name="Ydieresis" unicode="&#x178;" horiz-adv-x="632" 
d="M293 248l-266 410h91l224 -366zM278 0v293h75v-293h-75zM340 251l-41 41l227 366h79zM220 740q-20 0 -32.5 12.5t-12.5 31.5q0 20 12.5 32.5t32.5 12.5t33 -12.5t13 -32.5q0 -19 -13 -31.5t-33 -12.5zM412 740q-20 0 -33 12.5t-13 31.5q0 20 13 32.5t33 12.5t32.5 -12.5
t12.5 -32.5q0 -19 -12.5 -31.5t-32.5 -12.5z" />
    <glyph glyph-name="Zacute" unicode="&#x179;" horiz-adv-x="614" 
d="M57 0l-2 49l453 603l31 -50l-467 -3v59h489l1 -48l-453 -604l-29 50l493 3v-59h-516zM283 735l81 172h82l-108 -172h-55z" />
    <glyph glyph-name="zacute" unicode="&#x17a;" horiz-adv-x="423" 
d="M35 26l277 362l36 -23l-295 -4l3 46h324l6 -21l-278 -369l-33 26l318 4l-3 -47h-348zM176 509l102 197h78l-129 -197h-51z" />
    <glyph glyph-name="Zdotaccent" unicode="&#x17b;" horiz-adv-x="614" 
d="M57 0l-2 49l453 603l31 -50l-467 -3v59h489l1 -48l-453 -604l-29 50l493 3v-59h-516zM323 749q-21 0 -34.5 13t-13.5 34t13.5 34t34.5 13q22 0 35 -13t13 -34t-13 -34t-35 -13z" />
    <glyph glyph-name="zdotaccent" unicode="&#x17c;" horiz-adv-x="423" 
d="M35 26l277 362l36 -23l-295 -4l3 46h324l6 -21l-278 -369l-33 26l318 4l-3 -47h-348zM219 536q-21 0 -34.5 13t-13.5 34t13.5 34t34.5 13q22 0 35 -13t13 -34t-13 -34t-35 -13z" />
    <glyph glyph-name="Zcaron" unicode="&#x17d;" horiz-adv-x="614" 
d="M57 0l-2 49l453 603l31 -50l-467 -3v59h489l1 -48l-453 -604l-29 50l493 3v-59h-516zM299 735l13 43l111 129h55l-130 -172h-49zM299 735l-129 172h54l112 -130l12 -42h-49z" />
    <glyph glyph-name="zcaron" unicode="&#x17e;" horiz-adv-x="423" 
d="M35 26l277 362l36 -23l-295 -4l3 46h324l6 -21l-278 -369l-33 26l318 4l-3 -47h-348zM195 509l13 41l95 156h51l-110 -197h-49zM195 509l-109 197h51l95 -158l12 -39h-49z" />
    <glyph glyph-name="longs" unicode="&#x17f;" horiz-adv-x="276" 
d="M93 0v429q0 79 17.5 133.5t48 87t69.5 47t81 14.5q33 0 59 -9t51 -26l-32 -52q-26 21 -47.5 29.5t-44.5 8.5q-42 0 -72 -22t-45.5 -69.5t-15.5 -124.5v-446h-69z" />
    <glyph glyph-name="uni018F" unicode="&#x18f;" horiz-adv-x="715" 
d="M334 -9q-79 0 -141.5 33t-99 92t-36.5 133v27t2 26l73 -18q-1 -7 -1.5 -16.5t-0.5 -17.5q0 -59 29 -105.5t77.5 -73.5t109.5 -27q71 0 124 35.5t82.5 97.5t29.5 144q0 85 -32 150t-89 102t-132 37q-41 0 -77 -11t-66 -32t-57 -49l-36 60q34 29 73.5 48.5t84 30t90.5 10.5
q71 0 129.5 -25t100.5 -70.5t64.5 -106.5t22.5 -132q0 -73 -24.5 -135.5t-68 -109t-103 -72t-128.5 -25.5zM96 247l-37 55h549v-55h-512z" />
    <glyph glyph-name="florin" unicode="&#x192;" horiz-adv-x="372" 
d="M91 -246q-27 0 -47.5 8t-39.5 22l35 51q14 -13 27.5 -18.5t26.5 -5.5q22 0 38 13t24.5 44.5t5.5 88.5l-20 528q-2 50 3 88t16.5 64t29 42.5t40.5 24t50 7.5q28 0 49 -8t39 -23l-35 -50q-14 13 -27.5 18t-26.5 5q-22 0 -39 -13.5t-25.5 -46t-6.5 -91.5l20 -527
q2 -49 -3 -86t-16 -62.5t-28.5 -42t-40 -23.5t-49.5 -7zM347 357l-312 1l4 45l313 4z" />
    <glyph glyph-name="Ohorn" unicode="&#x1a0;" horiz-adv-x="791" 
d="M390 -9q-96 0 -171.5 43t-118.5 119t-43 173q0 76 26.5 139t74 108t110 69.5t134.5 24.5q96 0 171 -43t118 -118.5t43 -173.5q0 -76 -26.5 -139t-73.5 -108t-109.5 -69.5t-134.5 -24.5zM403 45q75 0 132 35t88.5 97.5t31.5 143.5q0 88 -35 153.5t-95.5 102t-136.5 36.5
q-73 0 -129.5 -35t-88.5 -97t-32 -144q0 -87 35 -153t95.5 -102.5t134.5 -36.5zM564 561l-6 41q61 18 95 46t34 79q0 23 -8 41.5t-24 30.5l45 36q24 -18 37 -44t13 -60q0 -47 -22.5 -80.5t-64 -55.5t-99.5 -34z" />
    <glyph glyph-name="ohorn" unicode="&#x1a1;" horiz-adv-x="530" 
d="M253 -8q-61 0 -108.5 27t-75 74.5t-27.5 108.5q0 64 29.5 114t80.5 78.5t115 28.5q61 0 108.5 -27t75 -74.5t27.5 -108.5q0 -64 -29 -114t-80 -78.5t-116 -28.5zM262 40q45 0 77 22.5t49 60.5t17 83q0 52 -19.5 89.5t-52.5 58t-75 20.5q-44 0 -76.5 -21.5t-49.5 -59
t-17 -83.5q0 -52 19.5 -90t53 -59t74.5 -21zM386 347l-13 38q42 8 62 32.5t20 52.5q0 17 -6.5 33.5t-22.5 29.5l47 38q27 -22 38 -45.5t11 -48.5q0 -31 -16 -59t-46.5 -47.5t-73.5 -23.5z" />
    <glyph glyph-name="Uhorn" unicode="&#x1af;" horiz-adv-x="742" 
d="M362 -9q-80 0 -140.5 33t-94 93t-33.5 142v399h74v-379q0 -73 25.5 -124t72 -77.5t109.5 -26.5q61 0 105 25t67.5 71t23.5 109v359h68v-342q0 -85 -34.5 -148.5t-96.5 -98.5t-146 -35zM589 577l-18 38q42 9 72 23.5t46.5 37t16.5 53.5q0 24 -9 42t-22 28l44 36
q24 -20 36.5 -45.5t12.5 -58.5q0 -44 -21.5 -75.5t-61 -51t-96.5 -27.5z" />
    <glyph glyph-name="uhorn" unicode="&#x1b0;" horiz-adv-x="546" 
d="M220 -5q-62 0 -102 41.5t-40 114.5v257l68 12v-247q0 -59 27 -93t76 -34q26 0 53.5 10.5t52.5 33t41 57.5l25 -23q-22 -44 -55 -72.5t-70.5 -42.5t-75.5 -14zM391 -6l-12 102v276l69 12v-378zM399 336l-20 36q50 10 78.5 34t28.5 63q0 23 -8.5 41t-22.5 29l46 36
q25 -17 38.5 -41t13.5 -56q0 -37 -19.5 -67t-54 -49.5t-80.5 -25.5z" />
    <glyph glyph-name="uni01B7" unicode="&#x1b7;" horiz-adv-x="573" 
d="M280 -9q-57 0 -107 17.5t-85 51t-51 81.5l68 25q17 -40 45 -66.5t64.5 -39.5t79.5 -13q35 0 66 8.5t54 25.5t36 44t13 64q0 32 -12.5 61t-43 51t-84 32.5t-135.5 3.5l-14 37l293 262l26 -34l-437 -3v59h459l1 -48l-285 -259l-12 41q113 10 182 -14t101 -70.5t32 -106.5
q0 -71 -35.5 -117.5t-93.5 -69.5t-125 -23z" />
    <glyph glyph-name="uni01CD" unicode="&#x1cd;" horiz-adv-x="681" 
d="M559 0l-235 617h28l-234 -617h-75l271 658h63l261 -658h-79zM162 226l21 59h296l32 -59h-349zM318 735l13 43l111 129h55l-130 -172h-49zM318 735l-129 172h54l112 -130l12 -42h-49z" />
    <glyph glyph-name="uni01CE" unicode="&#x1ce;" horiz-adv-x="454" 
d="M371 -6q-38 0 -60 27.5t-21 79.5l4 189q1 31 -6.5 50.5t-21.5 29t-34 9.5q-21 0 -45 -10t-41.5 -31t-21.5 -54l-66 7q5 29 22 53t43 41.5t57 27t63 9.5q60 0 88.5 -33.5t27.5 -90.5l-2 -210q0 -22 7.5 -34t21.5 -12q11 0 22 5t19 15l23 -32q-13 -16 -34 -26t-45 -10z
M150 -6q-45 0 -73 25.5t-28 66.5q0 24 10 45t34.5 37.5t68.5 28.5l166 45l5 -36l-154 -48q-38 -12 -50.5 -28t-12.5 -34q0 -25 17 -37.5t41 -12.5q30 0 66 19.5t80 50.5l11 -24q-43 -41 -88 -69.5t-93 -28.5zM194 509l13 41l95 156h51l-110 -197h-49zM194 509l-109 197h51
l95 -158l12 -39h-49z" />
    <glyph glyph-name="uni01CF" unicode="&#x1cf;" horiz-adv-x="309" 
d="M116 0v658h77v-658h-77zM127 735l13 43l111 129h55l-130 -172h-49zM127 735l-129 172h54l112 -130l12 -42h-49z" />
    <glyph glyph-name="uni01D0" unicode="&#x1d0;" horiz-adv-x="260" 
d="M96 0v409l68 11v-420h-68zM105 509l13 41l95 156h51l-110 -197h-49zM105 509l-109 197h51l95 -158l12 -39h-49z" />
    <glyph glyph-name="uni01D1" unicode="&#x1d1;" horiz-adv-x="791" 
d="M390 -9q-96 0 -171.5 43t-118.5 119t-43 173q0 76 26.5 139t74 108t110 69.5t134.5 24.5q96 0 171 -43t118 -118.5t43 -173.5q0 -76 -26.5 -139t-73.5 -108t-109.5 -69.5t-134.5 -24.5zM403 45q75 0 132 35t88.5 97.5t31.5 143.5q0 88 -35 153.5t-95.5 102t-136.5 36.5
q-73 0 -129.5 -35t-88.5 -97t-32 -144q0 -87 35 -153t95.5 -102.5t134.5 -36.5zM374 735l13 43l111 129h55l-130 -172h-49zM374 735l-129 172h54l112 -130l12 -42h-49z" />
    <glyph glyph-name="uni01D2" unicode="&#x1d2;" horiz-adv-x="519" 
d="M253 -8q-61 0 -108.5 27t-75 74.5t-27.5 108.5q0 64 29.5 114t80.5 78.5t115 28.5q61 0 108.5 -27t75 -74.5t27.5 -108.5q0 -64 -29 -114t-80 -78.5t-116 -28.5zM262 40q45 0 77 22.5t49 60.5t17 83q0 52 -19.5 89.5t-52.5 58t-75 20.5q-44 0 -76.5 -21.5t-49.5 -59
t-17 -83.5q0 -52 19.5 -90t53 -59t74.5 -21zM241 509l13 41l95 156h51l-110 -197h-49zM241 509l-109 197h51l95 -158l12 -39h-49z" />
    <glyph glyph-name="uni01D3" unicode="&#x1d3;" horiz-adv-x="730" 
d="M362 -9q-80 0 -140.5 33t-94 93t-33.5 142v399h74v-384q0 -69 25 -119t72 -77t110 -27q62 0 106.5 25.5t68.5 72.5t24 108v401h65v-385q0 -85 -34.5 -148.5t-96.5 -98.5t-146 -35zM348 735l13 43l111 129h55l-130 -172h-49zM348 735l-129 172h54l112 -130l12 -42h-49z
" />
    <glyph glyph-name="uni01D4" unicode="&#x1d4;" horiz-adv-x="521" 
d="M219 -5q-62 0 -101.5 41.5t-39.5 114.5v257l68 12v-247q0 -59 26.5 -93t74.5 -34q26 0 53 10.5t51.5 33t40.5 57.5l25 -23q-22 -44 -54.5 -72.5t-69.5 -42.5t-74 -14zM387 -6l-12 102v312l69 12v-414zM242 509l13 41l95 156h51l-110 -197h-49zM242 509l-109 197h51
l95 -158l12 -39h-49z" />
    <glyph glyph-name="uni01D5" unicode="&#x1d5;" horiz-adv-x="730" 
d="M362 -9q-80 0 -140.5 33t-94 93t-33.5 142v399h74v-384q0 -69 25 -119t72 -77t110 -27q62 0 106.5 25.5t68.5 72.5t24 108v401h65v-385q0 -85 -34.5 -148.5t-96.5 -98.5t-146 -35zM270 719q-20 0 -32.5 12.5t-12.5 31.5q0 20 12.5 32.5t32.5 12.5t32.5 -12.5t12.5 -32.5
q0 -19 -12.5 -31.5t-32.5 -12.5zM462 719q-20 0 -33 12.5t-13 31.5q0 20 13 32.5t33 12.5t32.5 -12.5t12.5 -32.5q0 -19 -12.5 -31.5t-32.5 -12.5zM210 886v49h308v-49h-308z" />
    <glyph glyph-name="uni01D6" unicode="&#x1d6;" horiz-adv-x="521" 
d="M219 -5q-62 0 -101.5 41.5t-39.5 114.5v257l68 12v-247q0 -59 26.5 -93t74.5 -34q26 0 53 10.5t51.5 33t40.5 57.5l25 -23q-22 -44 -54.5 -72.5t-69.5 -42.5t-74 -14zM387 -6l-12 102v312l69 12v-414zM171 518q-20 0 -33 12t-13 32t13 32.5t33 12.5t32.5 -12.5
t12.5 -32.5t-12.5 -32t-32.5 -12zM362 518q-20 0 -33 12t-13 32t13 32.5t33 12.5t32.5 -12.5t12.5 -32.5t-12.5 -32t-32.5 -12zM134 676v50h265v-50h-265z" />
    <glyph glyph-name="uni01D7" unicode="&#x1d7;" horiz-adv-x="732" 
d="M362 -9q-80 0 -140.5 33t-94 93t-33.5 142v399h74v-384q0 -69 25 -119t72 -77t110 -27q62 0 106.5 25.5t68.5 72.5t24 108v401h65v-385q0 -85 -34.5 -148.5t-96.5 -98.5t-146 -35zM279 719q-20 0 -32.5 12.5t-12.5 31.5q0 20 12.5 32.5t32.5 12.5t33 -12.5t13 -32.5
q0 -19 -13 -31.5t-33 -12.5zM471 719q-20 0 -33 12.5t-13 31.5q0 20 13 32.5t33 12.5t32.5 -12.5t12.5 -32.5q0 -19 -12.5 -31.5t-32.5 -12.5zM339 846l81 172h82l-108 -172h-55z" />
    <glyph glyph-name="uni01D8" unicode="&#x1d8;" horiz-adv-x="521" 
d="M219 -5q-62 0 -101.5 41.5t-39.5 114.5v257l68 12v-247q0 -59 26.5 -93t74.5 -34q26 0 53 10.5t51.5 33t40.5 57.5l25 -23q-22 -44 -54.5 -72.5t-69.5 -42.5t-74 -14zM387 -6l-12 102v312l69 12v-414zM171 518q-20 0 -33 12t-13 32t13 32.5t33 12.5t32.5 -12.5
t12.5 -32.5t-12.5 -32t-32.5 -12zM362 518q-20 0 -33 12t-13 32t13 32.5t33 12.5t32.5 -12.5t12.5 -32.5t-12.5 -32t-32.5 -12zM224 666l102 197h78l-129 -197h-51z" />
    <glyph glyph-name="uni01D9" unicode="&#x1d9;" horiz-adv-x="730" 
d="M362 -9q-80 0 -140.5 33t-94 93t-33.5 142v399h74v-384q0 -69 25 -119t72 -77t110 -27q62 0 106.5 25.5t68.5 72.5t24 108v401h65v-385q0 -85 -34.5 -148.5t-96.5 -98.5t-146 -35zM461 719q-20 0 -33 12.5t-13 31.5q0 20 13 32.5t33 12.5t32.5 -12.5t12.5 -32.5
q0 -19 -12.5 -31.5t-32.5 -12.5zM269 719q-19 0 -32 12.5t-13 31.5q0 20 13 32.5t32 12.5q21 0 33.5 -12.5t12.5 -32.5q0 -19 -12.5 -31.5t-33.5 -12.5zM343 847l13 43l111 128h54l-130 -171h-48zM343 847l-130 171h55l111 -129l12 -42h-48z" />
    <glyph glyph-name="uni01DA" unicode="&#x1da;" horiz-adv-x="521" 
d="M219 -5q-62 0 -101.5 41.5t-39.5 114.5v257l68 12v-247q0 -59 26.5 -93t74.5 -34q26 0 53 10.5t51.5 33t40.5 57.5l25 -23q-22 -44 -54.5 -72.5t-69.5 -42.5t-74 -14zM387 -6l-12 102v312l69 12v-414zM171 518q-20 0 -33 12t-13 32t13 32.5t33 12.5t32.5 -12.5
t12.5 -32.5t-12.5 -32t-32.5 -12zM362 518q-20 0 -33 12t-13 32t13 32.5t33 12.5t32.5 -12.5t12.5 -32.5t-12.5 -32t-32.5 -12zM242 666l13 41l95 156h51l-110 -197h-49zM242 666l-109 197h51l95 -158l12 -39h-49z" />
    <glyph glyph-name="uni01DB" unicode="&#x1db;" horiz-adv-x="730" 
d="M362 -9q-80 0 -140.5 33t-94 93t-33.5 142v399h74v-384q0 -69 25 -119t72 -77t110 -27q62 0 106.5 25.5t68.5 72.5t24 108v401h65v-385q0 -85 -34 -148.5t-96.5 -98.5t-146.5 -35zM462 719q-19 0 -32 12.5t-13 31.5q0 20 13 32.5t32 12.5q20 0 32.5 -12.5t12.5 -32.5
q0 -19 -12.5 -31.5t-32.5 -12.5zM270 719q-19 0 -31.5 12.5t-12.5 31.5q0 20 12.5 32.5t32.5 12.5t33 -12.5t13 -32.5q0 -19 -13 -31.5t-34 -12.5zM403 847h-56l-108 171h82z" />
    <glyph glyph-name="uni01DC" unicode="&#x1dc;" horiz-adv-x="521" 
d="M219 -5q-62 0 -101.5 41.5t-39.5 114.5v257l68 12v-247q0 -59 26.5 -93t74.5 -34q26 0 53 10.5t51.5 33t40.5 57.5l25 -23q-22 -44 -54.5 -72.5t-69.5 -42.5t-74 -14zM387 -6l-12 102v312l69 12v-414zM171 518q-20 0 -33 12t-13 32t13 32.5t33 12.5t32.5 -12.5
t12.5 -32.5t-12.5 -32t-32.5 -12zM362 518q-20 0 -33 12t-13 32t13 32.5t33 12.5t32.5 -12.5t12.5 -32.5t-12.5 -32t-32.5 -12zM260 666l-129 197h77l103 -197h-51z" />
    <glyph glyph-name="uni01E2" unicode="&#x1e2;" horiz-adv-x="868" 
d="M-2 0l398 658h62l-375 -658h-85zM182 222l32 59h253v-59h-285zM467 304v58h286v-58h-286zM432 0v658h359v-59h-292v-540h322v-59h-389zM384 759v49h325v-49h-325z" />
    <glyph glyph-name="uni01E3" unicode="&#x1e3;" horiz-adv-x="642" 
d="M446 -7q-31 0 -59.5 9t-50.5 28t-35 49.5t-13 72.5l1 142q1 45 -15.5 64t-46.5 19q-22 0 -46.5 -10t-43 -31t-24.5 -57l-65 7q4 29 20.5 54t43.5 43.5t59 28.5t66 10q54 0 82 -31t28 -89l-1 -146q0 -41 15.5 -65.5t41.5 -35t55 -10.5q30 0 61 12t59 38l26 -37
q-26 -25 -53 -39t-53.5 -20t-51.5 -6zM149 -7q-51 0 -80.5 27t-29.5 71q0 21 10 42.5t38.5 39t83.5 27.5l415 77l9 -45l-407 -69q-48 -9 -65.5 -25.5t-17.5 -38.5q0 -25 18 -40.5t49 -15.5t66 19.5t74 57.5l16 -30q-42 -47 -85 -72t-94 -25zM538 232v49q0 18 -7 39
t-23.5 36.5t-47.5 15.5q-41 0 -72.5 -24.5t-48.5 -66.5l-30 34q27 49 69.5 78t92.5 29q38 0 66.5 -19.5t44 -51.5t15.5 -70v-21.5t-2 -27.5h-57zM200 519v50h265v-50h-265z" />
    <glyph glyph-name="uni01E4" unicode="&#x1e4;" horiz-adv-x="726" 
d="M419 -9q-109 0 -190.5 41.5t-126.5 116t-45 172.5q0 75 26.5 138.5t75.5 110t115.5 72t146.5 25.5q63 0 121 -16.5t99 -50.5l-33 -65q-43 40 -95.5 58.5t-104.5 18.5q-83 0 -144 -36t-94.5 -99t-33.5 -145q0 -85 37.5 -149.5t104 -101t153.5 -36.5q48 0 94.5 11.5
t86.5 36.5l-36 -47v303h68v-303q-32 -18 -69.5 -30.5t-77 -18.5t-78.5 -6zM413 200v52h311v-52h-311z" />
    <glyph glyph-name="uni01E5" unicode="&#x1e5;" horiz-adv-x="529" 
d="M240 -289q-34 0 -67.5 9t-63 28t-54.5 48l45 49q34 -42 77 -62.5t82 -20.5q34 0 62 16.5t45.5 52.5t17.5 95v403l11 80l57 11v-492q0 -75 -31 -123t-79.5 -71t-101.5 -23zM233 -7q-58 0 -101 26.5t-66.5 73t-23.5 105.5q0 64 28.5 114.5t76.5 79.5t107 29q37 0 67 -12.5
t52.5 -36t36.5 -58.5l-19 -23q-20 40 -53 60.5t-74 20.5q-43 0 -77 -21t-53 -59t-19 -87q0 -47 16.5 -84.5t46.5 -59t72 -21.5q37 0 74.5 19.5t65.5 67.5l25 -15q-22 -40 -49 -66t-60 -39.5t-73 -13.5zM501 -120l-304 1l4 41l304 4z" />
    <glyph glyph-name="Gcaron" unicode="&#x1e6;" horiz-adv-x="721" 
d="M419 -9q-109 0 -190.5 41.5t-126.5 116t-45 172.5q0 75 26.5 138.5t75.5 110t116 72t148 25.5q60 0 117 -16t101 -50l-33 -66q-46 42 -97.5 59.5t-102.5 17.5q-84 0 -144.5 -36t-94 -99t-33.5 -145q0 -85 37.5 -149.5t104 -101t153.5 -36.5q48 0 94.5 11.5t86.5 35.5
l-37 -46v204h-149v55h218v-259q-32 -18 -69.5 -30.5t-77 -18.5t-78.5 -6zM380 735l13 43l111 129h55l-130 -172h-49zM380 735l-129 172h54l112 -130l12 -42h-49z" />
    <glyph glyph-name="gcaron" unicode="&#x1e7;" horiz-adv-x="483" 
d="M211 -289q-50 0 -89.5 15t-62 42.5t-22.5 64.5q0 47 40.5 93.5t123.5 81.5l20 -23q-59 -30 -86.5 -65.5t-27.5 -72.5q0 -43 33.5 -67t87.5 -24q45 0 81.5 17t58 46t21.5 65q0 32 -16.5 47t-50.5 22t-89 13q-44 4 -82 12t-61 25.5t-23 48.5q0 25 11.5 44t33 35.5
t50.5 32.5l26 -24q-25 -14 -43.5 -29.5t-18.5 -36.5q0 -19 15.5 -29.5t47.5 -16t80 -10.5q55 -6 97 -15.5t65.5 -31.5t23.5 -66q0 -55 -33.5 -99t-88.5 -69.5t-122 -25.5zM226 119q-48 0 -85 19t-58 52.5t-21 75.5q0 45 23.5 80.5t63.5 55.5t90 20q73 0 118 -40.5t45 -104.5
q0 -45 -22.5 -81t-62.5 -56.5t-91 -20.5zM236 165q32 0 54.5 13t35.5 36t13 53q0 48 -30.5 78.5t-80.5 30.5q-45 0 -73 -28.5t-28 -74.5q0 -31 13.5 -55.5t38.5 -38.5t57 -14zM310 363l-10 34l164 10v-44h-154zM220 509l13 41l95 156h51l-110 -197h-49zM220 509l-109 197h51
l95 -158l12 -39h-49z" />
    <glyph glyph-name="uni01E8" unicode="&#x1e8;" horiz-adv-x="615" 
d="M497 0l-328 336l296 322h93l-327 -333l6 36l369 -361h-109zM109 0v658h72v-658h-72zM306 735l13 43l111 129h55l-130 -172h-49zM306 735l-129 172h54l112 -130l12 -42h-49z" />
    <glyph glyph-name="uni01E9" unicode="&#x1e9;" horiz-adv-x="451" 
d="M350 0l-192 201h-18v19l199 194h90v-2l-246 -211l8 47l255 -246v-2h-96zM83 0v705l67 12v-717h-67zM98 806l13 41l95 156h51l-110 -197h-49zM98 806l-109 197h51l95 -158l12 -39h-49z" />
    <glyph glyph-name="uni01EA" unicode="&#x1ea;" horiz-adv-x="791" 
d="M390 -9q-96 0 -171.5 43t-118.5 119t-43 173q0 76 26.5 139t74 108t110 69.5t134.5 24.5q96 0 171 -43t118 -118.5t43 -173.5q0 -76 -26.5 -139t-73.5 -108t-109.5 -69.5t-134.5 -24.5zM403 45q75 0 132 35t88.5 97.5t31.5 143.5q0 88 -35 153.5t-95.5 102t-136.5 36.5
q-73 0 -129.5 -35t-88.5 -97t-32 -144q0 -87 35 -153t95.5 -102.5t134.5 -36.5zM440 -289q-64 0 -100.5 35t-36.5 95q0 47 33.5 98t109.5 93l25 -21q-50 -32 -73 -73t-23 -83q0 -39 22 -66.5t66 -27.5q16 0 28.5 4.5t24.5 12.5l19 -37q-21 -15 -43 -22.5t-52 -7.5z" />
    <glyph glyph-name="uni01EB" unicode="&#x1eb;" horiz-adv-x="519" 
d="M253 -8q-61 0 -108.5 27t-75 74.5t-27.5 108.5q0 64 29.5 114t80.5 78.5t115 28.5q61 0 108.5 -27t75 -74.5t27.5 -108.5q0 -64 -29 -114t-80 -78.5t-116 -28.5zM262 40q45 0 77 22.5t49 60.5t17 83q0 52 -19.5 89.5t-52.5 58t-75 20.5q-44 0 -76.5 -21.5t-49.5 -59
t-17 -83.5q0 -52 19.5 -90t53 -59t74.5 -21zM297 -290q-63 0 -97.5 34t-34.5 90q0 50 30 100.5t92 90.5l25 -19q-39 -35 -59 -78t-20 -79q0 -43 23 -66t63 -23q17 0 30.5 4.5t26.5 12.5l18 -37q-21 -15 -45 -22.5t-52 -7.5z" />
    <glyph glyph-name="uni01EE" unicode="&#x1ee;" horiz-adv-x="573" 
d="M280 -9q-57 0 -107 17.5t-85 51t-51 81.5l68 25q17 -40 45 -66.5t64.5 -39.5t79.5 -13q35 0 66 8.5t54 25.5t36 44t13 64q0 32 -12.5 61t-43 51t-84 32.5t-135.5 3.5l-14 37l293 262l26 -34l-437 -3v59h459l1 -48l-285 -259l-12 41q113 10 182 -14t101 -70.5t32 -106.5
q0 -71 -35.5 -117.5t-93.5 -69.5t-125 -23zM262 735l13 43l111 129h55l-130 -172h-49zM262 735l-129 172h54l112 -130l12 -42h-49z" />
    <glyph glyph-name="uni01EF" unicode="&#x1ef;" horiz-adv-x="457" 
d="M215 -289q-39 0 -76.5 14.5t-67 45.5t-45.5 79l56 25q22 -57 59 -83.5t88 -26.5q66 0 98 38.5t32 96.5q0 80 -57 130t-171 59l-13 30l234 267l25 -34l-329 -2l2 57h355l11 -25l-238 -268l-19 33q83 -9 142.5 -38.5t91.5 -76.5t32 -111q0 -47 -16.5 -85.5t-45.5 -66.5
t-67 -43t-81 -15zM207 509l13 41l95 156h51l-110 -197h-49zM207 509l-109 197h51l95 -158l12 -39h-49z" />
    <glyph glyph-name="Aringacute" unicode="&#x1fa;" horiz-adv-x="681" 
d="M559 0l-235 617h28l-234 -617h-75l271 658h63l261 -658h-79zM162 226l21 59h296l32 -59h-349zM233 858l-18 37l235 117l25 -56zM340 685q-46 0 -77 24t-31 60q0 37 31 60t79 23q46 0 76 -24t30 -61q0 -35 -30.5 -58.5t-77.5 -23.5zM341 718q20 0 33 13.5t13 36.5
q0 22 -13 36t-34 14q-20 0 -33 -13t-13 -36q0 -22 13.5 -36.5t33.5 -14.5z" />
    <glyph glyph-name="aringacute" unicode="&#x1fb;" horiz-adv-x="449" 
d="M371 -6q-38 0 -60 27.5t-21 79.5l4 189q1 31 -6.5 50.5t-21.5 29t-34 9.5q-21 0 -45 -10t-41.5 -31t-21.5 -54l-66 7q5 29 22 53t43 41.5t57 27t63 9.5q60 0 88.5 -33.5t27.5 -90.5l-2 -210q0 -22 7.5 -34t21.5 -12q11 0 22 5t19 15l23 -32q-13 -16 -34 -26t-45 -10z
M150 -6q-45 0 -73 25.5t-28 66.5q0 24 10 45t34.5 37.5t68.5 28.5l166 45l5 -36l-154 -48q-38 -12 -50.5 -28t-12.5 -34q0 -25 17 -37.5t41 -12.5q30 0 66 19.5t80 50.5l11 -24q-43 -41 -88 -69.5t-93 -28.5zM215 455q-29 0 -52.5 12.5t-36.5 34t-13 48.5q0 26 13.5 47
t37 33t52.5 12q30 0 53 -12t36 -33.5t13 -48.5t-13.5 -48t-36.5 -33t-53 -12zM216 484q24 0 39 18t15 46q0 29 -15.5 47t-39.5 18q-23 0 -38.5 -17t-15.5 -46t15.5 -47.5t39.5 -18.5zM183 675l51 112h72l-77 -112h-46z" />
    <glyph glyph-name="AEacute" unicode="&#x1fc;" horiz-adv-x="868" 
d="M-2 0l398 658h62l-375 -658h-85zM182 222l32 59h253v-59h-285zM467 304v58h286v-58h-286zM432 0v658h359v-59h-292v-540h322v-59h-389zM506 735l81 172h82l-108 -172h-55z" />
    <glyph glyph-name="aeacute" unicode="&#x1fd;" horiz-adv-x="642" 
d="M446 -7q-31 0 -59.5 9t-50.5 28t-35 49.5t-13 72.5l1 142q1 45 -15.5 64t-46.5 19q-22 0 -46.5 -10t-43 -31t-24.5 -57l-65 7q4 29 20.5 54t43.5 43.5t59 28.5t66 10q54 0 82 -31t28 -89l-1 -146q0 -41 15.5 -65.5t41.5 -35t55 -10.5q30 0 61 12t59 38l26 -37
q-26 -25 -53 -39t-53.5 -20t-51.5 -6zM149 -7q-51 0 -80.5 27t-29.5 71q0 21 10 42.5t38.5 39t83.5 27.5l415 77l9 -45l-407 -69q-48 -9 -65.5 -25.5t-17.5 -38.5q0 -25 18 -40.5t49 -15.5t66 19.5t74 57.5l16 -30q-42 -47 -85 -72t-94 -25zM538 232v49q0 18 -7 39
t-23.5 36.5t-47.5 15.5q-41 0 -72.5 -24.5t-48.5 -66.5l-30 34q27 49 69.5 78t92.5 29q38 0 66.5 -19.5t44 -51.5t15.5 -70v-21.5t-2 -27.5h-57zM290 509l102 197h78l-129 -197h-51z" />
    <glyph glyph-name="Oslashacute" unicode="&#x1fe;" horiz-adv-x="790" 
d="M389 -9q-72 0 -133 25.5t-106 70.5t-69 106t-24 132q0 74 26 136.5t73.5 108.5t109.5 71.5t134 25.5q73 0 134 -25t105.5 -71t69.5 -107t25 -132q0 -73 -26.5 -135.5t-74 -108.5t-110 -71.5t-134.5 -25.5zM401 44q75 0 133 35t91 97t33 143q0 86 -34.5 152.5t-94.5 104
t-140 37.5q-76 0 -134 -35t-90.5 -97t-32.5 -143q0 -86 34.5 -152t95 -104t139.5 -38zM115 -48l-42 36l595 708l43 -38zM361 735l81 172h82l-108 -172h-55z" />
    <glyph glyph-name="oslashacute" unicode="&#x1ff;" horiz-adv-x="519" 
d="M253 -8q-61 0 -108.5 27t-75 74.5t-27.5 108.5q0 64 29.5 113.5t80.5 78.5t115 29q61 0 108.5 -27.5t75 -74.5t27.5 -108q0 -64 -29 -114t-80 -78.5t-116 -28.5zM262 39q47 0 80.5 23t50.5 61t17 83q0 52 -19.5 89.5t-54 58.5t-78.5 21q-46 0 -79.5 -22t-51.5 -59.5
t-18 -83.5q0 -52 20.5 -90t55 -59.5t77.5 -21.5zM77 -39l-38 32l406 456l39 -32zM220 509l102 197h78l-129 -197h-51z" />
    <glyph glyph-name="uni0218" unicode="&#x218;" horiz-adv-x="522" 
d="M397 159q0 36 -17 61t-45.5 43.5t-62.5 34t-68 32.5t-62.5 38t-45.5 50.5t-17 71.5q0 55 26 94.5t72 61t105 21.5q42 0 86 -10.5t78 -31.5l-27 -66q-30 25 -70.5 39t-79.5 14q-41 0 -68.5 -15t-40.5 -38.5t-13 -51.5q0 -31 17.5 -53.5t46 -39.5t62.5 -32.5t68 -33
t62.5 -40.5t46 -55t17.5 -76q0 -59 -28 -101t-76.5 -64t-110.5 -22t-115.5 18.5t-88.5 49.5l37 61q36 -34 84 -53t97 -19q62 0 96.5 30.5t34.5 81.5zM244 -290l-28 22q19 20 29.5 45.5t10.5 51.5q0 24 -7.5 43t-21.5 29l48 37q24 -16 34.5 -40t10.5 -51q0 -39 -20 -76.5
t-56 -60.5z" />
    <glyph glyph-name="uni0219" unicode="&#x219;" horiz-adv-x="378" 
d="M182 -9q-30 0 -57.5 5.5t-49.5 15t-38 19.5l20 56q24 -22 59.5 -35.5t68.5 -13.5q41 0 64.5 20.5t23.5 48.5q0 25 -15.5 40.5t-40 25.5t-51.5 19.5t-51.5 23t-40.5 35t-16 55.5q0 39 20 65t52 39t72 13q30 0 61.5 -7.5t54.5 -22.5l-20 -53q-19 19 -48 28.5t-52 9.5
q-37 0 -57.5 -17t-20.5 -42q0 -23 16 -38t40.5 -24.5t52 -19.5t52 -23.5t40.5 -36t16 -57.5q0 -26 -10.5 -49.5t-30.5 -41.5t-49 -28t-65 -10zM173 -290l-28 22q19 20 29.5 45.5t10.5 51.5q0 24 -7.5 43t-21.5 29l48 37q24 -16 34.5 -40t10.5 -51q0 -39 -20 -76.5t-56 -60.5
z" />
    <glyph glyph-name="uni021A" unicode="&#x21a;" horiz-adv-x="628" 
d="M276 0v658h76v-658h-76zM27 599v59h574v-59h-574zM291 -290l-28 22q19 20 29.5 45.5t10.5 51.5q0 24 -7.5 43t-21.5 29l48 37q24 -16 34.5 -40t10.5 -51q0 -39 -20 -76.5t-56 -60.5z" />
    <glyph glyph-name="uni021B" unicode="&#x21b;" horiz-adv-x="380" 
d="M234 -7q-36 0 -65 15t-45 43t-16 69v274l23 108l46 9v-380q0 -43 20 -65t55 -22q22 0 44 8t43 25l20 -33q-28 -26 -60.5 -38.5t-64.5 -12.5zM337 357l-313 1l5 45l311 4zM208 -290l-28 22q19 20 29.5 45.5t10.5 51.5q0 24 -7.5 43t-21.5 29l48 37q24 -16 34.5 -40
t10.5 -51q0 -39 -20 -76.5t-56 -60.5z" />
    <glyph glyph-name="uni0232" unicode="&#x232;" horiz-adv-x="632" 
d="M293 248l-266 410h91l224 -366zM278 0v293h75v-293h-75zM340 251l-41 41l227 366h79zM154 759v49h325v-49h-325z" />
    <glyph glyph-name="uni0233" unicode="&#x233;" horiz-adv-x="469" 
d="M229 -31l-203 445h75l159 -366zM374 414h69l-285 -703h-73l148 314zM102 519v50h265v-50h-265z" />
    <glyph glyph-name="uni0237" unicode="&#x237;" horiz-adv-x="260" 
d="M96 -11v420l68 11v-431q0 -117 -37 -185.5t-114 -92.5l-16 33q50 25 74.5 84.5t24.5 160.5z" />
    <glyph glyph-name="uni0251" unicode="&#x251;" horiz-adv-x="529" 
d="M234 -6q-58 0 -101 26.5t-67 72.5t-24 104q0 64 28.5 115t77 80t107.5 29q36 0 65.5 -11.5t52.5 -34t37 -56.5l-19 -31q-20 41 -52.5 62t-74.5 21q-43 0 -77 -21t-53 -58.5t-19 -87.5q0 -46 16.5 -82.5t46.5 -57.5t72 -21q37 0 74.5 19.5t64.5 67.5l28 -17
q-22 -40 -49.5 -66.5t-61 -39.5t-72.5 -13zM395 -6l-11 93v235l11 86l57 12v-414z" />
    <glyph glyph-name="uni0259" unicode="&#x259;" horiz-adv-x="453" 
d="M205 -8q-48 0 -84.5 18t-56.5 53.5t-20 88.5v18t2 18h58v-34q0 -57 28 -85t77 -28q48 0 79 22.5t46 61.5t15 86q0 75 -40.5 117t-107.5 42q-30 0 -61.5 -8t-59.5 -26l-27 39q27 19 53.5 29t53.5 14.5t51 4.5q90 0 145 -53.5t55 -150.5q0 -63 -23.5 -115t-69 -82
t-113.5 -30zM54 143v45h322l-9 -45h-313z" />
    <glyph glyph-name="uni0261" unicode="&#x261;" horiz-adv-x="529" 
d="M240 -289q-34 0 -67.5 9t-63 28t-54.5 48l45 49q34 -42 77 -62.5t82 -20.5q34 0 62 16.5t45.5 52.5t17.5 95v403l11 80l57 11v-492q0 -75 -31 -123t-79.5 -71t-101.5 -23zM233 -7q-58 0 -101 26.5t-66.5 73t-23.5 105.5q0 64 28.5 114.5t76.5 79.5t107 29q37 0 67 -12.5
t52.5 -36t36.5 -58.5l-19 -23q-20 40 -53 60.5t-74 20.5q-43 0 -77 -21t-53 -59t-19 -87q0 -47 16.5 -84.5t46.5 -59t72 -21.5q37 0 74.5 19.5t65.5 67.5l25 -15q-22 -40 -49 -66t-60 -39.5t-73 -13.5z" />
    <glyph glyph-name="uni0292" unicode="&#x292;" horiz-adv-x="457" 
d="M215 -289q-39 0 -76.5 14.5t-67 45.5t-45.5 79l56 25q22 -57 59 -83.5t88 -26.5q66 0 98 38.5t32 96.5q0 80 -57 130t-171 59l-13 30l234 267l25 -34l-329 -2l2 57h355l11 -25l-238 -268l-19 33q83 -9 142.5 -38.5t91.5 -76.5t32 -111q0 -47 -16.5 -85.5t-45.5 -66.5
t-67 -43t-81 -15z" />
    <glyph glyph-name="uni02BB" unicode="&#x2bb;" horiz-adv-x="211" 
d="M125 710l28 -23q-19 -20 -29.5 -45.5t-10.5 -51.5q0 -24 7.5 -42.5t21.5 -29.5l-48 -37q-24 16 -34.5 40t-10.5 52q0 38 20.5 76.5t55.5 60.5z" />
    <glyph glyph-name="uni02BC" unicode="&#x2bc;" horiz-adv-x="246" 
d="M112 439l-28 22q19 20 29.5 45.5t10.5 51.5q0 24 -7.5 43t-21.5 29l48 37q24 -16 34.5 -40t10.5 -51q0 -39 -20 -76.5t-56 -60.5z" />
    <glyph glyph-name="uni02BE" unicode="&#x2be;" horiz-adv-x="249" 
d="M68 488v29q36 1 56.5 18.5t20.5 46.5t-20.5 46.5t-56.5 17.5v30q60 -1 92.5 -25.5t32.5 -68.5q0 -45 -32.5 -69.5t-92.5 -24.5z" />
    <glyph glyph-name="uni02BF" unicode="&#x2bf;" horiz-adv-x="249" 
d="M181 488q-60 0 -92.5 24.5t-32.5 69.5q0 44 32.5 68.5t92.5 25.5v-30q-36 0 -56.5 -17.5t-20.5 -46.5t20.5 -46.5t56.5 -18.5v-29z" />
    <glyph glyph-name="circumflex" unicode="&#x2c6;" horiz-adv-x="311" 
d="M239 509l-95 157l-13 40h49l110 -197h-51zM22 509l109 197h49l-12 -39l-95 -158h-51z" />
    <glyph glyph-name="caron" unicode="&#x2c7;" horiz-adv-x="312" 
d="M239 707h51l-110 -197h-49l13 40zM22 707h51l95 -158l12 -39h-49z" />
    <glyph glyph-name="uni02C8" unicode="&#x2c8;" horiz-adv-x="218" 
d="M80 505v176h58v-176h-58z" />
    <glyph glyph-name="uni02CA" unicode="&#x2ca;" horiz-adv-x="268" 
d="M50 509l102 197h78l-129 -197h-51z" />
    <glyph glyph-name="uni02CB" unicode="&#x2cb;" horiz-adv-x="244" 
d="M154 452l-102 156h70l81 -156h-49z" />
    <glyph glyph-name="uni02CC" unicode="&#x2cc;" horiz-adv-x="218" 
d="M80 -255v176h58v-176h-58z" />
    <glyph glyph-name="breve" unicode="&#x2d8;" horiz-adv-x="331" 
d="M165 500q-54 0 -89 38.5t-46 110.5l39 5q8 -47 33.5 -73.5t62.5 -26.5q38 0 63 26.5t33 73.5l40 -5q-11 -72 -46 -110.5t-90 -38.5z" />
    <glyph glyph-name="dotaccent" unicode="&#x2d9;" horiz-adv-x="177" 
d="M89 536q-21 0 -34.5 13t-13.5 34t13.5 34t34.5 13q22 0 35 -13t13 -34t-13 -34t-35 -13z" />
    <glyph glyph-name="ring" unicode="&#x2da;" horiz-adv-x="325" 
d="M163 487q-29 0 -52.5 12.5t-36.5 34t-13 48.5t13.5 48t37 33t52.5 12q30 0 53 -12.5t36 -34t13 -48.5q0 -26 -13.5 -47.5t-37 -33.5t-52.5 -12zM164 524q21 0 35 16t14 40q0 26 -14 42t-35 16q-22 0 -36 -15.5t-14 -40.5t14.5 -41.5t35.5 -16.5z" />
    <glyph glyph-name="ogonek" unicode="&#x2db;" horiz-adv-x="309" 
d="M151 -289q-40 0 -65.5 16.5t-37.5 43t-12 56.5q0 38 17 73.5t52.5 69t91.5 62.5l22 -28q-56 -34 -85 -75.5t-29 -86.5q0 -35 18 -58t52 -23q15 0 28 5t23 12l19 -37q-19 -14 -42.5 -22t-51.5 -8z" />
    <glyph glyph-name="tilde" unicode="&#x2dc;" horiz-adv-x="381" 
d="M79 485l-37 10q12 41 40 66.5t59 25.5q16 0 34 -4t36 -8.5t35 -4.5q21 0 37 14t25 39l37 -10q-11 -43 -38.5 -70.5t-60.5 -27.5q-19 0 -36.5 4.5t-34.5 9t-34 4.5q-21 0 -37 -12.5t-25 -35.5z" />
    <glyph glyph-name="hungarumlaut" unicode="&#x2dd;" horiz-adv-x="425" 
d="M21 509l102 197h78l-129 -197h-51zM194 509l102 197h78l-129 -197h-51z" />
    <glyph glyph-name="gravecomb" unicode="&#x300;" 
d="M167 509l-129 197h77l103 -197h-51z" />
    <glyph glyph-name="acutecomb" unicode="&#x301;" 
d="M54 509l102 197h78l-129 -197h-51z" />
    <glyph glyph-name="uni0302" unicode="&#x302;" 
d="M239 509l-95 157l-13 40h49l110 -197h-51zM22 509l109 197h49l-12 -39l-95 -158h-51z" />
    <glyph glyph-name="tildecomb" unicode="&#x303;" 
d="M79 485l-37 10q12 41 40 66.5t59 25.5q16 0 34 -4t36 -8.5t35 -4.5q21 0 37 14t25 39l37 -10q-11 -43 -38.5 -70.5t-60.5 -27.5q-19 0 -36.5 4.5t-34.5 9t-34 4.5q-21 0 -37 -12.5t-25 -35.5z" />
    <glyph glyph-name="uni0304" unicode="&#x304;" 
d="M49 519v50h265v-50h-265z" />
    <glyph glyph-name="uni0306" unicode="&#x306;" 
d="M162 500q-54 0 -89 38.5t-46 110.5l39 5q8 -47 33.5 -73.5t62.5 -26.5q38 0 63 26.5t33 73.5l40 -5q-11 -72 -46 -110.5t-90 -38.5z" />
    <glyph glyph-name="uni0307" unicode="&#x307;" 
d="M89 536q-21 0 -34.5 13t-13.5 34t13.5 34t34.5 13q22 0 35 -13t13 -34t-13 -34t-35 -13z" />
    <glyph glyph-name="uni0308" unicode="&#x308;" 
d="M76 518q-20 0 -33 12t-13 32t13 32.5t33 12.5t32.5 -12.5t12.5 -32.5t-12.5 -32t-32.5 -12zM267 518q-20 0 -33 12t-13 32t13 32.5t33 12.5t32.5 -12.5t12.5 -32.5t-12.5 -32t-32.5 -12z" />
    <glyph glyph-name="hookabovecomb" unicode="&#x309;" 
d="M97 486l-3 85q44 0 68 18t24 48q0 26 -16.5 42t-48.5 16q-21 0 -40 -8.5t-29 -22.5l-30 30q22 26 52 38t60 12q35 0 60 -13.5t38.5 -36t13.5 -51.5q0 -44 -33 -72t-91 -28l32 25l-2 -82h-55z" />
    <glyph glyph-name="uni030A" unicode="&#x30a;" 
d="M163 487q-29 0 -52.5 12.5t-36.5 34t-13 48.5t13.5 48t37 33t52.5 12q30 0 53 -12.5t36 -34t13 -48.5q0 -26 -13.5 -47.5t-37 -33.5t-52.5 -12zM164 524q21 0 35 16t14 40q0 26 -14 42t-35 16q-22 0 -36 -15.5t-14 -40.5t14.5 -41.5t35.5 -16.5z" />
    <glyph glyph-name="uni030B" unicode="&#x30b;" 
d="M21 509l102 197h78l-129 -197h-51zM194 509l102 197h78l-129 -197h-51z" />
    <glyph glyph-name="uni030C" unicode="&#x30c;" 
d="M131 509l13 41l95 156h51l-110 -197h-49zM131 509l-109 197h51l95 -158l12 -39h-49z" />
    <glyph glyph-name="uni0312" unicode="&#x312;" 
d="M125 719l28 -23q-19 -20 -29.5 -45.5t-10.5 -51.5q0 -24 7.5 -42.5t21.5 -29.5l-48 -37q-24 16 -34.5 40t-10.5 52q0 39 20.5 77t55.5 60z" />
    <glyph glyph-name="uni031B" unicode="&#x31b;" 
d="M63 347l-13 38q42 8 62 32.5t20 52.5q0 17 -6.5 33.5t-22.5 29.5l47 38q27 -22 38 -45.5t11 -48.5q0 -31 -16 -59t-46.5 -47.5t-73.5 -23.5z" />
    <glyph glyph-name="dotbelowcomb" unicode="&#x323;" 
d="M89 -198q-21 0 -34.5 13t-13.5 34t13.5 34t34.5 13q22 0 35 -13t13 -34t-13 -34t-35 -13z" />
    <glyph glyph-name="uni0324" unicode="&#x324;" 
d="M76 -184q-20 0 -33 12t-13 32t13 32.5t33 12.5t32.5 -12.5t12.5 -32.5t-12.5 -32t-32.5 -12zM267 -184q-20 0 -33 12t-13 32t13 32.5t33 12.5t32.5 -12.5t12.5 -32.5t-12.5 -32t-32.5 -12z" />
    <glyph glyph-name="uni0326" unicode="&#x326;" 
d="M128 -290l-28 22q19 20 29.5 45.5t10.5 51.5q0 24 -7.5 43t-21.5 29l48 37q24 -16 34.5 -40t10.5 -51q0 -39 -20 -76.5t-56 -60.5z" />
    <glyph glyph-name="uni0327" unicode="&#x327;" 
d="M92 0h50l-31 -85l-36 10q10 4 23.5 6t27.5 2q49 0 79 -24t30 -62q0 -41 -35.5 -65.5t-86.5 -24.5q-29 0 -51 8t-42 25l15 29q14 -10 32.5 -16.5t37.5 -6.5q31 0 48 16t17 36q0 21 -19.5 36t-55.5 15q-7 0 -19 -1t-23 -3z" />
    <glyph glyph-name="uni0328" unicode="&#x328;" 
d="M151 -289q-40 0 -65.5 16.5t-37.5 43t-12 56.5q0 38 17 73.5t52.5 69t91.5 62.5l22 -28q-56 -34 -85 -75.5t-29 -86.5q0 -35 18 -58t52 -23q15 0 28 5t23 12l19 -37q-19 -14 -42.5 -22t-51.5 -8z" />
    <glyph glyph-name="uni032D" unicode="&#x32d;" 
d="M237 -271l-95 157l-13 40h49l110 -197h-51zM20 -271l109 197h49l-12 -39l-95 -158h-51z" />
    <glyph glyph-name="uni032E" unicode="&#x32e;" 
d="M155 -226q-54 0 -89 38.5t-46 110.5l39 5q8 -47 33.5 -73.5t62.5 -26.5q38 0 63 26.5t33 73.5l40 -5q-11 -72 -46 -110.5t-90 -38.5z" />
    <glyph glyph-name="uni0331" unicode="&#x331;" 
d="M49 -161v50h265v-50h-265z" />
    <glyph glyph-name="uni0335" unicode="&#x335;" 
d="M422 300l-356 1l4 46l356 5z" />
    <glyph glyph-name="uni0337" unicode="&#x337;" 
d="M68 -41l-41 35l406 455l42 -35z" />
    <glyph glyph-name="uni0338" unicode="&#x338;" 
d="M60 -93l-43 35l595 709l43 -38z" />
    <glyph glyph-name="uni0374" unicode="&#x374;" horiz-adv-x="237" 
d="M54 409l103 249h77l-129 -249h-51z" />
    <glyph glyph-name="uni0375" unicode="&#x375;" horiz-adv-x="219" 
d="M19 -135l102 249h77l-128 -249h-51z" />
    <glyph glyph-name="uni037E" unicode="&#x37e;" horiz-adv-x="282" 
d="M114 -184l-31 18q23 30 35 67t12 74q0 38 -10 67t-30 45l60 31q27 -22 38 -52t11 -65q0 -36 -10 -70.5t-29 -64t-46 -50.5zM141 279q-23 0 -37.5 14t-14.5 36q0 23 14.5 37t37.5 14q22 0 36 -14t14 -37q0 -22 -14 -36t-36 -14z" />
    <glyph glyph-name="tonos" unicode="&#x384;" horiz-adv-x="260" 
d="M71 509l45 202h72l-72 -202h-45z" />
    <glyph glyph-name="dieresistonos" unicode="&#x385;" horiz-adv-x="342" 
d="M141 509l31 202h60l-52 -202h-39zM63 507q-20 0 -33 12.5t-13 31.5q0 20 13 33t33 13q18 0 29 -13t11 -33q0 -19 -11 -31.5t-29 -12.5zM277 507q-18 0 -29.5 12.5t-11.5 31.5q0 20 11.5 33t29.5 13q19 0 31.5 -13t12.5 -33q0 -19 -12.5 -31.5t-31.5 -12.5z" />
    <glyph glyph-name="Alphatonos" unicode="&#x386;" horiz-adv-x="697" 
d="M575 0l-235 617h28l-234 -617h-75l271 658h63l261 -658h-79zM178 226l21 59h296l32 -59h-349zM74 390h-53l52 268h71z" />
    <glyph glyph-name="anoteleia" unicode="&#x387;" horiz-adv-x="255" 
d="M128 319q-23 0 -37.5 14t-14.5 36q0 23 14.5 37t37.5 14t36.5 -14t13.5 -37q0 -22 -13.5 -36t-36.5 -14z" />
    <glyph glyph-name="Epsilontonos" unicode="&#x388;" horiz-adv-x="649" 
d="M591 0h-415v658h384v-59h-312v-540h343v-59zM201 305v57h321v-57h-321zM33 390h-53l52 268h71z" />
    <glyph glyph-name="Etatonos" unicode="&#x389;" horiz-adv-x="841" 
d="M650 0v658h74v-658h-74zM176 0v658h74v-658h-74zM201 304v60h499v-60h-499zM33 390h-53l52 268h71z" />
    <glyph glyph-name="Iotatonos" unicode="&#x38a;" horiz-adv-x="366" 
d="M173 0v658h77v-658h-77zM33 390h-53l52 268h71z" />
    <glyph glyph-name="Omicrontonos" unicode="&#x38c;" horiz-adv-x="846" 
d="M446 -9q-96 0 -171.5 43t-118.5 119t-43 173q0 76 26.5 139t74 108t110 69.5t134.5 24.5q96 0 171 -43t118 -118.5t43 -173.5q0 -76 -26.5 -139t-73.5 -108t-109.5 -69.5t-134.5 -24.5zM459 45q75 0 132 35t88.5 97.5t31.5 143.5q0 88 -35 153.5t-95.5 102t-136.5 36.5
q-73 0 -129.5 -35t-88.5 -97t-32 -144q0 -87 35 -153t95.5 -102.5t134.5 -36.5zM33 390h-53l52 268h71z" />
    <glyph glyph-name="Upsilontonos" unicode="&#x38e;" horiz-adv-x="742" 
d="M403 248l-266 410h91l224 -366zM388 0v293h75v-293h-75zM450 251l-41 41l227 366h79zM33 390h-53l52 268h71z" />
    <glyph glyph-name="Omegatonos" unicode="&#x38f;" horiz-adv-x="840" 
d="M352 20q-66 31 -117.5 79.5t-81 111t-29.5 136.5q0 89 41 161.5t115.5 115.5t176.5 43q99 0 172 -41t113 -110.5t40 -156.5q0 -75 -30 -142t-81 -118t-115 -81l-28 34q55 25 95.5 68.5t62.5 99.5t22 117q0 85 -35 147t-94 95.5t-129 33.5q-69 0 -125.5 -32t-90.5 -91
t-34 -139q0 -63 22 -120.5t62 -103.5t94 -74zM126 0v60l252 -7v-53h-252zM528 0v52l251 8v-60h-251zM33 390h-53l52 268h71z" />
    <glyph glyph-name="iotadieresistonos" unicode="&#x390;" horiz-adv-x="283" 
d="M162 -5q-35 0 -53 21.5t-18 63.5v329l70 11v-329q0 -23 8 -35t26 -12q12 0 24.5 7t22.5 20l14 -28q-14 -22 -39 -35t-55 -13zM99 509l31 202h60l-52 -202h-39zM21 507q-20 0 -33 12.5t-13 31.5q0 20 13 33t33 13q18 0 29 -13t11 -33q0 -19 -11 -31.5t-29 -12.5zM235 507
q-18 0 -29.5 12.5t-11.5 31.5q0 20 11.5 33t29.5 13q19 0 31.5 -13t12.5 -33q0 -19 -12.5 -31.5t-31.5 -12.5z" />
    <glyph glyph-name="Alpha" unicode="&#x391;" horiz-adv-x="681" 
d="M559 0l-235 617h28l-234 -617h-75l271 658h63l261 -658h-79zM162 226l21 59h296l32 -59h-349z" />
    <glyph glyph-name="Beta" unicode="&#x392;" horiz-adv-x="582" 
d="M292 322l11 42q69 0 121 -22t81 -61.5t29 -94.5t-29 -96.5t-82.5 -65.5t-126.5 -24h-187v658h183q62 0 106 -19t68.5 -54.5t24.5 -84.5q0 -37 -15 -69.5t-42 -57t-63 -38t-79 -13.5zM155 369h144q55 0 89.5 32.5t34.5 85.5q0 51 -33.5 84t-109.5 33h-101v-550h128
q74 0 114 36t40 96q0 61 -43.5 96t-130.5 35h-132v52z" />
    <glyph glyph-name="Gamma" unicode="&#x393;" horiz-adv-x="508" 
d="M109 0v658h76v-658h-76zM144 599v59h337v-59h-337z" />
    <glyph glyph-name="uni0394" unicode="&#x394;" horiz-adv-x="670" 
d="M68 0v59h527v-59h-527zM620 0h-66l-237 617h31l-245 -617h-53v38l253 620h65l252 -620v-38z" />
    <glyph glyph-name="Epsilon" unicode="&#x395;" horiz-adv-x="579" 
d="M524 0h-415v658h384v-59h-312v-540h343v-59zM134 305v57h321v-57h-321z" />
    <glyph glyph-name="Zeta" unicode="&#x396;" horiz-adv-x="614" 
d="M57 0l-2 49l453 603l31 -50l-467 -3v59h489l1 -48l-453 -604l-29 50l493 3v-59h-516z" />
    <glyph glyph-name="Eta" unicode="&#x397;" horiz-adv-x="766" 
d="M583 0v658h74v-658h-74zM109 0v658h74v-658h-74zM134 304v60h499v-60h-499z" />
    <glyph glyph-name="Theta" unicode="&#x398;" horiz-adv-x="790" 
d="M389 -9q-72 0 -133 25.5t-106 70.5t-69 106t-24 132q0 74 26 136.5t73.5 108.5t109.5 71.5t134 25.5q73 0 134 -25t105.5 -71t69.5 -107t25 -132q0 -73 -26.5 -135.5t-74 -108.5t-110 -71.5t-134.5 -25.5zM401 44q75 0 132 35t89.5 97t32.5 143q0 87 -34 153t-94 103.5
t-138 37.5q-75 0 -132 -35t-89.5 -97t-32.5 -143q0 -86 33.5 -152.5t94 -104t138.5 -37.5zM233 297l-1 65h322l-1 -65h-320z" />
    <glyph glyph-name="Iota" unicode="&#x399;" horiz-adv-x="309" 
d="M116 0v658h77v-658h-77z" />
    <glyph glyph-name="Kappa" unicode="&#x39a;" horiz-adv-x="615" 
d="M497 0l-328 336l296 322h93l-327 -333l6 36l369 -361h-109zM109 0v658h72v-658h-72z" />
    <glyph glyph-name="Lambda" unicode="&#x39b;" horiz-adv-x="672" 
d="M42 0l259 658h72l258 -658h-78l-243 638h41l-232 -638h-77z" />
    <glyph glyph-name="Mu" unicode="&#x39c;" horiz-adv-x="915" 
d="M747 0l-28 624l34 12l-275 -580h-45l-265 551l1 51h52l256 -528h-23l250 528h78l39 -658h-74zM94 0l43 658h54l-29 -658h-68z" />
    <glyph glyph-name="Nu" unicode="&#x39d;" horiz-adv-x="769" 
d="M109 0v658h57l10 -658h-67zM633 0h-31l-468 609l1 49h49l447 -577zM664 658v-658h-58l-9 658h67z" />
    <glyph glyph-name="Xi" unicode="&#x39e;" horiz-adv-x="608" 
d="M55 0v60h498v-60h-498zM116 304v59h376v-59h-376zM64 594v59h480v-59h-480z" />
    <glyph glyph-name="Omicron" unicode="&#x39f;" horiz-adv-x="791" 
d="M390 -9q-96 0 -171.5 43t-118.5 119t-43 173q0 76 26.5 139t74 108t110 69.5t134.5 24.5q96 0 171 -43t118 -118.5t43 -173.5q0 -76 -26.5 -139t-73.5 -108t-109.5 -69.5t-134.5 -24.5zM403 45q75 0 132 35t88.5 97.5t31.5 143.5q0 88 -35 153.5t-95.5 102t-136.5 36.5
q-73 0 -129.5 -35t-88.5 -97t-32 -144q0 -87 35 -153t95.5 -102.5t134.5 -36.5z" />
    <glyph glyph-name="Pi" unicode="&#x3a0;" horiz-adv-x="757" 
d="M574 0v658h73v-658h-73zM109 0v658h74v-658h-74zM134 599v59h490v-59h-490z" />
    <glyph glyph-name="Rho" unicode="&#x3a1;" horiz-adv-x="583" 
d="M264 233q-16 0 -47.5 2t-61.5 8v55q35 -4 64.5 -6t52.5 -2q62 0 103.5 19.5t62.5 55t21 84.5q0 75 -49.5 114t-131.5 39h-96v-602h-73v658h181q73 0 127.5 -22.5t85.5 -65.5t31 -105q0 -48 -19 -90t-54.5 -74t-85 -50t-111.5 -18z" />
    <glyph glyph-name="Sigma" unicode="&#x3a3;" horiz-adv-x="610" 
d="M62 0l-1 48l299 313l-9 -47l-286 298l2 46h496v-56l-436 3l12 25l263 -271v-38l-278 -289l-13 30l458 3v-65h-507z" />
    <glyph glyph-name="Tau" unicode="&#x3a4;" horiz-adv-x="628" 
d="M276 0v658h76v-658h-76zM27 599v59h574v-59h-574z" />
    <glyph glyph-name="Upsilon" unicode="&#x3a5;" horiz-adv-x="632" 
d="M293 248l-266 410h91l224 -366zM278 0v293h75v-293h-75zM340 251l-41 41l227 366h79z" />
    <glyph glyph-name="Phi" unicode="&#x3a6;" horiz-adv-x="772" 
d="M376 64q-98 0 -171 31t-113 89t-40 139q0 85 44 145.5t122 93t178 32.5q99 0 172 -31t113 -89t40 -139q0 -63 -25.5 -113.5t-71.5 -85.5t-109 -53.5t-139 -18.5zM391 112q77 0 134 25t89 73t32 117q0 71 -33 119.5t-92 73.5t-137 25t-136 -25t-90 -72.5t-32 -116.5
t33.5 -118t93 -75t138.5 -26zM354 -10v678h69v-678h-69z" />
    <glyph glyph-name="Chi" unicode="&#x3a7;" horiz-adv-x="631" 
d="M34 0l241 330l-230 328h91l186 -272l183 272h83l-230 -320l242 -338h-91l-199 282l-192 -282h-84z" />
    <glyph glyph-name="Psi" unicode="&#x3a8;" horiz-adv-x="734" 
d="M362 219q-66 0 -120 17.5t-93.5 52t-61 83t-21.5 110.5v176h70v-167q0 -74 30.5 -123.5t83.5 -74.5t120 -25q71 0 122 25t79 72t28 112v181h69v-163q0 -64 -22 -115t-63 -87t-97 -55t-124 -19zM333 0v658h69v-658h-69z" />
    <glyph glyph-name="uni03A9" unicode="&#x3a9;" horiz-adv-x="773" 
d="M286 20q-66 31 -117.5 79.5t-81 111t-29.5 136.5q0 89 41 161.5t115.5 115.5t176.5 43q99 0 172 -41t113 -110.5t40 -156.5q0 -75 -30 -142t-81 -118t-115 -81l-28 34q55 25 95.5 68.5t62.5 99.5t22 117q0 85 -35 147t-94 95.5t-129 33.5q-69 0 -125.5 -32t-90.5 -91
t-34 -139q0 -63 22 -120.5t62 -103.5t94 -74zM60 0v60l252 -7v-53h-252zM462 0v52l251 8v-60h-251z" />
    <glyph glyph-name="Iotadieresis" unicode="&#x3aa;" horiz-adv-x="309" 
d="M116 0v658h77v-658h-77zM55 740q-20 0 -32.5 12.5t-12.5 31.5q0 20 12.5 32.5t32.5 12.5t33 -12.5t13 -32.5q0 -19 -13 -31.5t-33 -12.5zM247 740q-20 0 -33 12.5t-13 31.5q0 20 13 32.5t33 12.5t32.5 -12.5t12.5 -32.5q0 -19 -12.5 -31.5t-32.5 -12.5z" />
    <glyph glyph-name="Upsilondieresis" unicode="&#x3ab;" horiz-adv-x="632" 
d="M293 248l-266 410h91l224 -366zM278 0v293h75v-293h-75zM340 251l-41 41l227 366h79zM220 740q-20 0 -32.5 12.5t-12.5 31.5q0 20 12.5 32.5t32.5 12.5t33 -12.5t13 -32.5q0 -19 -13 -31.5t-33 -12.5zM412 740q-20 0 -33 12.5t-13 31.5q0 20 13 32.5t33 12.5t32.5 -12.5
t12.5 -32.5q0 -19 -12.5 -31.5t-32.5 -12.5z" />
    <glyph glyph-name="alphatonos" unicode="&#x3ac;" horiz-adv-x="557" 
d="M205 -8q-50 0 -86.5 26.5t-56.5 73t-20 103.5q0 69 27 120t71.5 79.5t96.5 28.5q41 0 69 -15.5t46.5 -43t31 -63t20.5 -75.5q13 -56 24.5 -97t26.5 -64t36 -23q10 0 21.5 6t19.5 17l25 -28q-12 -19 -34 -32t-48 -13q-29 0 -49 18t-34 48t-23 67.5t-18 78.5
q-10 50 -25 88.5t-39 60t-60 21.5q-30 0 -56.5 -19.5t-42.5 -56.5t-16 -89q0 -47 14.5 -84.5t41 -59t61.5 -21.5q27 0 53 18t50.5 51.5t47 80.5t42.5 104t37 123l55 -12q-22 -71 -46.5 -133.5t-53 -114.5t-61 -90t-69.5 -58.5t-79 -20.5zM256 509l45 202h72l-72 -202h-45z
" />
    <glyph glyph-name="epsilontonos" unicode="&#x3ad;" horiz-adv-x="419" 
d="M214 -8q-45 0 -84.5 12t-63.5 37t-24 64q0 56 47.5 88t136.5 32v-25q-48 0 -85.5 10.5t-59 32.5t-21.5 58q0 37 22.5 64.5t63 42.5t90.5 15q52 0 90.5 -13.5t66.5 -39.5l-32 -49q-20 25 -54 39t-77 14q-28 0 -52 -8t-38.5 -23.5t-14.5 -40.5q0 -31 28 -47.5t83 -16.5h61
v-45h-61q-68 0 -98 -20.5t-30 -53.5q0 -22 16 -39t43.5 -27t62.5 -10q46 0 85 13.5t63 38.5l23 -38q-21 -26 -68.5 -45.5t-118.5 -19.5zM197 509l45 202h72l-72 -202h-45z" />
    <glyph glyph-name="etatonos" unicode="&#x3ae;" horiz-adv-x="542" 
d="M407 -289v514q0 79 -24 111t-65 32q-29 0 -60 -14t-56.5 -43.5t-40.5 -75.5l-31 18q23 57 55.5 93.5t72.5 54.5t84 18q38 0 68 -17t47.5 -54.5t17.5 -99.5v-526zM108 0v318q0 10 -2 20.5t-8 18t-20 7.5q-11 0 -23 -4t-21 -13l-18 25q17 20 41 33.5t50 13.5
q27 0 41.5 -12.5t20.5 -31.5t6 -41v-334h-67zM261 509l45 202h72l-72 -202h-45z" />
    <glyph glyph-name="iotatonos" unicode="&#x3af;" horiz-adv-x="283" 
d="M162 -5q-35 0 -53 21.5t-18 63.5v329l70 11v-329q0 -23 8 -35t26 -12q12 0 24.5 7t22.5 20l14 -28q-14 -22 -39 -35t-55 -13zM100 509l45 202h72l-72 -202h-45z" />
    <glyph glyph-name="upsilondieresistonos" unicode="&#x3b0;" horiz-adv-x="511" 
d="M239 -8q-74 0 -116.5 41t-42.5 115v261l68 11v-249q0 -61 30 -95t81 -34q43 0 71 24t41.5 67t13.5 101q0 49 -8 92t-24 82l69 13q16 -37 23 -74.5t7 -78.5q0 -83 -22.5 -145t-69.5 -96.5t-121 -34.5zM227 509l31 202h60l-52 -202h-39zM149 507q-20 0 -33 12.5t-13 31.5
q0 20 13 33t33 13q18 0 29 -13t11 -33q0 -19 -11 -31.5t-29 -12.5zM363 507q-18 0 -29.5 12.5t-11.5 31.5q0 20 11.5 33t29.5 13q19 0 31.5 -13t12.5 -33q0 -19 -12.5 -31.5t-31.5 -12.5z" />
    <glyph glyph-name="alpha" unicode="&#x3b1;" horiz-adv-x="557" 
d="M205 -8q-50 0 -86.5 26.5t-56.5 73t-20 103.5q0 69 27 120t71.5 79.5t96.5 28.5q41 0 69 -15.5t46.5 -43t31 -63t20.5 -75.5q13 -56 24.5 -97t26.5 -64t36 -23q10 0 21.5 6t19.5 17l25 -28q-12 -19 -34 -32t-48 -13q-29 0 -49 18t-34 48t-23 67.5t-18 78.5
q-10 50 -25 88.5t-39 60t-60 21.5q-30 0 -56.5 -19.5t-42.5 -56.5t-16 -89q0 -47 14.5 -84.5t41 -59t61.5 -21.5q27 0 53 18t50.5 51.5t47 80.5t42.5 104t37 123l55 -12q-22 -71 -46.5 -133.5t-53 -114.5t-61 -90t-69.5 -58.5t-79 -20.5z" />
    <glyph glyph-name="beta" unicode="&#x3b2;" horiz-adv-x="547" 
d="M83 -289v693q0 86 18 145.5t49 96t70.5 52.5t82.5 16q54 0 88.5 -19.5t51 -52.5t16.5 -75q0 -51 -21.5 -95t-60.5 -75t-92 -44l43 39q42 -8 81.5 -33.5t66.5 -67t27 -99.5q0 -54 -22 -100t-65 -74t-106 -28q-61 0 -112 27t-84 71l27 30q26 -35 69.5 -55t93.5 -20
q42 0 70.5 17.5t43 48t14.5 66.5q0 45 -21.5 83t-59 62t-88.5 26h-21v47h20q43 3 72 27t44 60t15 73q0 47 -26 80t-77 33q-39 0 -65.5 -20.5t-42 -55t-22.5 -78.5t-7 -92v-698z" />
    <glyph glyph-name="gamma" unicode="&#x3b3;" horiz-adv-x="465" 
d="M262 -238l-69 10q2 22 3 43t1 41q0 152 -46 287t-129 266l73 12q37 -62 67.5 -133t54 -147.5t36 -155t12.5 -155.5q0 -17 -0.5 -34t-2.5 -34zM363 414h72q-29 -114 -76 -225t-119 -218l-37 23q63 102 101 207t59 213z" />
    <glyph glyph-name="delta" unicode="&#x3b4;" horiz-adv-x="517" 
d="M259 -8q-61 0 -108.5 25.5t-75 70.5t-27.5 104q0 43 14.5 78t39 62t53 47.5t57.5 35t53 22.5l28 -33q-47 -16 -86.5 -45t-62.5 -69t-23 -91q0 -48 19.5 -83t53 -54.5t76.5 -19.5q44 0 74.5 19.5t47 53t16.5 74.5q0 53 -22 90t-56 64t-72 51t-72 49.5t-56 58t-22 79.5
q0 40 20.5 69t56.5 44.5t81 15.5q46 0 91.5 -11.5t98.5 -46.5l-40 -55q-37 28 -74.5 43t-70.5 15q-48 0 -74 -22t-26 -61q0 -35 22.5 -60.5t57 -46.5t73 -43.5t73 -51t56.5 -68.5t22 -97q0 -59 -27 -107.5t-75.5 -77t-113.5 -28.5z" />
    <glyph glyph-name="epsilon" unicode="&#x3b5;" horiz-adv-x="419" 
d="M214 -8q-45 0 -84.5 12t-63.5 37t-24 64q0 56 47.5 88t136.5 32v-25q-48 0 -85.5 10.5t-59 32.5t-21.5 58q0 37 22.5 64.5t63 42.5t90.5 15q52 0 90.5 -13.5t66.5 -39.5l-32 -49q-20 25 -54 39t-77 14q-28 0 -52 -8t-38.5 -23.5t-14.5 -40.5q0 -31 28 -47.5t83 -16.5h61
v-45h-61q-68 0 -98 -20.5t-30 -53.5q0 -22 16 -39t43.5 -27t62.5 -10q46 0 85 13.5t63 38.5l23 -38q-21 -26 -68.5 -45.5t-118.5 -19.5z" />
    <glyph glyph-name="zeta" unicode="&#x3b6;" horiz-adv-x="408" 
d="M309 -195l-30 30q25 24 39 48.5t14 48.5q0 25 -14.5 35.5t-38 15.5t-51.5 11q-52 13 -89 38t-57 66.5t-20 103.5q0 54 18.5 109.5t49 107.5t68.5 100.5t78 90t75 73.5l46 -22q-39 -34 -77.5 -74t-73 -84.5t-61.5 -91.5t-42.5 -95.5t-15.5 -97.5q0 -42 14 -75t41.5 -55
t69.5 -33q35 -7 67 -15.5t52.5 -27t20.5 -58.5q0 -27 -9.5 -52.5t-28 -49t-45.5 -47.5zM81 646l3 65h308l5 -50z" />
    <glyph glyph-name="eta" unicode="&#x3b7;" horiz-adv-x="543" 
d="M407 -289v514q0 79 -24 111t-65 32q-29 0 -60 -14t-56.5 -43.5t-40.5 -75.5l-31 18q23 57 55.5 93.5t72.5 54.5t84 18q38 0 68 -17t47.5 -54.5t17.5 -99.5v-526zM108 0v318q0 10 -2 20.5t-8 18t-20 7.5q-11 0 -23 -4t-21 -13l-18 25q17 20 41 33.5t50 13.5
q27 0 41.5 -12.5t20.5 -31.5t6 -41v-334h-67z" />
    <glyph glyph-name="theta" unicode="&#x3b8;" horiz-adv-x="525" 
d="M259 -10q-62 0 -108 39t-71.5 117.5t-25.5 198.5q0 124 27 205t75 121t111 40t108.5 -38.5t70.5 -117t25 -198.5q0 -124 -26.5 -205.5t-74.5 -121.5t-111 -40zM267 44q45 0 75.5 32.5t45.5 98.5t15 168q0 109 -16.5 178.5t-49 102.5t-78.5 33q-44 0 -75 -32t-46.5 -97.5
t-15.5 -169.5q0 -108 17 -177.5t49.5 -103t78.5 -33.5zM95 326v52h327v-52h-327z" />
    <glyph glyph-name="iota" unicode="&#x3b9;" horiz-adv-x="283" 
d="M162 -5q-35 0 -53 21.5t-18 63.5v329l70 11v-329q0 -23 8 -35t26 -12q12 0 24.5 7t22.5 20l14 -28q-14 -22 -39 -35t-55 -13z" />
    <glyph glyph-name="kappa" unicode="&#x3ba;" horiz-adv-x="452" 
d="M354 0q-41 55 -92 103t-108 93h-15v15l209 203h89l-250 -222v47q71 -52 136 -112t121 -127h-90zM78 0v409l67 11v-420h-67z" />
    <glyph glyph-name="lambda" unicode="&#x3bb;" horiz-adv-x="485" 
d="M377 0l-138 394q-11 33 -23 62t-23.5 55.5t-22.5 50.5q-21 47 -47.5 66.5t-57.5 19.5q-10 0 -19.5 -2t-17.5 -6l-13 63q13 3 27 5.5t29 2.5q46 0 86 -25.5t64 -89.5l232 -596h-76zM35 0l201 450l29 -72l-160 -378h-70z" />
    <glyph glyph-name="uni03BC" unicode="&#x3bc;" horiz-adv-x="543" 
d="M92 -289q-11 175 -12.5 349t-1.5 349l68 11v-246q0 -60 27.5 -94t77.5 -34q25 0 52.5 10t51.5 31.5t37 56.5l19 -16q-18 -44 -45.5 -74t-60 -44.5t-66.5 -14.5q-35 0 -65.5 16.5t-46.5 52.5l11 10q0 -85 6.5 -174.5t18.5 -177.5zM443 -5q-24 0 -40 10t-24.5 29t-8.5 46
v329l68 11v-329q0 -23 8 -35t25 -12q11 0 23 7t21 20l15 -28q-12 -22 -35 -35t-52 -13z" />
    <glyph glyph-name="nu" unicode="&#x3bd;" horiz-adv-x="468" 
d="M195 0q-36 102 -79.5 204.5t-94.5 204.5l72 12q45 -100 82.5 -200.5t67.5 -200.5h-34q59 95 95.5 194t54.5 200h71q-23 -107 -66 -210.5t-107 -203.5h-62z" />
    <glyph glyph-name="xi" unicode="&#x3be;" horiz-adv-x="431" 
d="M335 -195l-30 30q26 24 40 48.5t14 47.5q0 24 -18.5 35.5t-47.5 17t-61 10.5q-34 5 -65 16.5t-56 30.5t-40 48.5t-15 70.5q0 42 19.5 79t54.5 65.5t83.5 44.5t107.5 16l25 -34q-68 -1 -119 -21.5t-79 -54.5t-28 -77q0 -41 21 -66t54.5 -39t72.5 -20q28 -5 54.5 -10
t48.5 -15t35 -27.5t13 -47.5q0 -26 -9.5 -51.5t-28.5 -49t-46 -47.5zM257 331q-44 0 -78 12t-57.5 33t-36 48t-12.5 56q0 46 22.5 84.5t62.5 66.5t95 44.5t120 18.5l30 -27q-64 -3 -113.5 -15.5t-83 -34.5t-50.5 -51.5t-17 -65.5q0 -30 14.5 -52t38 -36.5t50 -21t49.5 -6.5
h77l5 -53h-116zM76 648l3 63h320l4 -44z" />
    <glyph glyph-name="omicron" unicode="&#x3bf;" horiz-adv-x="519" 
d="M253 -8q-61 0 -108.5 27t-75 74.5t-27.5 108.5q0 64 29.5 114t80.5 78.5t115 28.5q61 0 108.5 -27t75 -74.5t27.5 -108.5q0 -64 -29 -114t-80 -78.5t-116 -28.5zM262 40q45 0 77 22.5t49 60.5t17 83q0 52 -19.5 89.5t-52.5 58t-75 20.5q-44 0 -76.5 -21.5t-49.5 -59
t-17 -83.5q0 -52 19.5 -90t53 -59t74.5 -21z" />
    <glyph glyph-name="pi" unicode="&#x3c0;" horiz-adv-x="577" 
d="M115 0l12 409h56l-1 -409h-67zM32 357l6 54l494 3l-5 -59zM372 111l-3 298h57l8 -288q1 -29 5.5 -46t13.5 -24t21 -7t24.5 6t21.5 18l20 -29q-8 -14 -20.5 -23.5t-29 -15t-36.5 -5.5q-31 0 -49 13t-25 39t-8 64z" />
    <glyph glyph-name="rho" unicode="&#x3c1;" horiz-adv-x="507" 
d="M57 -289q0 62 0.5 123.5t0.5 121.5v120v117q0 71 27.5 122.5t75 79.5t107.5 28q59 0 103 -26.5t69 -72.5t25 -108q0 -63 -26.5 -114t-74 -80.5t-108.5 -29.5q-49 0 -90 19t-63 54l19 22q20 -22 54.5 -34t67.5 -12q48 0 81 22t50 60.5t17 88.5q0 75 -36.5 117.5
t-95.5 42.5q-38 0 -68 -20t-47 -56.5t-17 -89.5q-1 -64 -1 -117.5t-0.5 -100.5t-0.5 -90.5t0.5 -86.5t1.5 -89z" />
    <glyph glyph-name="uni03C2" unicode="&#x3c2;" horiz-adv-x="430" 
d="M308 -195l-27 29q25 23 38.5 47.5t13.5 49.5q0 26 -15.5 38t-39.5 17t-51 10q-33 7 -66.5 19.5t-60 35.5t-42.5 60.5t-16 92.5q0 66 29.5 115.5t80 76.5t111.5 27q43 0 78 -14.5t63 -39.5l-35 -56q-28 28 -59 43.5t-66 15.5q-40 0 -70.5 -20.5t-47.5 -56t-17 -79.5
q0 -52 21 -85.5t56 -51.5t76 -25q30 -5 54 -13t41 -19t26.5 -27.5t9.5 -39.5q0 -27 -11 -54.5t-30 -52t-44 -43.5z" />
    <glyph glyph-name="sigma" unicode="&#x3c3;" horiz-adv-x="539" 
d="M249 -8q-59 0 -106.5 26.5t-74 72.5t-26.5 103q0 60 29 109.5t83.5 80t130.5 30.5h241l-5 -59q-64 1 -127.5 1.5t-124.5 0.5q-76 0 -116.5 -39.5t-40.5 -109.5q0 -49 19.5 -86.5t53 -58.5t75.5 -21q38 0 66.5 18t44.5 53t16 85q0 43 -10 75t-27 56.5t-40 42.5l52 7
q23 -18 45 -44t37.5 -60.5t15.5 -77.5q0 -59 -27.5 -105.5t-75 -73t-108.5 -26.5z" />
    <glyph glyph-name="tau" unicode="&#x3c4;" horiz-adv-x="420" 
d="M11 357l5 54l382 3l-6 -59zM151 111l8 298h58l-2 -288q0 -17 4.5 -35t17 -30t36.5 -12q17 0 34.5 7t30.5 22l27 -29q-17 -22 -47 -35.5t-66 -13.5q-33 0 -53.5 11t-30.5 29t-13.5 38.5t-3.5 37.5z" />
    <glyph glyph-name="upsilon" unicode="&#x3c5;" horiz-adv-x="511" 
d="M239 -8q-74 0 -116.5 41t-42.5 115v261l68 11v-249q0 -61 30 -95t81 -34q43 0 71 24t41.5 67t13.5 101q0 49 -8 92t-24 82l69 13q16 -37 23 -74.5t7 -78.5q0 -83 -22.5 -145t-69.5 -96.5t-121 -34.5z" />
    <glyph glyph-name="phi" unicode="&#x3c6;" horiz-adv-x="616" 
d="M305 -12q-76 0 -135.5 26.5t-93.5 75t-34 113.5q0 67 36 117t97.5 77.5t138.5 27.5q76 0 134.5 -26t92 -74t33.5 -113q0 -67 -35 -117.5t-95.5 -78.5t-138.5 -28zM280 -215l-3 821l63 12l-3 -822zM314 30q61 0 104 23t66 63t23 90q0 58 -26.5 97t-72 60t-102.5 21
q-62 0 -106 -22t-67.5 -61t-23.5 -91q0 -57 27.5 -97.5t74 -61.5t103.5 -21z" />
    <glyph glyph-name="chi" unicode="&#x3c7;" horiz-adv-x="476" 
d="M386 -289q-48 81 -89 167.5t-75 171.5q-40 91 -86.5 183.5t-102.5 175.5l71 12q47 -75 85.5 -158t69.5 -162q42 -98 90.5 -191t107.5 -187zM22 -284q37 94 88 189.5t107 191.5l36 -51q-47 -83 -88 -166t-70 -164h-73zM260 48l-37 52q46 79 85 159t64 155h74
q-35 -88 -83.5 -181.5t-102.5 -184.5z" />
    <glyph glyph-name="psi" unicode="&#x3c8;" horiz-adv-x="650" 
d="M311 -11q-57 0 -101 20.5t-74.5 56t-46 81.5t-15.5 95v167l68 11v-155q0 -48 12.5 -89.5t36.5 -72t59.5 -47t81.5 -16.5q68 0 110.5 26t62 73t19.5 109q0 41 -8.5 83.5t-24.5 76.5l71 13q16 -36 23 -74.5t7 -71.5q0 -80 -30.5 -145t-92.5 -103t-158 -38zM304 -215l-4 821
l64 12l-4 -822z" />
    <glyph glyph-name="omega" unicode="&#x3c9;" horiz-adv-x="704" 
d="M212 -8q-50 0 -85.5 24t-53.5 68t-18 102q0 71 24 127.5t66 106.5l66 -12q-41 -46 -63 -98.5t-22 -115.5q0 -42 11 -76.5t34 -55t56 -20.5q48 0 72.5 42t20.5 126l-2 75h62l-2 -71q-1 -62 12.5 -99.5t38 -55t54.5 -17.5q33 0 54 19.5t30.5 52t9.5 72.5q0 64 -21 119
t-63 103l71 12q34 -42 57.5 -96t23.5 -123q0 -54 -18.5 -102t-56 -77.5t-94.5 -29.5q-59 0 -95.5 33.5t-44.5 95.5h25q-14 -67 -54 -98t-95 -31z" />
    <glyph glyph-name="iotadieresis" unicode="&#x3ca;" horiz-adv-x="283" 
d="M162 -5q-35 0 -53 21.5t-18 63.5v329l70 11v-329q0 -23 8 -35t26 -12q12 0 24.5 7t22.5 20l14 -28q-14 -22 -39 -35t-55 -13zM31 518q-20 0 -33 12t-13 32t13 32.5t33 12.5t32.5 -12.5t12.5 -32.5t-12.5 -32t-32.5 -12zM222 518q-20 0 -33 12t-13 32t13 32.5t33 12.5
t32.5 -12.5t12.5 -32.5t-12.5 -32t-32.5 -12z" />
    <glyph glyph-name="upsilondieresis" unicode="&#x3cb;" horiz-adv-x="511" 
d="M239 -8q-74 0 -116.5 41t-42.5 115v261l68 11v-249q0 -61 30 -95t81 -34q43 0 71 24t41.5 67t13.5 101q0 49 -8 92t-24 82l69 13q16 -37 23 -74.5t7 -78.5q0 -83 -22.5 -145t-69.5 -96.5t-121 -34.5zM159 518q-20 0 -33 12t-13 32t13 32.5t33 12.5t32.5 -12.5t12.5 -32.5
t-12.5 -32t-32.5 -12zM350 518q-20 0 -33 12t-13 32t13 32.5t33 12.5t32.5 -12.5t12.5 -32.5t-12.5 -32t-32.5 -12z" />
    <glyph glyph-name="omicrontonos" unicode="&#x3cc;" horiz-adv-x="519" 
d="M253 -8q-61 0 -108.5 27t-75 74.5t-27.5 108.5q0 64 29.5 114t80.5 78.5t115 28.5q61 0 108.5 -27t75 -74.5t27.5 -108.5q0 -64 -29 -114t-80 -78.5t-116 -28.5zM262 40q45 0 77 22.5t49 60.5t17 83q0 52 -19.5 89.5t-52.5 58t-75 20.5q-44 0 -76.5 -21.5t-49.5 -59
t-17 -83.5q0 -52 19.5 -90t53 -59t74.5 -21zM238 509l45 202h72l-72 -202h-45z" />
    <glyph glyph-name="upsilontonos" unicode="&#x3cd;" horiz-adv-x="511" 
d="M239 -8q-74 0 -116.5 41t-42.5 115v261l68 11v-249q0 -61 30 -95t81 -34q43 0 71 24t41.5 67t13.5 101q0 49 -8 92t-24 82l69 13q16 -37 23 -74.5t7 -78.5q0 -83 -22.5 -145t-69.5 -96.5t-121 -34.5zM228 509l45 202h72l-72 -202h-45z" />
    <glyph glyph-name="omegatonos" unicode="&#x3ce;" horiz-adv-x="704" 
d="M212 -8q-50 0 -85.5 24t-53.5 68t-18 102q0 71 24 127.5t66 106.5l66 -12q-41 -46 -63 -98.5t-22 -115.5q0 -42 11 -76.5t34 -55t56 -20.5q48 0 72.5 42t20.5 126l-2 75h62l-2 -71q-1 -62 12.5 -99.5t38 -55t54.5 -17.5q33 0 54 19.5t30.5 52t9.5 72.5q0 64 -21 119
t-63 103l71 12q34 -42 57.5 -96t23.5 -123q0 -54 -18.5 -102t-56 -77.5t-94.5 -29.5q-59 0 -95.5 33.5t-44.5 95.5h25q-14 -67 -54 -98t-95 -31zM323 509l45 202h72l-72 -202h-45z" />
    <glyph glyph-name="uni03CF" unicode="&#x3cf;" horiz-adv-x="615" 
d="M415 -287l-67 30q38 75 87.5 143t112.5 129l-7 -57l-369 380l302 320h84l-327 -333l6 36l368 -361q-58 -64 -105.5 -135.5t-84.5 -151.5zM109 0v658h72v-658h-72z" />
    <glyph glyph-name="uni03D7" unicode="&#x3d7;" horiz-adv-x="452" 
d="M398 15l-20 -47q-51 71 -111.5 131t-127.5 112l209 203h89l-250 -222v47q71 -52 136 -112t121 -127q-58 -64 -105.5 -135.5t-83.5 -151.5l-60 30q38 75 89 143t114 129zM78 0v409l67 11v-420h-67z" />
    <glyph glyph-name="uni0400" unicode="&#x400;" horiz-adv-x="579" 
d="M524 0h-415v658h384v-59h-312v-540h343v-59zM134 305v57h321v-57h-321zM300 735l-108 172h82l81 -172h-55z" />
    <glyph glyph-name="uni0401" unicode="&#x401;" horiz-adv-x="579" 
d="M524 0h-415v658h384v-59h-312v-540h343v-59zM134 305v57h321v-57h-321zM218 740q-20 0 -32.5 12.5t-12.5 31.5q0 20 12.5 32.5t32.5 12.5t33 -12.5t13 -32.5q0 -19 -13 -31.5t-33 -12.5zM410 740q-20 0 -33 12.5t-13 31.5q0 20 13 32.5t33 12.5t32.5 -12.5t12.5 -32.5
q0 -19 -12.5 -31.5t-32.5 -12.5z" />
    <glyph glyph-name="uni0402" unicode="&#x402;" horiz-adv-x="758" 
d="M527 -191l-37 25q43 51 70 111t39.5 120.5t12.5 113.5q0 94 -39 138.5t-114 44.5q-36 0 -74 -11t-71 -34t-54 -61l-31 31q32 45 72 74.5t87.5 44t99.5 14.5q61 0 107 -22.5t71 -71.5t25 -129q0 -60 -16.5 -129t-52.5 -135.5t-95 -123.5zM207 0v658h75v-658h-75zM38 601
v57h547v-57h-547z" />
    <glyph glyph-name="uni0403" unicode="&#x403;" horiz-adv-x="514" 
d="M109 0v658h76v-658h-76zM144 599v59h342v-59h-342zM261 735l81 172h82l-108 -172h-55z" />
    <glyph glyph-name="uni0404" unicode="&#x404;" horiz-adv-x="659" 
d="M390 -9q-98 0 -173.5 41.5t-117.5 116t-42 173.5q0 78 26 141.5t72.5 109t109 70t135.5 24.5q56 0 107 -15t96 -44l-34 -65q-43 33 -87.5 51t-96.5 18q-77 0 -133 -35t-87 -97.5t-31 -145.5q0 -87 34.5 -152t94.5 -101t134 -36q56 0 103 20t84 56l32 -58
q-49 -36 -105 -54t-121 -18zM465 304l-360 4l4 52l360 6z" />
    <glyph glyph-name="uni0405" unicode="&#x405;" horiz-adv-x="522" 
d="M397 159q0 36 -17 61t-45.5 43.5t-62.5 34t-68 32.5t-62.5 38t-45.5 50.5t-17 71.5q0 55 26 94.5t72 61t105 21.5q42 0 86 -10.5t78 -31.5l-27 -66q-30 25 -70.5 39t-79.5 14q-41 0 -68.5 -15t-40.5 -38.5t-13 -51.5q0 -31 17.5 -53.5t46 -39.5t62.5 -32.5t68 -33
t62.5 -40.5t46 -55t17.5 -76q0 -59 -28 -101t-76.5 -64t-110.5 -22t-115.5 18.5t-88.5 49.5l37 61q36 -34 84 -53t97 -19q62 0 96.5 30.5t34.5 81.5z" />
    <glyph glyph-name="uni0406" unicode="&#x406;" horiz-adv-x="309" 
d="M116 0v658h77v-658h-77z" />
    <glyph glyph-name="uni0407" unicode="&#x407;" horiz-adv-x="309" 
d="M116 0v658h77v-658h-77zM55 740q-20 0 -32.5 12.5t-12.5 31.5q0 20 12.5 32.5t32.5 12.5t33 -12.5t13 -32.5q0 -19 -13 -31.5t-33 -12.5zM247 740q-20 0 -33 12.5t-13 31.5q0 20 13 32.5t33 12.5t32.5 -12.5t12.5 -32.5q0 -19 -12.5 -31.5t-32.5 -12.5z" />
    <glyph glyph-name="uni0408" unicode="&#x408;" horiz-adv-x="321" 
d="M131 47v611h74v-611q0 -58 -13.5 -100t-38.5 -71.5t-60 -49t-77 -30.5l-19 43q43 16 73 41t45.5 65t15.5 102z" />
    <glyph glyph-name="uni0409" unicode="&#x409;" horiz-adv-x="996" 
d="M511 0v658h71v-602h138q77 0 116 40.5t39 107.5q0 66 -38.5 104.5t-124.5 38.5h-155v56h167q107 0 165 -49t58 -140q0 -63 -28.5 -111.5t-81.5 -75.5t-128 -27h-198zM62 -9l-18 50q44 19 72.5 66.5t47 123.5t29 182.5t17.5 244.5h61q-3 -113 -9 -204t-16.5 -161.5
t-26 -122.5t-37.5 -88t-52 -58.5t-68 -32.5zM241 599v59h322v-59h-322z" />
    <glyph glyph-name="uni040A" unicode="&#x40a;" horiz-adv-x="1022" 
d="M537 0v658h71v-602h139q76 0 115 37.5t39 98.5t-38.5 96.5t-124.5 35.5h-155v57h167q107 0 165 -47t58 -131q0 -60 -28.5 -106t-81.5 -71.5t-127 -25.5h-199zM109 0v658h74v-658h-74zM134 322v59h454v-59h-454z" />
    <glyph glyph-name="uni040B" unicode="&#x40b;" horiz-adv-x="776" 
d="M607 0v190q0 82 -39.5 127t-114.5 45q-38 0 -77 -11.5t-70.5 -35.5t-50.5 -63l-30 27q26 48 66 79t89 46.5t98 15.5q63 0 109 -24t71 -69t25 -109v-218h-76zM198 0v658h76v-658h-76zM30 601v57h548v-57h-548z" />
    <glyph glyph-name="uni040C" unicode="&#x40c;" horiz-adv-x="615" 
d="M506 0l-334 338l312 320h90l-343 -333l6 36l368 -361h-99zM109 0v658h72v-658h-72zM290 735l81 172h82l-108 -172h-55z" />
    <glyph glyph-name="uni040D" unicode="&#x40d;" horiz-adv-x="773" 
d="M143 0v35l442 623h45v-37l-442 -621h-45zM109 0v658h74l-6 -658h-68zM590 0l6 658h68v-658h-74zM381 735l-108 172h82l81 -172h-55z" />
    <glyph glyph-name="uni040E" unicode="&#x40e;" horiz-adv-x="681" 
d="M225 -9q-22 0 -44.5 5.5t-42.5 14.5l16 40q20 -4 35 -6t28 -2q27 0 48.5 14t41 43.5t41.5 77.5l218 480h79l-244 -505q-25 -52 -49 -88.5t-54 -55t-73 -18.5zM340 134l-284 524h82l248 -479zM340 720q-56 0 -99.5 23.5t-70.5 63.5l47 43q28 -41 62 -58.5t74 -17.5
q46 0 78.5 21.5t57.5 62.5l32 -20q-24 -56 -72 -87t-109 -31z" />
    <glyph glyph-name="uni040F" unicode="&#x40f;" horiz-adv-x="747" 
d="M343 -180l-8 195h70l-8 -195h-54zM565 0v658h73v-658h-73zM133 0v59h481v-59h-481zM109 0v658h74v-658h-74z" />
    <glyph glyph-name="uni0410" unicode="&#x410;" horiz-adv-x="681" 
d="M559 0l-235 617h28l-234 -617h-75l271 658h63l261 -658h-79zM162 226l21 59h296l32 -59h-349z" />
    <glyph glyph-name="uni0411" unicode="&#x411;" horiz-adv-x="591" 
d="M109 0v658h383v-56h-312v-546h123q55 0 86 11t49 31q16 18 24.5 41.5t8.5 52.5q0 59 -40.5 93t-129.5 34h-146v57h158q110 0 170 -46t60 -127q0 -42 -14 -77t-39 -61q-29 -31 -76 -48t-122 -17h-183z" />
    <glyph glyph-name="uni0412" unicode="&#x412;" horiz-adv-x="582" 
d="M292 322l11 42q69 0 121 -22t81 -61.5t29 -94.5t-29 -96.5t-82.5 -65.5t-126.5 -24h-187v658h183q62 0 106 -19t68.5 -54.5t24.5 -84.5q0 -37 -15 -69.5t-42 -57t-63 -38t-79 -13.5zM155 369h144q55 0 89.5 32.5t34.5 85.5q0 51 -33.5 84t-109.5 33h-101v-550h128
q74 0 114 36t40 96q0 61 -43.5 96t-130.5 35h-132v52z" />
    <glyph glyph-name="uni0413" unicode="&#x413;" horiz-adv-x="514" 
d="M109 0v658h76v-658h-76zM144 599v59h342v-59h-342z" />
    <glyph glyph-name="uni0414" unicode="&#x414;" horiz-adv-x="743" 
d="M101 0q39 80 65.5 180.5t43.5 220.5t27 257h65q-9 -137 -26 -256.5t-42.5 -220.5t-63.5 -181h-69zM53 -175l-17 233h73v-233h-56zM60 0l-2 58h639l-22 -58h-615zM641 -175l-16 233h73l-1 -233h-56zM536 0v658h73v-658h-73zM271 599v59h303v-59h-303z" />
    <glyph glyph-name="uni0415" unicode="&#x415;" horiz-adv-x="579" 
d="M524 0h-415v658h384v-59h-312v-540h343v-59zM134 305v57h321v-57h-321z" />
    <glyph glyph-name="uni0416" unicode="&#x416;" horiz-adv-x="943" 
d="M809 0l-310 337l305 321h89l-341 -341l6 47l353 -364h-102zM32 0l354 364l5 -47l-341 341h90l304 -321l-310 -337h-102zM435 0v658h73v-658h-73z" />
    <glyph glyph-name="uni0417" unicode="&#x417;" horiz-adv-x="557" 
d="M260 -9q-46 0 -87 11t-75 32t-60 48l39 58q38 -42 88.5 -67.5t109.5 -25.5q51 0 86 16.5t54 46.5t19 70q0 61 -45 99t-138 38h-49v49h49q51 0 86 18.5t52.5 48t17.5 60.5q0 56 -37.5 87t-97.5 31q-55 0 -98 -24.5t-70 -61.5l-45 47q37 44 96.5 69.5t128.5 25.5
q58 0 102.5 -18.5t69.5 -54t25 -87.5q0 -43 -23.5 -82.5t-65.5 -63.5t-99 -24v25q66 0 114 -20.5t74.5 -58t26.5 -91.5q0 -59 -32 -105t-88.5 -71t-127.5 -25z" />
    <glyph glyph-name="uni0418" unicode="&#x418;" horiz-adv-x="773" 
d="M143 0v35l442 623h45v-37l-442 -621h-45zM109 0v658h74l-6 -658h-68zM590 0l6 658h68v-658h-74z" />
    <glyph glyph-name="uni0419" unicode="&#x419;" horiz-adv-x="773" 
d="M143 0v35l442 623h45v-37l-442 -621h-45zM109 0v658h74l-6 -658h-68zM590 0l6 658h68v-658h-74zM392 720q-56 0 -99.5 23.5t-70.5 63.5l47 43q28 -41 62 -58.5t74 -17.5q46 0 78.5 21.5t57.5 62.5l32 -20q-24 -56 -72 -87t-109 -31z" />
    <glyph glyph-name="uni041A" unicode="&#x41a;" horiz-adv-x="615" 
d="M506 0l-334 338l312 320h90l-343 -333l6 36l368 -361h-99zM109 0v658h72v-658h-72z" />
    <glyph glyph-name="uni041B" unicode="&#x41b;" horiz-adv-x="714" 
d="M62 -9l-18 50q44 19 72.5 66.5t47 123.5t29 182.5t17.5 244.5h61q-3 -113 -9 -204t-16.5 -161.5t-26 -122.5t-37.5 -88t-52 -58.5t-68 -32.5zM531 0v658h74v-658h-74zM241 599v59h329v-59h-329z" />
    <glyph glyph-name="uni041C" unicode="&#x41c;" horiz-adv-x="915" 
d="M747 0l-28 624l34 12l-275 -580h-45l-265 551l1 51h52l256 -528h-23l250 528h78l39 -658h-74zM94 0l43 658h54l-29 -658h-68z" />
    <glyph glyph-name="uni041D" unicode="&#x41d;" horiz-adv-x="766" 
d="M583 0v658h74v-658h-74zM109 0v658h74v-658h-74zM134 304v60h499v-60h-499z" />
    <glyph glyph-name="uni041E" unicode="&#x41e;" horiz-adv-x="791" 
d="M390 -9q-96 0 -171.5 43t-118.5 119t-43 173q0 76 26.5 139t74 108t110 69.5t134.5 24.5q96 0 171 -43t118 -118.5t43 -173.5q0 -76 -26.5 -139t-73.5 -108t-109.5 -69.5t-134.5 -24.5zM403 45q75 0 132 35t88.5 97.5t31.5 143.5q0 88 -35 153.5t-95.5 102t-136.5 36.5
q-73 0 -129.5 -35t-88.5 -97t-32 -144q0 -87 35 -153t95.5 -102.5t134.5 -36.5z" />
    <glyph glyph-name="uni041F" unicode="&#x41f;" horiz-adv-x="750" 
d="M567 0v658h74v-658h-74zM109 0v658h74v-658h-74zM134 599v59h483v-59h-483z" />
    <glyph glyph-name="uni0420" unicode="&#x420;" horiz-adv-x="583" 
d="M264 233q-16 0 -47.5 2t-61.5 8v55q35 -4 64.5 -6t52.5 -2q62 0 103.5 19.5t62.5 55t21 84.5q0 75 -49.5 114t-131.5 39h-96v-602h-73v658h181q73 0 127.5 -22.5t85.5 -65.5t31 -105q0 -48 -19 -90t-54.5 -74t-85 -50t-111.5 -18z" />
    <glyph glyph-name="uni0421" unicode="&#x421;" horiz-adv-x="653" 
d="M395 -9q-100 0 -176.5 41.5t-119 116t-42.5 173.5q0 78 26 141.5t73.5 109t111 70t138.5 24.5q55 0 106 -14t96 -41l-35 -65q-43 32 -87 48.5t-96 16.5q-77 0 -134 -35t-88.5 -97.5t-31.5 -145.5q0 -87 35.5 -152t95.5 -101t134 -36q56 0 102 19t83 52l32 -58
q-50 -33 -105 -50t-118 -17z" />
    <glyph glyph-name="uni0422" unicode="&#x422;" horiz-adv-x="628" 
d="M276 0v658h76v-658h-76zM27 599v59h574v-59h-574z" />
    <glyph glyph-name="uni0423" unicode="&#x423;" horiz-adv-x="681" 
d="M225 -9q-22 0 -44.5 5.5t-42.5 14.5l16 40q20 -4 35 -6t28 -2q27 0 48.5 14t41 43.5t41.5 77.5l218 480h79l-244 -505q-25 -52 -49 -88.5t-54 -55t-73 -18.5zM340 134l-284 524h82l248 -479z" />
    <glyph glyph-name="uni0424" unicode="&#x424;" horiz-adv-x="822" 
d="M402 64q-106 0 -183.5 31t-119.5 89t-42 139q0 85 45.5 145.5t128 93t189.5 32.5t184.5 -31t119.5 -89.5t42 -138.5q0 -64 -26.5 -114.5t-74.5 -85t-115 -53t-148 -18.5zM417 112q85 0 146 25t94 73t33 116q0 72 -35 120t-98.5 73.5t-148.5 25.5q-86 0 -147.5 -25
t-95 -72.5t-33.5 -115.5q0 -69 35.5 -118.5t100 -75.5t149.5 -26zM378 -10v678h71v-678h-71z" />
    <glyph glyph-name="uni0425" unicode="&#x425;" horiz-adv-x="631" 
d="M34 0l241 330l-230 328h91l186 -272l183 272h83l-230 -320l242 -338h-91l-199 282l-192 -282h-84z" />
    <glyph glyph-name="uni0426" unicode="&#x426;" horiz-adv-x="785" 
d="M610 0v58h121l-36 -58h-85zM672 -180l-17 238h76v-238h-59zM565 0v658h73v-658h-73zM133 0v59h481v-59h-481zM109 0v658h74v-658h-74z" />
    <glyph glyph-name="uni0427" unicode="&#x427;" horiz-adv-x="683" 
d="M500 0v658h74v-658h-74zM299 253q-67 0 -116 25t-75 72.5t-26 115.5v192h74v-169q0 -91 43 -135.5t124 -44.5q33 0 69 6t67.5 17.5t49.5 25.5l35 -27q-27 -24 -68 -41.5t-87.5 -27t-89.5 -9.5z" />
    <glyph glyph-name="uni0428" unicode="&#x428;" horiz-adv-x="991" 
d="M109 0v658h74v-658h-74zM459 0v658h73v-658h-73zM808 0v658h74v-658h-74zM132 0v59h727v-59h-727z" />
    <glyph glyph-name="uni0429" unicode="&#x429;" horiz-adv-x="1029" 
d="M853 0v58h122l-36 -58h-86zM916 -180l-17 238h76v-238h-59zM109 0v658h74v-658h-74zM459 0v658h73v-658h-73zM808 0v658h74v-658h-74zM132 0v59h727v-59h-727z" />
    <glyph glyph-name="uni042A" unicode="&#x42a;" horiz-adv-x="698" 
d="M212 0v658h71v-602h138q76 0 115.5 40.5t39.5 107.5q0 66 -38.5 104.5t-124.5 38.5h-155v56h167q107 0 165 -49t58 -140q0 -63 -29 -111.5t-81.5 -75.5t-127.5 -27h-198zM25 599v59h219v-59h-219z" />
    <glyph glyph-name="uni042B" unicode="&#x42b;" horiz-adv-x="854" 
d="M109 0v658h71v-602h128q72 0 108.5 40.5t36.5 107.5q0 66 -36 104.5t-117 38.5h-145v56h157q103 0 158 -49t55 -140q0 -63 -27 -111.5t-78 -75.5t-123 -27h-188zM661 0v658h75l2 -658h-77z" />
    <glyph glyph-name="uni042C" unicode="&#x42c;" horiz-adv-x="594" 
d="M109 0v658h71v-602h138q77 0 116 40.5t39 107.5q0 66 -38.5 104.5t-124.5 38.5h-155v56h167q107 0 165 -49t58 -140q0 -63 -28.5 -111.5t-81.5 -75.5t-128 -27h-198z" />
    <glyph glyph-name="uni042D" unicode="&#x42d;" horiz-adv-x="662" 
d="M267 -9q-63 0 -119 18.5t-104 55.5l36 56q45 -37 94 -56.5t105 -19.5q72 0 128.5 34.5t89 96.5t32.5 147q0 86 -33 151.5t-92 102t-136 36.5q-57 0 -100.5 -20t-78.5 -51l-34 62q47 31 102 47t120 16q100 0 173.5 -42.5t114.5 -117t41 -172.5q0 -80 -27 -143.5
t-74.5 -108.5t-108.5 -68.5t-129 -23.5zM193 304l4 61l360 -4l-4 -51z" />
    <glyph glyph-name="uni042E" unicode="&#x42e;" horiz-adv-x="1031" 
d="M646 -9q-93 0 -163.5 44t-110.5 120t-40 170q0 74 24 136.5t68 108.5t103 71.5t130 25.5q68 0 126 -25t101 -71t67 -107t24 -132q0 -73 -26 -135.5t-71 -108.5t-104.5 -71.5t-127.5 -25.5zM109 0v658h74v-658h-74zM134 304v59h241v-59h-241zM658 44q69 0 122.5 35
t84.5 97.5t31 144.5q0 86 -33 151.5t-89.5 103t-127.5 37.5q-72 0 -125 -35t-82 -97t-29 -144q0 -86 31 -152t86.5 -103.5t130.5 -37.5z" />
    <glyph glyph-name="uni042F" unicode="&#x42f;" horiz-adv-x="627" 
d="M447 0v603h-123q-74 0 -114.5 -32.5t-40.5 -93.5q0 -64 45 -104t130 -40q16 0 36.5 1.5t43.5 3.5t44 5v-42q-36 -9 -74.5 -15t-71.5 -6q-50 0 -91 13t-71 37t-46.5 59t-16.5 78q0 59 29.5 101.5t83.5 66t125 23.5h183v-658h-71zM122 0h-90l238 322l54 -20z" />
    <glyph glyph-name="uni0430" unicode="&#x430;" horiz-adv-x="454" 
d="M371 -6q-38 0 -60 27.5t-21 79.5l4 189q1 31 -6.5 50.5t-21.5 29t-34 9.5q-21 0 -45 -10t-41.5 -31t-21.5 -54l-66 7q5 29 22 53t43 41.5t57 27t63 9.5q60 0 88.5 -33.5t27.5 -90.5l-2 -210q0 -22 7.5 -34t21.5 -12q11 0 22 5t19 15l23 -32q-13 -16 -34 -26t-45 -10z
M150 -6q-45 0 -73 25.5t-28 66.5q0 24 10 45t34.5 37.5t68.5 28.5l166 45l5 -36l-154 -48q-38 -12 -50.5 -28t-12.5 -34q0 -25 17 -37.5t41 -12.5q30 0 66 19.5t80 50.5l11 -24q-43 -41 -88 -69.5t-93 -28.5z" />
    <glyph glyph-name="uni0431" unicode="&#x431;" horiz-adv-x="517" 
d="M254 -6q-43 0 -80.5 15t-65 49t-43 91.5t-15.5 142.5q0 68 10.5 127t38.5 108t79 86.5t133 62.5l119 35l-9 -75l-107 -28q-65 -17 -104 -39.5t-59 -53t-26.5 -71.5t-6.5 -97v-19v-19l2 -24q2 -72 14 -119.5t31 -74.5t43.5 -38t54.5 -11q48 0 78.5 22t45.5 58t15 78
q0 75 -34.5 113.5t-91.5 38.5q-29 0 -59.5 -10.5t-57.5 -31t-48 -49.5l-24 32q20 24 44 44.5t51 36t56.5 24t58.5 8.5q50 0 90 -22t64 -64t24 -102q0 -44 -14.5 -84.5t-42.5 -72t-69 -49.5t-95 -18z" />
    <glyph glyph-name="uni0432" unicode="&#x432;" horiz-adv-x="462" 
d="M78 0v414h177q61 0 98 -27.5t37 -73.5q0 -31 -18 -58t-50 -43t-74 -16l10 38q76 0 121 -31t45 -84t-43 -86t-117 -33h-186zM138 48h128q47 0 72 19.5t25 51.5q0 33 -29.5 52.5t-88.5 19.5h-126v48h136q36 0 56.5 18t20.5 46q0 26 -20.5 44t-64.5 18h-109v-317z" />
    <glyph glyph-name="uni0433" unicode="&#x433;" horiz-adv-x="384" 
d="M78 0v414h68v-414h-68zM113 362v52h247v-52h-247z" />
    <glyph glyph-name="uni0434" unicode="&#x434;" horiz-adv-x="527" 
d="M72 27q20 27 34 70t23.5 96t14.5 110t7 111h57q-2 -54 -7 -111t-14 -110.5t-22.5 -96t-31.5 -69.5h-61zM26 -150l-9 200h70l-9 -200h-52zM47 0l-13 50h473l-30 -50h-430zM447 -150l-9 200h69l-9 -200h-51zM365 0v414h65v-414h-65zM185 363v51h210v-51h-210z" />
    <glyph glyph-name="uni0435" unicode="&#x435;" horiz-adv-x="456" 
d="M247 -9q-59 0 -104 24.5t-70.5 70t-25.5 107.5q0 69 28.5 120.5t77 80t109.5 28.5q74 0 111 -42t37 -115q0 -8 -0.5 -17.5t-1.5 -17.5h-59v35q0 54 -22 81.5t-69 27.5q-44 0 -77 -21.5t-51 -59.5t-18 -91q0 -72 41 -114.5t107 -42.5q34 0 65 12t60 39l25 -37
q-27 -25 -54.5 -40t-54.5 -21.5t-54 -6.5zM85 230l9 43h305v-43h-314z" />
    <glyph glyph-name="uni0436" unicode="&#x436;" horiz-adv-x="637" 
d="M541 0l-196 211l188 203h86l-229 -222v47l239 -239h-88zM8 0l239 239v-47l-229 222h87l187 -203l-196 -211h-88zM286 0v414h65v-414h-65z" />
    <glyph glyph-name="uni0437" unicode="&#x437;" horiz-adv-x="387" 
d="M180 -9q-52 0 -91 18t-62 45l26 49q25 -30 60 -46.5t74 -16.5q46 0 73.5 21.5t27.5 55.5q0 33 -24 54t-86 21h-45v45h45q46 0 69 20t23 51q0 28 -22.5 47t-63.5 19q-36 0 -65 -15t-47 -38l-27 40q26 32 66 47t83 15q61 0 100.5 -27t39.5 -79q0 -36 -18 -61.5t-49 -38
t-69 -12.5v23q73 0 112.5 -28t39.5 -82q0 -39 -23 -67.5t-61.5 -44t-85.5 -15.5z" />
    <glyph glyph-name="uni0438" unicode="&#x438;" horiz-adv-x="533" 
d="M388 0l5 414h63v-414h-68zM78 0v414h67l-5 -414h-62zM120 0v30l258 384h38v-31l-258 -383h-38z" />
    <glyph glyph-name="uni0439" unicode="&#x439;" horiz-adv-x="533" 
d="M388 0l5 414h63v-414h-68zM78 0v414h67l-5 -414h-62zM120 0v30l258 384h38v-31l-258 -383h-38zM265 498q-44 0 -78.5 21t-55.5 56l45 40q21 -34 48 -49.5t57 -15.5q34 0 59 17t42 49l32 -20q-19 -47 -59 -72.5t-90 -25.5z" />
    <glyph glyph-name="uni043A" unicode="&#x43a;" horiz-adv-x="456" 
d="M358 0l-219 216l214 198h88l-254 -217v47l261 -244h-90zM78 0v414h67v-414h-67z" />
    <glyph glyph-name="uni043B" unicode="&#x43b;" horiz-adv-x="494" 
d="M35 -5l-3 60q35 5 54.5 46t30 119.5t16.5 193.5h60q-5 -87 -12 -154.5t-18.5 -116.5t-28.5 -81t-41 -48.5t-58 -18.5zM349 0v414h67v-414h-67zM168 363v51h210v-51h-210z" />
    <glyph glyph-name="uni043C" unicode="&#x43c;" horiz-adv-x="616" 
d="M78 0l18 413h44l-9 -413h-53zM473 0l-6 382l24 12l-172 -375h-29l-167 358l4 36h36l157 -322h-18l151 322h67l19 -413h-66z" />
    <glyph glyph-name="uni043D" unicode="&#x43d;" horiz-adv-x="520" 
d="M375 0v414h67v-414h-67zM78 0v414h67v-414h-67zM110 182v51h300v-51h-300z" />
    <glyph glyph-name="uni043E" unicode="&#x43e;" horiz-adv-x="519" 
d="M253 -8q-61 0 -108.5 27t-75 74.5t-27.5 108.5q0 64 29.5 114t80.5 78.5t115 28.5q61 0 108.5 -27t75 -74.5t27.5 -108.5q0 -64 -29 -114t-80 -78.5t-116 -28.5zM262 40q45 0 77 22.5t49 60.5t17 83q0 52 -19.5 89.5t-52.5 58t-75 20.5q-44 0 -76.5 -21.5t-49.5 -59
t-17 -83.5q0 -52 19.5 -90t53 -59t74.5 -21z" />
    <glyph glyph-name="uni043F" unicode="&#x43f;" horiz-adv-x="515" 
d="M370 0v414h68v-414h-68zM78 0v414h67v-414h-67zM110 363v51h295v-51h-295z" />
    <glyph glyph-name="uni0440" unicode="&#x440;" horiz-adv-x="529" 
d="M275 -5q-54 0 -94.5 26t-61.5 75l19 22q21 -36 53.5 -55t72.5 -19q45 0 78.5 21.5t52.5 59t19 86.5q0 46 -16.5 82.5t-46.5 58t-72 21.5q-37 0 -74 -19.5t-66 -65.5l-25 14q33 60 78 88.5t104 28.5q58 0 101 -26t66.5 -71.5t23.5 -104.5q0 -64 -28.5 -114t-76 -79
t-107.5 -29zM78 -289v703h56l12 -87v-605z" />
    <glyph glyph-name="uni0441" unicode="&#x441;" horiz-adv-x="437" 
d="M252 -8q-61 0 -108 26.5t-74.5 74t-27.5 108.5q0 64 29 114t79 79t113 29q43 0 77 -14t61 -38l-29 -53q-25 26 -54 40t-63 14q-43 0 -75 -22t-48.5 -59t-16.5 -83q0 -49 20 -86t55.5 -57t79.5 -20q31 0 61 12.5t54 35.5l23 -39q-23 -22 -49 -36t-53 -20t-54 -6z" />
    <glyph glyph-name="uni0442" unicode="&#x442;" horiz-adv-x="444" 
d="M188 0v414h68v-414h-68zM24 363v51h396v-51h-396z" />
    <glyph glyph-name="uni0443" unicode="&#x443;" horiz-adv-x="469" 
d="M229 -31l-203 445h75l159 -366zM374 414h69l-285 -703h-73l148 314z" />
    <glyph glyph-name="uni0444" unicode="&#x444;" horiz-adv-x="582" 
d="M259 -289v941l63 11v-941zM275 -8q-67 0 -120 25t-83 72.5t-30 112.5q0 63 29 112.5t81.5 78.5t122.5 29v-48q-57 0 -94.5 -22t-56 -59t-18.5 -83q0 -51 21.5 -89t59 -59.5t88.5 -21.5v-48zM311 -8v48q50 0 86.5 20t57 57.5t20.5 88.5t-20.5 88t-57 58t-86.5 22v48
q65 0 116.5 -25.5t82 -72t30.5 -111.5q0 -63 -29 -112.5t-80 -78t-120 -30.5z" />
    <glyph glyph-name="uni0445" unicode="&#x445;" horiz-adv-x="446" 
d="M21 0l167 213l-153 201h85l110 -156l111 156h75l-154 -198l163 -216h-85l-120 172l-122 -172h-77z" />
    <glyph glyph-name="uni0446" unicode="&#x446;" horiz-adv-x="533" 
d="M368 0v414h68v-414h-68zM110 0v51h293v-51h-293zM78 0v414h67v-414h-67zM399 0v51h112l-29 -51h-83zM454 -150l-11 201h68l-6 -201h-51z" />
    <glyph glyph-name="uni0447" unicode="&#x447;" horiz-adv-x="480" 
d="M206 148q-68 0 -108 38.5t-40 104.5v123h67v-100q0 -54 27.5 -84.5t79.5 -30.5q22 0 45 5.5t43 13t31 14.5l13 -36q-17 -13 -43 -24t-56 -17.5t-59 -6.5zM334 0v414h69v-414h-69z" />
    <glyph glyph-name="uni0448" unicode="&#x448;" horiz-adv-x="748" 
d="M110 0v51h265v-51h-265zM78 0v414h65v-414h-65zM604 0v414h66v-414h-66zM372 0v51h265v-51h-265zM341 0v414h66v-414h-66z" />
    <glyph glyph-name="uni0449" unicode="&#x449;" horiz-adv-x="767" 
d="M633 0v51h113l-30 -51h-83zM688 -150l-11 201h69l-6 -201h-52zM110 0v51h265v-51h-265zM78 0v414h65v-414h-65zM604 0v414h66v-414h-66zM372 0v51h265v-51h-265zM341 0v414h66v-414h-66z" />
    <glyph glyph-name="uni044A" unicode="&#x44a;" horiz-adv-x="477" 
d="M133 0v414h66v-363h89q47 0 73 21.5t26 60.5q0 41 -30 64.5t-84 23.5h-93v50h105q38 0 68.5 -8.5t52 -25.5t32.5 -40t11 -53q0 -43 -22.5 -75.5t-62.5 -50.5t-95 -18h-136zM17 363v51h148v-51h-148z" />
    <glyph glyph-name="uni044B" unicode="&#x44b;" horiz-adv-x="600" 
d="M78 0v414h66v-363h74q45 0 69.5 21.5t24.5 60.5q0 41 -28.5 64.5t-79.5 23.5h-79v50h90q50 0 85.5 -15t54.5 -43.5t19 -68.5q0 -43 -22 -75.5t-61 -50.5t-92 -18h-121zM454 0v414h69v-414h-69z" />
    <glyph glyph-name="uni044C" unicode="&#x44c;" horiz-adv-x="422" 
d="M78 0v414h66v-363h88q47 0 73.5 21.5t26.5 60.5q0 41 -30 64.5t-84 23.5h-90v50h102q38 0 68.5 -8.5t51.5 -25.5t32.5 -40t11.5 -53q0 -43 -22.5 -75.5t-62.5 -50.5t-95 -18h-136z" />
    <glyph glyph-name="uni044D" unicode="&#x44d;" horiz-adv-x="440" 
d="M175 -8q-44 0 -81 12t-66 34l23 50q28 -21 61 -32.5t69 -11.5q49 0 82 19.5t50.5 56t17.5 86.5q0 51 -21 89t-56 58.5t-79 20.5q-32 0 -61.5 -11t-54.5 -31l-21 40q34 27 74 39t77 12q62 0 109 -27t73.5 -74t26.5 -109q0 -63 -29.5 -113.5t-79 -79t-114.5 -28.5zM104 182
l4 50l255 -2l-4 -43z" />
    <glyph glyph-name="uni044E" unicode="&#x44e;" horiz-adv-x="692" 
d="M78 0v414h66v-414h-66zM110 182v51h162v-51h-162zM434 -8q-58 0 -102 26.5t-68 73.5t-24 110q0 66 26.5 115.5t73 77.5t107.5 28q59 0 105 -26.5t72 -73.5t26 -110q0 -67 -28.5 -116.5t-77 -77t-110.5 -27.5zM441 42q44 0 75 22t47 59.5t16 83.5q0 78 -40 121.5
t-102 43.5q-63 0 -97.5 -46t-34.5 -117q0 -79 38 -123t98 -44z" />
    <glyph glyph-name="uni044F" unicode="&#x44f;" horiz-adv-x="474" 
d="M335 0v367h-100q-43 0 -67 -19.5t-24 -54.5q0 -38 28.5 -58t78.5 -20q21 0 54 2.5t58 7.5v-46q-26 -5 -58 -7t-55 -2q-78 0 -124 29.5t-46 89.5q0 59 44 92.5t122 33.5h151v-415h-62zM51 0l138 200l44 -20l-103 -180h-79z" />
    <glyph glyph-name="uni0450" unicode="&#x450;" horiz-adv-x="456" 
d="M247 -9q-59 0 -104 24.5t-70.5 70t-25.5 107.5q0 69 28.5 120.5t77 80t109.5 28.5q74 0 111 -42t37 -115q0 -8 -0.5 -17.5t-1.5 -17.5h-59v35q0 54 -22 81.5t-69 27.5q-44 0 -77 -21.5t-51 -59.5t-18 -91q0 -72 41 -114.5t107 -42.5q34 0 65 12t60 39l25 -37
q-27 -25 -54.5 -40t-54.5 -21.5t-54 -6.5zM85 230l9 43h305v-43h-314zM242 509l-129 197h77l103 -197h-51z" />
    <glyph glyph-name="uni0451" unicode="&#x451;" horiz-adv-x="456" 
d="M247 -9q-59 0 -104 24.5t-70.5 70t-25.5 107.5q0 69 28.5 120.5t77 80t109.5 28.5q74 0 111 -42t37 -115q0 -8 -0.5 -17.5t-1.5 -17.5h-59v35q0 54 -22 81.5t-69 27.5q-44 0 -77 -21.5t-51 -59.5t-18 -91q0 -72 41 -114.5t107 -42.5q34 0 65 12t60 39l25 -37
q-27 -25 -54.5 -40t-54.5 -21.5t-54 -6.5zM85 230l9 43h305v-43h-314zM153 518q-20 0 -33 12t-13 32t13 32.5t33 12.5t32.5 -12.5t12.5 -32.5t-12.5 -32t-32.5 -12zM344 518q-20 0 -33 12t-13 32t13 32.5t33 12.5t32.5 -12.5t12.5 -32.5t-12.5 -32t-32.5 -12z" />
    <glyph glyph-name="uni0452" unicode="&#x452;" horiz-adv-x="527" 
d="M282 -289l-39 26q47 64 79 137.5t49 152t17 157.5q0 92 -25.5 138t-81.5 46q-25 0 -53 -10t-53 -32t-44 -58l-24 23q23 44 56.5 72.5t71.5 42t74 13.5q47 0 80 -21.5t51 -69.5t18 -128q0 -82 -20 -168t-59 -168t-97 -153zM83 0v705l68 12v-717h-68zM336 530l-356 1l4 46
l356 5z" />
    <glyph glyph-name="uni0453" unicode="&#x453;" horiz-adv-x="384" 
d="M78 0v414h68v-414h-68zM113 362v52h247v-52h-247zM159 509l102 197h78l-129 -197h-51z" />
    </font>
</defs>
</svg>
